<?xml version="1.0" encoding="utf-8"?>
<!-- Generator: Adobe Illustrator 21.1.0, SVG Export Plug-In . SVG Version: 6.00 Build 0)  -->
<svg version="1.1" id="Layer_1" xmlns="http://www.w3.org/2000/svg" xmlns:xlink="http://www.w3.org/1999/xlink" x="0px" y="0px"
	 viewBox="0 0 360 360" style="enable-background:new 0 0 360 360;" xml:space="preserve">
<style type="text/css">
	.st0{fill:#414040;}
	.st1{fill:#181718;}
	.st2{fill:#7D7D7D;}
	.st3{fill:#6FA467;}
</style>
<g>
	<g>
		<g>
			<path class="st0" d="M103.5,336.7c-0.6-2.1-1-4.2-0.1-6.4c-2.7-1.4-5.3-2.7-8-4c-15.9-8-31.8-16.1-47.6-24.1
				c-2.5-1.3-4.1-3.5-6.1-5.4c-0.3-0.3-0.6-0.5-0.9-0.7c0-1.4,0-2.7,0-4.1c0.3-1.4,0.6-2.9,1-4.3c1.2,0,2.3-0.1,3.5,0
				c0.7,0,1.5,0.2,2.2,0.5c8.9,4.1,17.8,8.3,26.7,12.3c9.5,4.2,19.1,8.3,28.7,12.4c2.9,1.3,5.9,2.4,8.8,3.7
				c-0.1,0.4-0.2,0.8-0.3,1.1c-1.2,2.7-2.3,5.5-3.5,8.3c0.4,0.3,0.8,0.6,1.2,0.9c3.5-2.8,7-5.5,10.4-8.2c1.9-1.5,3.8-3,5.7-4.5
				c-0.3,0.8-0.5,1.6-0.8,2.4c-0.8,1.8-1.4,3.7-2.4,5.3c-0.8,1.2-2.1,2.2-1.7,3.8c-0.5,0.3-1,0.4-1.1,0.6c-0.7,1.7-1.3,3.3-1.8,5.1
				c-0.4,1.4-0.2,2.3,1.1,3.1c1.3,0.8,2.7,1.4,4.1,1.9c3.6,1.1,7.3,1.3,11.1,0.5c0.8-0.2,1.1-0.5,1-1.4c-0.3-3.1-0.5-6.3-0.8-9.4
				c-0.1-1.2-0.6-2.3-0.9-3.4c-0.1-0.5-0.2-1.1-0.1-1.6c1.4-4.9,2.2-9.6-2.1-13.8c2.6-3.1,2.6-6.8,2.5-10.5
				c-0.2-5.6-0.3-11.2-0.4-16.8c0.1,0.2,0.4,0.3,0.4,0.5c0.3,3.1,0.6,6.2,1,9.2c0.5,3.6,1.1,7.1,1.7,10.7c0.1,0.9,0.2,1.8,0.2,2.7
				c0.2,4.6,0.4,9.2,0.6,13.8c0.1,2.1,1.1,3,3.1,3.2c0.2,0,0.5,0.1,0.7,0.1c-0.9,0.3-1.7,0.6-2.6,0.8c-0.8,0.2-1,0.6-1,1.4
				c0,5,0,9.9,0,14.9c0,1.3,0.2,1.4,1.5,1.1c2.8-0.7,5.6-1.3,8.5-2.1c3.2-0.9,6.4-1.8,9.6-2.7c1-0.3,1.2-0.9,0.8-1.8
				c-0.3-0.9-0.7-1.8-1-2.7c-0.6-2-1.6-4.1-1.8-6.1c-0.3-2.6-0.5-5.1-1.6-7.4c-0.2-0.4-0.2-0.8-0.3-1.2c0.4,0,0.8,0.2,1.1,0.1
				c5.3-1.4,10.6-2.8,15.9-4.3c6.3-1.9,12.5-3.9,18.8-5.9c0.4-0.1,0.7-0.5,1.1-0.7c0.4,0,0.8,0,1.2,0c1.1,0.6,2.2,1.2,3.3,1.7
				c0.4,0.2,1,0.2,1.3,0c1.2-0.8,2.3-1.7,3.5-2.6c0.9,0.8,1.7,1.7,2.7,2.5c1,0.8,2.2,1.4,3.6,2.3c0-0.9,0-1.3,0-1.8
				c-0.1-14.9-0.2-29.9-0.2-44.8c0-1.3,0.2-2.6,0.2-3.9c0-7.3,0-14.5,0-21.8c0-0.5,0.3-1,0.4-1.5c0.1-0.9,0.2-1.9,0.1-2.8
				c-0.1-0.8-0.6-1.7-0.4-2.5c0.3-1.3,0.7-2.5-0.3-3.7c-0.1-0.1,0-0.5,0.1-0.7c0.2-1.1-0.9-2.2-2-2.2c-0.7,0-1.3,0-2,0.1
				c-0.2,0-0.3,0-0.5,0c0.5-12.3,0.9-24.6,1.4-36.9c0.3-7.5,0.7-15.1,1.1-22.6c0.5-9.9,1-19.8,1.4-29.7c0.1-2.4,0.3-4.9,0.4-7.4
				c-2.1-0.2-4.2-0.4-6.3-0.6c-4.5-0.4-9.1-0.9-13.6-1.3c-8.8-0.8-17.3-3.4-25.9-5c-4.3-0.8-8.7-1.9-13-2.8c-2.5-0.5-4.1-2-4.3-4.5
				c-0.3-4.1,0.8-5.9,4.1-7.6c0.8-0.4,2.1-0.2,3.1-0.1c6.9,1.2,13.7,2.4,20.6,3.8c3.5,0.7,6.7,0.5,9.6-1.8c3.9,2.4,7.8,4.8,12.1,6.5
				c1.9,0.7,3.6,1.9,5.1,3.2c2.4,2,3.4,4.6,3.3,7.7c0,0.5-0.2,1.1,0.7,1.2c1.5,0,3.1-0.4,4.5,0.7c0.1,0,0.2,0,0.2,0
				c1.7-0.1,3.7-1.8,4.1-3.4c1.1-4.2,0.6-8.6,1-12.8c0.1-1.4-0.4-2.5-1.4-3.5c-0.4-0.4-0.5-1-0.8-1.5c1.1-0.4,2.2-0.7,3.4-1.2
				c-0.7-0.2-1.2-0.4-1.8-0.6c-4.6-1.5-6.4-5.1-4.4-9.6c0.8-1.9,2.2-3.7,3.4-5.4c0.7-1,1.4-1.9,2.2-2.9c-0.7-0.3-1.3-0.5-1.9-0.8
				c-4-1.7-5.4-4.1-4.7-8.5c0.1-0.7,0.3-1.4,0.5-2.1c1.7,0.1,3.5,0,5.2,0.3c1.1,0.2,1.2-0.2,1.2-1.1c0-1.5,0-3,0-4.5
				c0.2-0.8,0.4-1.6,0.5-2.4c0.1-0.2,0.2-0.3,0.2-0.5c0.2-3.2,0.5-6.4,0.7-9.5c0.3-5.6,0.6-11.1,1-16.7c0.2-4.1,0.5-8.2,0.7-12.3
				c0.3-5.6,0.7-11.2,1-16.8c0-0.5-0.1-1-0.2-1.5c0.2-0.2,0.5-0.7,0.7-0.7c1.8,0.1,3.5,0.3,5.3,0.4c-1.1,0.1-2.2,0.2-3.3,0.2
				c-0.8,0-1.1,0.3-1.1,1.1c0,1-0.2,1.9-0.2,2.8c-0.5,5.2-1,10.4-1.4,15.7c-0.3,4.6-0.4,9.2-0.5,13.9c-0.2,6-0.3,12-0.5,17.9
				c-0.1,2.3-0.2,4.6-0.2,6.9c-0.2,5.7-0.3,11.5-0.5,17.2c-0.1,2.5-0.2,5-0.2,7.5c-0.2,5.7-0.3,11.4-0.5,17.1
				c-0.1,2.6-0.2,5.3-0.2,7.9c-0.1,3.7-0.2,7.3-0.2,11c0,2.9,0,5.8-0.1,8.7c0,2.7-0.2,5.3-0.2,8c0,1.8,2.2,3.6,3.9,3.7
				c1.2,0,2.4,0.1,3.5,0.2c-0.3,0.1-0.6,0.2-0.9,0.2c-2.1,0.3-4.2,0.7-6.3,1c-0.7,0.1-1,0.4-0.9,1.1c0,5.7,0,11.5,0.1,17.2
				c-0.1,2.3-0.2,4.6-0.2,6.9c-0.2,6.4-0.5,12.8-0.7,19.2c-0.1,4,0.2,8.1-0.2,12.1c-0.5,5.6,0.4,11,2,16.3c-2.5,2.8-3.2,6-3.2,9.8
				c0.2,13.6,0.1,27.1,0.1,40.7c0,2.4-0.3,2,2,2.1c0.4,0,0.8,0,1.2,0.1c-0.5,0.8-1.1,1.6-1.5,2.4c-0.3,0.6-0.7,1.3-0.7,2
				c0,8.8,0.1,17.5,0.2,26.3c-0.2,1.5-0.4,3-0.5,4.5c-0.2,2.6-0.3,5.3-0.6,8c-0.3,2.9-0.8,5.9-1.1,8.8c-0.2,2-1,2.7-3,2.7
				c-0.4,0-0.7,0-1.1,0c-1-3.5-2-7.1-3.1-10.8c-0.8,1.4-1.4,2.6-2,3.8c-2.6,5-5.6,9.9-7.1,15.4c-0.3,1,0.8,2.9,1.9,2.9
				c4.7,0.2,8.2-0.1,11.3-5.3c1.1,0.2,2.1,0.3,3.2,0.5c5.9,1.2,11.1,3.7,15,8.3c1.4,1.6,2.4,3.4,2.6,5.5c0.2,1.9,0.2,1.9-1.7,1.7
				c-3.3-0.2-6.7-0.5-10-0.7c-4.4-0.3-8.9-0.6-13.3-1c-3.5-0.2-7.1-0.5-10.6-0.8c-0.4,0-0.9-0.4-1-0.6c-0.5-1.8-1.4-3.5-0.9-5.4
				c0.2-1,0-2.1,0-3.3c-1.6,0.6-3,1.1-4.3,1.7c-0.7,0.3-1.4,0.8-2.1,1.2c-2.5,1.3-4.5,3.5-7.7,3.6c-1.9,0.1-3.8,0.9-5.7,1.4
				c-6.8,1.7-13.5,3.6-20.5,4.1c-3.1,0.2-6.3,0.2-9.4,0.2c-0.2,0-0.3-0.1-0.5-0.1c-4.8-2.1-9.6-4.2-14.4-6.4c-0.4-0.2-0.6-0.5-1-0.8
				c-0.5-0.4-0.9-1-1.5-1.3c-4.5-2-9-3.9-13.5-5.9C106.2,335.4,104.8,335.1,103.5,336.7z M181.3,324.5c-2.1,0.4-4.1,0.8-6.1,1.1
				c-2.1,0.4-4.3,0.6-6.4,1.3c-2.3,0.7-4.5,1.9-6.7,2.9c-0.3,0.1-0.6,0.4-0.9,0.6c-0.6,0.5-0.5,1,0.1,1.5c0.9,0.7,1.8,1.6,2.8,2.2
				c0.9,0.7,1.9,1.2,3.2,0.5c1.1-0.6,2.4-1,3.5-1.6c3.5-1.9,6.9-3.8,10.4-5.6c0.9-0.5,1.1-1,0.7-1.9
				C181.7,325.2,181.5,324.9,181.3,324.5z M206.8,176.3c-0.1,0-0.3,0-0.4,0c-0.5,10.3-1,20.5-1.6,30.8c1.4,0,2-0.2,2-1.5
				C206.8,195.8,206.8,186,206.8,176.3z"/>
			<path class="st0" d="M268.8,3.8c0,0.1,0,0.1,0,0.2c-0.2,3.8-0.5,7.7-0.7,11.5c-0.1,2.1-0.3,4.1-0.5,6.2
				c-0.3,3.6-0.6,7.2-0.9,10.8c-0.2,2.4-0.3,4.8-0.5,7.1c-0.3,3.6-0.6,7.2-0.9,10.8c-0.2,2.5-0.3,5.1-0.5,7.6
				c-0.3,4.4-0.6,8.7-0.9,13.1c-0.2,2.4-0.3,4.8-0.5,7.1c-0.3,3.9-0.6,7.8-0.9,11.6c-0.2,2-0.5,3.9-0.7,5.9c-0.1,0.8-0.4,1-1.1,1.1
				c-1.3,0.2-2.7,0.4-4,0.7c-4,0.8-6.7-0.3-8.4-3.3c-0.4-0.7-0.6-1.4-1.1-2.4c-0.5,1.1-0.8,1.9-1.2,2.6c-0.2,0.3-0.7,0.7-1,0.7
				c-2.7-0.1-5.3-0.3-8-0.4c-0.7,0-1-0.2-1.2-1c-0.8-2.9-0.7-5.8-0.7-8.7c6.2,0,12.4,0,18.6,0c0.5-2.8,1-5.6,1.5-8.4
				c0.4-2.2,0.6-2.3,2.8-3.2c0.2,0.3,0.5,0.7,0.8,1.1c1.1-1.2,2.1-2.3,3.2-3.6c-0.9-0.4-1.8-0.7-2.7-1.1c-3.4-1.6-4.2-3.1-3.6-6.8
				c0.1-0.9,0.4-1.8,0.7-2.8c2.2,0.5,4.4,0.9,6.8,1.4c-0.4-1.9-0.8-3.6-1.2-5.3c0.3-0.2,0.5-0.3,0.8-0.5c0.3-0.4,0.8-0.7,0.9-1.1
				c0.2-1.6,0.4-3.2,0.5-4.9c0.3-4.1,0.7-8.3,1-12.4c0.4-5.1,0.9-10.2,1.4-15.2c0.4-4.5,0.8-9.1,1.2-13.6c0.1-1.5,0.1-3,0.2-4.5
				c0-0.2,0.1-0.4,0.1-0.6C268.2,3.8,268.5,3.8,268.8,3.8z"/>
			<path class="st1" d="M235,85.2c0,2.9-0.2,5.8,0.7,8.7c0.2,0.7,0.5,0.9,1.2,1c2.7,0.1,5.3,0.3,8,0.4c0.4,0,0.8-0.4,1-0.7
				c0.4-0.7,0.7-1.5,1.2-2.6c0.4,1,0.7,1.8,1.1,2.4c1.7,3.1,4.4,4.1,8.4,3.3c1.3-0.3,2.6-0.5,4-0.7c0.7-0.1,1.1-0.3,1.1-1.1
				c0.2-2,0.5-3.9,0.7-5.9c0.3-3.9,0.6-7.8,0.9-11.6c0.2-2.4,0.3-4.8,0.5-7.1c0.3-4.4,0.6-8.7,0.9-13.1c0.2-2.5,0.3-5.1,0.5-7.6
				c0.3-3.6,0.6-7.2,0.9-10.8c0.2-2.4,0.3-4.8,0.5-7.1c0.3-3.6,0.6-7.2,0.9-10.8c0.2-2.1,0.4-4.1,0.5-6.2c0.3-3.8,0.5-7.7,0.7-11.5
				c3,0,6.1,0,9.2,0c0.1,1.9,0.2,3.7,0.3,5.6c0.4,8,0.8,15.9,1.2,23.9c0.4,8.9,0.9,17.9,1.3,26.8c0.3,7.1,0.7,14.3,1,21.4
				c0.1,2.9,0.1,5.7,0.2,8.6c0.1,2.8,0.3,5.6,0.5,8.4c0.1,1.2,0,2.3,0,3.5c0.2,5.7,0.5,11.5,0.6,17.2c0.2,7.2,0.4,14.5,0.6,21.7
				c1.1,28.4,0.4,56.8,0.6,85.3c0.1,12.9-0.1,25.8-0.2,38.7c0,3,1.2,5.3,3.7,6.9c5.6,3.5,10.7,7.6,14.9,12.6
				c2.9,3.4,6.1,6.7,8.8,10.3c4.5,6,6.4,12.9,5.8,20.4c-0.6,7-3.5,13.1-8,18.4c-5.3,6.3-12.1,10.3-19.4,13.6
				c-8.4,3.8-17.3,6.1-26.4,7.5c-9.3,1.5-18.6,1.5-28,1.3c-3.1-0.1-6.2,0-9.2-0.2c-3.1-0.2-6.2-0.8-9.2-1.2
				c-6-0.8-11.9-1.7-17.9-2.6c-4.1-0.6-8.1-1.5-12.2-2.2c-0.4-0.1-1,0-1.4,0.1c-6,2.3-12.1,4.1-18.5,5.2c-8.7,1.4-17.4,1.3-26-1.2
				c-3-0.9-5.8-2.5-8.8-3.8c-9.2-3.8-18.4-7.7-27.6-11.4c-0.9-0.4-1.4-0.9-1.4-1.9c1.2-1.6,2.7-1.3,4.3-0.6c4.5,2,9,3.9,13.5,5.9
				c0.6,0.3,1,0.9,1.5,1.3c0.3,0.3,0.6,0.7,1,0.8c4.8,2.1,9.6,4.3,14.4,6.4c0.1,0.1,0.3,0.1,0.5,0.1c3.1-0.1,6.3,0,9.4-0.2
				c7-0.4,13.8-2.4,20.5-4.1c1.9-0.5,3.8-1.4,5.7-1.4c3.2-0.1,5.2-2.3,7.7-3.6c0.7-0.4,1.4-0.9,2.1-1.2c1.3-0.6,2.7-1.1,4.3-1.7
				c0,1.2,0.2,2.3,0,3.3c-0.4,2,0.5,3.7,0.9,5.4c0.1,0.3,0.6,0.6,1,0.6c3.5,0.3,7.1,0.5,10.6,0.8c4.4,0.3,8.9,0.6,13.3,1
				c3.3,0.2,6.7,0.5,10,0.7c1.9,0.1,1.9,0.1,1.7-1.7c-0.2-2.2-1.3-3.9-2.6-5.5c-4-4.6-9.1-7.1-15-8.3c-1-0.2-2.1-0.3-3.2-0.5
				c-0.3-2-0.7-4-1-6c0.4,0,0.7,0,1.1,0c2,0,2.7-0.7,3-2.7c0.3-2.9,0.8-5.9,1.1-8.8c0.3-2.6,0.3-5.3,0.6-8c0.1-1.5,0.3-3,0.5-4.5
				c3.2-0.4,6.4-0.7,9.6-1.1c5.7-0.7,11.5-1.4,17.2-2.1c2-0.2,4-0.5,6-0.8c0-0.4,0-0.6,0-0.9c0-8.2,0-16.5,0-24.7
				c0-0.8,0-1.7-0.1-2.5c-0.1-0.3-0.5-0.9-0.8-0.9c-1.4-0.2-2.8-0.3-4.2-0.2c-8.6,0.8-17.2,1.6-25.9,2.4c-0.4,0-0.8,0-1.2-0.1
				c-2.3,0-2,0.3-2-2.1c0-13.6,0.1-27.1-0.1-40.7c0-3.7,0.7-7,3.2-9.8c0.4,0,0.8,0,1.2,0c7.9-0.7,15.8-1.5,23.7-2.2
				c1.2-0.1,2.4-0.3,3.7-0.4c-0.1-2.7-0.2-5.2-0.4-7.8c-0.4-7.1-0.8-14.1-1.1-21.2c-0.2-5.7-0.3-11.3-0.5-17c0-0.4-0.2-0.7-0.3-1.1
				c-0.2-0.5-0.5-1-0.6-1.4c-0.1-1.6,0-3.2,0-4.8c-0.6,0-1,0-1.4,0c-5.3,0.3-10.6,0.5-15.9,0.8c-3.1,0.2-6.2,0.4-9.3,0.5
				c0-5.7,0-11.5-0.1-17.2c0-0.7,0.3-1,0.9-1.1c2.1-0.3,4.2-0.6,6.3-1c0.3,0,0.6-0.2,0.9-0.2c5.8-0.4,11.6-0.9,17.2-1.3
				c0-3,0.4-5.9-0.1-8.6c-0.7-3.5-0.8-6.9-0.8-10.3c0-0.5,0-1,0-1.7c-8,0.5-15.8,0.9-23.6,1.3c0.1-3.7,0.2-7.3,0.2-11
				c0.1-2.6,0.2-5.3,0.2-7.9c0.2-5.7,0.3-11.4,0.5-17.1c0.1-2.5,0.2-5,0.2-7.5c0.2-5.7,0.3-11.5,0.5-17.2c0.1-2.3,0.2-4.6,0.2-6.9
				c0.2-6,0.3-12,0.5-17.9c0.1-4.6,0.2-9.2,0.5-13.9c0.3-5.2,0.9-10.4,1.4-15.7c0.1-0.9,0.2-1.9,0.2-2.8c0-0.8,0.3-1.1,1.1-1.1
				c1.1,0,2.2-0.2,3.3-0.2c1.8,0.1,3.6,0.2,5.4,0.3c0.4,3.2,0.7,6.3,1,9.5c0.6,5.5,1.2,11,1.8,16.5c0.5,4.8,1,9.5,1.5,14.3
				c0.6,5.5,1.2,10.9,1.8,16.4c0.5,5,1.1,9.9,1.6,14.9C234.5,80.8,234.7,83,235,85.2z M246.2,256.8c0,8.9,0,17.7,0,26.6
				c0,0.3,0,0.6,0,0.8c0,0.1,0.1,0.2,0.2,0.3c0,0,0.1,0,0.1,0c0,0,0.1,0,0.3,0c0.1-1.2,0.3-2.3,0.3-3.5c0.2-3.3,0.3-6.7,0.5-10
				c0.2-4.7,0.3-9.5,0.5-14.2c0.2-3.3,0.5-6.6,0.7-10c-2.1,1-3.5,2.8-3.4,4.8C245.6,253.4,246,255.1,246.2,256.8z M252.2,183.5
				c0.2-0.3,0.5-0.6,0.7-0.9c1.6,1.6,2.5,3.4,2.7,5.7c0.1,1.4,0,2.8,0,4.4c2.5-0.3,4.9-0.5,7.2-0.8c0.9-0.1,1.7-0.2,2.6-0.2
				c3.5-0.3,7.1-0.5,10.6-0.8c2-0.1,3.9-0.3,5.9-0.5c0-16.2,0-32.3,0-48.5c-0.7,0.1-1.4,0.1-2.1,0.2c-4,0.3-8,0.8-12,1
				c-2.7,0.2-5.4,0.1-8.1,0.1c-1-2.5-1.1-5.2-0.9-7.8c0.3-3.3,0.6-6.6,0.9-9.9c3.6,0,7.3,0,10.9,0c2.3,0,4.6,0.1,7,0
				c2.4-0.1,4.3-1,4-4.3c-0.1-0.9-0.3-1.7-0.3-2.6c-0.1-3.4-0.1-6.7-0.2-10.1c0-0.4,0-0.8-0.1-1.3c-0.6,0-1.1,0-1.6,0
				c-5.8,0-11.6,0-17.4,0c-0.1,0-0.1,0.1-0.2,0.1c0,0.8,0,1.6-0.2,2.4c-0.6,2.4-1.4,4.8-2.1,7.2c-0.3-0.7-0.7-1.4-0.9-2.1
				c-0.3-1-0.6-2-0.9-3c-0.5,1-0.8,2-1.1,2.9c-0.1,0.3-0.3,0.7-0.5,0.7c-1.3,0.2-2.6,0.2-4,0.3c0.2-2.4,0.4-4.4,0.6-6.5
				c0.2-1.7,0.3-3.3,0.5-5c0.4-2.3,0.2-2.7-2.1-3.1c-5.1-1.4-10.1-2.8-15.3-4.2c0,0.3,0,0.6,0,0.8c0.5,7.4,0.9,14.7,1.4,22.1
				c0.3,4.8,0.7,9.6,1,14.4c0.2,3.3,0.5,6.7,0.7,10c0.4,5.9,0.9,11.8,1.4,17.7c0.4,4.5,0.7,8.9,1.1,13.4c0.4,4.2,0.9,8.4,1.3,12.6
				c0.1,2.9,0.3,5.9,0.4,8.8c0.2,5.3,0.3,10.5,0.5,15.8c0.1,3.6,0.2,7.3,0.2,10.9c0,3.8,1.3,7.3,3.1,10.5c1.3,2.3,3.7,2.6,6,2.8
				c4,0.4,7.7-0.9,11.2-2.9c2.3-1.3,4.3-3.1,5.8-5.3c0.2-0.3,0.4-1,0.2-1.3c-0.9-1.6-4.5-3.1-6.3-2.8c-2.2,0.4-4,1.4-5.9,2.6
				c-2.3,1.4-4.6,2.8-7,4.1c-0.2,0.1-0.4,0.1-0.7,0.1c-0.1-1.7-0.2-3.3-0.3-5c0-0.4-0.2-0.8-0.2-1.2c0.1-0.8,0.2-1.5,0.2-2.3
				c0.1-4.8,0.1-9.5,0.3-14.3c0.2-4.1,0.5-8.3,0.8-12.4C251.6,192,251.9,187.7,252.2,183.5z M261.4,321.8c2.7,2.4,5.2,4.7,7.9,6.9
				c5.1,4,10.8,5.7,17.2,4c3.1-0.9,5.8-2.6,8.1-4.9c1.9-1.9,1.9-2.1,0.6-4.4c-1.1-2-2.4-3.9-3.6-5.9c-1.1-1.8-2.5-3.1-4.8-2.8
				c-0.9,0.1-1.8,0-2.8,0c-5.1,0.2-9.1-2.2-12.5-5.7c-4.2-4.3-8.2-8.8-12.3-13.2c-0.4-0.5-1-0.8-1.6-1.1c-3.6-1.4-7.3-2.4-11.2-2.7
				c0,0.1-0.1,0.2-0.1,0.3c0,3.8,0,7.5,0,11.3c0,0.3,0.1,0.7,0.3,0.9c1.5,1.1,2.9,2.7,4.6,3.1c2.9,0.7,5.4,2.1,7.9,3.5
				c2.6,1.5,4.9,3.2,5.5,6.5c0.1,0.7,0.2,1.3-0.5,1.8C263.1,320.1,262.3,321,261.4,321.8z M282.3,238.4c-0.1,0-0.2-0.1-0.3-0.1
				c-5,0.3-10.1,0.5-15.1,0.8c-0.1,0-0.2,0-0.2,0.1c-4.6,0.7-8.7,2.8-12.8,4.9c-1,0.5-1.4,1.3-1.4,2.4c0,6.9,0,13.8,0,20.7
				c0,0.4,0,0.8,0,1.3c9.7-1.2,19.2-2.3,28.6-3.5C281.5,256.1,281.9,247.3,282.3,238.4z"/>
			<path class="st2" d="M200.4,221.5c0.2,0,0.3,0,0.5,0c-0.1,1.8-0.2,3.7-0.2,5.5c0,3.6,0,7.1,0,10.7c0,2.1-0.8,3.5-2.5,4.6
				c-13.5,8.8-26.9,17.5-40.4,26.3c-0.7,0.5-1.3,1.1-1.8,1.8c-2.3,3.5-4.6,7-6.9,10.5c-0.3,0.4-0.6,0.8-1,1.5
				c-0.5-1.4-0.8-2.5-1.2-3.6c-1-3-1.9-6-2.9-9c-0.4-2.1-0.8-4.2-1.2-6.3c0.4-1.6,0.8-3.3,1.1-4.9c1.4-0.9,2.8-1.9,4.2-2.8
				c8.8-5.7,17.7-11.5,26.5-17.2c0.7-0.4,1.3-0.9,1.9-1.4c0.4-0.2,0.8-0.3,1.2-0.5c1.6-1,3.2-2,4.7-3c0.4-0.3,0.9-0.6,1.5-1.1
				c-7.6-2.4-15-4.7-22.3-7c0.8-3.6,2.2-6.7,4.8-9.5c2.4-2.6,2.3-2.6,5.7-1.8c7.5,1.9,15,3.7,22.5,5.6c1.5,0.4,3,0.8,4.5,1.2
				C199.6,221.5,200,221.5,200.4,221.5z"/>
			<path class="st2" d="M111.6,316.6c-2.9-1.2-5.9-2.4-8.8-3.7c-9.6-4.1-19.2-8.1-28.7-12.4c-9-4-17.8-8.2-26.7-12.3
				c-0.7-0.3-1.5-0.4-2.2-0.5c-1.2-0.1-2.3,0-3.5,0c1.6-2.4,2.9-5.2,5-7.3c2.3-2.3,5.1-4.5,8.7-3.9c1.5,0.2,3.1,0.7,4.5,1.4
				c6.3,2.9,12.5,5.8,18.8,8.7c8,3.7,16,7.3,24.1,10.8c2.3,1,4.8,1.5,7.2,2.3c0.2,0.1,0.5,0,0.7,0c0.4,0.3,0.7,0.8,1.1,1
				c3.7,2.2,7.4,4.3,11,6.5c-1.4,0.9-2.8,1.8-4.3,2.6c-1.7,1-3.3,1.9-4.5,3.6C113.5,314.6,112.5,315.5,111.6,316.6z"/>
			<path class="st2" d="M132.8,279.8c0.1,5.6,0.2,11.2,0.4,16.8c0.1,3.8,0.2,7.5-2.5,10.5c4.3,4.1,3.6,8.9,2.1,13.8
				c-0.1,0.5-0.1,1.1,0.1,1.6c0.3,1.1,0.7,2.3,0.9,3.4c0.3,3.1,0.5,6.3,0.8,9.4c0.1,0.9-0.3,1.2-1,1.4c-3.7,0.9-7.4,0.6-11.1-0.5
				c-1.4-0.4-2.8-1.1-4.1-1.9c-1.3-0.7-1.5-1.7-1.1-3.1c0.5-1.7,1.1-3.4,1.8-5.1c0.1-0.3,0.6-0.4,1.1-0.6c-0.4-1.6,0.9-2.5,1.7-3.8
				c1.1-1.6,1.7-3.5,2.4-5.3c0.3-0.8,0.5-1.6,0.8-2.4c0.8-0.9,1.8-1.7,2.5-2.7c1.1-1.4,0.6-2.9-1.1-3.6c-0.1-0.1-0.3-0.3-0.4-0.4
				c-2.7-1.5-5.3-3-8-4.5c-2.3-1.3-4.6-2.5-6.9-3.7c6.1-8.6,12.3-17.1,18.4-25.7c0.5-0.7,1.1-1.4,1.7-2.1c0.1,0.5,0.2,1,0.3,1.4
				c0.3,0.8,0.7,1.6,1.1,2.5C132.7,276.8,132.7,278.3,132.8,279.8z"/>
			<path class="st1" d="M144,258.7c-0.4,1.6-0.8,3.3-1.1,4.9c-1-3.4-2-6.9-2.8-10.3c-0.3-1-0.7-1.1-1.6-1c-2.3,0.3-4.6,0.5-6.9,0.7
				c-0.3-4.6-0.6-9.2-0.8-13.7c-0.4-7.5-0.8-14.9-1.2-22.4c-0.3-4.8-0.6-9.6-0.6-14.3c0-1.4,0.8-2.7,1.3-4.1c2.7,1.6,3,4,3.5,6.5
				c2.6,14.6,5.2,29.3,7.9,43.9C142.2,252.1,143.2,255.4,144,258.7z"/>
			<path class="st1" d="M208.1,103c0.2,0.5,0.4,1.1,0.8,1.5c1,1,1.6,2.1,1.4,3.5c-0.4,4.3,0.1,8.6-1,12.8c-0.4,1.7-2.4,3.3-4.1,3.4
				c-0.1,0-0.2,0-0.2,0c-1.4-1-3-0.6-4.5-0.7c-0.9,0-0.8-0.6-0.7-1.2c0.1-3.1-0.9-5.8-3.3-7.7c-1.6-1.3-3.3-2.5-5.1-3.2
				c-4.3-1.7-8.2-4-12.1-6.5c0.9-0.6,1.8-1.3,2.7-1.7c1-0.4,2.1-0.8,3.2-0.9c6.1-0.1,12.3-0.2,18.4-0.2
				C205,102.4,206.5,102.8,208.1,103z"/>
			<path class="st3" d="M131.6,253c2.3-0.2,4.6-0.4,6.9-0.7c0.9-0.1,1.3,0,1.6,1c0.9,3.5,1.9,6.9,2.8,10.3c0.4,2.1,0.8,4.2,1.2,6.3
				c-0.1,1.4-0.3,2.7-0.4,4.1c-2.9,0.4-5.8,0.8-8.7,1.2c-0.3-2.1-0.5-4.1-0.8-6.2c-0.3-2.8-0.6-5.6-2.4-8
				C131.7,258.4,131.6,255.7,131.6,253z"/>
			<path class="st2" d="M267.7,4.5c-0.1,1.5-0.1,3-0.2,4.5c-0.4,4.5-0.8,9.1-1.2,13.6c-0.4,5.1-0.9,10.2-1.4,15.2
				c-0.4,4.1-0.7,8.3-1,12.4c-0.1,1.6-0.3,3.3-0.5,4.9c-0.1,0.4-0.6,0.7-0.9,1.1c-0.5-2.5-1-5.1-1.5-7.6c-1-4.7-0.3-9.4,0.4-14
				c1.3-8.8,2.7-17.5,4-26.2C265.7,6.7,266.6,5.5,267.7,4.5z"/>
			<path class="st2" d="M215.1,7c0.1,0.5,0.2,1,0.2,1.5c-0.3,5.6-0.6,11.2-1,16.8c-0.2,4.1-0.5,8.2-0.7,12.3
				c-0.3,5.6-0.6,11.1-1,16.7c-0.2,3.2-0.4,6.4-0.7,9.5c0,0.2-0.1,0.4-0.2,0.5c-0.7-2.4-1.5-4.7-1.9-7.1c-0.8-4.9,0-9.8,0.5-14.7
				c0.5-5,0.9-10,1.4-15c0.5-5.6,1-11.3,1.7-16.9C213.5,9.4,214.5,8.2,215.1,7z"/>
			<path class="st0" d="M161.7,225.8c7.4,2.3,14.7,4.6,22.3,7c-0.7,0.5-1.1,0.8-1.5,1.1c-1.6,1-3.2,2-4.7,3
				c-0.4,0.2-0.8,0.3-1.2,0.5c-3.3-1.3-6.6-2.6-9.9-3.8c-3.6-1.3-5.3-3.8-5.2-7.3C161.6,226.1,161.7,226,161.7,225.8z"/>
			<path class="st0" d="M131.7,261.1c1.8,2.4,2.1,5.2,2.4,8c0.2,2.1,0.5,4.1,0.8,6.2c-0.8,0-1.5,0-2.3,0c-0.4-0.8-0.8-1.6-1.1-2.5
				c-0.2-0.4-0.2-0.9-0.3-1.4c0.1-3.1,0.3-6.2,0.4-9.3C131.6,261.8,131.7,261.4,131.7,261.1z"/>
			<path class="st1" d="M211.2,66.7c0,1.5,0,3,0,4.5c0,0.9-0.1,1.3-1.2,1.1c-1.7-0.3-3.5-0.2-5.2-0.3c0.1-0.6,0.1-1.3,0.3-1.9
				c0.7-2.8,2.2-3.8,5.1-3.4C210.5,66.7,210.8,66.7,211.2,66.7z"/>
			<path class="st1" d="M261.8,56.6c0.4,1.7,0.8,3.4,1.2,5.3c-2.4-0.5-4.6-1-6.8-1.4c0-0.2,0-0.5,0-0.7c0.3-2.9,1.8-4,4.6-3.3
				C261.2,56.5,261.5,56.6,261.8,56.6z"/>
			<path class="st0" d="M111.1,299.3c2.3,1.2,4.6,2.5,6.9,3.7c2.7,1.5,5.4,3,8,4.5c0.2,0.1,0.3,0.3,0.4,0.4
				c-1.2-0.2-2.4-0.5-3.5-0.7c-3.7-2.2-7.4-4.3-11-6.5c-0.4-0.2-0.7-0.7-1.1-1C110.9,299.6,111,299.4,111.1,299.3z"/>
			<path class="st1" d="M199.2,292.3c0.1-0.4,0.3-0.8,0.3-1.3c0-13.1,0-26.3,0-39.4c0-0.1,0-0.3,0-0.6c-2.7,1.8-5.3,3.6-7.9,5.4
				c-9.1,6.1-18.2,12.3-27.2,18.4c-4.2,2.9-7.8,6.5-10.7,10.7c-3,4.4-3.9,9.4-3.6,14.6c0.2,3.6,1.1,7.1,3.1,10.2
				c-0.2,1.3-0.4,2.6-0.7,3.9c0.1,0.4,0.1,0.9,0.3,1.2c1.2,2.3,1.4,4.8,1.6,7.4c0.2,2.1,1.1,4.1,1.8,6.1c0.3,0.9,0.7,1.8,1,2.7
				c0.3,0.9,0.2,1.6-0.8,1.8c-3.2,0.9-6.4,1.9-9.6,2.7c-2.8,0.8-5.6,1.4-8.5,2.1c-1.3,0.3-1.5,0.2-1.5-1.1c0-5,0-9.9,0-14.9
				c0-0.8,0.2-1.2,1-1.4c0.9-0.2,1.7-0.6,2.6-0.8c0.3,0,0.6-0.1,0.8-0.1c1.7-0.3,3.4-0.5,5.1-0.8c1.8-0.3,2.7-1.7,3.6-3.1
				c0.3-0.6,0.2-1.5,0.1-2.2c-0.2-1.7-0.5-3.5-0.7-5.2c-0.4-2.7-0.8-5.5-1.3-8.4c-4.1,0-8.1,0-12.2,0c-0.6-3.6-1.2-7.1-1.7-10.7
				c-0.4-3.1-0.7-6.1-1-9.2c0-0.2-0.3-0.3-0.4-0.5c0-1.5-0.1-3-0.1-4.5c0.8,0,1.5,0,2.3,0c2.9-0.4,5.8-0.8,8.7-1.2
				c0.1-1.4,0.3-2.8,0.4-4.1c1,3,1.9,6,2.9,9c0.4,1.1,0.7,2.2,1.2,3.6c0.4-0.6,0.7-1.1,1-1.5c2.3-3.5,4.6-7,6.9-10.5
				c0.5-0.7,1.1-1.4,1.8-1.8c13.4-8.8,26.9-17.6,40.4-26.3c1.7-1.1,2.6-2.6,2.5-4.6c-0.1-3.6-0.1-7.1,0-10.7c0-1.8,0.1-3.7,0.2-5.5
				c0.7,0,1.3,0,2-0.1c1.1,0,2.2,1.1,2,2.2c0,0.2-0.2,0.6-0.1,0.7c1,1.2,0.6,2.4,0.3,3.7c-0.2,0.7,0.4,1.6,0.4,2.5
				c0.1,0.9,0,1.9-0.1,2.8c-0.1,0.5-0.4,1-0.4,1.5c0,7.3,0,14.5,0,21.8c0,1.3-0.2,2.6-0.2,3.9c0.1,14.9,0.1,29.9,0.2,44.8
				c0,0.5,0,0.9,0,1.8c-1.4-0.9-2.6-1.5-3.6-2.3c-1-0.7-1.8-1.7-2.7-2.5c0.2-2,0.4-4,0.5-6C199.2,295,199.2,293.7,199.2,292.3z"/>
			<path class="st3" d="M211.2,166.2c3.1-0.2,6.2-0.4,9.3-0.5c5.3-0.3,10.6-0.5,15.9-0.8c0.4,0,0.9,0,1.4,0c0,1.7,0,3.3,0,4.8
				c0,0.5,0.4,1,0.6,1.4c0.1,0.4,0.3,0.7,0.3,1.1c0.2,5.7,0.3,11.3,0.5,17c0.3,7.1,0.7,14.1,1.1,21.2c0.1,2.5,0.2,5.1,0.4,7.8
				c-1.3,0.1-2.5,0.3-3.7,0.4c-7.9,0.7-15.8,1.5-23.7,2.2c-0.4,0-0.8,0-1.2,0c-1.7-5.3-2.6-10.7-2-16.3c0.4-4,0.1-8.1,0.2-12.1
				c0.2-6.4,0.5-12.8,0.7-19.2C211.1,170.8,211.2,168.5,211.2,166.2z"/>
			<path class="st3" d="M212.2,273.4c8.6-0.8,17.2-1.6,25.9-2.4c1.4-0.1,2.8,0.1,4.2,0.2c0.3,0,0.7,0.5,0.8,0.9
				c0.1,0.8,0.1,1.7,0.1,2.5c0,8.2,0,16.5,0,24.7c0,0.2,0,0.5,0,0.9c-2,0.3-4,0.5-6,0.8c-5.7,0.7-11.5,1.4-17.2,2.1
				c-3.2,0.4-6.4,0.7-9.6,1.1c-0.1-8.8-0.2-17.5-0.2-26.3c0-0.7,0.3-1.4,0.7-2C211.1,275,211.7,274.2,212.2,273.4z"/>
			<path class="st3" d="M212.2,126c7.8-0.4,15.6-0.9,23.6-1.3c0,0.7,0,1.2,0,1.7c0,3.5,0.1,6.9,0.8,10.3c0.5,2.7,0.1,5.6,0.1,8.6
				c-5.6,0.4-11.4,0.9-17.2,1.3c-1.2-0.1-2.4-0.2-3.5-0.2c-1.8,0-3.9-1.9-3.9-3.7c0-2.7,0.1-5.3,0.2-8
				C212.1,131.8,212.1,128.9,212.2,126z"/>
			<path class="st3" d="M135.8,300.2c4,0,8,0,12.2,0c0.4,2.9,0.9,5.6,1.3,8.4c0.3,1.7,0.5,3.5,0.7,5.2c0.1,0.7,0.2,1.7-0.1,2.2
				c-0.8,1.4-1.8,2.8-3.6,3.1c-1.7,0.3-3.4,0.5-5.1,0.8c-0.3,0-0.6,0.1-0.8,0.1c-0.2,0-0.5-0.1-0.7-0.1c-2.1-0.1-3-1.1-3.1-3.2
				c-0.2-4.6-0.4-9.2-0.6-13.8C136,302,135.9,301.1,135.8,300.2z"/>
			<path class="st2" d="M204,328.1c0.3,2,0.7,4,1,6c-3.2,5.2-6.6,5.5-11.3,5.3c-1.1-0.1-2.1-1.9-1.9-2.9c1.5-5.5,4.5-10.3,7.1-15.4
				c0.6-1.2,1.3-2.4,2-3.8C202,321,203,324.5,204,328.1z"/>
			<path class="st1" d="M123,307.2c1.2,0.2,2.4,0.5,3.5,0.7c1.6,0.7,2.1,2.1,1.1,3.6c-0.7,1-1.7,1.8-2.5,2.7c-1.9,1.5-3.8,3-5.7,4.5
				c-3.5,2.7-6.9,5.4-10.4,8.2c-0.4-0.3-0.8-0.6-1.2-0.9c1.2-2.8,2.4-5.6,3.5-8.3c0.2-0.4,0.2-0.8,0.3-1.1c0.9-1.1,1.9-2,2.7-3.2
				c1.1-1.7,2.8-2.7,4.5-3.6C120.2,309,121.6,308.1,123,307.2z"/>
			<path class="st2" d="M152.5,314.1c0.2-1.3,0.4-2.6,0.7-3.9c3.3,0.4,6.4-0.1,9.4-1.3c4.2-1.7,8.3-3.7,12.5-5.5
				c2.5-1.1,5.1-2.2,7.9-2c0.8,0.1,1.7,0.2,2.4,0.5c1.3,0.6,2.5,1.3,4,1.4c-0.4,0.2-0.7,0.6-1.1,0.7c-6.3,2-12.5,4-18.8,5.9
				c-5.3,1.6-10.6,2.9-15.9,4.3C153.3,314.4,152.9,314.2,152.5,314.1z"/>
			<path class="st2" d="M181.3,324.5c0.2,0.4,0.4,0.7,0.5,1c0.4,0.9,0.3,1.4-0.7,1.9c-3.5,1.8-6.9,3.8-10.4,5.6
				c-1.1,0.6-2.4,0.9-3.5,1.6c-1.3,0.8-2.2,0.2-3.2-0.5c-1-0.7-1.8-1.5-2.8-2.2c-0.6-0.5-0.7-1-0.1-1.5c0.3-0.2,0.6-0.5,0.9-0.6
				c2.2-1,4.4-2.1,6.7-2.9c2.1-0.7,4.3-0.9,6.4-1.3C177.2,325.3,179.2,324.9,181.3,324.5z"/>
			<path class="st2" d="M199.2,292.3c0,1.3,0,2.7,0,4c-0.1,2-0.3,4-0.5,6c-1.2,0.9-2.3,1.8-3.5,2.6c-0.3,0.2-0.9,0.2-1.3,0
				c-1.1-0.5-2.2-1.1-3.3-1.7c2.8-3.6,5.6-7.2,8.4-10.9C199,292.4,199.1,292.4,199.2,292.3z"/>
			<path class="st2" d="M206.8,176.3c0,9.7,0,19.5,0,29.2c0,1.3-0.6,1.5-2,1.5c0.5-10.3,1-20.6,1.6-30.8
				C206.6,176.2,206.7,176.3,206.8,176.3z"/>
			<path class="st3" d="M259.7,143.3c2.7,0,5.4,0.1,8.1-0.1c4-0.2,8-0.7,12-1c0.7-0.1,1.3-0.1,2.1-0.2c0,16.2,0,32.3,0,48.5
				c-2,0.2-4,0.3-5.9,0.5c-3.5,0.3-7.1,0.5-10.6,0.8c-0.9,0.1-1.7,0.2-2.6,0.2c-1.7-0.1-3.4-0.3-5.2-0.4c0-0.4,0-0.9,0-1.3
				c0-8.6-0.1-17.2,0-25.7c0-3.1,0.4-6.2,0.7-9.3C258.7,151.3,259.2,147.3,259.7,143.3z"/>
			<path class="st0" d="M259.7,143.3c-0.5,4-1,7.9-1.4,11.9c-0.3,3.1-0.7,6.2-0.7,9.3c-0.1,8.6,0,17.2,0,25.7c0,0.5,0,0.9,0,1.3
				c1.8,0.1,3.5,0.3,5.2,0.4c-2.3,0.2-4.7,0.5-7.2,0.8c0-1.6,0.1-3,0-4.4c-0.1-2.2-1.1-4.1-2.7-5.7c0.2-2.6,0.4-5.2,0.6-7.8
				c0.4-5.4,0.7-10.7,1.1-16.1c0.1-1.6,0.2-3.2,0.2-4.8c0.2-5.3,0.3-10.5,0.5-15.8c0.2-3.1,0.4-6.1,0.6-9.2c0.1-2.2,0.2-4.4,0.3-6.6
				c-0.1,0-0.1,0-0.2,0c-0.9,5.2-1.7,10.5-2.6,15.7c-0.1,0.8-0.1,1.6-0.2,2.4c-0.5,5.3-0.9,10.7-1.4,16c-0.4,4.3-0.8,8.6-1.1,12.9
				c-0.3,4.7-0.4,9.4-0.5,14.1c-0.2,3.8-0.4,7.6-0.7,11.4c-0.2,2.8,0,5.7-1,8.5c-0.1,0.3-0.1,0.6-0.1,0.9c-0.2,3-0.3,6-0.5,8.9
				c-0.1,1.8-0.3,3.6-0.3,5.4c-0.1,3.1-0.4,6.1-0.3,9.2c0,1.2,0.8,2.4,1.2,3.6c0.1,0,0.2-0.1,0.3-0.1c0-0.2,0.1-0.4,0.1-0.5
				c0.4-1.9,0.8-3.9,1.2-5.8c0.1,0.4,0.2,0.8,0.2,1.2c0.1,1.6,0.2,3.2,0.3,5c0.3-0.1,0.6,0,0.7-0.1c2.3-1.4,4.7-2.7,7-4.1
				c1.8-1.1,3.7-2.2,5.9-2.6c1.8-0.3,5.4,1.2,6.3,2.8c0.2,0.3,0,0.9-0.2,1.3c-1.6,2.2-3.5,3.9-5.8,5.3c-3.5,2-7.1,3.2-11.2,2.9
				c-2.3-0.2-4.8-0.5-6-2.8c-1.8-3.2-3.1-6.7-3.1-10.5c0-3.6-0.1-7.3-0.2-10.9c-0.1-5.3-0.3-10.5-0.5-15.8c-0.1-2.9-0.3-5.9-0.4-8.8
				c0.3-1.1,0.7-2.2,0.9-3.4c0.9-5.9,1.8-11.7,2.5-17.6c0.7-6.1,1.3-12.1,1.8-18.2c0.5-5.5,1.1-11,1.6-16.6c0.5-5.2,1-10.4,1.3-15.6
				c0.2-5.1,0.1-10.2,0.2-15.3c2.3,0.5,2.5,0.9,2.1,3.1c-0.3,1.6-0.4,3.3-0.5,5c-0.2,2.1-0.4,4.2-0.6,6.5c1.4-0.1,2.7-0.2,4-0.3
				c0.2,0,0.4-0.4,0.5-0.7c0.3-1,0.6-1.9,1.1-2.9c0.3,1,0.6,2,0.9,3c0.3,0.7,0.6,1.4,0.9,2.1c0.1,0.4,0.2,1,0.5,1.3
				c0.7,0.9,0.7,1.8,0.5,2.8c-0.3,1.5-0.6,3.1-0.9,4.6c-0.3,3.3-0.7,6.6-0.9,9.9C258.5,138.1,258.7,140.8,259.7,143.3z"/>
			<path class="st0" d="M261.4,321.8c0.9-0.8,1.7-1.7,2.6-2.5c0.6-0.5,0.6-1.1,0.5-1.8c-0.5-3.3-2.9-5-5.5-6.5
				c-2.5-1.5-5-2.8-7.9-3.5c-1.7-0.4-3.1-2-4.6-3.1c-0.2-0.1-0.3-0.6-0.3-0.9c0-3.8,0-7.5,0-11.3c0-0.1,0.1-0.2,0.1-0.3
				c3.9,0.2,7.6,1.2,11.2,2.7c0.6,0.2,1.1,0.6,1.6,1.1c4.1,4.4,8.1,8.9,12.3,13.2c3.4,3.5,7.4,5.9,12.5,5.7c0.9,0,1.8,0.1,2.8,0
				c2.3-0.2,3.7,1,4.8,2.8c1.2,2,2.5,3.9,3.6,5.9c1.3,2.4,1.3,2.6-0.6,4.4c-2.3,2.3-5,4-8.1,4.9c-6.4,1.8-12.1,0.1-17.2-4
				C266.6,326.5,264.1,324.2,261.4,321.8z"/>
			<path class="st3" d="M282.3,238.4c-0.4,8.9-0.8,17.7-1.3,26.7c-9.3,1.1-18.9,2.3-28.6,3.5c0-0.5,0-0.9,0-1.3c0-6.9,0-13.8,0-20.7
				c0-1.2,0.4-1.9,1.4-2.4c4.1-2.1,8.1-4.2,12.8-4.9c0.1,0,0.2,0,0.2-0.1c5-0.3,10.1-0.5,15.1-0.8
				C282.1,238.3,282.2,238.4,282.3,238.4z"/>
			<path class="st3" d="M259.7,125.6c0.3-1.5,0.6-3.1,0.9-4.6c0.2-1,0.3-1.9-0.5-2.8c-0.3-0.3-0.3-0.9-0.5-1.3
				c0.7-2.4,1.4-4.8,2.1-7.2c0.2-0.8,0.1-1.6,0.2-2.4c0.1,0,0.1-0.1,0.2-0.1c5.8,0,11.6,0,17.4,0c0.5,0,1,0,1.6,0
				c0,0.5,0.1,0.9,0.1,1.3c0.1,3.4,0.1,6.7,0.2,10.1c0,0.9,0.2,1.7,0.3,2.6c0.3,3.3-1.6,4.2-4,4.3c-2.3,0.1-4.6,0-7,0
				C266.9,125.5,263.3,125.6,259.7,125.6z"/>
			<path class="st3" d="M255.4,138.3c-0.2,5.3-0.3,10.5-0.5,15.8c-0.1,1.6-0.1,3.2-0.2,4.8c-0.4,5.4-0.7,10.7-1.1,16.1
				c-0.2,2.6-0.4,5.2-0.6,7.8c-0.2,0.3-0.5,0.6-0.7,0.9c-0.6,0-1.3,0-1.9,0c0.2-4.7,0.3-9.4,0.5-14.1c0.3-4.3,0.7-8.6,1.1-12.9
				c0.5-5.3,0.9-10.7,1.4-16c0.1-0.8,0.1-1.6,0.2-2.4C254.2,138.2,254.8,138.2,255.4,138.3z"/>
			<path class="st2" d="M250.3,183.6c0.6,0,1.3,0,1.9,0c-0.3,4.2-0.6,8.4-0.9,12.6c-0.3,4.1-0.6,8.3-0.8,12.4
				c-0.2,4.7-0.2,9.5-0.3,14.3c0,0.8-0.1,1.5-0.2,2.3c-0.4,1.9-0.8,3.9-1.2,5.8c0,0.2-0.1,0.4-0.1,0.5c-0.1,0-0.2,0.1-0.3,0.1
				c-0.4-1.2-1.1-2.4-1.2-3.6c-0.1-3.1,0.2-6.1,0.3-9.2c0.1-1.8,0.2-3.6,0.3-5.4c0.2-3,0.3-6,0.5-8.9c0-0.3,0-0.6,0.1-0.9
				c1-2.8,0.8-5.7,1-8.5C249.9,191.2,250.1,187.4,250.3,183.6z"/>
			<path class="st0" d="M248.2,256.8c-0.2,4.7-0.3,9.5-0.5,14.2c-0.1,3.3-0.3,6.7-0.5,10c-0.1,1.2-0.2,2.4-0.3,3.5
				c-0.2,0-0.3,0-0.3,0c0,0-0.1,0-0.1,0c-0.1-0.1-0.2-0.2-0.2-0.3c0-0.3,0-0.6,0-0.8c0-8.9,0-17.7,0-26.6
				C246.9,256.8,247.5,256.8,248.2,256.8z"/>
			<path class="st3" d="M248.2,256.8c-0.7,0-1.3,0-2,0c-0.2-1.7-0.6-3.5-0.7-5.2c-0.1-2.1,1.2-3.8,3.4-4.8
				C248.7,250.2,248.4,253.5,248.2,256.8z"/>
			<path class="st0" d="M262.1,107.2c-0.1,0.1-0.1,0.1-0.2,0.1C261.9,107.3,262,107.2,262.1,107.2z"/>
			<path class="st2" d="M255.4,138.3c-0.6,0-1.2-0.1-1.8-0.1c0.9-5.2,1.7-10.5,2.6-15.7c0.1,0,0.1,0,0.2,0c-0.1,2.2-0.2,4.4-0.3,6.6
				C255.8,132.2,255.6,135.2,255.4,138.3z"/>
		</g>
	</g>
</g>
</svg>
