<?xml version="1.0" encoding="utf-8"?>
<!-- Generator: Adobe Illustrator 21.1.0, SVG Export Plug-In . SVG Version: 6.00 Build 0)  -->
<svg version="1.1" id="Layer_1" xmlns="http://www.w3.org/2000/svg" xmlns:xlink="http://www.w3.org/1999/xlink" x="0px" y="0px"
	 viewBox="0 0 360 360" style="enable-background:new 0 0 360 360;" xml:space="preserve">
<style type="text/css">
	.st0{fill:#695A3C;}
	.st1{fill:#837146;}
	.st2{fill:#A79B6D;}
	.st3{fill:#D0C489;}
	.st4{fill:#908255;}
	.st5{fill:#C0B37F;}
	.st6{fill:#756340;}
	.st7{fill:#EFE9C1;}
	.st8{fill:#9A8F5C;}
	.st9{fill:#7B6844;}
	.st10{fill:#ECE2A1;}
	.st11{fill:#DFD396;}
</style>
<g>
	<path class="st0" d="M354,205.9c-1.2,10.9-1.2,10.3-11.3,11.3c-20.9,2.1-41.7,4.9-62.6,7.5c-13.9,1.7-27.8,3.4-41.7,5.2
		c-4.5,0.6-9.5,0.3-11.1,6.5c-0.3,1-3.5,1.8-5.4,1.9c-28.1,0.1-56.2-0.2-84.2,0.4c-6.4,0.1-5.6-5.2-8.6-7.4c1.4-1.8,2.8-3.6,4.3-5.4
		c1.4,1.2,3.1,2.2,4.2,3.7c1.5,2.2,2.4,4.6,4.2,0.4c0.9,0,1.9,0,2.8,0c4-1,7.9-1.9,10.9-2.6c-0.9-5.3-1.7-9.7-2.4-14.2c0,0,0,0,0,0
		c2.3,0.5,4.7,1,7,1.4c1.4,9.4,7.3,3.5,10.9,4.4c3.4,1.8,6.8,3.6,10.2,5.4c2.3-2.3,4.7-4.7,7-7c2.2-1,4.6-4.6,6.4,0.5
		c1.1,3,2.1,6.1,3.5,10c-1.2-0.3-3-1.4-4.1-0.9c-2.9,1.3-5.5,3.2-8.2,4.9c2.1,1.3,4.1,3.3,6.3,3.6c4.1,0.6,8.4,0.2,12.5,0.2
		c0.3-4,0.2-6.7,6-5.4c3.7,0.8,10.3,1.2,11.4-5.9c0.9,0,1.9,0,2.8,0c0.9,1.2,1.8,2.4,2.2,3.1c2.9-1.2,5.1-3,7.3-2.9
		c6.6,0.4,9.7-3.1,11.6-8.6c1.4,0,2.8,0,4.2,0c1.8,3.4,3.8,4.6,7.7,2.1c3-1.9,6.9-2.2,10.1-3.9c1.5-0.8,2.2-3,3.3-4.6
		c-0.4-0.5-0.9-1-1.3-1.5c-5.3,3.2-8.8,1.2-11.3-3.4c0.9,0,1.9,0,2.8,0c4.3,0.9,8.6,2,13,2.5c3.3,0.4,8.1,1.3,9.8-0.4
		c5.4-5.4,11.3-4,17.6-3.6c2.5,0.2,5.1-1.2,7.7-1.9C324.2,202.7,339.1,204.3,354,205.9z M178.9,230.5c-0.9-0.7-1.8-1.4-2.7-2.2
		c-1.8,1.7-3.5,3.3-5.3,5c1.5,0.7,3.6,2.3,4.4,1.8C176.9,234.2,177.7,232.1,178.9,230.5z"/>
	<path class="st1" d="M188.2,217.2c-2.3,2.3-4.7,4.7-7,7c1.6-3.2,2.5-6.1-2.2-7.6c-1.1-0.3-2.6-1.7-2.7-2.7c-0.8-7.4-5.5-4.4-9-3.3
		c-2.5,0.8-4.8,2.5-7.2,3.8c-2.3-0.5-4.7-1-7-1.4c-3.1-6.6-8.1-8.8-15.5-7c-0.2-7.4-3.3-12.1-11.2-12.7c-0.5-0.4-0.9-0.8-1.4-1.1
		c1-3.3,1.9-6.7,2.9-10c0.9-0.1,1.8-0.1,2.7-0.2c0.9,0,1.9,0.1,2.8,0.1c4.6,0.4,4.4-3.3,4.6-6c0.2-2.7-0.3-5.4-0.5-8.2
		c0.1-7.5,1.4-15-1.7-22.3c1.5-2.2,4-4.2,4.3-6.5c0.9-7.5,1-15,1.4-22.5c1.4-0.7,2.9-1.4,4.3-2.1c-1.8,18.8-3.7,37.5-5.5,56.3
		c-0.4,4.1-1.3,9,5.5,8.6c0.2,1.3,0,3.3,0.7,3.7c5.8,3.2,9.9,1,13.3-6.8c0.9-2.2,2.6-4.4,2.7-6.7c0.4-6.9,0-13.8,0.2-20.7
		c0.2-9.5,0.7-19,1.1-28.6c-0.5-2.9-1-5.9-1.5-8.8c4.1-0.4,5.9-7.6,11.4-3.7c-3.7,1.9-7.1,3.6-7,9c0.4,13.3,0.1,26.7,0.2,40.1
		c0,3.4-0.6,6.9,0.1,10.2c0.4,1.9,2.6,3.3,4,5c0.4,0.8,0.9,1.5,1.3,2.3c2.5-1.4,5-2.8,7.7-4.4c4.2,8.5,8,2.9,11.9-0.4
		c4.3,1.8,8.5,3.7,12.8,5.5c0.5,0.9,1,1.8,1.5,2.7c-2.8,0.5-5.6,0.9-8.4,1.4c-1-0.7-2-1.4-3-2.1c-0.4,1.2-0.8,2.3-1.3,3.5
		c-3.9,0.2-8.2-3.5-11.6,1.3c-0.1,0.1-1.2-0.3-1.7-0.6c-2.3-1.5-5-3-6,0.9c-0.5,1.9,0.7,4.2,1.1,6.1c-2.7,0.6-7.4,0.4-10.2,2.6
		c-1.9,1.5-1.3,6.3-1.6,9.7c0,0.2,3.2,1.3,3.6,0.8c1.4-1.8,2.3-4,3.3-5.9c0.5,0.8,1.3,2.1,2,3.4c0.4,3.2-1.5,7.7,5.6,8
		c-0.5-4.8-1-9.2-1.5-13.6c2.8,0,5.7,0,8.5,0c0.7,4.8,3.6,11.1,1.5,14.2C183.8,212.3,185,214.3,188.2,217.2z M171.5,183.1l0-0.5
		l-0.6,0.2L171.5,183.1z"/>
	<path class="st2" d="M127.9,182.2c-1,3.3-1.9,6.7-2.9,10c-1.4-0.1-2.9-0.2-4.3-0.4c-0.9-3.1-3-6.4-2.4-9.3c1.5-8.2-3.7-7.8-8.6-7.4
		c-3.7,0.3-7.6,1.4-11,2.9c-5.2,2.4-8.7,1.3-10.4-3.9c-0.3-1-1.1-1.9-1.9-3.3c-2,1.1-3.8,2-4.3,2.2c-3.6-1.5-6.2-2.6-8.8-3.7
		c-0.6-0.6-1.2-1.2-1.9-1.8c0-3.9,2.2-5.2,5.8-5.3c2.3-0.1,5.9,0.1,6.6-1.2c4.8-9.4,20-2.8,22.7-15c0-0.1,0.4-0.2,1.1-0.4
		c1.1,1,2.3,2.1,4.5,4c-0.2-2.7,0-5.5-0.4-5.6c-6.4-1.6-12.9-2.8-19.3-4.1c-0.2-0.6-0.5-1.1-0.7-1.7c2.7-1,5.4-1.9,8.1-3
		c1.5-0.6,2.8-1.7,4.1-2.5c0.9-0.1,1.8-0.2,2.7-0.3c-0.1-0.3-0.2-0.6-0.3-0.9c-0.8,0.4-1.6,0.9-2.4,1.3c-4.6,0-9.2,0-13.5,0
		c0.2-1.6,0.2-2.5,0.3-3.3c11.4-1.5,22.8-3,34.3-4.5c0.4,0.7,0.9,1.4,1.3,2.1c-7.3,1.9-8.4,4.3-6.3,13.8c0.8-1,1.6-1.9,2.9-3.5
		c0,6.8,0,12.6,0,18.4c6.1,2.2,9.5,0.6,10.4-6c0.2-1.5,1.6-2.8,2.5-4.3c3,7.2,1.8,14.8,1.7,22.3c-1.4,1.4-3.6,2.7-3.9,4.4
		c-0.6,3.1-0.2,6.5-0.2,9.8c-0.9,0-1.9-0.1-2.8-0.1c0-6.2,0-12.4,0-18.6c-0.9,0-1.8,0-2.7,0.1C127.9,169.7,127.9,176,127.9,182.2z"
		/>
	<path class="st3" d="M261.4,130.3c9.2,0.9,18.4,1.7,27.6,2.8c9,1.1,17.9,3.1,26.9,3.9c5.9,0.5,9.3,3.1,11.2,8.4
		c1.1,3.3,2.6,6.5,3.9,9.7c-0.4,0.7-0.9,1.3-1.3,2c0.8,0.3,1.6,0.5,2.3,0.8c0,0-0.1-0.1-0.1-0.1c0.4,0.6,0.7,1.1,1.1,1.7
		c1.4,3.8,2.9,7.5,4.3,11.3c-5.6,2.3-11.2,3.1-16.7-0.4c1.4-4.6,2.8-9.1,4.2-13.7c0.4-1.4,1.6-3.3,1.1-4.1c-1.6-2.5-3.7-3.3-5.5,0.1
		c-1.3,0.4-2.7,0.8-4,1.2c0.2-4,3.1-9-2.4-11.1c-4.3-1.6-9.2-1.6-14.3-2.3c0.3,2,0.5,3.3,0.9,5.6c-8-0.7-15.6-0.4-22.7-2.2
		c-5.4-1.4-8-0.8-9.4,4.4c-0.4,1.9-0.9,3.8-1.3,5.6c-5.9,3.9-11.4,9.8-17.8,11.2c-7.8,1.7-7.5,4.6-5.3,8.8
		c-2.8,7.1-10.8,9.7-10.6,17.7c-0.8-2.2-1.6-4.5-2.4-6.7c0.3-1,0.6-1.9,1-2.9c0.6-1.8,2.2-4.7,1.6-5.3c-5.7-5.5-2.1-12.3-2.9-18.4
		c4,0.9,8.6,3.3,9.5-3.7c1-8.7,1.3-8.9,10.1-9.1c3.5-0.1,7.1-0.7,10.6-1.1c-0.1-0.8-0.1-1.6-0.2-2.4c-3.6-0.5-7.2-0.9-12.3-1.6
		c6.7-2.6,11.9-4.6,18-7C263.7,131.8,262.5,131,261.4,130.3z"/>
	<path class="st4" d="M206.5,177.8c-0.5-0.9-1-1.8-1.5-2.7c0.7-1.4,2.2-2.8,2.1-4.1c-0.5-8.7-1.1-17.5-2.1-26.2
		c-1-7.8-2.2-15.5-4.1-23.1c-0.6-2.2-3.7-3.8-5.6-5.7c-0.8-1.2-1.6-2.4-2.4-3.6c-0.6,1.2-1.3,2.4-1.9,3.6c-1.2,1.8-3.2,3.5-3.4,5.4
		c-0.3,3.6,0.4,7.4,0.6,11.1c0.2,4.3-1.6,7.2-6.3,7.5c-2.3-8.6,2.2-17.9-2.1-27.2c-3,4.7-2.4,25.2,0.2,28.5c0.2,0.3,0.8,0.3,1.3,0.5
		c-0.1,0.5,1.1,19,1.2,19.4c1.9-1.2,3.8-2.5,6.8-4.5c1.1,5.1,2,9,2.9,12.9c-3.9,3.3-7.6,8.9-11.9,0.4c-2.8,1.6-5.2,3-7.7,4.4
		c-0.4-0.8-0.9-1.5-1.3-2.3c0.8-3.2,1.7-6.5,2.5-9.7c-0.5,0.2-1.1,0.4-1.6,0.7c-1.7-2-3.4-4.1-5.1-6.1c0-13.4,0.2-26.7-0.2-40.1
		c-0.1-5.4,3.3-7.1,7-9c3.8,0,7.7,0.1,11.5,0.1c1.2,0.4,2.5,0.8,3.7,1.2c5.3,1.5,10.7,3,16,4.5c0.9,5.1,1.9,10.1,2.8,15.2
		c0,5.6,0,11.1,0.1,16.7c0.4,1.5,0.8,2.9,1.2,4.4c0.9,10.4,1.6,20.8,8.5,29.4c0,0.4,0,0.8,0,1.2
		C214.1,179.5,210.3,178.7,206.5,177.8z"/>
	<path class="st5" d="M103.9,132.9c-1.4,0.9-2.7,1.9-4.1,2.5c-2.6,1.1-5.4,2-8.1,3c0.2,0.6,0.5,1.1,0.7,1.7
		c6.5,1.3,12.9,2.5,19.3,4.1c0.5,0.1,0.2,2.9,0.4,5.6c-2.2-1.9-3.4-3-4.5-4c-0.6,0.2-1,0.3-1.1,0.4c-2.7,12.2-17.8,5.6-22.7,15
		c-0.6,1.2-4.3,1.1-6.6,1.2c-3.6,0.1-5.9,1.4-5.8,5.3c-2.3,0-4.7,0-7,0.1c3.2-4.6,6.3-9.3,10.7-15.6c-3.8-0.4-6.5-0.7-9.2-1
		c-1.4-1-2.8-1.9-4.1-2.9c0-0.4,0-0.9-0.1-1.3c3.2-0.3,6.4-0.5,9.5-0.8c-4.3-4.9-7.7-9.8-14.4-6.6c-1.2,0.6-3.3-0.7-5-1.1
		c-11.5,1.2-13.8,12.8-21.1,18.3c-1.8,0-3.6,0-5.3,0c2.5-6,4.9-12,7.7-17.8c0.5-1.1,2.6-1.7,4.1-1.9c17.8-2.6,35.7-5,53.5-7.5
		c-0.1,0.9-0.2,1.7-0.3,3.3C94.6,132.9,99.3,132.9,103.9,132.9L103.9,132.9z"/>
	<path class="st6" d="M126.4,193.3c7.9,0.5,11.1,5.3,11.2,12.7c0,2.1,0.4,4.3-0.1,6.2c-1.3,5.3-4.5,11,3.8,13.7
		c0.5,0.2,0.4,2.6,0.5,3.9c-1.8,4.2-2.8,1.8-4.2-0.4c-1-1.5-2.7-2.5-4.2-3.7c-1.4,1.8-2.8,3.6-4.3,5.4c-1,0-1.9-0.1-2.9-0.1
		c-1.1-0.3-2.2-0.6-3.3-1c-2.6-0.2-5.3-0.5-7.9-0.7c-2.6-2.8-5.5-5.2-3.3-9.9c0.5-1.1-1.5-3.5-3.1-6.7c-3.9,11.4-3.9,11.4-14.8,11.4
		c-0.5,0-0.9,0-1.4,0c0.7-3.7,1.6-7.4,2-11.2c0.3-2.5-0.1-5-0.3-7.6c3.1,0.2,6.3,0.2,9.4,0.5c3.8,0.4,7.6,0.9,11.4,1.4
		c0.9,2.2,1.3,4.7,2.7,6.4c1.3,1.5,3.6,2.2,5.4,3.2c0.9-1.9,2.4-3.6,2.7-5.6c0.5-3.1,0.3-6.4,0.4-9.6c0,0,0,0,0,0
		c0.5-0.5,0.9-0.9,1.4-1.4C127.3,198,126.8,195.7,126.4,193.3z"/>
	<path class="st7" d="M354,205.9c-14.9-1.6-29.8-3.2-44.6-4.8c-10.9-1.6-21.7-3.3-32.6-4.9c4.2-2.9,8.4-5.8,12.7-8.7
		c2.6,0.2,5.2,0.5,7.8,0.7c1.1,0.4,2.2,0.8,3.3,1.1c0.9,0.3,1.7,0.7,2.6,1c0.5-0.4,1.1-0.9,1.6-1.3c0.2-0.6,0.3-1.2,0.5-1.8
		c1.7,1.1,3.5,2.1,5.2,3.2c1-0.4,1.9-0.8,2.9-1.3c1.9,0.9,3.7,1.8,5.6,2.7c1.5-0.1,3-0.3,4.4-0.4c1.7,0.4,3.4,0.9,5.2,1.3
		c5.7,0.7,11.4,1.4,17.2,2.1C351.3,196.4,352.3,201.4,354,205.9z"/>
	<path class="st5" d="M261.4,130.3c1.1,0.7,2.3,1.5,4.8,3.1c-6.2,2.4-11.3,4.4-18,7c5,0.6,8.7,1.1,12.3,1.6c0.1,0.8,0.1,1.6,0.2,2.4
		c-3.5,0.4-7,1-10.6,1.1c-8.8,0.2-9,0.4-10.1,9.1c-0.8,7-5.5,4.6-9.5,3.7c-0.6-1.3-1-2.9-2-3.7c-1.9-1.5-4.1-2.5-6.2-3.6
		c-0.6-1.3-1.1-2.7-1.7-4c0.1-0.5,0.2-0.9,0.3-1.4c1.7-0.7,3.5-1.1,5.1-2.1c2-1.3,5.3-2.8,5.4-4.5c0.3-4-2.9-5.2-6.6-4.7
		c0.5-1.4,0.9-2.8,1.6-4c0.7-1.2,1.8-2.2,2.7-3.4c2.5,0.2,5.1,0.3,7.6,0.5c0.7,0,1.5-0.1,2.2-0.1c1.4,0,2.9,0.1,4.3,0.1
		c4.7,3.8,10,3.7,15.5,2.3C259.5,130,260.5,130.1,261.4,130.3z M240.1,130.7c-0.2,0.4-0.5,0.7-0.6,1c0,0.1,0.4,0.4,0.4,0.4
		c0.3-0.1,0.6-0.4,0.9-0.6C240.6,131.2,240.4,131,240.1,130.7z"/>
	<path class="st8" d="M146.1,179.5c-6.9,0.4-5.9-4.5-5.5-8.6c1.7-18.8,3.6-37.5,5.5-56.3c1.9-0.4,3.8-0.8,5.6-1.2
		c-0.4,14.8-0.7,29.7-1.4,44.5c-0.4,7.1-1.8,14.2-2.7,21.2C147,179.3,146.5,179.4,146.1,179.5z"/>
	<path class="st7" d="M5.6,207.3c2.5-3.7,4.9-7.5,7.4-11.2c2.3-0.2,4.5-0.3,6.8-0.5c0.8,0,1.6,0,2.4,0c0.5-0.3,1.1-0.5,1.6-0.8
		l0.2-0.2c2.3-0.1,4.7-0.2,7-0.3c0.6-0.1,1.3-0.3,1.9-0.4c1.2-0.2,2.4-0.4,3.6-0.5c0.6-0.2,1.1-0.4,1.7-0.6c0.9,0.1,1.7,0.2,2.6,0.4
		c4.2,2.4,7.9,1.9,11.2-1.7c1.1-0.1,2.2-0.3,3.3-0.4c0.4,0.1,0.8,0.3,1.1,0.5c1.5,1,2.8,2.7,4.4,2.9c3.1,0.4,6.4,0.1,9.6,0
		c0.8,1.3,1.7,2.7,2.5,4c-5,0.7-10,1.3-15,2c-1,0.2-2,0.4-3,0.7c-2.4,0.2-4.8,0.4-7.2,0.6c-8.4-4.1-17.5-3-23.8,2.8
		c0,0.3,0,0.5,0.1,0.7C17.8,205.9,11.7,206.6,5.6,207.3z"/>
	<path class="st8" d="M135.9,145.7c-0.9,1.4-2.3,2.7-2.5,4.3c-0.9,6.5-4.4,8.2-10.4,6c0-5.8,0-11.6,0-18.4c-1.3,1.6-2.1,2.6-2.9,3.5
		c-2.2-9.5-1.1-11.9,6.3-13.8c-1.7,6.5,4.7,7.1,8.9,10.3c0.2-5,0.5-10,0.7-14.9c0.2-1.7,0.3-3.4,0.5-5.1c0.4-0.1,0.8-0.3,1.1-0.6
		c1.4-0.1,2.7-0.1,4.1-0.2c-0.4,7.5-0.5,15.1-1.4,22.5C139.9,141.5,137.4,143.5,135.9,145.7z"/>
	<path class="st1" d="M5.6,207.3c6.1-0.7,12.2-1.4,18.3-2.1c0.4,2.1,0.8,4.2,1.2,6.3c-0.4,0.8-0.8,1.6-1.3,2.4
		c0.3,0.1,0.6,0.2,0.9,0.3c0.1-0.9,0.3-1.8,0.4-2.7c12.8,0,25.5,0,38.3,0c0.1,0.8,0.2,1.5,0.3,2.3c-2.6,0.6-5.3,0.9-7.6,2
		c-1.7,0.8-2.8,2.7-4.2,4.1c0,0.5,0,0.9,0,1.4c-1.4-0.2-2.8-0.3-4.2-0.5c-1.4-0.2-2.8-0.5-4.3-0.7c-2.3-0.1-4.7-0.3-7-0.4
		c-0.9-0.1-1.9-0.1-2.8-0.2c-1.8-0.2-3.6-0.4-5.5-0.6c-1.9-0.2-3.8-0.5-5.8-0.7c-1.3-0.2-2.6-0.4-4-0.6c-0.1-0.6-0.2-1.2-0.3-1.9
		c-0.9-0.4-1.9-0.9-2.8-1.3c-3.2-0.1-6.4-0.1-9.6-0.2C5.7,212,5.7,209.7,5.6,207.3z"/>
	<path class="st0" d="M320.5,170.4c5.5,3.5,11.1,2.7,16.7,0.4c0.8,3.4,1.6,6.7,2.5,10.1c-5.5-1.5-10.9-2.9-16.4-4.4
		c-0.2-0.1-0.3-0.2-0.5-0.2c0.1,0.1,0.3,0.2,0.4,0.3c0,0.9-0.1,1.8-0.1,2.7c-1,0.1-1.9,0.1-2.9,0.2c-1.5-1.7-3-3.4-4.4-5.1
		c-0.4,1.2-0.8,2.4-1.1,3.5c-1.9-0.5-3.9-1-5.8-1.4c-0.3-0.9-0.5-1.8-0.8-2.7c-0.6,0.4-1.2,0.9-1.9,1.3c-0.4,0.8-0.9,1.5-1.3,2.3
		c-1-0.1-1.9-0.2-2.9-0.3c-1-1.6-2-3.2-3-4.8c-0.6,1.3-1.3,2.5-1.9,3.8c-0.9,0.6-1.8,1.2-2.7,1.7c-0.3-0.4-0.5-0.8-0.8-1.3
		c-0.8-1.9-1.5-3.7-2.1-5.1c-1.5,1.7-2.6,2.8-3.6,3.9c-1.2-2.7-2.4-5.3-4.1-9.1c4.8,0.5,7.7,0.7,10.7,1.1
		C303.1,168.3,311.8,169.4,320.5,170.4z"/>
	<path class="st4" d="M147.4,179.2c0.9-7.1,2.4-14.1,2.7-21.2c0.8-14.8,1-29.7,1.4-44.5c3.7-0.6,7.3-1.3,11-1.9
		c0.5,2.9,1,5.9,1.5,8.8c-2.4-0.6-4.9-1.1-7.9-1.8c-0.5,9.3-1,18.2-1.5,27.2c-0.5,8.8-1,17.6-1.5,26.4c0.9,1.4,1.8,2.8,2.7,4.2
		C153.1,177.3,150.3,178.3,147.4,179.2z"/>
	<path class="st3" d="M61.7,147c0,0.4,0,0.9,0.1,1.3c-4.6,1.4-9.5,2.2-13.6,4.4c-1.2,0.6-0.4,5.1-0.5,7.8
		c-5.3-5.4-10.3-2.7-15.3,0.5c-2.4-1-4.8-2-7.3-2.9c0.1-0.4,0.2-0.8,0.3-1.2c1.7,0,3.5,0,5.3,0c7.3-5.5,9.6-17.2,21.1-18.3
		C50.8,146.3,58.5,144,61.7,147z"/>
	<path class="st0" d="M51.9,221.4c0-0.5,0-0.9,0-1.4c7.4-0.7,14.8-1.4,22.2-2c1.7-0.1,4.3,0,4.9,1c3.3,5.3,8.3,5.4,13.6,5.2
		c0.5,0,0.9,0,1.4,0c10.9,0.1,10.9,0,14.8-11.4c1.6,3.2,3.6,5.6,3.1,6.7c-2.3,4.7,0.7,7.1,3.3,9.9c-13.1-1.5-26.2-3-39.3-4.6
		C67.8,223.8,59.8,222.6,51.9,221.4z"/>
	<path class="st8" d="M229,126.9c-0.9,1.1-2,2.1-2.7,3.4c-0.7,1.2-1.1,2.7-1.6,4c-3.8,0.8-5.2,3.5-5.6,7c-1.2-5.8-2.3-11.7-3.5-17.5
		c-0.5,0.1-1,0.1-1.5,0.2c-0.2,1.5-0.4,3.1-0.6,4.6c-1.8,0-3.6,0-5.5,0.1c-0.9-5.1-1.9-10.1-2.8-15.2c4.8,1.1,9.7,2.2,12.4,2.9
		C222.3,120.7,225.7,123.8,229,126.9z"/>
	<path class="st2" d="M19.8,195.7c-2.3,0.2-4.5,0.3-6.8,0.5c1.8-5.6,3.6-11.2,5.4-16.8c3.1,0,6.2,0,9.7,0c0.9-0.9,2.4-2.3,3.9-3.7
		c0.2,2.8,0.8,5.6,0.6,8.3c-0.3,3.5-1.1,6.9-1.7,10.4c-2.3,0.1-4.7,0.2-7,0.3c-0.1-1.1-0.2-2.2-0.3-4.7
		C21.9,192.6,20.8,194.1,19.8,195.7z"/>
	<path class="st2" d="M323.3,176.5c5.5,1.5,10.9,2.9,16.4,4.4c2,4.6,4,9.3,6,13.9c-5.7-0.7-11.4-1.4-17.2-2.1
		c-1.8-4.5-3.6-9-5.4-13.5C323.2,178.4,323.2,177.5,323.3,176.5C323.2,176.5,323.3,176.5,323.3,176.5z"/>
	<path class="st5" d="M25.1,158c2.4,1,4.8,2,7.3,2.9c1,2.9,2,5.8,2.9,8.7c-1,0.9-2.1,1.7-3.1,2.6c-4.7,0.5-9.4,1.1-14.1,1.6
		C20.4,168.6,22.7,163.3,25.1,158z"/>
	<path class="st4" d="M136,122.6c-0.2,5-0.5,10-0.7,14.9c-4.3-3.2-10.6-3.8-8.9-10.3c-0.4-0.7-0.9-1.4-1.3-2.1
		C128.6,124.2,132.3,123.4,136,122.6z"/>
	<path class="st0" d="M18.1,173.9c4.7-0.5,9.4-1.1,14.1-1.6c0,1.2-0.1,2.3-0.1,3.5c-1.5,1.4-3,2.8-3.9,3.7c-3.6,0-6.6,0-9.7,0
		C18.3,177.6,18.2,175.7,18.1,173.9z"/>
	<path class="st3" d="M258.6,129.8c-5.5,1.3-10.8,1.5-15.5-2.3C248.3,128.3,253.5,129,258.6,129.8z"/>
	<path class="st0" d="M18.1,215.8c0.1,0.6,0.2,1.2,0.3,1.9c-4.2-1.1-8.5-2.2-12.7-3.3c3.2,0.1,6.4,0.1,9.6,0.2
		C16.2,214.9,17.2,215.3,18.1,215.8z"/>
	<path class="st0" d="M22.4,218.2c1.9,0.2,3.8,0.5,5.8,0.7C26.2,218.7,24.3,218.5,22.4,218.2z"/>
	<path class="st1" d="M189.2,109c-1.2-0.4-2.5-0.8-3.7-1.2C186.8,108.3,188,108.7,189.2,109z"/>
	<path class="st9" d="M43.4,220.2c1.4,0.2,2.8,0.5,4.3,0.7C46.2,220.7,44.8,220.4,43.4,220.2z"/>
	<path class="st3" d="M238.8,127.3c-0.7,0-1.5,0.1-2.2,0.1C237.3,127.4,238,127.4,238.8,127.3z"/>
	<path class="st5" d="M331.9,157.9c-0.8-0.3-1.6-0.5-2.3-0.8c0.4-0.7,0.9-1.3,1.3-2C331.2,156.1,331.6,157,331.9,157.9z"/>
	<path class="st0" d="M123,230.1c1.1,0.3,2.2,0.6,3.3,1C125.2,230.8,124.1,230.5,123,230.1z"/>
	<path class="st0" d="M33.6,219.6c0.9,0.1,1.9,0.1,2.8,0.2C35.5,219.7,34.5,219.6,33.6,219.6z"/>
	<path class="st5" d="M332.9,159.6c-0.4-0.6-0.7-1.1-1.1-1.7C332.2,158.4,332.5,159,332.9,159.6z"/>
	<path class="st1" d="M137.6,116.9c-0.3,0.3-0.6,0.5-1.1,0.6C136.9,117.2,137.2,117.1,137.6,116.9z"/>
	<path class="st6" d="M276.8,196.2c10.9,1.6,21.7,3.3,32.6,4.9c-2.6,0.7-5.2,2.1-7.7,1.9c-6.3-0.5-12.2-1.8-17.6,3.6
		c-1.7,1.7-6.5,0.8-9.8,0.4c-4.4-0.5-8.6-1.6-13-2.5c-0.5-1.4-1-2.8-1.5-4.2c-0.6,0.1-1.1,0.3-1.7,0.4c0.1,1.2,0.2,2.5,0.3,3.7
		c2.5,4.6,6,6.6,11.3,3.4c0.4,0.5,0.9,1,1.3,1.5c-1.1,1.6-1.8,3.8-3.3,4.6c-3.2,1.6-7.1,2-10.1,3.9c-3.9,2.5-5.9,1.3-7.7-2.1
		c2.5-1.9,4.9-3.8,7.4-5.7c-0.3-0.5-0.5-1-0.8-1.5c-6.4,0-12.9,0-20.3,0c0.8,2.5,1.7,5.3,2.6,8.1c2.8-0.3,4.9-0.5,6.9-0.8
		c-1.9,5.5-5,9-11.6,8.6c-2.2-0.1-4.5,1.7-7.3,2.9c-0.5-0.7-1.4-1.9-2.2-3.1c0-1.9,0.4-3.8-0.1-5.5c-0.5-1.9-1.5-5-2.8-5.3
		c-2.4-0.5-6.3-0.3-7.5,1.3c-1.2,1.6-0.6,5.6,0.8,7.5c1.1,1.5,4.4,1.4,6.8,2c-1.1,7-7.7,6.7-11.4,5.9c-5.8-1.3-5.7,1.4-6,5.4
		c-4.2,0-8.4,0.4-12.5-0.2c-2.2-0.3-4.2-2.3-6.3-3.6c2.7-1.7,5.3-3.7,8.2-4.9c1.1-0.5,2.9,0.6,4.1,0.9c-1.4-3.9-2.4-7-3.5-10
		c-1.8-5-4.2-1.5-6.4-0.5c-3.2-2.9-4.5-4.9-1.3-9.7c2-3.1-0.9-9.4-1.5-14.2c-1.2-8.5,5.6-1.7,8.4-5c0-1.8,0-4.7,0-7.7
		c0.4-1.2,0.8-2.3,1.3-3.5c1,0.7,2,1.4,3,2.1c1.9,2.8,3.7,5.6,5.6,8.4c-0.4,0-0.9,0.1-1.3,0.1c-4.2-0.3-5.8,1.9-5.7,5.8
		c0.1,2.7,0.1,5.5,0.1,8.2c0,2.3-0.1,4.6-0.1,6.9c0,3.9,1.9,5.3,5.6,4.3c6.1-4.2,12.1-8.4,18.2-12.6c3.5,1.9,7,3.7,10.4,5.6
		c3.8-6.9,12-9.1,16-5.7c2.3-1,4.3-1.7,6.2-2.7c1.4-0.8,2.7-1.9,4-2.9c1.4,0.2,2.8,0.4,4.3,0.6c0.4,0,0.8,0,1.3,0
		C267.3,195.6,272.1,195.9,276.8,196.2z M254.8,200.8c-0.5-0.5-0.9-1-1.5-1.3c-0.2-0.1-0.7,0.4-1.1,0.6c0.4,0.5,0.7,1,1.2,1.3
		C253.6,201.6,254.1,201.1,254.8,200.8z"/>
	<path class="st9" d="M141.8,229.8c-0.2-1.4,0-3.8-0.5-3.9c-8.3-2.7-5.1-8.3-3.8-13.7c0.5-2,0.1-4.1,0.1-6.2
		c7.4-1.8,12.3,0.4,15.5,7l0,0c-7.3,1.8-6.6,5.7-3,9.4c-2.1,2.8-3.8,5.1-5.5,7.4C143.7,229.8,142.8,229.8,141.8,229.8z"/>
	<path class="st6" d="M160.1,214.4c2.4-1.3,4.6-3.1,7.2-3.8c3.6-1.1,8.2-4,9,3.3c0.1,1,1.6,2.3,2.7,2.7c4.7,1.5,3.8,4.4,2.2,7.6
		c-3.4-1.8-6.8-3.6-10.2-5.4C167.3,217.9,161.5,223.9,160.1,214.4z"/>
	<path class="st9" d="M245.9,215.8c-2,0.2-4.1,0.5-6.9,0.8c-0.9-2.8-1.8-5.6-2.6-8.1c7.4,0,13.9,0,20.3,0c0.3,0.5,0.5,1,0.8,1.5
		c-2.5,1.9-4.9,3.8-7.4,5.7C248.7,215.8,247.3,215.8,245.9,215.8z"/>
	<path class="st9" d="M221.9,224.2c-2.3-0.6-5.7-0.5-6.8-2c-1.3-1.9-1.9-6-0.8-7.5c1.1-1.5,5.1-1.8,7.5-1.3c1.3,0.3,2.2,3.3,2.8,5.3
		c0.5,1.7,0.1,3.7,0.1,5.5C223.8,224.2,222.9,224.2,221.9,224.2z"/>
	<path class="st6" d="M144.6,229.8c1.7-2.3,3.4-4.5,5.5-7.4c-3.6-3.7-4.3-7.6,3-9.4c0.8,4.4,1.5,8.9,2.4,14.2
		C152.6,227.9,148.6,228.9,144.6,229.8z"/>
	<path class="st6" d="M178.9,230.5c-1.1,1.6-2,3.8-3.6,4.7c-0.8,0.5-2.9-1.1-4.4-1.8c1.8-1.7,3.5-3.3,5.3-5
		C177.1,229,178,229.8,178.9,230.5z"/>
	<path class="st9" d="M258.5,204.5c-0.1-1.2-0.2-2.5-0.3-3.7c0.6-0.1,1.1-0.3,1.7-0.4c0.5,1.4,1,2.8,1.5,4.2
		C260.4,204.5,259.4,204.5,258.5,204.5z"/>
	<path class="st9" d="M92.6,224.2c-5.2,0.2-10.3,0.1-13.6-5.2c-0.6-1-3.3-1.1-4.9-1c-7.4,0.5-14.8,1.3-22.2,2
		c1.4-1.4,2.5-3.3,4.2-4.1c2.3-1.1,5.1-1.4,7.6-2c-0.1-0.8-0.2-1.5-0.3-2.3c-12.8,0-25.5,0-38.3,0l0,0c-0.4-2.1-0.8-4.2-1.2-6.3
		c-0.1-0.2-0.2-0.5-0.1-0.7c7.9-0.9,15.9-1.9,23.8-2.8c2.4-0.2,4.8-0.4,7.2-0.6c1-0.2,2-0.4,3-0.7c5-0.7,10-1.3,15-2
		c16-2.2,32-4.5,47.9-6.7c1.4,0.1,2.9,0.2,4.3,0.4c0.5,0.4,0.9,0.8,1.4,1.1c0.5,2.3,0.9,4.7,1.4,7c-0.5,0.5-0.9,0.9-1.4,1.4l0,0
		c-2.3,0.3-4.7,1.2-6.9,0.8c-4.5-0.8-4.5,1.8-4.4,4.8c-3.8-0.5-7.6-1.1-11.4-1.4c-3.1-0.3-6.3-0.3-9.4-0.5c0.1,2.5,0.5,5.1,0.3,7.6
		C94.2,216.8,93.3,220.5,92.6,224.2z"/>
	<path class="st8" d="M192.2,169.6c-0.9-3.9-1.7-7.9-2.9-12.9c-3,2-5,3.3-6.8,4.5c-0.1-0.4-1.3-18.9-1.2-19.4
		c0.2-0.6,0.4-1.2,0.6-1.8c4.7-0.3,6.5-3.2,6.3-7.5c-0.2-3.7-0.9-7.4-0.6-11.1c0.2-1.9,2.2-3.6,3.4-5.4c0.5,6.1,1,12.2,1.5,18.2
		c0.7,11.1,1.4,22.2,2.1,33.3c0.9,0,1.9-0.1,2.8-0.1c0.2-2.4,0.6-4.7,0.5-7.1c-0.3-6-0.8-12-1.3-18c-0.2-2.2-0.9-4.4-1.3-6.6
		c0-6.6,0-13.1,0-19.7c1.9,1.9,5.1,3.5,5.6,5.7c1.9,7.6,3.2,15.4,4.1,23.1c1.1,8.7,1.6,17.4,2.1,26.2c0.1,1.3-1.4,2.7-2.1,4.1
		C200.7,173.3,196.5,171.4,192.2,169.6z"/>
	<path class="st8" d="M155.9,176.4c-0.9-1.4-1.8-2.8-2.7-4.2c1-0.2,2.5-0.1,2.8-0.7c1.8-3.4,3.6-6.8,5-10.3
		c1.7-4.2-2.5-14.1-6.3-15.4c0.5-9,1-18,1.5-27.2c3,0.7,5.4,1.3,7.9,1.8c-0.4,9.5-0.9,19-1.1,28.6c-0.2,6.9,0.2,13.8-0.2,20.7
		c-0.1,2.3-1.8,4.5-2.7,6.7C158.7,176.4,157.3,176.4,155.9,176.4z"/>
	<path class="st9" d="M193.8,180.6c0,2.9,0,5.8,0,7.7c-2.9,3.3-9.6-3.5-8.4,5c-2.8,0-5.7,0-8.5,0c-1.4,1.9-2.7,3.7-4.1,5.6
		c-0.8-1.3-1.6-2.6-2-3.4c-1,1.9-1.9,4.1-3.3,5.9c-0.3,0.4-3.6-0.6-3.6-0.8c0.2-3.4-0.4-8.2,1.6-9.7c2.8-2.2,7.5-2,10.2-2.6
		c-0.4-1.8-1.6-4.2-1.1-6.1c1-3.9,3.6-2.5,6-0.9c0.5,0.3,1.6,0.8,1.7,0.6C185.6,177.1,189.9,180.9,193.8,180.6z"/>
	<path class="st9" d="M203.7,187.6c-1.9-2.8-3.7-5.6-5.6-8.4c2.8-0.5,5.6-0.9,8.4-1.4c3.8,0.8,7.6,1.7,11.3,2.5c0.5,1,1,1.9,1.5,2.9
		c-1.5,1.5-3,3-4.4,4.5c-1.4,0-2.7,0-4.1,0C208.4,187.7,206,187.7,203.7,187.6z"/>
	<path class="st6" d="M155.9,176.4c1.4,0,2.8,0,4.2,0c-3.3,7.8-7.5,10-13.3,6.8c-0.7-0.4-0.5-2.4-0.7-3.7c0.5-0.1,0.9-0.2,1.4-0.2
		C150.3,178.3,153.1,177.3,155.9,176.4z"/>
	<path class="st4" d="M172.8,199c1.4-1.9,2.7-3.7,4.1-5.6c0.5,4.4,1,8.8,1.5,13.6C171.3,206.7,173.2,202.1,172.8,199z"/>
	<path class="st8" d="M167.2,156.9c1.7,2,3.4,4.1,5.1,6.1c0.5-0.2,1.1-0.4,1.6-0.7c-0.8,3.2-1.7,6.5-2.5,9.7c-1.4-1.7-3.7-3.1-4-5
		C166.7,163.8,167.2,160.3,167.2,156.9z"/>
	<path class="st8" d="M127.9,182.2c0-6.2,0-12.5,0-18.7c0.9,0,1.8,0,2.7-0.1c0,6.2,0,12.4,0,18.6
		C129.7,182.1,128.8,182.1,127.9,182.2z"/>
	<path class="st8" d="M133.4,182.1c0-3.3-0.5-6.6,0.2-9.8c0.3-1.7,2.6-2.9,3.9-4.4c0.2,2.7,0.8,5.5,0.5,8.2
		C137.8,178.9,138,182.5,133.4,182.1z"/>
	<polygon class="st9" points="171.5,183.1 171,182.7 171.5,182.5 	"/>
	<path class="st5" d="M120.7,191.8c-16,2.2-32,4.5-47.9,6.7c-0.8-1.3-1.7-2.7-2.5-4c-0.5-1.8-0.9-3.6-1.4-5.4
		c1.5-6.5,3-13.1,4.5-19.6c2.6,1.1,5.2,2.2,8.8,3.7c0.4-0.2,2.2-1.2,4.3-2.2c0.8,1.3,1.5,2.2,1.9,3.3c1.7,5.2,5.2,6.3,10.4,3.9
		c3.4-1.6,7.3-2.6,11-2.9c4.9-0.5,10.1-0.8,8.6,7.4C117.7,185.4,119.8,188.7,120.7,191.8z"/>
	<path class="st0" d="M73.3,169.5c-1.5,6.5-3,13.1-4.5,19.6c-1.5-0.5-3-0.9-4.6-1.4c0.6-2.2,1.3-4.4,1.9-6.6
		c0.4-0.6,0.7-1.2,1.1-1.8c0.2-1,0.5-2,0.7-3.1c0-0.4,0.1-0.8,0.5-1c0-1.4,0-2.8,0-4.2c-1.3,1.4-2.6,2.8-3.9,4.3
		c-1.4-1.4-2.7-2.8-4.1-4.2c1.4-1.1,2.7-2.2,4.1-3.2c2.3,0,4.7,0,7-0.1C72.1,168.3,72.7,168.9,73.3,169.5z"/>
	<path class="st5" d="M103.9,132.9c0.8-0.4,1.6-0.9,2.4-1.3c0.1,0.3,0.2,0.6,0.3,0.9C105.7,132.6,104.8,132.7,103.9,132.9
		C103.9,132.9,103.9,132.9,103.9,132.9z"/>
	<path class="st10" d="M261.4,195.2c-1.4-0.2-2.8-0.4-4.3-0.6c-5.2-1-10.3-1.9-15.5-2.9c2.7-1.9,7.5-3.5,7.8-5.7
		c1.7-12.1,11.5-14.5,20.3-18c1.8-0.7,4.4,0.4,6.8,0.7c0.2-1,0.2-2.4,0.6-3.7c2.2-6.4,1.3-8.2-5.4-10.1c-1.6-0.4-3.2-0.6-4.8-0.9
		c0.4-1.9,0.9-3.8,1.3-5.6c10.4-0.6,20,1.8,30.2,7.5c4.8-0.5,11.2-1.2,17.6-1.9c1.3-0.4,2.7-0.8,4-1.2c0.5,0.5,1,0.9,1.5,1.4
		c0.5,0.4,0.9,0.8,1.4,1.3c0.5,0.5,1,0.9,1.5,1.4c-1.4,4.6-2.8,9.1-4.2,13.7c-8.7-1.1-17.4-2.2-26-3.2c-2.9-0.4-5.9-0.6-10.7-1.1
		c1.7,3.8,2.9,6.5,4.1,9.1c1.3,1.7,2.6,3.4,3.8,5.1c0,1.5,0,2.9,0.1,4.4c-0.8,0.9-1.6,1.8-2.3,2.7c-4.2,2.9-8.4,5.8-12.7,8.7
		c-4.7-0.3-9.4-0.6-14.2-1C262.2,195,261.8,195,261.4,195.2z M278,174.6c-0.2-0.3-0.3-0.7-0.5-1c-0.2,0.3-0.4,0.6-0.5,0.9
		c-0.1,0.1,0.1,0.4,0.2,0.5C277.4,174.8,277.7,174.7,278,174.6z"/>
	<path class="st11" d="M267,153.9c1.6,0.3,3.2,0.5,4.8,0.9c6.7,1.8,7.6,3.6,5.4,10.1c-0.4,1.3-0.5,2.7-0.6,3.7
		c-2.3-0.3-4.9-1.5-6.8-0.7c-8.8,3.5-18.6,5.9-20.3,18c-0.3,2.2-5.1,3.8-7.8,5.7c-2.8,0-5.6,0-8.4-0.1c-0.2-8,7.8-10.6,10.6-17.7
		c-2.2-4.2-2.5-7.2,5.3-8.8C255.6,163.7,261.1,157.8,267,153.9z"/>
	<path class="st11" d="M316.2,153.9c-6.4,0.7-12.9,1.4-17.6,1.9c-10.2-5.7-19.8-8.1-30.2-7.5c1.5-5.2,4.1-5.8,9.4-4.4
		c7.1,1.8,14.7,1.5,22.7,2.2c-0.4-2.2-0.6-3.6-0.9-5.6c5.1,0.7,10,0.7,14.3,2.3C319.3,144.9,316.4,149.9,316.2,153.9z"/>
	<path class="st9" d="M233.2,191.6c2.8,0,5.6,0,8.4,0.1c5.2,1,10.3,1.9,15.5,2.9c-1.3,1-2.6,2.1-4,2.9c-1.9,1-3.9,1.7-6.2,2.7
		c-4-3.4-12.2-1.2-16,5.7c-3.5-1.8-7-3.7-10.4-5.6c0-0.5,0.1-0.9,0.1-1.4c0.9-1.8,2.4-3.5,2.7-5.3c0.4-3.3,0.1-6.7,0.1-10.1
		c0.5-0.2,1-0.3,1.6-0.5c0.9,0.1,1.8,0.1,2.7,0.2c1.1,0.6,2.1,1.1,3.2,1.7C231.7,187.1,232.5,189.4,233.2,191.6z"/>
	<path class="st2" d="M227.6,183.2c-0.9-0.1-1.8-0.1-2.7-0.2c-0.9-10.7-1.8-21.4-2.6-32.1c2.1,1.2,4.4,2.2,6.2,3.6
		c1,0.8,1.4,2.4,2,3.7c0.9,6.1-2.8,12.9,2.9,18.4c0.6,0.6-1,3.5-1.6,5.3C230.4,182.4,229,182.8,227.6,183.2z"/>
	<path class="st5" d="M321.7,154.1c-0.5-0.5-1-0.9-1.5-1.4c1.8-3.4,4-2.6,5.5-0.1c0.5,0.8-0.7,2.7-1.1,4.1c-0.5-0.5-1-0.9-1.5-1.4
		C322.7,154.9,322.2,154.5,321.7,154.1z"/>
	<path class="st8" d="M227.6,183.2c1.4-0.4,2.8-0.8,4.2-1.2c-0.3,1-0.6,1.9-1,2.9C229.8,184.3,228.7,183.8,227.6,183.2z"/>
	<path class="st2" d="M208,128.7c1.8,0,3.6,0,5.5-0.1c0.5,1.9,0.9,3.8,1.4,5.7c0,0.4,0,0.9,0.1,1.3c0.5,3.8,0.9,7.5,1.4,11.3
		c1.1,9.1,2.3,18.3,3.2,27.5c0.2,1.5-1.1,3.2-1.7,4.8c-6.9-8.6-7.6-19.1-8.5-29.4c-0.4-1.5-0.8-2.9-1.2-4.4
		C208.1,139.8,208,134.3,208,128.7z"/>
	<path class="st8" d="M217.8,179.2c0.6-1.6,1.8-3.3,1.7-4.8c-0.9-9.2-2.1-18.3-3.2-27.5c1.4,0,2.8,0,4.3,0c0.6,1.3,1.1,2.7,1.7,4
		c0.9,10.7,1.8,21.4,2.6,32.1c-0.5,0.2-1,0.3-1.6,0.5c-1.3-0.1-2.7-0.2-4-0.2c-0.5-1-1-1.9-1.5-2.9
		C217.8,180,217.8,179.6,217.8,179.2z"/>
	<path class="st0" d="M181.9,139.9c-0.2,0.6-0.4,1.2-0.6,1.8c-0.4-0.2-1-0.2-1.3-0.5c-2.6-3.3-3.2-23.8-0.2-28.5
		C184.1,122.1,179.6,131.4,181.9,139.9z"/>
	<path class="st1" d="M195.3,116c0,6.6,0,13.1,0,19.7c-0.9-0.5-1.9-1-2.8-1.5c-0.5-6.1-1-12.2-1.5-18.2c0.6-1.2,1.3-2.4,1.9-3.6
		C193.7,113.6,194.5,114.8,195.3,116z"/>
	<path class="st8" d="M208.1,145.4c0.4,1.5,0.8,2.9,1.2,4.4C208.9,148.3,208.5,146.8,208.1,145.4z"/>
	<path class="st11" d="M35.3,169.6c-1-2.9-2-5.8-2.9-8.7c5-3.3,10-5.9,15.3-0.5c0.1-2.7-0.7-7.2,0.5-7.8c4.2-2.2,9-3,13.6-4.4
		c1.4,1,2.8,1.9,4.1,2.9c3,10.3-6.1,5.3-10,8c1.7,1.1,3.4,2.2,5.1,3.3c-3.2,2-6,2.1-8.4,2.9c-3.3,1.1-8.5-0.8-9.2,5.1
		C40.7,170.2,38,169.9,35.3,169.6z"/>
	<path class="st3" d="M43.4,170.4c0.7-5.9,5.9-4,9.2-5.1c2.5-0.8,5.2-0.9,8.4-2.9c-1.7-1.1-3.4-2.2-5.1-3.3c3.9-2.7,13,2.3,10-8
		c2.7,0.3,5.4,0.6,9.2,1c-4.3,6.3-7.5,11-10.7,15.6c-1.4,1.1-2.7,2.2-4.1,3.2c-0.5-0.1-1-0.1-1.6-0.2
		C53.7,170.7,48.5,170.6,43.4,170.4z"/>
	<path class="st11" d="M61.7,147c-3.2-2.9-10.9-0.6-9.9-8.5c1.7,0.4,3.8,1.7,5,1.1c6.7-3.1,10.2,1.7,14.4,6.6
		C68.1,146.4,64.9,146.7,61.7,147z"/>
	<path class="st1" d="M115.1,207.4c-0.1-3-0.2-5.6,4.4-4.8c2.2,0.4,4.6-0.5,6.9-0.8c-0.1,3.2,0.1,6.5-0.4,9.6
		c-0.3,2-1.8,3.7-2.7,5.6c-1.9-1-4.2-1.7-5.4-3.2C116.4,212,116,209.5,115.1,207.4z"/>
	<path class="st1" d="M126.4,201.8c0.5-0.5,0.9-0.9,1.4-1.4C127.3,200.8,126.8,201.3,126.4,201.8z"/>
	<path class="st4" d="M308.8,176.4c1.9,0.5,3.9,1,5.8,1.4c1.4,4.7,2.8,9.3,4.3,14c-1.9-0.9-3.7-1.8-5.6-2.7
		c-1.9-4.3-3.8-8.5-5.6-12.8c0,0,0.6,0,0.6,0L308.8,176.4z"/>
	<path class="st2" d="M318.9,191.8c-1.4-4.7-2.8-9.3-4.3-14c0.4-1.2,0.8-2.4,1.1-3.5c1.5,1.7,3,3.4,4.4,5.1c1,4,2.1,8,3.1,12
		C321.9,191.5,320.4,191.7,318.9,191.8z"/>
	<path class="st1" d="M323.3,191.4c-1-4-2.1-8-3.1-12c1-0.1,1.9-0.1,2.9-0.2c1.8,4.5,3.6,9,5.4,13.5
		C326.8,192.3,325.1,191.9,323.3,191.4z"/>
	<path class="st2" d="M307.7,176.4c1.9,4.3,3.8,8.5,5.6,12.8c-1,0.4-1.9,0.8-2.9,1.3c-1.2-2.8-2.5-5.6-3.7-8.4
		c-0.6-1.6-1.3-3.2-1.9-4.9l0,0.2c0.4-0.8,0.9-1.5,1.3-2.3C306.7,175.5,307.2,175.9,307.7,176.4z"/>
	<path class="st3" d="M289.4,187.5c0.8-0.9,1.6-1.8,2.3-2.7c1.5-0.9,3-1.8,4.4-2.7c0.4,2,0.7,4,1.1,6
		C294.7,187.9,292,187.7,289.4,187.5z"/>
	<path class="st1" d="M306.7,182c1.2,2.8,2.5,5.6,3.7,8.4c-1.7-1.1-3.5-2.1-5.2-3.2L305,187c-0.1-1.6-0.1-3.3-0.2-4.9
		C305.4,182.1,306.1,182,306.7,182z"/>
	<path class="st2" d="M305,187l0.3,0.2c-0.2,0.6-0.3,1.2-0.5,1.8c-0.5,0.4-1.1,0.9-1.6,1.3c-0.9-0.3-1.7-0.7-2.6-1
		c-0.4-2.4-0.9-4.8-1.3-7.2c0-1,0.1-1.9,0.1-2.9c0.4,0,0.8,0.1,1.1,0.1C302,181.9,303.5,184.4,305,187z"/>
	<path class="st1" d="M299.3,182c0.4,2.4,0.9,4.8,1.3,7.2c-1.1-0.4-2.2-0.8-3.3-1.1c-0.4-2-0.7-4-1.1-6
		C297.2,182.1,298.3,182.1,299.3,182z"/>
	<path class="st11" d="M303.2,190.3c0.5-0.4,1.1-0.9,1.6-1.3C304.3,189.4,303.7,189.9,303.2,190.3z"/>
	<path class="st2" d="M219.1,141.3c0.4-3.5,1.7-6.2,5.6-7c3.7-0.5,6.9,0.7,6.6,4.7c-0.1,1.6-3.4,3.2-5.4,4.5c-1.5,1-3.4,1.4-5.1,2.1
		C220.3,144.2,219.7,142.7,219.1,141.3z"/>
	<path class="st4" d="M219.1,141.3c0.6,1.4,1.2,2.8,1.7,4.3c-0.1,0.5-0.2,0.9-0.3,1.4c-1.4,0-2.8,0-4.3,0c-0.5-3.8-0.9-7.5-1.4-11.3
		c0.2-0.1,0.5-0.3,0.4-0.4c-0.1-0.3-0.3-0.6-0.5-0.9c-0.5-1.9-0.9-3.8-1.4-5.7c0.2-1.5,0.4-3.1,0.6-4.6c0.5-0.1,1-0.1,1.5-0.2
		C216.8,129.7,217.9,135.5,219.1,141.3z"/>
	<path class="st3" d="M240.1,130.7c0.3,0.3,0.5,0.6,0.7,0.8c-0.3,0.2-0.6,0.4-0.9,0.6c-0.1,0-0.5-0.3-0.4-0.4
		C239.7,131.4,239.9,131.1,240.1,130.7z"/>
	<path class="st9" d="M43.4,170.4c5.2,0.1,10.3,0.3,15.5,0.4c0,0,0.1-0.1,0.1-0.1c-1.6,2.8-3.2,5.6-4.8,8.4
		c-6.4-0.2,1.4-5.2-3.8-6.8c-1.1,1.6-2.5,3.6-3.9,5.6c-0.5,1.9-1,3.9-1.5,5.8c-0.2,0.4-0.4,0.8-0.3,1.3c-0.4,0.4-0.8,0.9-1.2,1.3
		c-0.5-0.1-1.1-0.1-1.6-0.2c0.3-3.2,0.7-6.3,1-9.5c-0.2-0.1-0.5-0.1-0.7-0.2c-1.5,3.3-2.9,6.6-4.4,9.8c-1.7,2.6-3.3,5.2-5,7.7
		c-0.6,0.1-1.3,0.3-1.9,0.4c0.6-3.5,1.5-6.9,1.7-10.4c0.2-2.7-0.4-5.5-0.6-8.3c0-1.2,0.1-2.3,0.1-3.5c1-0.9,2.1-1.7,3.1-2.6
		C38,169.9,40.7,170.2,43.4,170.4z"/>
	<path class="st4" d="M58.8,170.8c0.5,0.1,1,0.1,1.6,0.2c1.4,1.4,2.7,2.8,4.1,4.2c0.1,0.5,0.1,0.9,0.2,1.4
		c-0.9,3.7-1.9,7.4-2.8,11.1c-1.9,1.3-3.7,2.6-5.6,4c-0.4-0.2-0.7-0.4-1.1-0.5C56.4,184.4,57.6,177.5,58.8,170.8
		C58.9,170.7,58.8,170.8,58.8,170.8z"/>
	<path class="st11" d="M47.6,201.8c-7.9,0.9-15.9,1.9-23.8,2.8C30.1,198.7,39.1,197.7,47.6,201.8z"/>
	<path class="st5" d="M58.9,170.7c-1.3,6.8-2.5,13.6-3.8,20.4c-1.1,0.1-2.2,0.3-3.3,0.4c-0.5-0.4-1-0.8-1.5-1.2
		c-0.1-1.1-0.7-2.3-0.3-3.2c1.2-2.8,2.7-5.4,4.1-8.1C55.7,176.3,57.3,173.5,58.9,170.7z"/>
	<path class="st11" d="M56.3,191.7c1.9-1.3,3.7-2.6,5.6-4c0.8,0,1.6,0,2.4,0c1.5,0.5,3,0.9,4.6,1.4c0.5,1.8,0.9,3.6,1.4,5.4
		c-3.2,0-6.4,0.4-9.6,0C59.1,194.3,57.7,192.7,56.3,191.7z"/>
	<path class="st11" d="M50.3,190.4c0.5,0.4,1,0.8,1.5,1.2c-3.3,3.6-7,4.1-11.2,1.7c0.5-0.8,1.1-1.7,1.6-2.5c0.2-0.5,0.4-1,0.7-1.5
		c0.2-1,0.4-2,0.5-3c0.4-0.4,0.8-0.9,1.2-1.3c0.5,2.1,1,4.2,1.7,6.9C47.6,191.5,49,190.9,50.3,190.4z"/>
	<path class="st11" d="M32.8,194c1.7-2.6,3.3-5.2,5-7.7c0.2,1.5,0.3,2.9,0.5,4.4c-0.1,0.5-0.2,1.1-0.2,1.6c-0.6,0.4-1.1,0.8-1.7,1.2
		C35.2,193.7,34,193.9,32.8,194z"/>
	<path class="st0" d="M38.1,192.3c0.1-0.5,0.2-1.1,0.2-1.6c1.2-1.5,2.3-3,3.5-4.5c0.5,0.1,1.1,0.1,1.6,0.2c-0.2,1-0.4,2-0.5,3
		c-0.2,0.5-0.4,1-0.7,1.5c-0.5,0.8-1.1,1.7-1.6,2.5c-0.9-0.1-1.7-0.2-2.6-0.4C38.2,192.7,38.2,192.5,38.1,192.3z"/>
	<path class="st0" d="M19.8,195.7c1.1-1.5,2.1-3.1,3.8-5.6c0.2,2.5,0.3,3.6,0.3,4.7c0,0-0.2,0.2-0.2,0.2c-0.5,0.3-1.1,0.5-1.6,0.8
		C21.4,195.7,20.6,195.7,19.8,195.7z"/>
	<path class="st11" d="M57.7,200.5c-1,0.2-2,0.4-3,0.7C55.7,201,56.7,200.7,57.7,200.5z"/>
	<path class="st2" d="M22.2,195.7c0.5-0.3,1.1-0.5,1.6-0.8C23.2,195.2,22.7,195.4,22.2,195.7z"/>
	<path class="st8" d="M38.1,192.3c0.2,0.2,0.1,0.5,0,0.7c-0.6,0.2-1.1,0.4-1.7,0.6C36.9,193.1,37.5,192.7,38.1,192.3z"/>
	<path class="st9" d="M18.1,215.8c-0.9-0.4-1.9-0.9-2.8-1.3C16.2,214.9,17.2,215.3,18.1,215.8z"/>
	<path class="st9" d="M25.2,211.6c-0.1,0.9-0.3,1.8-0.4,2.7c-0.3-0.1-0.6-0.2-0.9-0.3C24.3,213.2,24.7,212.4,25.2,211.6L25.2,211.6z
		"/>
	<path class="st4" d="M299.3,182c-1,0-2,0.1-3.1,0.1c-1.5,0.9-3,1.8-4.4,2.7c0-1.5,0-2.9-0.1-4.4l0.5,0.3c0.7-1,1.4-1.9,2.1-2.9
		c0.9-0.6,1.8-1.2,2.7-1.7c0.8,1,1.6,2.1,2.4,3.1C299.4,180.1,299.3,181.1,299.3,182z"/>
	<path class="st11" d="M305,187c-1.5-2.6-2.9-5.1-4.4-7.7c0.5-0.8,0.9-1.5,1.4-2.3c1,0.1,1.9,0.2,2.9,0.3l0-0.2c0,1.7,0,3.3,0,5
		C304.9,183.7,304.9,185.4,305,187z"/>
	<path class="st5" d="M291.7,180.4c-1.3-1.7-2.6-3.4-3.8-5.1c1-1.1,2-2.2,3.6-3.9c0.6,1.4,1.3,3.2,2.1,5.1c-0.4,1.4-0.9,2.8-1.3,4.2
		L291.7,180.4z"/>
	<path class="st5" d="M301.9,177c-0.5,0.8-0.9,1.5-1.4,2.3c-0.4-0.1-0.8-0.1-1.1-0.1c-0.8-1-1.6-2.1-2.4-3.1
		c0.6-1.3,1.3-2.5,1.9-3.8C299.9,173.8,300.9,175.4,301.9,177z"/>
	<path class="st11" d="M292.2,180.7c0.4-1.4,0.9-2.8,1.3-4.2c0.3,0.4,0.5,0.8,0.8,1.3C293.6,178.7,292.9,179.7,292.2,180.7z"/>
	<path class="st11" d="M307.7,176.4c-0.5-0.5-1-0.9-1.6-1.4c0.6-0.4,1.2-0.9,1.9-1.3c0.3,0.9,0.5,1.8,0.8,2.7c0,0-0.6,0-0.6,0
		L307.7,176.4z"/>
	<path class="st1" d="M323.2,176.5c-0.1-0.1-0.3-0.2-0.4-0.3C323,176.4,323.1,176.4,323.2,176.5L323.2,176.5z"/>
	<path class="st2" d="M154.7,145.7c3.8,1.3,8,11.2,6.3,15.4c-1.4,3.5-3.1,7-5,10.3c-0.3,0.6-1.9,0.5-2.8,0.7
		C153.7,163.3,154.2,154.5,154.7,145.7z"/>
	<path class="st4" d="M220.6,198.9c0,0.5,0,0.9-0.1,1.4c-6.1,4.2-12.1,8.4-18.2,12.6c1.1-7.3,2.2-14.7,3.2-21.4
		c2-1.4,3.6-2.6,5.3-3.8c1.4,0,2.7,0,4.1,0c2.4,2.3,7,3.6,3.7,8.6C218.4,196.6,219.9,198.1,220.6,198.9z"/>
	<path class="st1" d="M210.8,187.8c-1.7,1.2-3.3,2.4-5.3,3.8c-1,6.7-2.1,14-3.2,21.4c-3.7,1-5.6-0.4-5.6-4.3c0-2.3,0-4.6,0.1-6.9
		c1.8-0.5,3.7-1,5.5-1.5c0-3.3,0-6.5,0-9.8c0-0.9,0-1.8,0-2.8c0.4,0,0.9-0.1,1.3-0.1C206,187.7,208.4,187.7,210.8,187.8z"/>
	<path class="st9" d="M202.3,187.7c0,0.9,0,1.8,0,2.8c-4.9,3.3-3.7,6.5,0,9.8c-1.8,0.5-3.7,1-5.5,1.5c0-2.7,0-5.5-0.1-8.2
		C196.5,189.6,198.1,187.5,202.3,187.7z"/>
	<path class="st9" d="M254.8,200.8c-0.6,0.3-1.2,0.7-1.4,0.6c-0.5-0.3-0.8-0.9-1.2-1.3c0.4-0.2,0.9-0.7,1.1-0.6
		C253.8,199.8,254.2,200.3,254.8,200.8z"/>
	<path class="st9" d="M261.4,195.2c0.4-0.2,0.8-0.2,1.3,0C262.2,195.2,261.8,195.2,261.4,195.2z"/>
	<path class="st4" d="M192.5,134.2c0.9,0.5,1.9,1,2.8,1.5c0.5,2.2,1.1,4.4,1.3,6.6c0.6,6,1,12,1.3,18c0.1,2.4-0.3,4.7-0.5,7.1
		c-0.9,0-1.9,0.1-2.8,0.1C193.9,156.4,193.2,145.3,192.5,134.2z"/>
	<path class="st1" d="M220.6,198.9c-0.7-0.9-2.2-2.3-2-2.6c3.4-4.9-1.3-6.2-3.7-8.6c1.5-1.5,3-3,4.4-4.5c1.3,0.1,2.7,0.2,4,0.2
		c0,3.4,0.3,6.8-0.1,10.1C223,195.5,221.5,197.2,220.6,198.9z"/>
	<path class="st3" d="M64.3,187.7c-0.8,0-1.6,0-2.4,0c0.9-3.7,1.9-7.4,2.8-11.1c0.5,1.5,1,3,1.5,4.5
		C65.5,183.3,64.9,185.5,64.3,187.7z"/>
	<path class="st5" d="M66.1,181.1c-0.5-1.5-1-3-1.5-4.5c-0.1-0.5-0.1-0.9-0.2-1.4c1.3-1.4,2.6-2.8,3.9-4.3c0,1.4,0,2.8,0,4.2
		c-0.3,0.3-0.5,0.6-0.5,1c-0.2,1-0.5,2-0.7,3.1C66.9,179.8,66.5,180.5,66.1,181.1z"/>
	<path class="st6" d="M68.4,175.1c0-1.4,0-2.8,0-4.2C68.4,172.3,68.4,173.7,68.4,175.1z"/>
	<path class="st4" d="M67.2,179.2c0.2-1,0.5-2,0.7-3.1C67.7,177.2,67.5,178.2,67.2,179.2z"/>
	<path class="st11" d="M278,174.6c-0.3,0.1-0.5,0.3-0.8,0.4c-0.1-0.2-0.3-0.4-0.2-0.5c0.1-0.3,0.4-0.6,0.5-0.9
		C277.7,173.9,277.8,174.2,278,174.6z"/>
	<path class="st11" d="M321.7,154.1c0.5,0.4,0.9,0.8,1.4,1.3C322.7,154.9,322.2,154.5,321.7,154.1z"/>
	<path class="st8" d="M214.8,134.3c0.2,0.3,0.4,0.6,0.5,0.9c0,0.1-0.3,0.3-0.4,0.4C214.9,135.2,214.9,134.8,214.8,134.3z"/>
	<path class="st6" d="M304.8,182.1c0-1.7,0-3.3,0-5c0.6,1.6,1.3,3.2,1.9,4.9C306.1,182,305.4,182.1,304.8,182.1z"/>
	<path class="st8" d="M50.3,190.4c-1.4,0.5-2.7,1-4,1.5c-0.7-2.7-1.2-4.8-1.7-6.9c0-0.5,0.1-0.9,0.3-1.3c3.4-1.2,4-3.1,1.5-5.8
		c1.4-2,2.8-4.1,3.9-5.6c5.2,1.6-2.5,6.6,3.8,6.8c-1.4,2.7-2.9,5.3-4.1,8.1C49.7,188.1,50.2,189.3,50.3,190.4z"/>
	<path class="st8" d="M41.8,186.1c-1.2,1.5-2.3,3-3.5,4.5c-0.2-1.5-0.3-2.9-0.5-4.4c1.5-3.3,2.9-6.6,4.4-9.8
		c0.2,0.1,0.5,0.1,0.7,0.2C42.5,179.8,42.2,183,41.8,186.1z"/>
	<path class="st11" d="M46.4,177.9c2.5,2.7,2,4.6-1.5,5.8C45.4,181.8,45.9,179.9,46.4,177.9z"/>
	<path class="st9" d="M42.2,190.8c0.2-0.5,0.4-1,0.7-1.5C42.6,189.8,42.4,190.3,42.2,190.8z"/>
	<path class="st6" d="M202.2,200.3c-3.6-3.3-4.9-6.5,0-9.8C202.3,193.8,202.3,197,202.2,200.3z"/>
</g>
</svg>
