<?xml version="1.0" encoding="utf-8"?>
<!-- Generator: Adobe Illustrator 21.1.0, SVG Export Plug-In . SVG Version: 6.00 Build 0)  -->
<svg version="1.1" id="Layer_1" xmlns="http://www.w3.org/2000/svg" xmlns:xlink="http://www.w3.org/1999/xlink" x="0px" y="0px"
	 viewBox="0 0 360 360" style="enable-background:new 0 0 360 360;" xml:space="preserve">
<style type="text/css">
	.st0{fill:#769193;}
	.st1{fill:#5D7D7D;}
	.st2{fill:#1B3E3B;}
	.st3{fill:#673A10;}
</style>
<g>
	<g>
		<g>
			<path class="st0" d="M234.5,185.8c1.8,0.1,3.5,0.2,5.3,0.3c1.4,1.5,0.9,3.2,0.6,4.9c-0.8,0.1-1.6,0.2-2.3,0.3c0,0.2,0,0.3,0,0.5
				c1.2,0,2.3,0,3.5,0c0.7,0,0.9,0.2,0.9,0.9c-0.2,8.6,0.1,17.1,0.7,25.7c0.2,2.3,0,4.6,0,7c0,0.4,0,0.8,0,1.2
				c1.3,0.1,1.2-0.7,1.2-1.4c0-10.4,0-20.7,0-31.1c0-0.7,0.2-1.5,0.4-2.3c1.2,0.2,1.6,0.8,1.6,1.7c0,2.2,0,4.5,0,6.7
				c0,1.2,0.6,1.6,1.7,1.5c1.2-0.1,2.5,0,3.7,0.1c1,0.1,1.8,0.1,2.5-0.9c0.6-0.9,1-1.8,1-3c-0.1-1.9,0-3.7,0-5.3
				c-2.1-0.5-3.9-0.9-5.7-1.3c-0.6-0.1-1.2-0.2-1.8-0.1c-1.9,0-3.7,0.2-5.6,0.2c-0.3,0-0.7-0.1-0.8-0.3c-0.7-1.4-0.3-3.6,0.9-4.6
				c4.9,0.4,9.7,0.7,14.6,1.1c7.6,0.7,15.1,1.5,22.7,2.2c4.9,0.5,9.8,1,14.6,1.5c-0.1,2.7-0.1,2.7-2.3,2.8c0,0-0.1,0.1-0.3,0.3
				c2.9,0.3,5.5,0.5,8.5,0.7c-0.2,0.7-0.2,1.5-0.6,1.7c-0.5,0.3-1.2,0.1-1.9,0c-0.4-0.1-0.8-0.5-1.2-0.5c-0.6,0-1.2,0.2-1.7,0.5
				c-0.2,0.1-0.2,0.8-0.1,1.2c0.8,2.2,0.7,2.5-1.5,3.6c-1.1,0.5-1.4,1.7-0.6,2.7c0.3,0.3,0.6,0.6,0.9,1c0.6,0.9,0.4,1.8-0.2,2.6
				c-0.3,0.4-1.1,0.4-1.7,0.5c0-0.1-0.1-0.3-0.1-0.4c0.3-0.2,0.7-0.4,1.3-0.8c-0.5-0.5-0.9-1.4-1.4-1.4c-1.5-0.2-2.7,1.4-2.5,2.9
				c0.1,0.7-0.2,1.5-0.2,2.3c0,0.4-0.1,0.9,0.1,1.3c0.2,0.5,0.6,1-0.1,1.4c-0.6,0.4-1.2,0.8-1.8,0.1c-1-1.1-2.1-1-3.4-0.7
				c-0.9,0.2-0.8,0.6-0.6,1.2c0.1,0.2,0.2,0.4,0.4,0.6c0.7,1.3,0.7,1.5-0.6,2c-1.6,0.6-2.6,1.8-3.5,3.2c-0.8,1.3-1.5,2.6-3.7,2
				c-2-0.6-4.2-0.2-6.3-0.4c-1.3-0.1-1.7,0.6-1.9,1.6c-0.5,1.7-0.2,3.3,0.7,4.9c-1,0.6-1.1,1.5-0.9,2.5c0.2,0.6,0.1,1-0.6,1.1
				c-0.8,0.1-0.9-0.3-0.9-1c-0.1-4.1-0.1-8.1-0.2-12.2c0-0.9-0.2-1.7-0.3-2.6c-0.6,0.2-1.1,0.3-1.6,0.4c-1.2-0.3-2.3-0.9-3.5-0.9
				c-3.4-0.1-6.8,0-10.1,0c-0.9,0-1.2,0.5-1.2,1.2c0,0.9,0.2,1.7,0.2,2.6c-0.1,6.8-0.2,13.6-0.3,20.3c-0.1-0.5-0.4-1.1-0.4-1.6
				c-0.1-0.8-0.3-1.3-1.2-1.3c-1.6,0-3.3-0.1-4.8,0.2c-0.8,0.1-2,0.6-1.9,1.8c0.2,2,0.5,3.9,0.6,5.9c0.1,0.6,0.3,0.8,0.9,0.8
				c1.9-0.1,3.9,0,5.7-1c0.3-0.2,0.7-0.1,1-0.2c-0.1,1.3-0.3,2.5-0.3,3.8c0,0.7-0.4,1-1,1.3c-8.1,3.5-16.2,7.1-24.3,10.6
				c-3.6,1.6-7.2,3.1-10.8,4.6c-0.1-3.6-0.2-7.2-0.2-10.8c0-2.1,0.2-4.3,0.2-6.4c0-5.6-0.2-11.2-0.2-16.8c0-2.3,0.2-4.7,0.2-7
				c0-3.8-0.1-7.6-0.2-11.4c0-0.1,0-0.2,0-0.4c-0.2-1.5-1.1-2.6-2.5-2.8c-0.9,7.6-1.3,15.2-1,22.9c-0.8-0.1-1.3-0.2-1.9-0.3
				c0-5.2,0-10.3,0-15.5c-0.1,0-0.2,0-0.3,0c0,0.3,0,0.6,0,0.9c0,4.4,0,8.9,0,13.3c0,0.7,0,1.5-0.9,1.5c-2.2,0-4.5-0.1-6.7-0.1
				c-0.8,0-1.1-0.5-1.1-1.2c0-1.7-0.2-1.9-1.9-2.3c-0.4-0.1-0.9-0.1-1.3-0.1c-1.3,0-2.5,0-3.8,0c-1.5-0.1-2.1-0.7-2.1-2.2
				c0-5.4,0-10.9,0-16.3c0-2-0.3-4-0.5-5.9c-0.1-0.9-0.4-1.9-0.6-2.8c-0.4,0.6-0.7,1.2-0.8,1.8c-0.1,2.3-0.2,4.5-0.2,6.8
				c0,3.6,0,7.1,0,10.7c0,0.4,0,0.8,0,1.3c-0.1,0-0.1,0-0.2,0c-0.2-5-0.4-10.1-0.6-15.1c0.1-1.8-0.3-2.5-2-3
				c-1.1-0.3-2.3-0.5-3.5-0.5c-2.2,0.1-3.5,1.4-3.7,3.3c-0.1,0.4-0.2,0.8-0.2,1.3c0,4.6,0,9.1,0,13.7c0,0.8-0.3,1.6-0.5,2.5
				c-0.1,0-0.3,0-0.4,0c-0.3-1.3-0.6-2.5-1-3.9c-0.9,0.9-1,1.7-0.8,2.7c0.3,1.5,0.4,3.1,0.6,4.6c0.1,0.7-0.2,1-0.9,1
				c-2.5,0.1-5,0.3-7.5,0.5c-0.8,0-1.3,0.3-1.2,1.2c0.1,0.9,0,1.8,0,2.7c-0.2,0-0.3,0.1-0.5,0.1c-0.1-0.5-0.4-1-0.4-1.5
				c0-4,0-8.1,0-12.1c0-1.1-0.3-2.2-0.6-3.3c-0.1-0.4-0.8-0.8-1.2-0.8c-1.5,0-2.9,0.2-4.4,0.2c-1.3-0.1-1.6,0.6-1.7,1.6
				c-0.1,1.9-0.2,3.8-0.2,5.7c0,2,0.1,4,0.1,6c0,1.1,0,2.2-0.1,3.3c0,0.1-0.2,0.3-0.4,0.4c-1,0.6-1.7,0.2-1.8-1
				c-0.2-7.3,0.4-14.5-0.4-21.8c-0.5-4.3-0.4-8.7-0.5-13.1c0-2.5-0.6-4.9-1.2-7.2c-0.3-1.1-0.6-2.2-0.9-3.5c1.4,0.1,2.6,0.3,3.7,0.3
				c4,0.2,8,0.3,12.1,0.5c0.2,0,0.3,0,0.5,0.1c0.3,0.1,0.7,0.4,1,0.4c1.6,0,3.1,0,4.7,0c0.4,0,0.7,0.3,1,0.5c-0.3,0.2-0.6,0.5-1,0.7
				c-0.4,0.2-0.8,0.3-1.5,0.4c0.6,0.2,0.9,0.4,1.2,0.5c1.2,0.2,1.6,0.9,1.5,2.1c-0.1,2.1,0,4.2,0,6.2c0,0.7,0,1.3,0,2
				c0.2,0,0.3,0.1,0.5,0.1c0.2-0.4,0.5-0.8,0.5-1.2c0-5.2,0-10.3,0-15.5c0-0.4-0.3-0.7-0.5-1.1c0-4.5,0-8.9,0-13.6
				c-0.6,0.3-1.1,0.4-1.5,0.7c-1,0.6-2,0.8-3.1,0.6c-1.2-0.1-2.4-0.1-3.6-0.2c-4.1,0-8.1,0-12.2,0c-1.4,0-2.8-0.3-4.1-0.6
				c-1.5-0.3-2.6,0.7-2.4,2.2c0.2,1.3,0.4,2.7,0.4,4c0.1,2.5,0,2.5-2.6,2.6c0.3-3.4,0.7-6.9,1-10.3c0.2-1.5,0.4-3.1,0.6-4.6
				c0.3,0.7,0.7,1.3,1,2c0.2-0.6,0.3-1.1,0.2-1.7c-0.1-1,0.2-1.3,1.2-1.3c2,0.1,4,0,6,0c1.9,0,3.7,0.1,5.6,0.2
				c1.9,0.2,3.8,0.5,5.7,0.7c2.5,0,5,0,7.6,0c0-0.6,0-0.9,0-1.4c-2.7,0-5.3,0-8,0c-5.4,0-10.8,0-16.2-0.1c-2.2,0-1.8,0.3-1.9-1.9
				c0-1.1-0.2-2.3-0.3-3.4c0.4-3.2,0.8-6.4,1.2-9.6c1.7-0.9,3.6-0.8,5.5-0.9c3.4-0.1,6.7-0.1,10.1,0c0.5,0,1,0.5,1.5,0.7
				c0.5,0.2,1,0.7,1.5,0.7c1.4,0,2.8,0,4.2-0.2c1.2-0.2,1.5,0.5,1.6,1.4c0.2,1.7,0.3,3.3,0.5,5c-1.4,0.1-2.7,0-4.1,0.2
				c-1.2,0.1-2.6,0-3.9,1.2c3,0,5.6,0,8.4,0c0-0.4,0-0.8,0-1.2c0-2.9,0-5.7,0-8.7c-0.5,0-0.8,0-1.1,0c-1.9,0.1-3.9,0.4-5.8,0.4
				c-4.5,0.1-8.9,0-13.4,0c-1.6,0-3.2,0-4.6-1c0.4-2.2,0.7-4.3,1.1-6.5c4.8,0,9.6,0,14.3,0c0.3,0,0.7-0.1,1-0.2c0,0.7,0.5,0.7,1,0.7
				c2,0,3.9,0,5.9,0c0.9,0,1.4,0.2,1.5,1.1c0,0.4,0.2,0.7,0.4,1.1c0,0,0.1,0,0.1-0.1c0-1,0-2,0-3c-3,0-5.8,0-8.7,0
				c-3.1,0-6.2,0-9.4-0.1c-2-0.1-4-0.3-6-0.5c0.1-0.4,0.2-0.8,0.2-1.3c0.1-0.9,0.5-1.1,1.3-1.1c0.6,0,1.2-0.2,1.8-0.2
				c0.2,0.1,0.4,0.2,0.6,0.2c6.4,0,12.9,0,19.3,0c0.3,0,0.5-0.5,0.8-0.7c0-0.5-0.1-1.1-0.1-1.7c-0.6,0-1,0-1.4,0
				c-5.8,0-11.6,0-17.4,0c-1.5,0-2.9,0-4-1.3c2.4-15.4,5.8-30.5,12.4-44.8c0.3-0.7,0.9-1.3,1.4-2c0.1,0.4,0.4,0.8,0.4,1.1
				c0.2,6.1,0.4,12.2,0.5,18.3c0.1,4.7-0.1,9.3-0.1,14c0,1.1,0.2,2,1.5,2.3c-0.2-2.1-0.4-4.1-0.6-6.2c0.1-0.2,0.4-0.5,0.4-0.7
				c0.4-2.7,0.8-5.5,1.2-8.2c0.1-0.6,0.3-1.2,0.2-1.8c-0.1-0.5-0.6-0.9-0.6-1.4c-0.2-1.6-0.1-3.2-0.3-4.7c-0.1-1.4-0.3-2.7-0.5-4
				c0.2-2.6,0.4-5.2,0.5-7.7c0.1-1.5-0.1-3-0.1-4.5c2.3-4.2,4.6-8.5,7-12.6c1.5-2.6,3.3-5,5.1-7.5c0.8-1.1,1.5-1.1,2.4,0
				c2.2,3,4.5,5.9,6.4,9.1c2.1,3.5,3.9,7.2,5.8,10.9c0.3,0.6,0.6,1.2,0.9,1.8c-0.1,0.9-0.3,1.9-0.2,2.8c0.2,3.3,0.6,6.6,0.6,9.9
				c0.1,5.5-0.1,11-0.2,16.5c0,0.1,0,0.2-0.1,0.3c-1-4.6-1.3-9.3-0.9-14c0.2-2.4-0.2-4.8-0.5-7.1c-0.1-0.9-0.5-1.8-0.8-2.7
				c-0.1,0-0.3,0.1-0.4,0.1c0.1,0.9,0.3,1.8,0.4,2.7c0.2,2.5,1.4,4.8,0.4,7.4c-0.1,0.3,0,0.8,0.1,1.2c0,0.7,0.3,1.5,0.1,2.1
				c-0.5,1-0.3,2-0.2,3c0.5,3.5,0.8,7,1.3,10.5c0.1,0.9,0.1,1.9,0.4,2.7c0.5,1.4,0.3,1.8-1.1,2.3c-0.6,0.2-1.3,0.4-2.2,0.7
				c2.6,0.6,3.7,0,4.2-2.2c0.1-0.5,0.1-1,0.1-1.5c0-8.8,0-17.6,0-26.3c0-2.3,0.1-4.5,0.2-6.8c0-0.2,0.1-0.4,0.2-0.5
				c1.6,3.5,3.4,6.9,4.8,10.4c3.7,9.6,5.9,19.5,8,29.6c0.6,2.9,1.2,5.9,1.8,9c-0.8,0.1-1.5,0.1-2.3,0.2c-0.5-0.1-0.9-0.2-1.4-0.2
				c-5.2,0-10.3,0-15.5,0c-1.5,0-3.1,0-4.7,0c0.2,2.7-0.3,5.3,0.3,7.8c0.1,0,0.3,0,0.4,0c0.1-0.5,0.3-1,0.4-1.5
				c2.7-0.2,5.4-0.4,8.2-0.5c0-0.2,0-0.3,0-0.5c-2.7,0-5.5,0-8.2,0c0-1.1,0-1.9,0-2.9c4.2,0,8.3,0,12.4,0c1.9-0.1,3.9-0.1,5.8-0.3
				c0.2,0,0.5-0.2,0.7-0.3c0.9,0.2,1.9,0.4,2.8,0.6c0.9,0.2,1.5,0.8,1.6,1.7c0.5,2.9,0.9,5.9,1.4,8.8c-0.8,0.1-1.6,0.3-2.5,0.3
				c-4.7,0-9.4,0.1-14.1,0.1c-2,0-3.9-0.1-5.9,0c-1.2,0-2.2-0.1-2.3-1.7c-0.1,0.1-0.2,0.1-0.4,0.2c0.2,1.2,0.3,2.4,0.4,3.4
				c0.8-0.2,1.5-0.5,2.2-0.5c1.2-0.1,2.5,0,3.7,0c1,0.1,1.7-0.2,2.3-1c4.5,0,9,0,13.5,0c1,0,1.8,0.2,2.1,1.2
				c0.1,0.5-0.2,1.3-0.5,1.8c-1,1.3-1.9,2.6-1,4.5c-5,0.1-9.6,0.2-14.3,0.2c-2.6,0-5.2,0-7.8,0c0,0.6,0,1.1,0,1.7
				c1.7-0.1,3.3-0.1,4.9-0.3c1-0.1,1.9-0.6,2.9-0.9c1.6,0,3.3,0.1,4.9,0c4.2-0.2,8.4,0.5,12.6-0.5c0.2,0.6,0.3,1.3,0.5,1.9
				c-0.1,0.2-0.1,0.5-0.2,0.7c0,0,0,0.1,0,0.1c0,0.8-0.1,1.5-0.1,2.3c0,3.1,0.2,3-2.9,3c-1.1,0-2.2,0.2-3.2,0.2c0,0.1,0,0.3,0,0.4
				c0.4,0.1,0.7,0.3,1.1,0.3c1.3,0,2.6,0.1,4,0c0.9-0.1,1.2,0.3,1.1,1.2c-0.1,1.4,0,2.9,0,4.3c0,1.9,0.5,2.6,2.4,3.4
				c0.1,1,0.1,2.1,0.2,3.1c0.3,3.6,0.5,7.3,0.8,10.9c0,0.7,0.4,0.8,1,0.8c1.9,0,3.8,0.1,5.7,0.1c0.2,0.3,0.3,0.5,0.5,0.8
				c1.1,1.5,0.3,3.6-1.5,4c-1.1,0.2-2.2,0.2-3.4,0.3c1.9,0.7,14.4,1.2,17,0.6c-0.6-0.1-1.2-0.2-1.8-0.3c-0.3-0.1-0.9-0.2-0.9-0.4
				c-0.1-1.1-0.2-2.3,0-3.5C233.4,186.4,234.1,186.1,234.5,185.8z M199,215c2,0,4.1,0,6.1,0c0-0.1,0-0.2,0-0.3
				c-0.2-0.1-0.4-0.3-0.6-0.3c-1.6,0-3.2-0.1-4.8,0C199.5,214.5,199.2,214.8,199,215c-0.3,0.3-0.9,0.5-0.9,0.8c-0.1,1.6,0,3.2,0,4.8
				c0.1,0,0.3,0,0.4,0C198.6,218.8,198.8,216.9,199,215z M195.7,186c5,0,9.9,0,15.1,0c0,1,0,1.8,0,2.7c0.1,0.1,0.2,0.1,0.3,0.2
				c0.5-0.6,1-1.2,1.6-1.8c1.1-1.2,1.1-1.7,0.2-2.6c-0.8,0.2-1.5,0.6-2.2,0.6c-4.9,0.1-9.9,0-14.8,0c-2.7-0.1-5.3-0.1-8.3-0.2
				c0.5-2.1,0.9-4,1.3-5.9c0.1-0.8,0.6-0.9,1.2-0.9c1.8,0,3.6,0,5.3,0c0-0.1,0-0.2,0-0.4c-1.9-1.4-4.3-0.2-6.3-0.8
				c0-0.4,0-0.8,0-1.2c-0.1-2.5,0.8-4.4,3.5-5c1-0.2,1.9-0.9,2.9-1.4c0-0.1-0.1-0.2-0.1-0.3c-1.3-0.1-2.7,0-4-0.3
				c-1-0.2-1.9-0.7-2.8-1.1c-0.3-0.2-0.6-0.5-1.1-1c-0.1,1-0.4,1.7-0.4,2.4c0,4.4,0.1,8.7,0.2,13.1c0,4.7,0,9.4,0,14.2
				c0,1.1,0,2.1-1.4,2.4c0.6,0.4,1.2,0.9,1.8,0.9c4.4,0,8.8,0,13.2-0.3c1.2-0.1,2.3-0.9,3.5-1.5c0.3-0.2,0.4-0.7,0.7-1.2
				c-0.8,0-1.3,0-1.8,0c-3.1,0.1-6.1,0.1-9.2,0.2c-1.4,0-2.9,0.3-4-0.9c-0.8,0.5-1.4,0.9-2.4,1.6c0.2-3.9,0.4-7.3,0.5-10.9
				c2.1,0,4,0,5.9,0C194.6,186.5,195.1,186.2,195.7,186z M176.7,198.6c2.2,0.1,4.5,0.2,6.8,0.3c0.9,0.1,1.1-0.2,1.1-1.1
				c-0.1-2.6-0.2-5.3-0.2-7.9c-0.1-4.3-0.2-8.5-0.2-12.8c-0.1-4-0.1-8.1-0.2-12.1c-0.2-6.6-0.3-13.2-0.5-19.8
				c-0.1-3.6-0.5-7.2-0.7-10.7c-0.1-0.8-0.2-1.5-0.3-2.3c-0.2-2.4-0.4-4.8-0.6-7.1c-0.1-0.1-0.3-0.1-0.4-0.2
				c-0.9,0.8-2.3,1.4-2.5,2.3c-0.3,1.7-2.1,3.4-0.5,5.3c0.1,0.1,0,0.3,0,0.5c-0.3,1.4-0.6,2.9-0.9,4.3c-0.1,0.3-0.2,0.7-0.2,1
				c0.1,1.1,0.3,2.3,0.2,3.4c0,4.3-0.1,8.6-0.2,12.9c-0.1,4.3-0.2,8.5-0.2,12.8c-0.1,6-0.2,11.9-0.3,17.9
				C176.6,189.8,176.7,194.1,176.7,198.6z M219.5,218.1c2.7,0.2,5.4,0.5,8,0.5c2.4,0.1,4.8-0.1,7.2-0.2c1.2-0.1,1.6,0.4,1.7,1.5
				c0.2,1.8,0.4,3.6,0.7,5.4c0.1,0.5,0.5,1.2,0.8,1.2c0.6,0,1.6-0.2,1.9-0.6c0.5-0.8,0.8-1.8,1-2.7c0.2-1,0.2-2,0.2-3
				c0-2.6,0.5-5.3-0.5-7.8c-0.8-1.8-0.8-1.8-2.8-1.5c-0.4,0.1-0.7,0.1-1.1,0c-3.4-0.1-6.9-0.2-10.3-0.2c-2.6,0-5.2,0.2-7.7,0.5
				c-1.5,0.2-2.9,0.8-4.5,1.2c0.6,1.5,1.6,1.8,2.9,1.9c1.8,0,1.9,0.1,2.2,1.9C219.3,216.8,219.4,217.4,219.5,218.1z M273.2,192.3
				c0-0.1,0-0.2,0-0.3c-2.5,0-4.9-0.1-7.4,0.1c-0.5,0-1.2,1-1.3,1.6c-0.2,1.3-0.1,2.6,0,3.9c0,0.4,0.5,0.9,0.8,1.1
				c0.9,0.4,2,0.6,2.9,1c0.4,0.2,1,0.5,1.1,0.8c0.4,1.8,1.6,1.9,3.1,1.8c0.5,0,1,0,1.4,0c2.7,0,2.7,0,3.3-2.7
				c0.5-2.1,0.5-2.1,2.6-2.1c0.5,0,1,0,1.4,0c1-0.1,1.7-0.6,1.8-1.7c0.1-0.9,0-1.8,0-2.7c-1-0.1-1.9-0.2-2.7-0.2
				c-0.9,0-1.8,0-2.6,0.2c-0.2,0-0.6,0.5-0.6,0.8c-0.1,1,0.2,2.6-0.3,3c-0.7,0.6-2.1,0.2-3.2,0.2c-0.1,0-0.2,0-0.2,0
				c-3.1,0-3.1,0-2.9-3.1c0-0.8,0.3-1.3,1.2-1.3C272.2,192.7,272.7,192.5,273.2,192.3z M230.8,207.7c0,0,0-0.1,0-0.1
				c1.4,0,2.8,0,4.2,0c1.9,0,3.1-0.9,3.3-2.9c0.2-1.9,0.2-3.9,0.2-5.8c0-0.4-0.6-1.1-1-1.1c-1.2-0.2-2.5-0.3-3.8-0.3
				c-2.6,0-5.1,0-7.7,0c-1.3,0-1.8,0.5-1.8,1.8c0,2.2,0,4.5,0,6.7c0,0.8,0.3,1.3,1.2,1.3C227.1,207.5,229,207.6,230.8,207.7z
				 M180.7,103.7c0.1,0,0.2,0.1,0.4,0.1c0.2-0.5,0.5-1,0.5-1.5c0-1.8-0.1-3.6-0.2-5.4c-0.1-2.5-0.1-4.9-0.3-7.4
				c-0.1-1.9-0.4-3.9-0.4-5.8c-0.1-1.7,0.1-3.4,0.1-5.3c0.7,0.3,1.2,0.5,1.9,0.9c-0.6-1.4-1.1-2.4-1.4-3.6c-0.4-1.4-1.2-2-2.8-1.8
				c1.7,2.2,0.4,3.8-1.2,5.4c0.1,0.1,0.2,0.1,0.4,0.2c0.5-0.4,1-0.7,1.8-1.3c0,5.1,0,9.9,0,14.7c0.1,0,0.3,0,0.4,0
				c0-3.4,0-6.8,0-10.2C181,89.7,180.6,96.7,180.7,103.7z M173.5,218.8c1.3-1.2,1.1-15.4,0.1-18.4c-0.6,3.6-1.4,7.3-1.1,11
				c0.1,1.4,0.1,2.8,0.3,4.2C172.9,216.6,173.2,217.6,173.5,218.8z M207.7,128.7c-0.4-8.8-2.2-17.3-5.1-25.6c-0.1,0-0.2,0-0.3,0.1
				c1.1,5,2.2,9.9,3.4,14.9c-1.7,0.6-1.7,0.6-1.1,2.3c0.2-0.5,0.4-1,0.7-1.6c0.2,0,0.3,0,0.5,0C206.6,122.1,206.9,125.4,207.7,128.7
				z M157.5,198.6c1.2,0.6,12.5,0.9,14.4,0.4C170.9,198.4,160.9,198.1,157.5,198.6z M188.7,120c-5.5,0.2-10.7-0.6-15.8,0
				C173.8,120.7,186.7,120.6,188.7,120z M187.8,161.9c2.7-0.2,5.3-0.4,7.9-0.6c0-0.1,0-0.3,0-0.4c-0.3-0.1-0.6-0.2-0.9-0.2
				c-2.1,0-4.2,0-6.3,0C187.7,160.5,187.6,160.9,187.8,161.9z M179.2,102.9c-0.1,0-0.2,0-0.3,0c0,0.2-0.1,0.4-0.1,0.6
				c-0.2,2.7-0.4,5.5-0.5,8.2c0,0.6,0.3,1.3,0.5,2c0.1,0,0.2-0.1,0.4-0.1C179.2,110,179.2,106.5,179.2,102.9z M178.2,117.8
				c4-0.2,8.2,0.8,12.1-1.1c-0.8,0-1.6,0-2.5,0.1c-1.3,0.2-2.5,0.6-3.8,0.7c-0.7,0.1-1.4-0.4-2.1-0.5c-0.3-0.1-0.7-0.2-0.9-0.1
				C180,117.1,179.1,117.5,178.2,117.8z M189.8,93.4c0.1,0,0.2,0,0.3-0.1c0.1-2.9-1.1-5.3-3.2-7.4C187.9,88.4,188.8,90.9,189.8,93.4
				z M199,110.1c-0.4-2.7-0.7-5.3-1.1-8.2C196.3,105.1,197.9,107.6,199,110.1z"/>
			<path class="st1" d="M185,206.1c0.2,5,0.4,10.1,0.6,15.1c0.1,0,0.1,0,0.2,0c0-0.4,0-0.8,0-1.3c0-3.6,0-7.1,0-10.7
				c0-2.3,0.1-4.5,0.2-6.8c0-0.6,0.4-1.2,0.8-1.8c0.2,0.9,0.5,1.9,0.6,2.8c0.2,2,0.5,4,0.5,5.9c0.1,5.4,0,10.9,0,16.3
				c0,1.5,0.6,2.1,2.1,2.2c1.3,0.1,2.5,0,3.8,0c0.4,0,0.9,0,1.3,0.1c1.7,0.4,1.9,0.5,1.9,2.3c0,0.8,0.2,1.2,1.1,1.2
				c2.2,0.1,4.5,0.2,6.7,0.1c0.9,0,0.9-0.8,0.9-1.5c0-4.4,0-8.9,0-13.3c0-0.3,0-0.6,0-0.9c0.1,0,0.2,0,0.3,0c0,5.1,0,10.3,0,15.5
				c0.6,0.1,1.2,0.2,1.9,0.3c-0.3-7.7,0.1-15.3,1-22.9c1.4,0.3,2.3,1.3,2.5,2.8c0,0.1,0,0.2,0,0.4c0.1,3.8,0.2,7.6,0.2,11.4
				c0,2.3-0.2,4.7-0.2,7c0,5.6,0.2,11.2,0.2,16.8c0,2.1-0.2,4.3-0.2,6.4c0,3.6,0.1,7.2,0.2,10.8c-0.7,0.5-1.3,1-2,1.5
				c-0.4-3.7-0.9-7.3-1.1-11c-0.2-4-0.2-8-0.3-12c-0.1-2.7-0.2-5.3-0.2-8c0-0.9-0.4-1.3-1.3-1.3c-3.1,0-6.2,0-9.2,0
				c-0.3,0-0.6,0.1-1,0.1c0,0.5,0,1,0,1.4c0.2,5.6,0.4,11.2,0.4,16.7c0.1,11.2,0,22.3,0,33.5c0,0.6-0.1,1.3-0.3,1.9
				c0,0.1-0.3,0.1-0.5,0.1c-0.6-0.1-1.3-0.4-1.9-0.4c-9.5,0-19,0.1-28.5,0.2c0.1-3.1,0.2-6.3,0.2-9.4c0-10.5,0-21,0-31.6
				c0-2.4,0-4.7,0-7.1c0-0.9,0.3-1.2,1.2-1.1c1.1,0.1,2.2-0.1,3.2,0c1.8,0.2,3-0.3,3.5-2.1c0,0,0.1-0.1,0.2-0.1
				c0.1,1,0.3,1.9,0.4,2.9c0.1,0,0.2,0,0.3,0c0-2.7,0-5.4,0-8.2c-0.4,0.9-0.7,1.5-0.9,2.2c-0.1,0-0.2-0.1-0.3-0.1
				c-0.1-1.2-0.3-2.3-0.4-3.6c-2.3,0-4.5-0.1-6.7,0c-0.9,0-1.6,0.6-1.6,1.6c0,1.5,0,2.9,0,4.4c0,15.2,0,30.5,0,45.7
				c0,0.3-0.1,0.6-0.1,1c-0.1,0-0.2,0-0.3,0c-0.1-0.3-0.2-0.7-0.2-1c-0.1-3.8-0.2-7.6-0.2-11.4c0-10.8,0-21.7,0-32.5
				c0-0.3,0-0.6,0-1c-0.1-1.1-0.7-1.6-1.8-1.8c-1.5-0.2-3-0.4-4.6-0.5c-1.6-0.1-3.2,0-5,0c0,0.5,0,1.2,0,1.8
				c-0.1,5.6-0.1,11.2-0.3,16.8c-0.1,4.5-0.5,8.9-0.7,13.4c-1-0.4-2-0.8-3-1.2c-6.2-2.6-12.3-5.3-18.5-7.9c-5.3-2.3-10.7-4.5-16-6.7
				c-1-0.4-1.5-1.1-1.4-2.2c0-2.3,0.1-4.5,0.1-6.8c0-7.8,0-15.5,0-23.3c0-0.4-0.1-0.8-0.1-1.2c-5.6,0-11,0-16.4,0
				c0,0.3-0.1,0.5-0.1,0.7c-0.1,13.5-0.2,26.9-0.2,40.4c-1.8-0.9-3.6-1.9-5.4-2.8c-5.3-2.9-10.5-5.8-15.8-8.7
				c-11.6-6.4-23.2-12.7-34.9-19.1c-7.4-4-14.7-8.1-22.1-12.1c-3-1.6-5.1-3.9-6.6-6.9c-1-2-1.6-4-1.8-6.2c-0.2-2.1-0.4-4.4-1.5-6.1
				c-1.7-2.7-2-5.8-3-8.7c-1-2.9-1.6-5.9-2.4-8.9c0.3,0.1,0.7,0.1,1,0.3c2.1,1,4.3,1.8,6.6,1.8c0.6,0,1.1-0.4,1.7-0.6
				c1.1,0.2,2.3,0.4,3.4,0.7c0.1,1.3,0.7,2,2.1,2.3c3.6,0.9,7.1,2.1,10.6,3.2c1.2,0.4,2.5,0.7,3.7,0.7c2.1,0.1,4,0.6,5.5,1.7
				c-0.7,0.7-1.5,1.4-2.2,2.2c-2.7,3.3-5.4,6.6-8.1,9.9c-3,3.7-5.6,7.7-9.2,11c-1.1,1.1-1,1.8,0.3,2.5c2.1,1.1,4.1,2.1,6.2,3.2
				c0.9,0.4,1.8,0.5,2.5-0.4c0.7-0.9,1.8-1.7,1.9-3c0-0.2,0.2-0.5,0.4-0.6c1.1-0.9,2.1-1.8,3.1-2.5c2.6,1.4,5.1,2.9,7.6,4.2
				c2,1.1,2,1,2.9-1.1c0.3-0.7,0.7-1.1,1.5-0.7c0.2,1.4,0.4,1.8,1.8,2.5c2.2,1.2,4.3,2.4,6.7,3.7c-1.9,2.3-3.6,4.4-5.1,6.3
				c-0.6-0.7-1-1.3-1.5-1.7c-1.8-1.2-3.6-2.3-5.5-3.4c-0.2-0.1-0.5-0.1-0.8-0.1c-2,0-3.1,1.2-3.9,3.1c8.4,3.9,16.2,9,24.8,12.9
				c0-13.6,0-27,0-40.4c1.2-0.2,2.4-0.5,3.6-0.5c2.1,0.1,2.3,0.1,2.3-2c0-0.3,0-0.6,0-1c0.2,0,0.3,0,0.5,0c0.3,2.4,0.5,2.5,2.4,2.4
				c2.5-0.1,4.9-0.3,7.4-0.5c0.8-0.1,1.7-0.4,2.5-0.7c0.6-0.2,1.3-0.5,1.8-0.4c2.2,0.6,4.5,0.4,6.7,0.1c1.9-0.3,3.1,0.7,3.1,2.6
				c0,0.9,0,1.8,0,2.6c0,0.3,0.1,0.7,0.3,0.8c0.7,0.5,3.6,0,4.1-0.7c0.7-0.8,0.9-3.9,0.2-4.7c-0.3-0.4-0.9-0.5-1.4-0.8
				c-0.2-0.1-0.5-0.1-0.8-0.2c0.7-0.3,1.5-0.4,1.8-0.9c0.4-0.6,0.4-1.4,0.6-2.1c0.1,0.3,0.2,0.7,0.1,1c-0.2,1.1,0.3,1.5,1.4,1.5
				c1.9,0,3.8,0.3,5.8-0.2c1.6-0.4,2.6,0.7,2.6,2.3c0.1,1.6,0.3,3.2,0.5,4.9c0.2,1.7,0.6,2.1,2.3,2.1c1.3,0,2.6-0.2,3.9,0
				c1.4,0.2,1.7,0.1,1.7-1.2c0-1.5,0-3,0-4.6c0-1,0-2,0-3.1c-1.4-0.1-2.6-0.2-3.6-0.3c0.6-0.8,1.1-1.6,1.7-2.4
				c0,0.3,0.1,0.9,0.1,1.4c0.5,0.1,0.8,0.2,1.2,0.2c1.5,0.2,3,0.6,4.5,0.5c2.8-0.2,5.7-0.6,8.5-0.8c0.9-0.1,1.2-0.4,1.1-1.2
				c-0.1-1.3,0-2.6,0-3.8c0.2,0,0.5,0,0.7,0c-0.1,0.5-0.1,1.1-0.2,1.6c-0.4,2.4,1,3.6,2.8,3.4c0.6-0.1,1.2,0,1.8,0
				c1.6,0,3.1,0,4.7-0.1c2.4-0.3,4.7-0.7,7.1-1.1c1.7-0.2,3.3-0.3,5.1-0.5c-1.9-2.6-4.2-4.1-7.4-3.9c-0.9,0.1-1.7-0.1-2.6-0.2
				c0.7-0.1,1.3-0.2,2-0.3c1.8-0.2,1.8,0.3,2.1-2.1c0.1-0.5,0.2-1,0.3-1.5c0.1,0.4,0.2,0.8,0.2,1.1c0,2.2,0,2.2,2.3,2.2
				c0.9,0,1.2-0.3,1.1-1.2c-0.1-0.6,0-1.3,0-1.9c0.2,0.2,0.2,0.3,0.2,0.5c0.1,2.3,0.7,2.9,3,2.9c4.9,0,9.8,0,14.8,0
				c-0.1,0.3-0.2,0.6-0.3,1c-4-0.2-8-0.3-12.1-0.5c-1.2-0.1-2.4-0.2-3.7-0.3c0.4,1.3,0.6,2.4,0.9,3.5c0.6,2.4,1.2,4.7,1.2,7.2
				c0.1,4.4,0,8.8,0.5,13.1c0.8,7.3,0.2,14.5,0.4,21.8c0,1.2,0.7,1.6,1.8,1c0.2-0.1,0.3-0.3,0.4-0.4c0.1-1.1,0.1-2.2,0.1-3.3
				c0-2-0.1-4-0.1-6c0-1.9,0.1-3.8,0.2-5.7c0.1-1,0.4-1.7,1.7-1.6c1.5,0.1,2.9-0.2,4.4-0.2c0.4,0,1.1,0.4,1.2,0.8
				c0.3,1,0.6,2.2,0.6,3.3c0.1,4,0,8.1,0,12.1c0,0.5,0.3,1,0.4,1.5c0.2,0,0.3-0.1,0.5-0.1c0-0.9,0-1.8,0-2.7
				c-0.1-0.9,0.4-1.2,1.2-1.2c2.5-0.1,5-0.3,7.5-0.5c0.8,0,1-0.3,0.9-1c-0.2-1.5-0.3-3.1-0.6-4.6c-0.2-1.1-0.1-1.9,0.8-2.7
				c0.3,1.4,0.7,2.6,1,3.9c0.1,0,0.3,0,0.4,0c0.2-0.8,0.5-1.6,0.5-2.5c0-4.6,0-9.1,0-13.7c0-0.4,0.1-0.8,0.2-1.3
				c0.4-0.1,0.8-0.2,1.1-0.4c2.1-1.3,4.2-1.3,6.4-0.3C183.9,205.5,184.5,205.8,185,206.1z M178.3,254.9c-0.1-1.6-0.2-3.1-0.3-4.7
				c-1.4-0.2-1.5,0.6-1.5,1.5c0,5.5,0,11.1,0,16.6c0,0.2,0,0.5,0.1,0.7c0.3,0.6,0.7,1,1.3,0.4c0.1-0.1,0.2-0.3,0.2-0.4
				C178.6,264.3,178.5,259.6,178.3,254.9z M188.1,238c2.4-0.1,4.5-0.3,6.6-0.4c0.7,0,1.1-0.2,1.2-1c0.1-1.7,0.3-3.5,0.4-5.2
				c0-0.7-0.1-1.3-0.3-2c0-0.2-0.4-0.5-0.7-0.5c-2.2,0-4.5,0-6.7,0c-0.3,0-0.7,0.4-0.7,0.6C188,232.4,188,235.2,188.1,238z
				 M184.2,269.9c0.2-1.3,0.5-2.4,0.6-3.5c0.1-2,0.1-4.1,0.1-6.1c-0.1-3.4-0.2-6.7-0.3-10.1c0-0.2-0.4-0.5-0.7-0.6
				c-0.2-0.1-0.6,0.2-0.7,0.4c-0.2,0.5-0.5,1-0.5,1.6c-0.1,1.7-0.2,3.5-0.2,5.2c0,3.1,0.2,6.2,0.2,9.3
				C182.6,267.5,183,268.6,184.2,269.9z M131.9,206.1c1.8,0,3-1.1,3.4-3.1c0.3-1.4-0.4-2.7-1.8-3.1c-0.8-0.3-1.7-0.4-2.6-0.4
				c-1.3,0-1.9,1-1.7,2.2c0.2,0.9,0.4,1.8,0.5,2.7C130.1,205.9,130.3,206.2,131.9,206.1z M72,226.5c0-2.5-2.2-3.7-4.6-2.6
				c-1.1,0.5-1.8,1.3-1.8,2.6c0,1.7,2,3.5,3.7,3.4C70.8,229.9,72,228.4,72,226.5z M127.9,197.8c0,0.1,0,0.3,0,0.4c1.2,0,2.4,0,3.5,0
				c1.3,0,2.5,0.1,3.8,0.3c0.5,0.1,1.3,0.7,1.3,1c0.1,1.7,0.2,3.4,0,5.1c-0.2,1.7-0.7,2-2.4,2c-3.4-0.1-6.7-0.2-10.1-0.3
				c0,0.1-0.1,0.2-0.1,0.3c0.8,0.3,1.5,0.9,2.3,0.9c2.8,0.2,5.6,0.2,8.4,0.2c1.6,0,2.7-1.1,2.7-2.7c0-1.9,0-3.8,0-5.7
				c0-0.9-0.5-1.7-1.6-1.7C133,197.6,130.5,197.7,127.9,197.8z M117.1,226.7c0.1,0,0.2-0.1,0.4-0.1c0-11.3,0-22.6,0-33.9
				c-0.4,1.3-0.6,2.5-0.6,3.8c0,9.7,0,19.4,0,29C116.9,226,117.1,226.4,117.1,226.7z M78.5,230.6c-1.7,0-3,1.1-3,2.4
				c0,1.1,1.1,2.3,2.4,2.2c1.9-0.1,2.7-0.2,2.7-2.8C80.7,230.9,80.3,230.6,78.5,230.6z M178.3,283.6c0.1-0.2,0.2-0.4,0.2-0.5
				c0-3.4,0-6.9,0-10.3c0-0.3-0.5-0.6-0.8-0.8c-0.1-0.1-0.5,0.4-0.7,0.6c-0.1,0.2-0.1,0.5-0.1,0.7c0,2.9,0,5.8,0,8.8
				C176.9,283,177.4,283.4,178.3,283.6z M184.2,272.5c-1.2,0.4-1.8,1.2-1.7,2.7c0,2.3,0.1,4.5,0.2,6.8c0,0.3,0.1,0.5,0.1,0.8
				c0.1,0.8,0.6,1.1,1.4,0.8C184.2,279.8,184.2,276.2,184.2,272.5z M187.6,239.3c-1.3,0.1-1.6-0.5-1.6-1.6c0-3.4,0-6.8,0-10.2
				c0-1-0.2-1.9-0.3-2.9c-0.2,4.1-0.2,8.2-0.2,12.3c0,0.7-0.3,1.4-0.4,1.8c-0.8-0.2-1.5-0.6-1.9-0.5c-1.1,0.3-2.1,0.9-3.5,1.5
				c2,0.2,3.7,0.3,5.4,0.7C186.2,240.7,186.9,240.4,187.6,239.3z M177.9,240.4c-0.1,0-0.3-0.1-0.4-0.1c-0.4,0.5-1,1-1,1.5
				c-0.1,2.2-0.1,4.4-0.1,6.7c0.7,0,1.3,0,1.9,0C178.2,245.7,178.1,243.1,177.9,240.4z M182.7,241c0,2,0,4.1,0,6.1
				c0,0.4,0.3,0.8,0.5,1.2c0.4-0.3,1-0.4,1.3-0.8c0.3-0.3,0.3-0.9,0.3-1.4c-0.1-1.4-0.3-2.8-0.5-4.3
				C184.1,241,183.8,240.5,182.7,241z M174.8,229.9c0,0,0.1,0,0.1,0c0-1,0-2,0-3c0,0-0.1,0-0.1,0
				C174.8,227.8,174.8,228.9,174.8,229.9z"/>
			<path class="st1" d="M263,216.2c0.5-0.1,1-0.2,1.6-0.4c0.1,0.9,0.3,1.7,0.3,2.6c0.1,4.1,0.2,8.1,0.2,12.2c0,0.7,0.1,1.1,0.9,1
				c0.7-0.1,0.8-0.4,0.6-1.1c-0.3-1-0.1-1.9,0.9-2.5c-0.9-1.6-1.2-3.2-0.7-4.9c0.3-1,0.6-1.7,1.9-1.6c2.1,0.2,4.3-0.2,6.3,0.4
				c2.2,0.6,2.9-0.6,3.7-2c0.8-1.5,1.8-2.6,3.5-3.2c1.3-0.5,1.3-0.8,0.6-2c-0.1-0.2-0.3-0.4-0.4-0.6c-0.2-0.6-0.3-1,0.6-1.2
				c1.3-0.3,2.4-0.4,3.4,0.7c0.6,0.7,1.2,0.3,1.8-0.1c0.7-0.5,0.3-0.9,0.1-1.4c-0.2-0.4-0.1-0.9-0.1-1.3c0.1-0.8,0.3-1.5,0.2-2.3
				c-0.2-1.5,1-3.1,2.5-2.9c0.5,0.1,0.9,0.9,1.4,1.4c-0.6,0.4-0.9,0.6-1.3,0.8c0,0.1,0.1,0.3,0.1,0.4c0.6-0.2,1.4-0.2,1.7-0.5
				c0.6-0.7,0.8-1.7,0.2-2.6c-0.2-0.4-0.6-0.6-0.9-1c-0.8-1-0.5-2.1,0.6-2.7c2.2-1,2.3-1.4,1.5-3.6c-0.1-0.3-0.1-1,0.1-1.2
				c0.5-0.3,1.1-0.5,1.7-0.5c0.4,0,0.8,0.4,1.2,0.5c0.6,0.1,1.4,0.3,1.9,0c0.4-0.2,0.4-1.1,0.6-1.7c-2.9-0.3-5.6-0.5-8.5-0.7
				c0.2-0.2,0.3-0.3,0.3-0.3c2.2-0.1,2.2-0.1,2.3-2.8c0.2,0,0.3,0,0.5,0.1c-0.1,0.4-0.1,0.9-0.2,1.3c-0.1,0.7,0.1,1.3,0.9,1.4
				c0.8,0.1,1.6,0,1.6-1c0-0.4,0-0.9,0-1.3c0.2,0,0.3,0,0.5,0c0.1,0.9,0,2,0.4,2.5c0.4,0.4,1.5,0,2.4-0.1c0.2,0,0.4-0.2,0.5-0.3
				c0.7-0.4,0.7-1,0.2-1.6c-0.2-0.2-0.5-0.4-0.7-0.6c8.9-2.5,17.8-4.9,26.6-7.4c5.6-1.6,11.2-3.6,16.9-4.8c4.7-1,9-2.9,13.5-4.3
				c0.3-0.1,0.5-0.1,1.1-0.3c-0.2,1.6-0.3,3.1-0.7,4.5c-1.6,6-3.2,11.9-4.9,17.9c-0.2,0.2-0.5,0.3-0.6,0.6c-1.1,2.7-2.3,5.3-3.2,8
				c-0.9,2.5-2,4.7-4.6,6.1c-0.1-0.1-0.2-0.4-0.4-0.6c-1.1-1.5-2.1-3-3.3-4.4c-1.3-1.6-2.7-3.1-4-4.7c-0.6-0.7-0.9-1.7-1.5-2.4
				c-3.1-3-5.7-6.5-8.2-10.1c-1.2-1.7-2.4-2.5-4.5-1.8c-2.4,0.7-4.9,1.1-7.3,1.9c-1.5,0.5-1.6,1.2-0.6,2.5c2.7,3.3,5.3,6.6,8,9.9
				c1.1,1.3,1,2-0.4,2.9c-2.3,1.4-4.5,3-6.9,4.5c0.6,0.8,1,1.5,1.5,2.1c0.6,0.8,0.7,1.4-0.3,2c-1.4,0.7-2.7,1.6-4,2.4
				c-1.2,0.8-2.4,1.5-3.7,2.4c1.2,1.6,2.3,2.9,3.3,4.4c0.6,1,1.1,0.8,1.9,0.2c1.9-1.3,3.9-2.5,5.9-3.7c1.4-0.8,1.5-0.8,1-2.3
				c-0.1-0.3-0.2-0.7-0.3-1c-0.3-1,0-1.9,0.9-2.4c2.4-1.4,4.9-2.6,7.4-4c1.8,2.4,3.6,4.8,5.5,7.3c-0.5,0.3-0.8,0.6-1.2,0.8
				c-5,2.8-10.1,5.6-15.2,8.4c-5.5,3-11,6-16.4,9.1c-0.8,0.4-0.9,0.9,0,1.3c-3.9,2.2-7.7,4.3-11.6,6.5c-7.9,4.4-15.9,8.9-23.9,13.3
				c-0.7,0.4-1.5,1.2-1.9-0.3c0.2-0.4,0.5-0.9,0.5-1.3c-0.1-4.4-0.7-8.8-0.5-13.2c0.3-6.4,0-12.9,0.1-19.3
				C264.6,219.9,263.9,218.1,263,216.2z M279.9,231.1c-1.8,1-3.6,2-5.3,3.1c-0.3,0.2-0.5,0.8-0.4,1c0.1,0.3,0.6,0.6,1,0.6
				c3.5,0,7,0,10.4,0c0.9,0,1-0.4,1-1.1c0-2.7,0-5.4,0-8.1c0-0.3-0.1-0.5-0.1-0.9c-1.5,0.9-2.8,1.8-4.1,2.6c0.4,0.6,0.6,1.1,0.9,1.5
				C282.1,230.3,281,230.7,279.9,231.1z M299.3,216.3c-0.5,0.3-0.8,0.5-1.1,0.7c-2.4,1.7-4.8,3.4-7.2,5.1c-1.3,0.9-2.3,1.7-2.3,3.4
				c0,0.7-0.3,1.4-0.3,2.1c0,2.7,0,5.5,0,8.3c3.4,0.2,6.4,0.3,9.4,0.4c1.3,0,1.6-0.3,1.6-1.6c0-5.8,0-11.6,0-17.4
				C299.3,217.1,299.3,216.8,299.3,216.3z"/>
			<path class="st0" d="M151.7,265.5c0.2-4.5,0.6-8.9,0.7-13.4c0.2-5.6,0.2-11.2,0.3-16.8c0-0.6,0-1.3,0-1.8c1.7,0,3.4-0.1,5,0
				c1.5,0.1,3,0.3,4.6,0.5c1,0.1,1.7,0.7,1.8,1.8c0,0.3,0,0.6,0,1c0,10.8,0,21.7,0,32.5c0,3.8,0.1,7.6,0.2,11.4c0,0.3,0.2,0.7,0.2,1
				c0.1,0,0.2,0,0.3,0c0-0.3,0.1-0.6,0.1-1c0-15.2,0-30.5,0-45.7c0-1.5,0-2.9,0-4.4c0-1,0.8-1.6,1.6-1.6c2.2-0.1,4.4,0,6.7,0
				c0.2,1.3,0.3,2.5,0.4,3.6c0.1,0,0.2,0.1,0.3,0.1c0.3-0.6,0.6-1.3,0.9-2.2c0,2.9,0,5.6,0,8.2c-0.1,0-0.2,0-0.3,0
				c-0.1-1-0.3-1.9-0.4-2.9c0,0-0.2,0-0.2,0.1c-0.5,1.8-1.7,2.3-3.5,2.1c-1.1-0.1-2.2,0-3.2,0c-0.9-0.1-1.2,0.2-1.2,1.1
				c0.1,2.4,0,4.7,0,7.1c0,10.5,0,21,0,31.6c0,3.1-0.1,6.3-0.2,9.4c0.3,0.1,0.6,0.2,0.9,0.2c9.9,0,19.7,0,29.6,0
				c0.2,0,0.4-0.1,0.5-0.1c0.1-0.6,0.3-1.3,0.3-1.9c0-11.2,0.1-22.3,0-33.5c0-5.6-0.3-11.2-0.4-16.7c0-0.4,0-0.9,0-1.4
				c0.4-0.1,0.7-0.1,1-0.1c3.1,0,6.2,0,9.2,0c0.9,0,1.3,0.4,1.3,1.3c0.1,2.7,0.2,5.3,0.2,8c0.1,4,0,8,0.3,12c0.2,3.7,0.7,7.3,1.1,11
				c-0.3,5.3,0.7,10.5,1.5,15.6c0,0.4,0,0.7,0,1.1c-2.7,1.9-4.1,4.5-4.3,7.7c-0.1,2.5-0.2,5.1-0.3,7.7c-0.1,1.5-0.3,1.6-1.8,1.8
				c-2.8,0.4-5.6,0.9-8.4,1.4c-5.6,1-11.3,0.8-17,0.7c-4.6-0.1-9.3-0.2-13.9-0.5c-3.4-0.3-6.8-0.9-10.2-1.5c-0.3,0-0.6-0.6-0.6-0.9
				c-0.3-3.4-0.4-6.8-0.7-10.1c-0.1-0.7-0.4-1.6-0.8-2.2c-0.9-1.3-2-2.6-3-3.8c0-0.6,0-1.2,0-1.8c0.2-2.1,0.4-4.2,0.6-6.3
				C151.2,271.7,151.4,268.6,151.7,265.5z M200.9,274.2c0-0.6,0-1,0-1.5c0-6.5,0-13,0-19.6c0-0.9-0.4-1.8-0.6-2.7
				c-0.2,0-0.4,0-0.6,0.1c0,4-0.1,8,0,12c0.1,3.5,0.3,6.9,0.5,10.4c0.1,2.1,0.2,2,2.3,2.1c1.1,0,1.3-0.3,1.3-1.3
				c0-7.4,0-14.9,0-22.3c0-0.3,0-0.6-0.1-0.8c-0.1,0-0.2,0-0.3,0c-0.1,0.9-0.3,1.9-0.3,2.8c0,6.5,0,13,0,19.4c0,0.5,0,0.9,0,1.5
				C202.3,274.2,201.7,274.2,200.9,274.2z M161.5,250.5c-0.2-0.1-0.3-0.1-0.5-0.2c-0.2,0.6-0.6,1.2-0.6,1.8c0,2,0.2,4,0.2,6
				c0,5,0,9.9,0,14.9c0,0.4,0,0.8-0.1,1.3c-0.4,0-0.5,0.1-0.7,0.1c-1.8,0-1.8,0-1.8-1.8c-0.1-6.8-0.1-13.6-0.2-20.4
				c0-0.5-0.1-1.1-0.3-1.5c-0.8-1.3-0.4-2.4,0.1-3.6c0.3-1,1-1.3,2-0.9c0.7,0.2,1.3,0.4,2.3,0.7c-0.2-0.5-0.2-0.8-0.4-1
				c-0.8-0.9-2.5-1.1-3.5-0.5c-1.6,1-2,2-1.5,3.6c0.4,1.4,1,2.8,1,4.3c0.1,6.4,0,12.9,0.1,19.3c0,0.4,0.1,0.9,0.1,1.3
				c0.2,1.3,1.1,1.3,2.1,1.2c0.9-0.1,1.7-0.2,1.7-1.6c-0.1-5.1,0-10.2,0-15.3c0-0.6,0.1-1.1,0.2-1.7
				C161.3,254.4,161.4,252.5,161.5,250.5z M169.6,230.9c-1.7,0-2.8,0.6-3.1,1.5c-0.2,1,0.1,1.8,0.9,2.4c0.9,0.7,1.9,1.6,3.2,1.1
				c1.1-0.4,2-1.9,1.8-3.1C172.3,231.6,171.3,230.9,169.6,230.9z"/>
			<path class="st0" d="M66.5,192c0,0.3,0,0.6,0,1c0,2.1-0.1,2.1-2.3,2c-1.2-0.1-2.4,0.3-3.6,0.5c0,13.5,0,26.8,0,40.4
				c-8.6-3.9-16.4-9-24.8-12.9c0.7-1.9,1.8-3.1,3.9-3.1c0.3,0,0.6,0,0.8,0.1c1.8,1.1,3.7,2.2,5.5,3.4c0.6,0.4,1,1,1.5,1.7
				c1.5-1.9,3.2-4,5.1-6.3c-2.4-1.3-4.6-2.5-6.7-3.7c-1.3-0.7-1.6-1-1.8-2.5c-0.8-0.4-1.2-0.1-1.5,0.7c-0.9,2.1-0.9,2.1-2.9,1.1
				c-2.5-1.3-5-2.8-7.6-4.2c-1,0.8-2.1,1.7-3.1,2.5c-0.2,0.1-0.3,0.4-0.4,0.6c-0.1,1.4-1.2,2.1-1.9,3c-0.7,0.9-1.6,0.8-2.5,0.4
				c-2.1-1-4.1-2.1-6.2-3.2c-1.4-0.7-1.5-1.4-0.3-2.5c3.6-3.3,6.2-7.3,9.2-11c2.7-3.3,5.4-6.6,8.1-9.9c0.7-0.8,1.5-1.5,2.2-2.2
				c-1.5-1-3.4-1.6-5.5-1.7c-1.2-0.1-2.5-0.4-3.7-0.7c-3.6-1-7.1-2.2-10.6-3.2c-1.4-0.4-2-1-2.1-2.3c4.3,1.1,8.6,2.2,12.8,3.4
				c9.3,2.5,18.6,4.9,27.9,7.5C59.4,191.9,62.9,192.2,66.5,192z"/>
			<path class="st2" d="M151.7,265.5c-0.3,3.1-0.5,6.2-0.8,9.3c-0.2,2.1-0.4,4.2-0.6,6.3c-0.2,0.3-0.5,0.5-0.7,0.8
				c-1.6,1.8-2.5,2-4.7,1c-1.1-0.5-2.1-1.1-3.2-1.6c-3.1-1.7-6.3-3.2-8.8-5.8c-1.3-1.4-2.6-2.8-4.2-3.9c-2.1-1.4-4.4-2.6-6.6-3.8
				c-2.8-1.4-5.7-2.6-8.5-3.9c-0.4,0.5-0.6,0.8-0.9,1.2c-4.8-2.5-9.7-5-14.5-7.6c-0.7-0.4-1.3-0.5-2-0.1c0.1-13.5,0.2-26.9,0.2-40.4
				c0-0.2,0-0.5,0.1-0.7c5.5,0,10.9,0,16.4,0c0,0.4,0.1,0.8,0.1,1.2c0,7.8,0,15.5,0,23.3c0,2.3,0,4.5-0.1,6.8c0,1.1,0.4,1.8,1.4,2.2
				c5.3,2.2,10.7,4.4,16,6.7c6.2,2.6,12.3,5.3,18.5,7.9C149.7,264.7,150.7,265.1,151.7,265.5z M110.6,244.8c0.2-0.1,0.3-0.1,0.5-0.2
				c0-5.5,0-10.9,0-16.4c0-1.5-0.2-2.9-0.2-4.4c0-1.4,0-2.8,0-4.2c0-1.4-0.6-2.2-1.7-2.2c-2.8-0.1-5.5-0.1-8.3,0
				c-1.6,0-2.7,1.3-2.7,2.9c0,2.4,0,4.8,0,7.2c-0.1,3.3-0.2,6.5-0.2,9.8c0,1.2,0.4,2.1,1.7,2.6c1.7,0.7,3.4,1.5,5.1,2.3
				C106.7,243.2,108.7,244,110.6,244.8z M111.8,263c0-0.6,0-1,0-1.3c-0.1-2-0.3-4-0.4-5.9c-0.1-1.4,0-2.9,0-4.3
				c0-1.9-0.6-3.4-2.6-4.3c-3.2-1.4-6.4-3-9.5-4.5c-0.7-0.3-1-0.3-1.1,0.6c-0.9,4.1-0.3,8.2-0.4,12.3c0,0.3,0.3,0.6,0.6,0.8
				c3.6,1.8,7.2,3.6,10.8,5.4C110,262.1,110.8,262.5,111.8,263z"/>
			<path class="st2" d="M211.2,281.5c-0.8-5.2-1.7-10.3-1.5-15.6c0.7-0.5,1.3-1,2-1.5c3.6-1.5,7.2-3.1,10.8-4.6
				c8.1-3.5,16.2-7.1,24.3-10.6c0.6-0.3,0.9-0.6,1-1.3c0.1-1.3,0.2-2.5,0.3-3.8c0-1.5,0-3.1,0-4.6c0.1-6.8,0.2-13.6,0.3-20.3
				c0-0.9-0.2-1.7-0.2-2.6c0-0.7,0.3-1.3,1.2-1.2c3.4,0,6.8-0.1,10.1,0c1.2,0,2.3,0.6,3.5,0.9c0.8,1.8,1.6,3.7,1.5,5.8
				c-0.1,6.4,0.2,12.9-0.1,19.3c-0.2,4.4,0.4,8.8,0.5,13.2c0,0.4-0.3,0.9-0.5,1.3c-4.2,2.3-8.4,4.6-12.6,6.9c-0.3,0.2-0.7,0.5-1,0.4
				c-1.6-0.2-2.1,0.9-2.5,2c-0.1-0.6-0.3-1.2-0.4-1.9c-0.9,0.3-1.8,0.6-2.6,1c-2.7,1.3-5.3,2.6-8,3.8c-2.2,0.9-4,2.3-5.7,3.9
				c-0.9,0.9-1.7,2.1-2.8,2.8c-4.2,2.7-8.4,5.3-12.7,7.8c-1.1,0.6-2.4,0.5-3.5-0.3C212.2,282.1,211.7,281.8,211.2,281.5z
				 M249.5,244.4c4.4-1.9,8.5-3.6,12.6-5.3c0.8-0.3,1-0.9,1-1.7c0-6.2,0.1-12.4-0.7-18.5c-0.2-1.4-0.8-2-2.2-2c-2.6,0-5.3,0-7.9,0
				c-0.5,0-1.2,0.4-1.3,0.7c-0.4,1.3-0.8,2.6-0.8,3.9c-0.2,3.6-0.2,7.3-0.3,10.9c0,0.5-0.1,0.9-0.1,1.4c0,1.6-0.2,3.1,0,4.7
				C249.9,240.5,250.8,242.3,249.5,244.4z M262.9,241.7c-4.1,2-8.1,4-12.1,6c-0.9,0.4-1.2,1.2-1.2,2.2c0,3.8,0,7.7,0,11.5
				c0,0.3,0.1,0.6,0.1,1c4.3-2.2,8.6-4.3,12.7-6.4c1-0.5,1.5-1.5,1.1-2.8c-0.3-0.8-0.2-1.8-0.2-2.7c-0.1-2.7-0.2-5.4-0.3-8.1
				C263.1,242.2,263,242,262.9,241.7z"/>
			<path class="st0" d="M301.8,236.5c-0.9-0.5-0.8-0.9,0-1.3c5.5-3,11-6,16.4-9.1c5.1-2.8,10.1-5.6,15.2-8.4
				c0.4-0.2,0.7-0.5,1.2-0.8c-1.8-2.4-3.7-4.8-5.5-7.3c-2.5,1.3-5,2.6-7.4,4c-0.9,0.5-1.2,1.4-0.9,2.4c0.1,0.3,0.2,0.7,0.3,1
				c0.5,1.6,0.4,1.5-1,2.3c-2,1.1-4,2.4-5.9,3.7c-0.8,0.5-1.3,0.8-1.9-0.2c-1-1.5-2.1-2.8-3.3-4.4c1.3-0.8,2.5-1.6,3.7-2.4
				c1.3-0.8,2.6-1.7,4-2.4c1-0.6,1-1.2,0.3-2c-0.5-0.6-1-1.3-1.5-2.1c2.4-1.6,4.6-3.1,6.9-4.5c1.4-0.9,1.5-1.6,0.4-2.9
				c-2.7-3.3-5.4-6.6-8-9.9c-1-1.3-0.9-2,0.6-2.5c2.4-0.8,4.9-1.1,7.3-1.9c2.1-0.6,3.3,0.2,4.5,1.8c2.5,3.6,5,7.1,8.2,10.1
				c0.7,0.6,0.9,1.7,1.5,2.4c1.3,1.6,2.7,3.1,4,4.7c1.1,1.4,2.2,2.9,3.3,4.4c0.1,0.2,0.3,0.4,0.4,0.6c2.6-1.4,3.7-3.6,4.6-6.1
				c0.9-2.7,2.1-5.3,3.2-8c0.1-0.2,0.4-0.4,0.6-0.6c-0.7,2.8-1.3,5.6-2.1,8.3c-1.2,3.7-3.7,6.5-7.1,8.4
				c-13.6,7.5-27.2,14.9-40.8,22.3C302.4,236.2,302.1,236.3,301.8,236.5z"/>
			<path class="st0" d="M165.6,185c-4.9,0-9.8,0-14.8,0c-2.3,0-2.9-0.6-3-2.9c0-0.2,0-0.3-0.2-0.5c0,0.6,0,1.3,0,1.9
				c0.1,0.9-0.2,1.2-1.1,1.2c-2.2,0-2.2,0-2.3-2.2c0-0.4-0.1-0.8-0.2-1.1c0.1-1.3,0.2-2.6,0.2-3.9c2-0.4,2.9,0.6,3.1,2.5
				c0.2-0.4,0.3-0.7,0.3-1c0.1-1.2,0.7-1.7,2-1.6c1.3,0.1,2.6,0,3.8,0c1.5,0,3.1,0,4.6,0c0-0.1,0-0.2,0-0.3
				c-1.1-0.1-2.3-0.1-3.4-0.2c-2,0-4.1,0-6.1,0c-0.6,0-1-0.1-1-0.8c0-2-0.1-4-0.2-6c-0.1-0.9,0.2-1.2,1.1-1.2c4.2,0,8.5,0,12.7,0
				c1.2,0,2.5,0.2,3.7,0.2c0.1,0.1,0.3,0.2,0.4,0.2c1.7,0.2,3.3,0.4,5,0.4c0.7,0,1,0.3,0.9,1c0,1.5-0.1,3,0,4.4
				c0.1,1.2-0.4,1.5-1.5,1.4c-1.6-0.1-3.1,0-4.7,0c0,0.2-0.1,0.3-0.1,0.5c0.6,0.2,1.1,0.6,1.7,0.6c1,0.1,2.1,0.1,3.1,0
				c1.4-0.2,2.3,0.2,2.5,1.7c0.1,0.5,0.4,1,0.5,1.5c0,1.2,0,2.4,0,3.6C170.4,184.9,168,185,165.6,185z"/>
			<path class="st0" d="M127.7,186c0,1.3-0.1,2.6,0,3.8c0,0.9-0.2,1.1-1.1,1.2c-2.8,0.2-5.7,0.7-8.5,0.8c-1.5,0.1-3-0.3-4.5-0.5
				c-0.4,0-0.7-0.1-1.2-0.2c0-0.5-0.1-1-0.1-1.4c-0.5,0.7-1.1,1.6-1.7,2.4c1,0.1,2.2,0.2,3.6,0.3c0,1.1,0,2.1,0,3.1c0,1.5,0,3,0,4.6
				c0,1.4-0.3,1.5-1.7,1.2c-1.3-0.2-2.6,0-3.9,0c-1.7,0-2.2-0.4-2.3-2.1c-0.2-1.6-0.4-3.2-0.5-4.9c-0.1-1.7-1-2.7-2.6-2.3
				c-2,0.5-3.9,0.2-5.8,0.2c-1.2,0-1.6-0.3-1.4-1.5c0-0.3,0-0.6-0.1-1c-0.2,0.7-0.2,1.5-0.6,2.1c-0.3,0.4-1.1,0.6-1.8,0.9
				c0.3,0.1,0.5,0.1,0.8,0.2c0.5,0.2,1.1,0.4,1.4,0.8c0.7,0.8,0.5,3.9-0.2,4.7c-0.6,0.7-3.4,1.2-4.1,0.7c-0.2-0.2-0.3-0.5-0.3-0.8
				c0-0.9,0-1.8,0-2.6c0-2-1.2-2.9-3.1-2.6c-2.2,0.3-4.5,0.5-6.7-0.1c-0.5-0.1-1.2,0.2-1.8,0.4c-0.8,0.2-1.7,0.6-2.5,0.7
				c-2.5,0.2-4.9,0.4-7.4,0.5c-2,0.1-2.1,0-2.4-2.4c3.7-0.5,7.4-1,11-1.4c7.6-0.8,15.2-1.6,22.8-2.3c4.5-0.4,9.1-0.7,13.6-1.1
				c3.7-0.3,7.5-0.7,11.2-1.1C126.2,186.1,127,186.1,127.7,186z"/>
			<path class="st1" d="M242.1,186.3c-1.2,1-1.6,3.2-0.9,4.6c0.1,0.2,0.5,0.3,0.8,0.3c1.9,0,3.7-0.1,5.6-0.2c0.6,0,1.2,0,1.8,0.1
				c1.8,0.4,3.6,0.8,5.7,1.3c0,1.6,0,3.5,0,5.3c0,1.1-0.4,2-1,3c-0.7,1-1.5,1-2.5,0.9c-1.2-0.1-2.5-0.2-3.7-0.1
				c-1.1,0.1-1.7-0.3-1.7-1.5c0-2.2,0-4.5,0-6.7c0-1-0.4-1.5-1.6-1.7c-0.1,0.8-0.4,1.5-0.4,2.3c0,10.4,0,20.7,0,31.1
				c0,0.7,0,1.5-1.2,1.4c0-0.4,0-0.8,0-1.2c0-2.3,0.1-4.6,0-7c-0.6-8.6-0.9-17.1-0.7-25.7c0-0.7-0.2-0.9-0.9-0.9c-1.2,0-2.3,0-3.5,0
				c0-0.2,0-0.3,0-0.5c0.8-0.1,1.5-0.2,2.3-0.3c0.3-1.7,0.8-3.4-0.6-4.9C240.6,186.1,241.4,186.2,242.1,186.3z M243.6,225.3
				c0,0,0.1,0,0.1,0c0-11,0-22,0-33c0,0-0.1,0-0.1,0C243.6,203.3,243.6,214.3,243.6,225.3z"/>
			<path class="st0" d="M139.7,185.3c0.9,0.1,1.7,0.2,2.6,0.2c3.2-0.2,5.5,1.2,7.4,3.9c-1.8,0.2-3.4,0.3-5.1,0.5
				c-2.4,0.3-4.7,0.8-7.1,1.1c-1.5,0.2-3.1,0.1-4.7,0.1c-0.6,0-1.2-0.1-1.8,0c-1.8,0.2-3.2-1-2.8-3.4c0.1-0.5,0.1-1.1,0.2-1.6
				C132.2,185.8,135.9,185.6,139.7,185.3z"/>
			<path class="st1" d="M211.2,281.5c0.5,0.3,1,0.6,1.4,0.9c1.1,0.8,2.4,0.9,3.5,0.3c4.3-2.5,8.6-5.1,12.7-7.8
				c1.1-0.7,1.8-1.9,2.8-2.8c1.7-1.6,3.5-3,5.7-3.9c2.7-1.2,5.3-2.6,8-3.8c0.9-0.4,1.8-0.7,2.6-1c0.2,0.7,0.3,1.3,0.4,1.9
				c-0.3,0.3-0.6,0.6-1,0.7c-4.1,2-8.2,4-12.4,5.9c-2.1,0.9-3.5,2.5-4.9,4.1c-2.3,2.7-5.2,4.6-8.3,6.2c-1.8,0.9-3.5,1.9-5.3,2.8
				c-2.1,1.1-2.9,0.9-4.3-1.2c-0.3-0.4-0.7-0.8-1.1-1.2C211.2,282.3,211.2,281.9,211.2,281.5z"/>
			<path class="st1" d="M112.6,265c0.3-0.4,0.6-0.7,0.9-1.2c2.8,1.3,5.7,2.5,8.5,3.9c2.3,1.1,4.5,2.3,6.6,3.8
				c1.6,1.1,2.9,2.5,4.2,3.9c2.5,2.6,5.7,4.1,8.8,5.8c1,0.6,2.1,1.1,3.2,1.6c2.2,1.1,3.1,0.9,4.7-1c0.2-0.3,0.5-0.5,0.7-0.8
				c0,0.6,0,1.2,0,1.8c-0.5,0.5-1.1,0.9-1.5,1.4c-1.5,1.7-2.1,1.9-4.1,0.8c-3.6-2-7.2-3.9-10.7-6.1c-1.3-0.8-2.3-2-3.2-3.3
				c-1.2-1.7-2.8-2.9-4.7-3.8c-3.6-1.7-7.3-3.4-10.9-5.1C114.2,266.4,113.4,265.6,112.6,265z"/>
			<path class="st1" d="M195.8,82.1c-0.1,0.2-0.2,0.4-0.2,0.5c-0.1,2.3-0.2,4.5-0.2,6.8c0,8.8,0,17.6,0,26.3c0,0.5,0,1-0.1,1.5
				c-0.5,2.2-1.6,2.8-4.2,2.2c0.9-0.3,1.6-0.5,2.2-0.7c1.4-0.5,1.6-1,1.1-2.3c-0.3-0.9-0.3-1.8-0.4-2.7c-0.4-3.5-0.8-7-1.3-10.5
				c-0.1-1-0.3-2,0.2-3c0.3-0.6,0-1.4-0.1-2.1c0-0.4-0.2-0.9-0.1-1.2c1.1-2.5-0.2-4.9-0.4-7.4c-0.1-0.9-0.3-1.8-0.4-2.7
				c0.1,0,0.3-0.1,0.4-0.1c0.3,0.9,0.7,1.8,0.8,2.7c0.3,2.4,0.6,4.8,0.5,7.1c-0.3,4.7-0.1,9.4,0.9,14c0-0.1,0.1-0.2,0.1-0.3
				c0.1-5.5,0.3-11,0.2-16.5c0-3.3-0.5-6.6-0.6-9.9c0-0.9,0.2-1.9,0.2-2.8C194.9,81.4,195.4,81.8,195.8,82.1z"/>
			<path class="st2" d="M166.8,79.5c0,1.5,0.2,3,0.1,4.5c-0.1,2.6-0.3,5.2-0.5,7.7c-0.2,1.9-0.6,3.8-0.7,5.6
				c-0.1,2.9,0.1,5.8,0.2,8.7c0,2.2,0,4.4,0.1,6.6c0.2,2,0.4,4.1,0.6,6.2c-1.3-0.3-1.5-1.2-1.5-2.3c0-4.7,0.2-9.3,0.1-14
				c-0.1-6.1-0.3-12.2-0.5-18.3c0-0.4-0.3-0.8-0.4-1.1C165.2,81.8,166,80.7,166.8,79.5z"/>
			<path class="st1" d="M150.6,129.8c1.1,1.3,2.5,1.3,4,1.3c5.8,0,11.6,0,17.4,0c0.4,0,0.9,0,1.4,0c0,0.6,0.1,1.1,0.1,1.7
				c-0.9,0.1-1.9,0.2-2.8,0.2c-5,0-10,0-15,0c-0.5,0-1-0.3-1.5-0.5c-0.8-0.2-1.7-0.5-2.5-0.7c-0.5-0.1-1-0.2-1.6-0.3
				C150.4,130.8,150.5,130.3,150.6,129.8z"/>
			<path class="st0" d="M225.6,185.3c2.1,0.1,4.2,0.2,6.3,0.3c0.2,0.3,0.4,0.6,0.6,0.9c0.9,1.3,0.2,3.4-1.3,3.9
				c-2,0.6-4-0.1-6.1-0.4C225.5,188.4,224.1,186.7,225.6,185.3z"/>
			<path class="st1" d="M195.8,144.3c4.7,0,9.4,0,14.1-0.1c0.8,0,1.6-0.2,2.5-0.3c0.3,2.8,0.5,5.6,0.8,8.5c-4.2,1-8.4,0.3-12.6,0.5
				c-1.6,0.1-3.3,0-4.9,0c0-0.2,0-0.3-0.1-0.5c4.7-0.1,9.4-0.2,14.3-0.2c-0.9-1.9-0.1-3.2,1-4.5c0.4-0.5,0.7-1.2,0.5-1.8
				c-0.2-0.9-1-1.2-2.1-1.2c-4.5,0.1-9,0-13.5,0C195.8,144.6,195.8,144.4,195.8,144.3z"/>
			<path class="st2" d="M199.9,133.4c-4.1,0-8.2,0-12.4,0c0,1,0,1.8,0,2.9c2.7,0,5.5,0,8.2,0c0,0.2,0,0.3,0,0.5
				c-2.7,0.2-5.5,0.4-8.2,0.5c-0.1,0.5-0.3,1-0.4,1.5c-0.1,0-0.3,0-0.4,0c-0.5-2.5-0.1-5-0.3-7.8c1.6,0,3.2,0,4.7,0
				c5.2,0,10.3,0,15.5,0c0.5,0,0.9,0.1,1.4,0.2c-0.6,0.2-1.3,0.3-1.9,0.5c-5.3,0-10.7,0-16,0c-0.5,0-1,0-1.5,0.2
				c-0.3,0.1-0.6,0.4-0.9,0.6c0.3,0.1,0.6,0.4,1,0.4c2.8,0,5.5,0,8.3,0C197.9,133,198.9,133.3,199.9,133.4z"/>
			<path class="st1" d="M148.4,143.3c1.4,1,2.9,1,4.6,1c4.5,0,8.9,0,13.4,0c1.9,0,3.9-0.3,5.8-0.4c0.3,0,0.6,0,1.1,0
				c0,2.9,0,5.8,0,8.7c-0.2-0.1-0.3-0.1-0.5-0.2c-0.2-1.7-0.3-3.3-0.5-5c-0.1-0.9-0.4-1.6-1.6-1.4c-1.4,0.2-2.8,0.3-4.2,0.2
				c-0.5,0-1-0.4-1.5-0.7c-0.5-0.2-1-0.7-1.5-0.7c-3.4-0.1-6.7-0.1-10.1,0c-1.8,0.1-3.7,0-5.5,0.9
				C148.2,144.9,148.3,144.1,148.4,143.3z"/>
			<path class="st1" d="M215.8,170.2c-1.9-0.8-2.4-1.5-2.4-3.4c0-1.4,0-2.9,0-4.3c0-0.9-0.2-1.2-1.1-1.2c-1.3,0.1-2.6,0-4,0
				c-0.4,0-0.7-0.2-1.1-0.3c0-0.1,0-0.3,0-0.4c1.1-0.1,2.2-0.2,3.2-0.2c3.1,0,2.9,0.1,2.9-3c0-0.8,0-1.5,0.1-2.3
				c0.1,0.2,0.4,0.3,0.4,0.5C214.5,160.5,215.1,165.3,215.8,170.2z"/>
			<path class="st1" d="M164.9,169.4c-1.2-0.1-2.5-0.2-3.7-0.2c-4.2,0-8.5,0-12.7,0c-0.9,0-1.2,0.3-1.1,1.2c0.1,2,0.2,4,0.2,6
				c0,0.8,0.4,0.8,1,0.8c2,0,4.1,0,6.1,0c1.1,0,2.3,0.1,3.4,0.2c0,0.1,0,0.2,0,0.3c-1.5,0-3.1,0-4.6,0c-1.3,0-2.6,0.1-3.8,0
				c-1.3-0.1-1.9,0.3-2,1.6c0,0.3-0.1,0.6-0.3,1c-0.2-2-1.1-3-3.1-2.5c0-0.2,0-0.5,0-0.7c2.6,0,2.6,0,2.6-2.6c0-1.3-0.2-2.7-0.4-4
				c-0.2-1.5,0.9-2.5,2.4-2.2c1.3,0.3,2.7,0.6,4.1,0.6c4.1,0.1,8.1,0,12.2,0C165.1,169,165,169.2,164.9,169.4z"/>
			<path class="st1" d="M199.9,133.4c-1-0.2-2-0.4-3-0.5c-2.8-0.1-5.5,0-8.3,0c-0.3,0-0.6-0.3-1-0.4c0.3-0.2,0.5-0.5,0.9-0.6
				c0.5-0.1,1-0.2,1.5-0.2c5.3,0,10.7,0,16,0c0.1,0.4,0.2,0.8,0.4,1.1c-0.2,0.1-0.5,0.3-0.7,0.3
				C203.8,133.3,201.9,133.4,199.9,133.4z"/>
			<path class="st1" d="M225.6,185.3c-1.5,1.4-0.1,3.1-0.6,4.7c2.1,0.3,4.1,1,6.1,0.4c1.5-0.4,2.2-2.5,1.3-3.9
				c-0.2-0.3-0.4-0.6-0.6-0.9c0.9,0.1,1.7,0.1,2.6,0.2c-0.4,0.3-1.1,0.6-1.1,0.9c-0.1,1.1,0,2.3,0,3.5c0,0.2,0.6,0.3,0.9,0.4
				c0.6,0.1,1.2,0.1,1.8,0.3c-2.6,0.6-15.1,0.1-17-0.6c1.2-0.1,2.3-0.1,3.4-0.3c1.8-0.4,2.5-2.5,1.5-4c-0.2-0.3-0.3-0.5-0.5-0.8
				C224.2,185.2,224.9,185.2,225.6,185.3z"/>
			<path class="st1" d="M165.6,162c-1.9-0.2-3.8-0.5-5.7-0.7c-1.9-0.2-3.7-0.2-5.6-0.2c-2,0-4,0-6,0c-1,0-1.4,0.3-1.2,1.3
				c0.1,0.6,0,1.1-0.2,1.7c-0.3-0.7-0.7-1.3-1-2c0.3-2.3,0.6-4.5,0.9-6.8c0.1,1.1,0.3,2.2,0.3,3.4c0.1,2.2-0.3,1.9,1.9,1.9
				c5.4,0,10.8,0,16.2,0.1C165.3,161.1,165.5,161.5,165.6,162z"/>
			<path class="st0" d="M11.7,179.3c-0.6,0.2-1.1,0.6-1.7,0.6c-2.3-0.1-4.5-0.8-6.6-1.8c-0.3-0.2-0.7-0.2-1-0.3
				c0.3-1.3,0.7-1.6,1.8-1.3c1.4,0.3,2.8,0.4,4.2,0.9C9.6,177.9,10.6,178.7,11.7,179.3z"/>
			<path class="st2" d="M154.3,132.4c0.5,0.2,1,0.5,1.5,0.5c5,0,10,0,15,0c0.9,0,1.9-0.1,2.8-0.2c-0.3,0.2-0.5,0.7-0.8,0.7
				c-6.4,0-12.9,0-19.3,0c-0.2,0-0.4-0.2-0.6-0.2C153.4,132.9,153.8,132.7,154.3,132.4z"/>
			<path class="st0" d="M300.2,191.5c0.2,0.2,0.5,0.4,0.7,0.6c0.5,0.6,0.5,1.2-0.2,1.6c-0.2,0.1-0.3,0.2-0.5,0.3
				c-0.8,0.1-2,0.5-2.4,0.1c-0.5-0.5-0.3-1.6-0.4-2.5C298.3,191.5,299.2,191.5,300.2,191.5z"/>
			<path class="st1" d="M164.8,136.6c-0.3,0.1-0.7,0.2-1,0.2c-4.8,0-9.6,0-14.3,0c0-0.3,0.1-0.6,0.1-0.9c2,0.2,4,0.4,6,0.5
				c3.1,0.1,6.2,0,9.4,0.1C164.9,136.4,164.9,136.5,164.8,136.6z"/>
			<path class="st0" d="M296.9,191.6c0,0.4,0,0.9,0,1.3c-0.1,1.1-0.9,1.1-1.6,1c-0.8-0.1-1-0.7-0.9-1.4c0.1-0.4,0.1-0.9,0.2-1.3
				C295.3,191.3,296.1,191.5,296.9,191.6z"/>
			<path class="st1" d="M213.4,155c0.1-0.2,0.1-0.5,0.2-0.7C213.6,154.5,213.5,154.8,213.4,155z"/>
			<path class="st3" d="M176.7,198.6c0-4.5,0-8.9,0-13.2c0.1-6,0.2-11.9,0.3-17.9c0.1-4.3,0.2-8.5,0.2-12.8
				c0.1-4.3,0.2-8.6,0.2-12.9c0-1.1-0.2-2.3-0.2-3.4c0-0.3,0.1-0.7,0.2-1c0.3-1.4,0.6-2.9,0.9-4.3c0-0.2,0.1-0.4,0-0.5
				c-1.5-1.9,0.3-3.5,0.5-5.3c0.1-0.9,1.6-1.5,2.5-2.3c0.1,0.1,0.3,0.1,0.4,0.2c0.2,2.4,0.4,4.8,0.6,7.1c0.1,0.8,0.2,1.5,0.3,2.3
				c0.3,3.6,0.6,7.2,0.7,10.7c0.2,6.6,0.4,13.2,0.5,19.8c0.1,4,0.2,8.1,0.2,12.1c0.1,4.3,0.2,8.5,0.2,12.8c0.1,2.6,0.1,5.3,0.2,7.9
				c0,0.8-0.2,1.1-1.1,1.1C181.2,198.8,178.9,198.7,176.7,198.6z"/>
			<path class="st1" d="M219.5,218.1c-0.1-0.7-0.2-1.3-0.3-1.9c-0.3-1.8-0.4-1.9-2.2-1.9c-1.2,0-2.3-0.4-2.9-1.9
				c1.5-0.4,3-1,4.5-1.2c2.6-0.3,5.2-0.5,7.7-0.5c3.4,0,6.9,0.1,10.3,0.2c0.4,0,0.7,0,1.1,0c2-0.3,2-0.3,2.8,1.5
				c1.1,2.5,0.5,5.2,0.5,7.8c0,1,0,2-0.2,3c-0.2,0.9-0.4,1.9-1,2.7c-0.3,0.4-1.2,0.6-1.9,0.6c-0.3,0-0.7-0.7-0.8-1.2
				c-0.3-1.8-0.5-3.6-0.7-5.4c-0.1-1-0.5-1.5-1.7-1.5c-2.4,0.2-4.8,0.3-7.2,0.2C224.9,218.6,222.2,218.3,219.5,218.1z"/>
			<path class="st2" d="M195.7,186c-0.5,0.2-1,0.4-1.5,0.5c-1.9,0.1-3.7,0-5.9,0c-0.2,3.6-0.3,7.1-0.5,10.9c1-0.6,1.6-1.1,2.4-1.6
				c1.1,1.2,2.5,0.9,4,0.9c3.1,0,6.1-0.1,9.2-0.2c0.5,0,1,0,1.8,0c-0.3,0.5-0.4,1.1-0.7,1.2c-1.1,0.6-2.3,1.5-3.5,1.5
				c-4.4,0.2-8.8,0.2-13.2,0.3c-0.6,0-1.2-0.5-1.8-0.9c1.5-0.3,1.4-1.3,1.4-2.4c0-4.7,0-9.4,0-14.2c0-4.4-0.1-8.7-0.2-13.1
				c0-0.7,0.2-1.5,0.4-2.4c0.5,0.5,0.7,0.8,1.1,1c0.9,0.4,1.8,0.9,2.8,1.1c1.3,0.2,2.7,0.2,4,0.3c0,0.1,0.1,0.2,0.1,0.3
				c-1,0.5-1.9,1.1-2.9,1.4c-2.8,0.6-3.6,2.5-3.5,5c0,0.4,0,0.8,0,1.2c2,0.7,4.4-0.6,6.3,0.8c0,0.1,0,0.2,0,0.4c-1.8,0-3.6,0-5.3,0
				c-0.7,0-1.1,0.1-1.2,0.9c-0.4,1.9-0.8,3.8-1.3,5.9c2.9,0.1,5.6,0.1,8.3,0.2C195.8,185.4,195.7,185.7,195.7,186z"/>
			<path class="st1" d="M273.2,192.3c-0.5,0.1-1.1,0.3-1.6,0.3c-0.9,0-1.1,0.5-1.2,1.3c-0.1,3.1-0.1,3.1,2.9,3.1c0.1,0,0.2,0,0.2,0
				c1.1,0,2.5,0.3,3.2-0.2c0.6-0.4,0.2-2,0.3-3c0-0.3,0.4-0.7,0.6-0.8c0.9-0.1,1.7-0.2,2.6-0.2c0.9,0,1.7,0.1,2.7,0.2
				c0,0.9,0.1,1.9,0,2.7c-0.1,1.1-0.8,1.6-1.8,1.7c-0.5,0-1,0-1.4,0c-2.2,0-2.2,0-2.6,2.1c-0.6,2.7-0.6,2.7-3.3,2.7
				c-0.5,0-1,0-1.4,0c-1.5,0.1-2.7,0-3.1-1.8c-0.1-0.3-0.7-0.6-1.1-0.8c-1-0.4-2-0.6-2.9-1c-0.4-0.2-0.8-0.7-0.8-1.1
				c-0.1-1.3-0.2-2.7,0-3.9c0.1-0.6,0.8-1.6,1.3-1.6c2.4-0.2,4.9-0.1,7.4-0.1C273.2,192.1,273.2,192.2,273.2,192.3z"/>
			<path class="st1" d="M230.8,207.7c-1.8-0.1-3.7-0.2-5.5-0.3c-0.9,0-1.2-0.5-1.2-1.3c0-2.2,0-4.5,0-6.7c0-1.3,0.5-1.8,1.8-1.8
				c2.6,0,5.1,0,7.7,0c1.3,0,2.6,0.1,3.8,0.3c0.4,0.1,1,0.7,1,1.1c0.1,1.9,0.1,3.9-0.2,5.8c-0.2,1.9-1.4,2.8-3.3,2.9
				c-1.4,0-2.8,0-4.2,0C230.8,207.6,230.8,207.7,230.8,207.7z M229.4,205.7c2.3,0,3.4-1.1,3.4-3.3c0-2.1-1.3-3.4-3.4-3.4
				c-2,0-3.8,1.7-3.8,3.5C225.6,204.4,227.1,205.7,229.4,205.7z"/>
			<path class="st1" d="M248.1,239.5c0,1.5,0,3.1,0,4.6c-0.3,0.1-0.7,0-1,0.2c-1.8,0.9-3.8,0.9-5.7,1c-0.6,0-0.8-0.2-0.9-0.8
				c-0.2-2-0.5-3.9-0.6-5.9c-0.1-1.2,1.1-1.7,1.9-1.8c1.6-0.3,3.2-0.1,4.8-0.2c0.9,0,1.1,0.5,1.2,1.3
				C247.7,238.4,248,238.9,248.1,239.5z"/>
			<path class="st2" d="M164.9,169.4c0.1-0.2,0.2-0.5,0.3-0.7c1.2,0.1,2.4,0.1,3.6,0.2c1.1,0.1,2.1,0,3.1-0.6
				c0.4-0.2,0.8-0.4,1.5-0.7c0,4.6,0,9.1,0,13.6c-0.2,0-0.3,0-0.5,0c-0.2-0.5-0.5-1-0.5-1.5c-0.2-1.5-1.1-1.9-2.5-1.7
				c-1,0.1-2.1,0.1-3.1,0c-0.6-0.1-1.2-0.4-1.7-0.6c0-0.2,0.1-0.3,0.1-0.5c1.6,0,3.2-0.1,4.7,0c1.1,0.1,1.6-0.2,1.5-1.4
				c-0.1-1.5-0.1-3,0-4.4c0-0.7-0.2-1-0.9-1c-1.7-0.1-3.3-0.3-5-0.4C165.1,169.7,165,169.5,164.9,169.4z"/>
			<path class="st1" d="M180.7,103.7c-0.1-7,0.3-14-0.9-21c0,3.4,0,6.8,0,10.2c-0.1,0-0.3,0-0.4,0c0-4.8,0-9.7,0-14.7
				c-0.7,0.5-1.2,0.9-1.8,1.3c-0.1-0.1-0.2-0.1-0.4-0.2c1.6-1.6,2.9-3.2,1.2-5.4c1.6-0.2,2.4,0.4,2.8,1.8c0.3,1.1,0.9,2.2,1.4,3.6
				c-0.7-0.3-1.1-0.5-1.9-0.9c0,1.9-0.2,3.6-0.1,5.3c0.1,1.9,0.3,3.9,0.4,5.8c0.1,2.5,0.2,4.9,0.3,7.4c0.1,1.8,0.2,3.6,0.2,5.4
				c0,0.5-0.3,1-0.5,1.5C181,103.8,180.9,103.7,180.7,103.7z"/>
			<path class="st1" d="M173.5,218.8c-0.3-1.2-0.6-2.2-0.7-3.2c-0.2-1.4-0.2-2.8-0.3-4.2c-0.3-3.8,0.4-7.4,1.1-11
				C174.7,203.4,174.8,217.6,173.5,218.8z"/>
			<path class="st1" d="M166.1,112.6c0-2.2,0-4.4-0.1-6.6c-0.1-2.9-0.3-5.8-0.2-8.7c0-1.9,0.4-3.8,0.7-5.6c0.2,1.3,0.4,2.7,0.5,4
				c0.1,1.6,0.1,3.2,0.3,4.7c0,0.5,0.6,0.9,0.6,1.4c0.1,0.6-0.1,1.2-0.2,1.8c-0.4,2.7-0.8,5.5-1.2,8.2
				C166.5,112.1,166.3,112.3,166.1,112.6z"/>
			<path class="st1" d="M172.8,181.2c0.2,0,0.3,0,0.5,0c0.2,0.4,0.5,0.7,0.5,1.1c0,5.2,0,10.3,0,15.5c0,0.4-0.3,0.8-0.5,1.2
				c-0.2,0-0.3-0.1-0.5-0.1c0-0.7,0-1.3,0-2c0-2.1-0.1-4.2,0-6.2c0.1-1.2-0.3-1.9-1.5-2.1c-0.3,0-0.7-0.2-1.2-0.5
				c0.7-0.2,1.1-0.3,1.5-0.4c0.4-0.2,0.6-0.5,1-0.7c-0.3-0.2-0.7-0.4-1-0.5c-1.6-0.1-3.1,0-4.7,0c-0.3,0-0.7-0.3-1-0.4
				c2.4,0,4.8,0,7.4,0c-0.2-0.6-0.3-0.9-0.4-1.2C172.8,183.6,172.8,182.4,172.8,181.2z"/>
			<path class="st1" d="M207.7,128.7c-0.8-3.3-1.1-6.6-1.9-9.9c-0.2,0-0.3,0-0.5,0c-0.2,0.5-0.5,1.1-0.7,1.6
				c-0.6-1.7-0.6-1.7,1.1-2.3c-1.1-5-2.2-9.9-3.4-14.9c0.1,0,0.2,0,0.3-0.1C205.5,111.4,207.3,119.9,207.7,128.7z"/>
			<path class="st1" d="M195.7,186c0.1-0.3,0.1-0.6,0.2-1c4.9,0,9.9,0,14.8,0c0.7,0,1.3-0.3,2.2-0.6c0.9,1,0.9,1.5-0.2,2.6
				c-0.5,0.6-1.1,1.2-1.6,1.8c-0.1-0.1-0.2-0.1-0.3-0.2c0-0.8,0-1.7,0-2.7C205.6,186,200.6,186,195.7,186z"/>
			<path class="st2" d="M185,206.1c-0.6-0.3-1.1-0.6-1.7-0.9c-2.2-1.1-4.3-1-6.4,0.3c-0.3,0.2-0.7,0.3-1.1,0.4
				c0.1-2,1.4-3.2,3.7-3.3c1.2,0,2.4,0.1,3.5,0.5C184.8,203.6,185.1,204.3,185,206.1z"/>
			<path class="st2" d="M195.8,144.3c0,0.1,0.1,0.3,0.1,0.4c-0.6,0.7-1.3,1-2.3,1c-1.2-0.1-2.5-0.1-3.7,0c-0.7,0-1.4,0.3-2.2,0.5
				c-0.1-1-0.3-2.2-0.4-3.4c0.1-0.1,0.2-0.1,0.4-0.2c0.1,1.6,1.1,1.7,2.3,1.7C191.9,144.2,193.8,144.3,195.8,144.3z"/>
			<path class="st2" d="M165.6,162c-0.1-0.5-0.3-0.9-0.4-1.4c2.6,0,5.2,0,8,0c0,0.4,0,0.8,0,1.4C170.6,162,168.1,162,165.6,162z"/>
			<path class="st2" d="M195.6,152.4c0,0.2,0,0.3,0.1,0.5c-1,0.3-1.9,0.8-2.9,0.9c-1.6,0.2-3.2,0.2-4.9,0.3c0-0.6,0-1,0-1.7
				C190.4,152.4,193,152.4,195.6,152.4z"/>
			<path class="st1" d="M157.5,198.6c3.4-0.5,13.4-0.2,14.4,0.4C170,199.5,158.7,199.2,157.5,198.6z"/>
			<path class="st2" d="M164.8,136.6c0-0.1,0.1-0.1,0.1-0.2c2.9,0,5.7,0,8.7,0c0,1,0,2,0,3c0,0-0.1,0-0.1,0.1
				c-0.1-0.4-0.3-0.7-0.4-1.1c-0.1-0.9-0.6-1.1-1.5-1.1c-2,0.1-3.9,0-5.9,0C165.3,137.2,164.8,137.3,164.8,136.6z"/>
			<path class="st1" d="M188.7,120c-2,0.6-14.9,0.7-15.8,0C178,119.4,183.2,120.1,188.7,120z"/>
			<path class="st2" d="M172.8,152.3c0.2,0.1,0.3,0.1,0.5,0.2c0,0.4,0,0.8,0,1.2c-2.8,0-5.4,0-8.4,0c1.3-1.2,2.6-1,3.9-1.2
				C170.1,152.3,171.4,152.3,172.8,152.3z"/>
			<path class="st2" d="M187.8,161.9c-0.2-1-0.1-1.4,0.7-1.3c2.1,0,4.2,0,6.3,0c0.3,0,0.6,0.1,0.9,0.2c0,0.1,0,0.3,0,0.4
				C193.1,161.5,190.5,161.7,187.8,161.9z"/>
			<path class="st2" d="M172.8,184.8c0.1,0.3,0.2,0.6,0.4,1.2c-2.6,0-5,0-7.4,0c-0.2,0-0.3,0-0.5-0.1c0.1-0.3,0.2-0.6,0.3-1
				C168,185,170.4,184.9,172.8,184.8z"/>
			<path class="st1" d="M179.2,102.9c0,3.6,0,7.1,0,10.7c-0.1,0-0.2,0.1-0.4,0.1c-0.2-0.7-0.5-1.3-0.5-2c0.1-2.7,0.3-5.5,0.5-8.2
				c0-0.2,0.1-0.4,0.1-0.6C179,102.9,179.1,102.9,179.2,102.9z"/>
			<path class="st1" d="M178.2,117.8c0.9-0.3,1.9-0.6,2.8-0.9c0.3-0.1,0.6,0,0.9,0.1c0.7,0.2,1.4,0.6,2.1,0.5
				c1.3-0.1,2.5-0.5,3.8-0.7c0.8-0.1,1.6-0.2,2.5-0.1C186.4,118.6,182.2,117.6,178.2,117.8z"/>
			<path class="st1" d="M189.8,93.4c-1-2.5-1.9-5-2.9-7.5c2,2.1,3.3,4.5,3.2,7.4C190,93.3,189.9,93.4,189.8,93.4z"/>
			<path class="st1" d="M199,110.1c-1.1-2.6-2.7-5.1-1.1-8.2C198.3,104.8,198.6,107.5,199,110.1z"/>
			<path class="st1" d="M199,215c0.3-0.2,0.5-0.6,0.8-0.6c1.6,0,3.2,0,4.8,0c0.2,0,0.4,0.2,0.6,0.3c0,0.1,0,0.2,0,0.3
				C203,215,201,215,199,215L199,215z"/>
			<path class="st1" d="M199,215c-0.2,1.9-0.4,3.7-0.6,5.6c-0.1,0-0.3,0-0.4,0c0-1.6,0-3.2,0-4.8C198.1,215.5,198.6,215.3,199,215
				C199,215,199,215,199,215z"/>
			<path class="st0" d="M188.1,238c-0.1-2.8-0.1-5.6-0.1-8.4c0-0.2,0.5-0.6,0.7-0.6c2.2-0.1,4.5,0,6.7,0c0.2,0,0.6,0.3,0.7,0.5
				c0.2,0.6,0.3,1.3,0.3,2c-0.1,1.7-0.3,3.5-0.4,5.2c-0.1,0.8-0.5,0.9-1.2,1C192.6,237.7,190.5,237.8,188.1,238z M194.6,233.6
				c-0.2-0.6-0.3-0.8-0.4-1.1c-1-1.7-3.2-2.2-4.8-0.9c-1.2,0.9-1.3,1.8-0.3,3c0.4,0.4,0.9,0.8,1.4,1.1c0.7,0.4,1.5,0.8,2.2,0.1
				C193.4,235,194,234.2,194.6,233.6z"/>
			<path class="st2" d="M184.2,269.9c-1.2-1.3-1.6-2.4-1.5-3.8c0-3.1-0.1-6.2-0.2-9.3c0-1.7,0.1-3.5,0.2-5.2c0-0.5,0.3-1.1,0.5-1.6
				c0.1-0.2,0.5-0.5,0.7-0.4c0.3,0.1,0.7,0.4,0.7,0.6c0.1,3.4,0.2,6.7,0.3,10.1c0,2,0,4.1-0.1,6.1
				C184.7,267.5,184.4,268.6,184.2,269.9z"/>
			<path class="st2" d="M131.9,206.1c-1.6,0-1.8-0.2-2.1-1.7c-0.2-0.9-0.3-1.8-0.5-2.7c-0.3-1.2,0.4-2.2,1.7-2.2
				c0.9,0,1.8,0.1,2.6,0.4c1.3,0.4,2,1.8,1.8,3.1C134.9,205,133.7,206.1,131.9,206.1z"/>
			<path class="st2" d="M72,226.5c0,1.9-1.2,3.4-2.8,3.4c-1.7,0.1-3.7-1.7-3.7-3.4c0-1.2,0.7-2.1,1.8-2.6
				C69.8,222.8,72,224.1,72,226.5z"/>
			<path class="st3" d="M177.8,269.4c-0.7,0.6-1.1,0.2-1.3-0.4c-0.1-0.2-0.1-0.5-0.1-0.7c0-5.5,0-11.1,0-16.6c0-0.9,0.2-1.7,1.5-1.5
				c0.1,1.6,0.2,3.1,0.3,4.7c-0.1,0.7-0.4,1.5-0.4,2.2C177.8,261.2,177.8,265.3,177.8,269.4z"/>
			<path class="st2" d="M127.9,197.8c2.6-0.1,5.2-0.2,7.7-0.2c1.1,0,1.6,0.8,1.6,1.7c0.1,1.9,0.1,3.8,0,5.7c0,1.6-1.1,2.7-2.7,2.7
				c-2.8,0-5.6-0.1-8.4-0.2c-0.8-0.1-1.5-0.6-2.3-0.9c0-0.1,0.1-0.2,0.1-0.3c3.4,0.1,6.7,0.2,10.1,0.3c1.7,0,2.3-0.3,2.4-2
				c0.2-1.7,0.1-3.4,0-5.1c0-0.4-0.8-1-1.3-1c-1.2-0.2-2.5-0.2-3.8-0.3c-1.2,0-2.4,0-3.5,0C127.9,198.1,127.9,197.9,127.9,197.8z"/>
			<path class="st0" d="M117.1,226.7c-0.1-0.4-0.3-0.7-0.3-1.1c0-9.7,0-19.4,0-29c0-1.3,0.2-2.6,0.6-3.8c0,11.3,0,22.6,0,33.9
				C117.4,226.7,117.3,226.7,117.1,226.7z"/>
			<path class="st2" d="M78.5,230.6c1.8,0,2.1,0.3,2.1,1.8c-0.1,2.6-0.8,2.7-2.7,2.8c-1.2,0.1-2.4-1-2.4-2.2
				C75.5,231.7,76.9,230.6,78.5,230.6z"/>
			<path class="st2" d="M178.3,283.6c-0.9-0.2-1.4-0.6-1.4-1.5c0-2.9,0-5.8,0-8.8c0-0.2,0-0.5,0.1-0.7c0.2-0.3,0.6-0.7,0.7-0.6
				c0.3,0.2,0.8,0.5,0.8,0.8c0,3.4,0,6.9,0,10.3C178.5,283.2,178.3,283.4,178.3,283.6z"/>
			<path class="st2" d="M184.2,272.5c0,3.7,0,7.4,0,11.1c-0.8,0.3-1.2,0.1-1.4-0.8c0-0.3-0.1-0.5-0.1-0.8c-0.1-2.3-0.2-4.5-0.2-6.8
				C182.4,273.7,183,272.9,184.2,272.5z"/>
			<path class="st2" d="M187.6,239.3c-0.7,1-1.3,1.4-2.5,1.2c-1.7-0.3-3.4-0.4-5.4-0.7c1.3-0.6,2.4-1.2,3.5-1.5
				c0.5-0.1,1.1,0.2,1.9,0.5c0.1-0.4,0.4-1.1,0.4-1.8c0-4.1,0-8.2,0.2-12.3c0.1,1,0.2,1.9,0.3,2.9c0,3.4,0,6.8,0,10.2
				C185.9,238.8,186.3,239.4,187.6,239.3z"/>
			<path class="st2" d="M177.9,240.4c0.1,2.7,0.3,5.3,0.4,8.1c-0.7,0-1.3,0-1.9,0c0-2.3-0.1-4.5,0.1-6.7c0-0.5,0.7-1,1-1.5
				C177.7,240.4,177.8,240.4,177.9,240.4z"/>
			<path class="st2" d="M196.3,287.5c-9.9,0-19.7,0-29.6,0c-0.3,0-0.6-0.2-0.9-0.2c9.5-0.1,19-0.2,28.5-0.2
				C195,287.1,195.7,287.4,196.3,287.5z"/>
			<path class="st3" d="M182.7,241c1.1-0.5,1.5,0,1.6,0.9c0.2,1.4,0.4,2.8,0.5,4.3c0,0.5,0,1-0.3,1.4c-0.3,0.4-0.9,0.6-1.3,0.8
				c-0.2-0.4-0.4-0.8-0.5-1.2C182.6,245.1,182.7,243,182.7,241z"/>
			<path class="st2" d="M177.8,269.4c0-4.1,0-8.2,0-12.3c0-0.7,0.3-1.5,0.4-2.2c0.2,4.7,0.3,9.4-0.2,14.1
				C178,269.2,177.9,269.3,177.8,269.4z"/>
			<path class="st0" d="M174.8,229.9c0-1,0-2,0-3c0,0,0.1,0,0.1,0c0,1,0,2,0,3C174.8,229.9,174.8,229.9,174.8,229.9z"/>
			<path class="st0" d="M299.3,216.3c0,0.5,0,0.8,0,1.1c0,5.8,0,11.6,0,17.4c0,1.3-0.3,1.7-1.6,1.6c-3-0.1-6-0.3-9.4-0.4
				c0-2.9,0-5.6,0-8.3c0-0.7,0.3-1.4,0.3-2.1c0-1.7,1-2.6,2.3-3.4c2.4-1.7,4.8-3.4,7.2-5.1C298.5,216.8,298.8,216.6,299.3,216.3z
				 M292,223.9c-1.4-0.1-2.2,0.6-2.3,1.8c-0.1,1.2,1.1,2.8,2.1,2.8c1.5,0,2.6-1,2.7-2.5C294.6,224.9,293.4,223.9,292,223.9z"/>
			<path class="st0" d="M283.2,229.9c-0.3-0.5-0.6-0.9-0.9-1.5c1.3-0.8,2.7-1.7,4.1-2.6c0.1,0.4,0.1,0.7,0.1,0.9c0,2.7,0,5.4,0,8.1
				c0,0.7-0.1,1.1-1,1.1c-3.5,0-7,0-10.4,0c-0.3,0-0.9-0.3-1-0.6c-0.1-0.3,0.1-0.9,0.4-1c1.7-1.1,3.5-2.1,5.3-3.1c0,0.5,0,1,0,1.6
				c-0.1,2,1.6,2.8,3.1,2.9c1.6,0.1,2.7-1.3,2.8-3.3C285.9,230.5,285.3,230,283.2,229.9z"/>
			<path class="st2" d="M283.2,229.9c2.1,0.1,2.7,0.6,2.6,2.4c-0.1,1.9-1.2,3.3-2.8,3.3c-1.5-0.1-3.2-0.8-3.1-2.9c0-0.5,0-1,0-1.6
				C281,230.7,282.1,230.3,283.2,229.9z"/>
			<path class="st1" d="M200.9,274.2c0.8,0,1.4,0,2.2,0c0-0.5,0-1,0-1.5c0-6.5,0-13,0-19.4c0-0.9,0.2-1.9,0.3-2.8c0.1,0,0.2,0,0.3,0
				c0,0.3,0.1,0.6,0.1,0.8c0,7.4,0,14.9,0,22.3c0,1.1-0.3,1.4-1.3,1.3c-2.1-0.1-2.2,0-2.3-2.1c-0.2-3.5-0.4-6.9-0.5-10.4
				c-0.1-4,0-8,0-12c0.2,0,0.4,0,0.6-0.1c0.2,0.9,0.6,1.8,0.6,2.7c0.1,6.5,0,13,0,19.6C200.9,273.2,200.9,273.6,200.9,274.2z"/>
			<path class="st1" d="M161.5,250.5c-0.1,2-0.2,3.9-0.3,5.9c0,0.6-0.2,1.1-0.2,1.7c0,5.1-0.1,10.2,0,15.3c0,1.4-0.8,1.5-1.7,1.6
				c-1,0.2-1.9,0.1-2.1-1.2c-0.1-0.4-0.1-0.9-0.1-1.3c0-6.4,0.1-12.9-0.1-19.3c0-1.4-0.6-2.9-1-4.3c-0.5-1.5-0.1-2.6,1.5-3.6
				c1.1-0.6,2.7-0.5,3.5,0.5c0.2,0.2,0.2,0.5,0.4,1c-0.9-0.3-1.6-0.5-2.3-0.7c-1-0.3-1.6-0.1-2,0.9c-0.4,1.2-0.9,2.4-0.1,3.6
				c0.3,0.4,0.3,1,0.3,1.5c0.1,6.8,0.2,13.6,0.2,20.4c0,1.8,0,1.8,1.8,1.8c0.2,0,0.4,0,0.7-0.1c0-0.4,0.1-0.8,0.1-1.3
				c0-5,0-9.9,0-14.9c0-2-0.2-4-0.2-6c0-0.6,0.4-1.2,0.6-1.8C161.1,250.4,161.3,250.4,161.5,250.5z"/>
			<path class="st1" d="M169.6,230.9c1.7,0,2.7,0.7,2.9,2.1c0.2,1.1-0.7,2.7-1.8,3.1c-1.3,0.4-2.3-0.5-3.2-1.1
				c-0.8-0.6-1.2-1.4-0.9-2.4C166.8,231.4,168,230.9,169.6,230.9z"/>
			<path class="st3" d="M110.6,244.8c-2-0.8-4-1.6-5.9-2.5c-1.7-0.7-3.4-1.6-5.1-2.3c-1.2-0.5-1.7-1.4-1.7-2.6
				c0.1-3.3,0.2-6.5,0.2-9.8c0-2.4,0-4.8,0-7.2c0-1.6,1.1-2.9,2.7-2.9c2.8-0.1,5.5-0.1,8.3,0c1.1,0,1.7,0.8,1.7,2.2
				c0,1.4,0,2.8,0,4.2c0,1.5,0.2,2.9,0.2,4.4c0,5.5,0,10.9,0,16.4C111,244.7,110.8,244.7,110.6,244.8z"/>
			<path class="st3" d="M111.8,263c-1-0.5-1.8-0.9-2.7-1.3c-3.6-1.8-7.2-3.6-10.8-5.4c-0.3-0.1-0.6-0.5-0.6-0.8
				c0.1-4.1-0.5-8.2,0.4-12.3c0.2-0.8,0.4-0.9,1.1-0.6c3.2,1.5,6.3,3.1,9.5,4.5c2,0.9,2.5,2.4,2.6,4.3c0,1.4-0.1,2.9,0,4.3
				c0.1,2,0.3,4,0.4,5.9C111.8,262.1,111.8,262.5,111.8,263z"/>
			<path class="st3" d="M249.5,244.4c1.4-2.1,0.4-4,0.2-5.9c-0.2-1.5,0-3.1,0-4.7c0-0.5,0.1-0.9,0.1-1.4c0.1-3.6,0.1-7.3,0.3-10.9
				c0.1-1.3,0.4-2.6,0.8-3.9c0.1-0.4,0.8-0.7,1.3-0.7c2.6-0.1,5.3,0,7.9,0c1.4,0,2,0.6,2.2,2c0.8,6.1,0.7,12.3,0.7,18.5
				c0,0.8-0.2,1.4-1,1.7C258,240.9,253.9,242.6,249.5,244.4z"/>
			<path class="st3" d="M262.9,241.7c0.1,0.3,0.2,0.5,0.2,0.6c0.1,2.7,0.2,5.4,0.3,8.1c0,0.9,0,1.9,0.2,2.7c0.4,1.3-0.1,2.3-1.1,2.8
				c-4.2,2.2-8.4,4.3-12.7,6.4c-0.1-0.4-0.1-0.7-0.1-1c0-3.8,0-7.7,0-11.5c0-1,0.4-1.7,1.2-2.2C254.8,245.7,258.8,243.7,262.9,241.7
				z"/>
			<path class="st0" d="M243.6,225.3c0-11,0-22,0-33c0,0,0.1,0,0.1,0c0,11,0,22,0,33C243.7,225.3,243.7,225.3,243.6,225.3z"/>
			<path class="st2" d="M229.4,205.7c-2.2,0-3.7-1.2-3.7-3.2c0-1.9,1.8-3.5,3.8-3.5c2.1,0,3.4,1.3,3.4,3.4
				C232.8,204.6,231.7,205.7,229.4,205.7z"/>
			<path class="st1" d="M194.6,233.6c-0.6,0.7-1.2,1.5-1.9,2.1c-0.7,0.7-1.5,0.3-2.2-0.1c-0.5-0.3-1-0.7-1.4-1.1c-1.1-1.1-1-2,0.3-3
				c1.6-1.2,3.8-0.8,4.8,0.9C194.3,232.7,194.3,233,194.6,233.6z"/>
			<path class="st2" d="M292,223.9c1.4,0.1,2.6,1,2.5,2.2c-0.1,1.4-1.2,2.5-2.7,2.5c-1,0-2.2-1.6-2.1-2.8
				C289.7,224.5,290.6,223.8,292,223.9z"/>
		</g>
	</g>
</g>
</svg>
