<?xml version="1.0" encoding="utf-8"?>
<!-- Generator: Adobe Illustrator 21.1.0, SVG Export Plug-In . SVG Version: 6.00 Build 0)  -->
<svg version="1.1" id="Layer_1" xmlns="http://www.w3.org/2000/svg" xmlns:xlink="http://www.w3.org/1999/xlink" x="0px" y="0px"
	 viewBox="0 0 360 360" style="enable-background:new 0 0 360 360;" xml:space="preserve">
<style type="text/css">
	.st0{fill:#303033;}
	.st1{fill:#494846;}
	.st2{fill:#252527;}
	.st3{fill:#E2D9D2;}
	.st4{fill:#545B66;}
	.st5{fill:#5EB1CE;}
	.st6{fill:#7B766F;}
	.st7{fill:#D2CAC4;}
	.st8{fill:#A6A09A;}
	.st9{fill:#373A3D;}
	.st10{fill:#908A85;}
	.st11{fill:#C4BCB3;}
	.st12{fill:#575656;}
	.st13{fill:#DF4F2C;}
	.st14{fill:#FFFFFF;}
</style>
<path class="st0" d="M73.4,99.2c1.5,0.5,2.9,1,4.4,1.5c0.2,0.3,0.3,0.7,0.6,0.8c4,2,8.1,4,12.1,5.9c0.7,0.8,1.3,1.8,2.2,2.3
	c5.5,3.2,11,6.3,16.5,9.5c4.7,2.7,9.4,5.4,13.9,8.4c2.2,1.5,3.9,3.8,5.8,5.7c-5.3-0.8-10.6-1.5-15.9-2.3c-0.4-0.1-0.9-0.1-1.3-0.2
	c0,0,0,0,0,0c-0.1-0.1-0.2-0.1-0.3-0.2c-0.6-0.9-1.3-1.7-1.9-2.6c0.1-0.4,0.5-0.9,0.4-1.1c-0.7-1-1.3-2.1-2.2-2.7
	c-1.6-1-3.4-1.5-5.1-2.3c-1.8-0.8-3.6-1.3-5.5-0.7c-2.2-3.1-5.5-3.8-8.5-4.4c0.7,0.8,1.5,2,2.4,3c0.8,0.9,1.8,1.6,2.7,2.4
	c0.2,0.3,0.5,0.7,0.7,1c0.4,0.6,0.8,1.1,1.2,1.6c-11-5.3-19.3-13.1-22.5-25.4c0-0.1,0-0.2,0-0.4C73.1,99.2,73.2,99.2,73.4,99.2z"/>
<path class="st1" d="M351.8,256.2c1.2,2.6,1,3.3-1.4,4.6c-2.1,0-4.2,0-6.2,0c-0.3-0.1-0.6-0.2-0.8-0.2c-4.1-0.1-8.1-0.2-12.2-0.4
	c-1.1,0-2.2-0.4-3.3-0.7c-0.1-1.3-1.2-1-1.9-1.1c-3.6-0.5-7.2-0.8-10.8-1.3c-1-0.1-1.5,0-1.8,1c-0.9-0.3-1.9-0.6-2.8-0.9
	c-1.3-0.5-2.5-1-3.9-0.2c-0.4,0.2-1.2-0.1-1.7-0.2c-1.6-0.4-3.1-1.1-4.6-1.2c-3.6-0.3-7.2-0.3-10.8-0.5c0.3-0.4,0.6-0.8,1-1.3
	c-0.8-0.4-1.6-0.8-2.4-1.2c0.7-0.6,1.3-1.2,1.9-1.7c1-0.2,2.1-0.4,3.1-0.6c0.4,0.4,0.9,0.8,1.3,1.2c0.2-0.5,0.6-1.1,0.6-1.6
	c0-1.5-0.2-2.9-0.4-4.3c0-0.1,0.1-0.2,0.1-0.3c0.7,0.4,1.6,0.6,2.2,1.1c1,0.9,1.4,0.4,1.9-0.5c0.2-0.4,0.4-0.9,0.7-1.6
	c0.7,1.5,1.2,2.6,1.7,3.8c0.5,1.2,1.2,2,2.6,1.7c0,0.4,0,0.8,0,1.2c0.7,0.4,1.3,1,2,1.1c2.4,0.4,4.7,0.6,7.1,0.9
	c4.8,0.5,9.6,1,14.4,1.6c3.1,0.3,6.2,0.7,9.3,0.9c2,0.1,4-0.1,6-0.2c1.7,0.2,3.5,0.1,5,1.5c0.4,0.4,1.6-0.1,2.4-0.1
	c-0.1-0.5-0.1-0.9-0.2-1.4c0-0.2,0.1-0.4,0.1-0.3C350.6,255.4,351.2,255.8,351.8,256.2z M298,252c1.4,0.2,2.3,0.4,3.3,0.6
	c-0.1-0.8-0.2-1.3-0.3-2C300.1,251.1,299.3,251.4,298,252z"/>
<path class="st2" d="M21.3,137.1c0.1-0.5,0.1-1,0.4-1.3c2.1-2.2,2-4.7,1.1-7.3c4.6,2.3,9.3,4.5,13.9,7c3.4,1.8,7.2,3,9.9,5.9
	c0.5,1.3,0.6,3.2,1.5,3.8c1.8,1.2,4.1,1.6,6.2,2.4c0.7,0.4,1.4,0.8,2.2,1.2c1.8,0.9,3.6,1.7,5.4,2.6c0.2,0.2,0.3,0.6,0.6,0.7
	c4.9,2.5,9.3,6.1,15,6.5c0.2,2.3,0.8,3,2.9,3.5c0.5,0.1,1.1,0.2,1.6,0.3c0.3,0.2,0.6,0.5,0.9,0.7c3,1.6,6.1,3.2,9.2,4.7
	c3.8,2,7.6,3.9,11.3,5.9c1.5,0.8,3,1.6,4.8,0.7c1,1.3,2.3,2.6,2.8,4.1c1.4,3.8,3.9,6.2,7.8,7.2c3,0.8,6,1.4,9,2.2
	c1.4,0.4,2.8,1.1,4.1,1.6c-0.5,0.4-0.9,0.7-1.4,1c-2.1,1.2-2.3,1.7-1.7,4c-1.1,0-2.2,0-3.4,0c-0.8-0.4-1.6-0.9-2.3-1.3
	c-2.5-1.1-4.9-2.3-7.4-3.4c-1.9-0.9-2.7-0.7-4.1,0.9c-0.9-0.3-1.7-0.7-2.6-1c0-1.9-0.2-2.1-2.9-2c0.2-1,0.4-2,0.6-3
	c0.1-0.3,0.4-0.4,0.5-0.7c0.2,0.2,0.6,0.4,0.7,0.7c0.3,0.8,0.6,1.7,0.9,2.7c1.4-0.7,2.7-1.4,4-2.1c-1.6-1.4-3.2-2.6-4.4-4
	c-1.8-2.1-2.3-2.2-4,0c-0.4,0-0.8,0-1.2,0c0.3-1.5-0.4-2.2-1.8-2.5c-0.8-0.2-1.5-0.9-2.4-1.3c-1.3-0.6-2.7-1-4-1.5
	c-0.2-0.1-0.3-0.2-0.5-0.2c-0.4-1.1-0.8-2.3-1.3-3.4c-0.3-0.7-0.5-1.7-1.1-2c-2.5-1.3-5.1-2.4-8-3.7c0,1.7,0,2.8,0,4
	c0,0.4-0.3,0.8-0.4,1.2c-1.2-1.7-2.7-2.5-4.8-1.7c-1.2-0.9-2.3-1.8-3.6-2.6c-1.2-0.7-2.4-1.3-3.7-1.9c-0.2-1.9-0.6-2.1-2.4-1.2
	c-0.1,0-0.2,0-0.3,0c-0.4-0.7-0.6-1.6-1.2-2c-1.1-0.8-2.3-1.4-3.5-2.1c-2.2-1.3-4.4-2.7-6.7-4c-2.2-1.3-4.5-2.6-7.1-4
	c-0.6,1.7-1,3.1-1.5,4.4c-1.8-1.1-3.7-2.3-5.5-3.4c1.1-2.9,0.8-3.6-2-5c-3.2-1.6-6.4-3.2-9.6-4.8c-0.4-0.2-0.9-0.3-1.3-0.4
	C27.7,141,24.5,139,21.3,137.1z"/>
<path class="st2" d="M100.2,154.6c0.5-3.4-0.4-6.2-3.6-8c-0.6-0.3-0.9-1-1.4-1.6c0.4-0.3,0.7-0.7,1.1-1c2-1.2,3.9-2.4,5.9-3.6
	c1,0.8,1.9,1.5,2.9,2.3c-1.7,1.2-3.3,2.4-5.1,3.7c2,0.9,3.9,1.7,5.8,2.6c4.5,2.2,9,4.3,13.4,6.5c3.1,1.5,6.2,3.1,9.4,4.6
	c2.1,1.2,4.1,2.5,6.2,3.7c0.5,0.2,1.1,0.3,1.6,0.6c0.7,0.4,1.4,1,2.1,1.5c-4.1,0.6-7.5-1.7-11.9-2.4c0.8,1,1.3,1.6,1.7,2.2
	c0.2,0.1,0.4,0.2,0.6,0.3l0,0c1.3,0.7,2.5,1.5,4.2,2.4c-1.5,0-2.5,0-3.4,0c-0.5,0.1-1.1,0.2-1.6,0.3c0.2,0.6,0.3,1.3,0.7,1.6
	c1.2,1.1,2.5,2,3.8,3c0.9,0.8,1.9,1.7,2.8,2.5c1.5,1.3,3,2.9,5.3,2.6c4.5,2.3,9.1,4.7,13.9,7.1c-0.2-0.5-0.2-0.7-0.3-0.8
	c-1.5-1.4-3.1-2.8-4.7-4.1c-1-0.8-2.1-1.5-3.1-2.2c1.3-1.6,2.1-3.4,1.5-5.5c0.8-1.2,1.8-1.3,2.9-0.4c0.4,0.3,0.9,0.4,1.4,0.6
	c1,0.3,1.9,0.7,2.9,1c1.3,0.8,2.6,1.7,4,2.2c0.5,0.2,1.3-0.5,2-0.8c0.2-0.1,0.5-0.1,0.8-0.2c0.3,0.6,0.5,1.3,0.8,1.8
	c0.4,0.6,1,1,1.5,1.5c0.6,1.1,1.1,2.2,1.7,3.4c0,0.3,0,0.6,0,1c-0.8-0.1-1.5-0.1-2.3-0.2c-0.9-0.1-1.4,0.1-1.7,1.1
	c-0.3,1.5-0.9,2.9-1.3,4.3c-0.7-0.1-1.5-0.3-2.2-0.4c-0.3,0-0.8,0.1-0.8,0.2c-0.2,0.7-0.5,1.6-0.2,2.2c0.3,0.5,1.1,1,1.8,1.1
	c1,0.1,2.1-0.1,3.2-0.2c2.4,1.1,4.9,2.3,7.3,3.4c-0.5,0-1,0.2-1.5,0.1c-1.4-0.4-2.8-0.8-4.2-1.2c-1-0.2-1.9-0.5-2.9-0.7
	c-1,0.3-2.1,0.4-2.9,0.9c-1.2,0.8-2.1,2-3.1,3.1c-4-0.9-7-3.4-9.8-6.3c-0.9-0.9-2.4-1.3-3.6-1.9c-0.2-0.3-0.4-0.6-0.6-1
	c-0.4-1-0.5-2.3-1.2-3c-6-5.9-12.1-11.6-18-17.5c-1.5-1.5-3.2-2.2-5.3-2c-0.3-0.3-0.6-0.6-0.9-1c-0.5-0.5-0.8-1.2-1.4-1.6
	c-2.6-1.4-5.2-2.8-7.8-4.2C104.3,157,102.2,155.8,100.2,154.6z M124.2,163.2c-0.1,0.8-0.2,1.2-0.1,1.4c0.4,0.6,0.9,1,1.4,1.5
	c0.1-0.3,0.3-0.6,0.2-0.8C125.4,164.7,124.9,164.1,124.2,163.2z"/>
<path class="st2" d="M190,150.3c-1.1,0.9-2.2,1.8-3.3,2.8c0.2,0.4,0.3,0.8,0.5,1.3c0,0.6,0,1.3,0,1.9c-0.1,1.1-2.4,2.6-3.5,2.2
	c-1.7-0.7-2-0.5-2.5,1.4c-0.1,0.3-0.6,0.5-0.9,0.7c-4.1-1.7-8.1-3.4-12.2-5c-2.4-1-2.7-0.8-3.7,1.5c-0.3-0.2-0.6-0.4-0.9-0.5
	c0-0.6-0.1-1.2-0.1-2.1c-0.7,0.5-1.1,0.9-1.6,1.2c-0.6-0.3-1.1-0.5-1.7-0.8c-0.8-2.5-2.9-3.5-5.1-4.5c0.5-0.2,1-0.5,1.5-0.7
	c0.1,0.1,0.3,0.2,0.4,0.2l0,0c1.2,0.7,2.3,1.6,3.6,2.1c1.4,0.6,2.9,0.6,4.2-0.4l0,0c0.7-0.3,1.4-0.5,2.1-0.8c0-0.2-0.1-0.4-0.1-0.5
	c-0.5,0-1,0.1-1.5,0.1c-0.4-0.3-0.8-0.8-1.2-1c-5.3-1.9-10.7-3.6-16.1-5.5c-1.3-0.5-2.1-0.1-2.6,1.2c-0.8-0.1-1.6-0.2-2.3-0.3
	c-0.3,0-0.7,0.1-1,0.2c0.3,0.3,0.5,0.7,0.8,0.8c2.9,0.9,5.9,1.8,8.8,2.7c0.4,0.4,0.8,0.7,1.2,1.1c-5.2-1.8-10.4-3.5-15.6-5.3
	c1.8-0.3,3.7-0.7,5.5-1c0.1-0.1,0.1-0.3,0.2-0.4c-2.5-0.9-5-2-7.5-2.8c-1.1-0.3-2.3,0.4-2.8,1.7c1,0.7,1.9,1.3,2.8,1.9
	c-2.1-0.7-4.2-1.3-6.2-2c0.9-0.1,1.8-0.2,2.8-0.4c-0.3-1.2-0.6-2.3-0.9-3.4c1.2-0.2,2.4-0.4,3.6-0.6c0.4,0.5,0.8,1.2,1.4,1.4
	c1.6,0.6,3.4,1,5,1.4c1.9,0.5,1.9,0.5,2.3-1.5c3.7-1.2,7.8-1.4,10.7-4.7c-2-0.7-3.9-1.4-5.8-2.1c0-0.8,0-1.6,0-2.5
	c1.2,0.2,2.3,0.3,3.4,0.5c1.7,0.6,3.4,1.2,5.1,1.9c1.9,1.1,3.8,2.2,5.7,3.4c0.8,0.6,1.6,1.2,2.4,1.7c2.9,1.9,5,4.4,5.6,7.9
	c0.1,0.5,0.4,0.9,0.8,1.3c1.7,1.5,5.6,1.9,7.6,0.8c2.9,1.5,5.8,2.8,9,3.3C188.3,149.9,189.1,150.1,190,150.3z M150,139.7
	c2.3,2,4.7,2.2,7.2,1.8c0.4-0.1,1-0.5,1.2-0.9c0.3-1.1-1.9-3.4-3.1-3C153.5,138.2,151.9,139,150,139.7z"/>
<path class="st3" d="M211.6,234.6c-0.6,0-1.1,0-1.7,0c-0.3-1.4-0.6-2.7-0.9-4.3c-0.5,0.5-0.9,1-1.3,1.2c-0.4,0.2-1.4,0.1-1.4,0
	c-0.4-1.8-1.7-3.5-1.1-5.6c0.6,0.2,1.1,0.4,1.7,0.6c5.3,1.7,10.7,3.5,16,5.2c0.5,0.2,1,0.4,1.4,0.6c0.8,0.1,1.7,0.2,2.5,0.3
	c1.2,0.2,2.3,0.5,3.5,0.7c2.1,0,4.3-0.1,5.7,1.8c0.1,0.1,0.4,0.1,0.6,0.1c1.4,0.2,2.9,0.5,4.3,0.7c2.6,0.7,5.3,1.3,7.9,2
	c1.7,0.2,3.4,0.3,5.2,0.5c0.5,0.2,1,0.5,1.5,0.7c3.9,1.6,8.1,1.5,12.2,1.9c1,0.4,2.1,1.3,2.8,1.1c1.6-0.5,2.3,0,2.8,1.4
	c-0.4,0.2-0.9,0.4-1.3,0.6c-0.3,0-0.6,0-1-0.1c-8-1.5-16-3-24-4.4c-0.4-0.1-0.8,0.3-1.2,0.4c0.3,0.2,0.6,0.6,1,0.7
	c4.5,0.9,9.1,1.7,13.6,2.6c3.9,0.7,7.7,1.4,11.6,2.2c1,0.4,2,0.8,2.9,1.3c0,0.4,0,0.8,0,1.2c-2.8,1.1-5.5,0.1-8.2-0.3
	c-6.3-1.1-12.6-2.4-18.8-3.6c-0.1,0-0.2-0.1-0.3-0.2c-0.7-0.4-1.3-0.9-2-1c-10.4-2.8-20.8-5.6-31.2-8.3
	C213.6,234.1,212.5,234.5,211.6,234.6z M221.2,232.9c-0.1,0.2-0.4,0.4-0.4,0.5c0.2,0.3,0.4,0.6,0.7,0.6c6.6,1.8,13.1,3.6,19.7,5.3
	c0.4,0.1,0.9-0.1,1.3-0.1c-0.4-0.4-0.7-0.9-1.1-1c-6.6-1.7-13.2-3.4-19.8-5.1C221.6,233,221.5,233,221.2,232.9z"/>
<path class="st2" d="M128.8,133.3c-1.9-1.9-3.6-4.2-5.8-5.7c-4.5-3-9.2-5.6-13.9-8.4c-5.5-3.2-11-6.3-16.5-9.5
	c-0.9-0.5-1.5-1.5-2.2-2.3c1.1,0.2,2.2,0.2,3.2,0.6c3.2,1.2,6.4,2.5,9.6,3.9c1.6,0.7,3,0.8,4.4-0.3c0.8,0.4,1.6,0.9,2.4,1.3
	c0.3,0.2,0.6,0.4,1,0.6c0.9,0.6,1.7,1.2,2.6,1.8c1.1,0.8,2.3,1.6,3.4,2.4c0.1,0.2,0.2,0.3,0.2,0.5c-1.2,0.3-2.4,0.6-3.9,1
	c0.6,0.6,1.2,1.3,1.9,1.5c4,1.6,8,3.2,12,4.7c0.4,0.2,1-0.2,1.6-0.3c2.2,0.8,4.3,1.6,6.5,2.4c1.6,0.3,3.2,0.7,4.8,1
	c1.6,1.2,3.3,2.4,4.9,3.5c0.5,0.4,1,0.8,1.7,1.3c-3.6,0.8-6.9,1.5-10.2,2.3c-0.8-1.3-2.1-1.8-3.5-1.9
	C131.6,133.6,130.2,133.4,128.8,133.3z"/>
<path class="st4" d="M100.2,154.6c2,1.2,4,2.4,6,3.6c-1.5-0.1-3.1-0.3-4.6-0.4c-0.7,0-1.4,0-2.1,0c-1.4-0.2-2.9-0.4-4.3-0.6
	c-0.1,0-0.3-0.1-0.4-0.1c-0.1-0.1-0.2-0.2-0.3-0.2c-0.2-0.1-0.4-0.2-0.6-0.4c-1.1-0.8-2.3-1.4-3.1-2.5c-0.6-0.8-1-1.5-2-1.8
	c-0.4-0.3-0.8-0.7-1.3-1c-8.2-3.9-16.4-7.9-24.6-11.7c-2-0.9-4.2-1.4-6.2-2.1c-2.2-0.7-4.5-1.3-6.7-2l0,0c0.2-1.5-0.7-1.8-1.9-1.8
	c-2.9-1.3-5.8-2.6-8.7-4c-1.8-0.8-3.7-1.6-5.5-2.4c-0.9-0.5-1.8-1.1-2.7-1.4c-4.9-1.7-9.8-3.3-14.8-4.8c-1.2-0.4-2.4-0.4-3.8-0.6
	c0.3,1,0.5,1.6,0.7,2.3c-3.4,0.6-5.4-1.7-7.4-3.8c-0.2-0.2-0.2-0.7-0.1-0.9c0.1-0.2,0.6-0.4,0.8-0.3c1.5,0.3,3,0.9,4.5,1.1
	c1.3,0.2,2.7-0.1,4-0.2c0.7,0,1.3,0,2,0.2c17.3,5.7,33.5,13.8,50.1,21.1C78.1,144.7,89.2,149.7,100.2,154.6z"/>
<path class="st5" d="M43.9,153.1c1.8,1.1,3.7,2.3,5.5,3.4c0.8,0.5,1.7,1.1,2.5,1.6c1,0.6,1.9,0.6,3,0.3c1.1-0.3,2.6-0.1,3.6,0.4
	c3.4,1.7,6.6,3.6,9.9,5.4c1.3,1.9,2.6,3.9,3.9,5.9c-1.5,0.4-2.8,0.7-4.1,1.1c-1.6-1-3.1-1.9-4.7-2.9c-0.6-0.7-1-1.6-1.7-2
	c-2.9-1.5-5.9-2.9-8.9-4.3c-1.4-0.7-2.8-1.6-4.3-2.2c-1.1-0.5-2.2-0.6-3.4-0.9c0,0,0,0,0,0c-0.2-0.1-0.3-0.2-0.5-0.2
	c-2.7-1.9-5.4-3.8-8.1-5.6c-0.7-0.5-1.4-1-2.2-1.4c-2.6-1.2-4.3-3.4-5.7-5.7c0-0.5,0.1-0.9,0.2-1.4c1.7,0.8,3.4,1.7,5.1,2.5
	C37.3,149.1,40.6,151.1,43.9,153.1z"/>
<path class="st3" d="M95.2,157.2c1.4,0.2,2.9,0.4,4.3,0.6c0.3,0.8,0.5,1.5,0.8,2.3c2,3.3,5.4,5,8.2,7.4c0.1,0.1,0.2,0.1,0.3,0.1
	c0.8,0.5,1.7,0.8,2.3,1.5c3.8,4.6,7.5,9.2,11.3,13.8c0.9,1.1,2.2,2.1,3.5,2.5c3.7,1.1,7.5,1.9,11.2,2.9c1.4,0.4,2.6,0.2,3.7-0.6
	c0.2,0.3,0.4,0.6,0.6,1c-1.8,0.4-3.5,0.8-5.3,1.2c-1.4-0.1-2.9-0.2-4.3-0.2c-1.4-0.6-2.7-1.2-4.1-1.6c-3-0.8-6-1.4-9-2.2
	c-3.8-1-6.4-3.4-7.8-7.2c-0.5-1.5-1.9-2.7-2.8-4.1c-0.2-0.4-0.4-0.7-0.7-1c-1.7-1.7-3.4-3.3-5.1-4.9c1.5-0.3,3-0.6,4.5-0.9
	c-1.7-2.6-4.5-3.3-7-4.5c-1.7-0.8-3.4-1.6-4.3-3.5c0.9,0,1.7,0.1,2.6,0.1c0,0,0.1,0,0.1,0.1c0,0-0.1,0-0.1-0.1
	C97.1,158.9,96.2,158,95.2,157.2z"/>
<path class="st6" d="M191.2,229.8c-7.9-3.3-15.8-6.6-23.7-10c-1.9-0.8-3.8-1.9-5.7-2.8c-0.9-0.4-1.1-0.9-0.8-1.7
	c0.3-0.5,0.6-1,0.9-1.4c0.5-0.2,1-0.5,1.4-0.7c2.4,0.5,4.8,1,7.2,1.5c2.3,1.2,4.7,2.4,7,3.6c1.6,1.3,3.2,2.6,4.9,3.9
	c0.9,0.1,1.8,0.1,2.7,0.2c1.5,0.5,3,1,4.5,1.5c0.4,0.4,0.8,0.7,1.2,1.1C190.9,226.6,191.1,228.2,191.2,229.8z"/>
<path class="st5" d="M61.8,151.4c-1.8-0.9-3.6-1.7-5.4-2.6c-0.7-0.4-1.4-0.8-2.2-1.2c-2.6-2.1-5.2-4.2-7.7-6.2
	c-2.7-2.9-6.5-4.1-9.9-5.9c-4.6-2.4-9.2-4.7-13.9-7c-2.4-1.1-4.4-2.9-6.6-4.3c2.1,0.6,4.3,1.1,6.4,2c3.6,1.6,7.2,3.5,10.8,5.2
	c2.3,1.1,4.6,2.2,6.9,3.3c1.4,1.1,2.8,2.3,4.3,3.2c6.8,3.8,13.7,7.5,20.5,11.2c0.3,1.6-0.5,2.1-1.9,2
	C62.7,151.1,62.3,151.3,61.8,151.4z"/>
<path class="st2" d="M156.1,209.7c-2.1-2.7-2.2-5.8-1.6-8.9c2.3-1.5,4.5-3,6.8-4.5c0.5-0.1,0.9-0.2,1.4-0.3
	c-0.1,0.7-0.2,1.5-0.2,2.2c0,0.4,0.2,0.9,0.5,1c1,0.4,2.1,0.6,3.2,0.8c-0.3,3.3-2.4,5.2-5.1,6.7c-0.3-0.5-0.5-1-0.9-1.8
	c-0.3,0.9-0.5,1.6-0.8,2.3c-0.4,0.4-0.8,0.8-1.1,1.2C157.5,208.8,156.8,209.2,156.1,209.7z"/>
<path class="st4" d="M68.2,171.3c1.3-0.4,2.7-0.7,4.1-1.1c-1.4-2.1-2.7-4-3.9-5.9c0.3,0,0.6,0,0.9-0.1c0.1,0,0.2,0,0.3,0
	c0.8,0.4,1.6,0.8,2.4,1.2c1.2,0.6,2.5,1.2,3.7,1.9c1.2,0.8,2.4,1.7,3.6,2.6c1.1,2.6,2.2,5.3,3.3,7.9c-0.6,0.3-1.1,0.5-1.7,0.8
	c-0.3-0.1-0.7-0.2-1-0.3c-0.5-0.9-0.8-2.1-1.5-2.5c-2-1.1-4.2-1.9-6.3-2.8C70.7,172.5,69.5,171.9,68.2,171.3z"/>
<path class="st7" d="M105.8,142.8c1-0.4,2-0.8,3-1.2c0.2-0.1,0.4-0.3,0.6-0.4c0.4,0.2,0.8,0.5,1.2,0.7c0.8,0.8,1.6,1.6,2.5,2.3
	c0.9,0.8,2,2,2.9,2c1-0.1,1.8-1.5,2.8-2.3c0.1-0.1,0.1-0.1,0.2-0.1c0.1,0.5,0.2,1,0.3,1.4c0.1,0.8,0.2,1.6,0.3,2.5
	c-0.3,1.3-0.6,2.7-0.8,4c-0.5-0.1-1.2,0-1.6-0.2c-2.6-1.2-5.3-2.4-7.9-3.6c-0.6-0.5-1.1-1.1-1.7-1.6
	C106.3,145.4,105.6,144.4,105.8,142.8z"/>
<path class="st8" d="M33.3,131.4c-3.6-1.8-7.1-3.6-10.8-5.2c-2-0.9-4.2-1.3-6.4-2c-1-0.5-2-0.9-3-1.4c-0.2-0.7-0.4-1.4-0.7-2.3
	c1.3,0.2,2.6,0.2,3.8,0.6c4.9,1.6,9.9,3.2,14.8,4.8c1,0.3,1.8,0.9,2.7,1.4C33.6,128.7,33.4,130,33.3,131.4z"/>
<path class="st5" d="M131.9,189.4c1.4,0.1,2.9,0.2,4.3,0.2c0.4,1.9,0.4,1.8-1.6,2c-0.4,0-1,0.7-1.2,1.2c-0.3,0.7,0.1,1.1,0.9,1.2
	c1.4,0.2,2.6,0.1,3.5-1.1c0.1-0.1,0.5-0.3,0.6-0.2c1,1,2.4,2,2.7,3.2c0.3,1.4-1.2,1.9-2.6,2c-0.7,0-1.3,0.1-2,0.2
	c-2.6-1.2-5.1-2.4-7.7-3.6c-0.6-2.3-0.4-2.8,1.7-4C131,190.2,131.5,189.8,131.9,189.4z"/>
<path class="st9" d="M205.2,225.9c-0.6,2,0.7,3.7,1.1,5.6c0,0.1,1,0.1,1.4,0c0.4-0.2,0.8-0.7,1.3-1.2c0.3,1.6,0.6,2.9,0.9,4.3
	c-1.2,0.5-2.9-0.6-3.4,1.2c-1-0.4-1.9-0.8-2.9-1.2c0.1-1.5,0.3-3.1,0.4-4.6c0-0.9-0.2-1.6-1.3-1.7c-0.2-0.1-0.5-0.2-0.7-0.3
	c-0.7-0.1-1.5-0.3-2.2-0.4c-1-0.3-2-0.5-3-0.8c-0.5-0.6-1-1.2-1.6-1.8c0.7-0.2,1.4-0.4,2.1-0.7c1-0.4,2-1,3-1.5
	c1.5,0.9,2.9,1.8,4.4,2.7C204.9,225.6,205,225.8,205.2,225.9z"/>
<path class="st5" d="M95.5,124.9c-0.4-0.5-0.8-1.1-1.2-1.6c-0.2-0.3-0.5-0.7-0.7-1c0.5-1.1,1.2-1.2,2.2-0.6c0.3,0.2,0.8,0.2,1.2,0.3
	c4.2,2.1,8.3,4.1,12.5,6.2c0.6,0.9,1.3,1.7,1.9,2.6c0.1,0.1,0.2,0.1,0.3,0.2c0,0,0,0,0,0c-1.2-0.1-2.5,0.1-3.7-0.3
	c-2.8-0.9-5.5-2-8.2-3.1c-1.3-0.6-2.5-1.4-3.8-2.2C95.8,125.1,95.6,125,95.5,124.9L95.5,124.9z"/>
<path class="st8" d="M136.5,135.7c3.3-0.7,6.6-1.5,10.2-2.3c-0.7-0.5-1.2-0.9-1.7-1.3c1-0.2,1.9-0.4,2.9-0.6
	c1.9,0.7,3.8,1.4,5.8,2.1c-2.9,3.3-7,3.5-10.7,4.7c-2.2-0.7-4.3-1.3-6.5-2C136.5,136.1,136.5,135.9,136.5,135.7z"/>
<path class="st10" d="M211.6,234.6c1-0.1,2-0.4,2.9-0.2c10.4,2.7,20.8,5.5,31.2,8.3c0.7,0.2,1.3,0.7,2,1c-5.5-1.1-11.1-2.1-16.6-3.5
	c-5.9-1.4-11.7-3.1-17.6-4.7C212.8,235.3,212.2,234.9,211.6,234.6z"/>
<path class="st11" d="M109.2,189.6c0.9,0.3,1.7,0.7,2.6,1c3.5,1.7,7.1,3.3,10.6,5c-0.7,0.2-1.3,0.5-2,0.7c-5.2-0.1-10-1.8-14.3-4.6
	c0.8-0.7,1.6-1.3,2.4-2C108.7,189.7,108.9,189.7,109.2,189.6z"/>
<path class="st2" d="M289.9,250.7c-0.6,0.6-1.2,1.1-1.9,1.7c0.8,0.4,1.5,0.8,2.4,1.2c-0.4,0.5-0.7,0.9-1,1.3
	c-3.9,0-7.6-0.8-11.2-2.6c-1.4-0.7-2.2-1.6-1.8-3.2c2.7,1,5.3,1.9,8,2.9c1,0.4,1.8,0.3,2.3-0.7c0.1-0.4,0.2-0.9,0.2-1.3
	C287.9,250.3,288.9,250.5,289.9,250.7z"/>
<path class="st8" d="M108.4,189.7c-0.8,0.7-1.6,1.3-2.4,2c-3.9-1.9-7.8-3.8-11.7-5.7c-1.6-0.8-3.1-1.6-4.6-2.4c0-0.4,0-0.8,0.1-1.3
	c1.2,0.6,2.5,1.2,3.7,1.7c1.3,0.5,2.6,0.9,3.9,1.4c1,2.1,3.7,3.1,6.4,2.4c0.7,0.2,1.4,0.9,2.3,0.2c0.1-0.1,0.4,0.1,0.6,0.3
	C107.3,188.8,107.9,189.3,108.4,189.7z"/>
<path class="st1" d="M130.8,137.7c0.3,1.1,0.6,2.2,0.9,3.4c-1,0.1-1.9,0.3-2.8,0.4c-0.2-0.1-0.5-0.2-0.7-0.2c-0.3-0.2-0.6-0.5-1-0.6
	c-2.9-1.2-5.7-2.3-8.6-3.5c0.2-0.5,0.5-1.1,0.7-1.6c0.5,0,1,0,1.4,0c0.7,0.7,1.4,1.4,2.1,2.1c0.4-0.5,0.8-0.9,1.3-1.4
	C126.3,136.7,128.5,137.2,130.8,137.7z"/>
<path class="st12" d="M34,147c-1.7-0.8-3.4-1.6-5.1-2.5c-0.1,0.5-0.1,1-0.2,1.4c-2.6-2.6-5.1-5.1-7.6-7.8c-0.2-0.2,0.1-0.7,0.2-1.1
	c3.2,1.9,6.4,3.8,9.6,5.8C31.9,144.3,33,145.6,34,147z"/>
<path class="st10" d="M195.3,225c0.5,0.6,1,1.2,1.6,1.8c-0.8,1.7-0.3,3.7,1,4.8c0.2,0.1,0.3,0.4,0.4,0.6c-2.3-0.8-4.6-1.6-7-2.4
	c-0.2-1.6-0.3-3.2-0.5-4.9c0.4-0.2,0.8-0.4,1.2-0.5C193,224.6,194.2,224.8,195.3,225z"/>
<path class="st8" d="M198.2,232.2c-0.1-0.2-0.2-0.4-0.4-0.6c-1.3-1.1-1.8-3.1-1-4.8c1,0.3,2,0.5,3,0.8c-0.3,0.7-1.9,1.2-0.5,2.4
	c0.9-0.7,1.8-1.3,2.7-2c0.2,0.1,0.5,0.2,0.7,0.3c-0.1,0.5-0.2,1-0.3,1.7c0.6,0,1.1,0,1.7,0c-0.1,1.5-0.3,3.1-0.4,4.6
	C201.8,233.8,200,233,198.2,232.2z"/>
<path class="st1" d="M102.2,140.6c-2,1.2-4,2.4-5.9,3.6c-0.4,0.3-0.7,0.6-1.1,1c-1.3-0.3-2.6-0.7-3.2-2.1c-0.2-0.5-0.4-1.4-0.1-1.7
	c0.4-0.6,1.2-1.2,1.8-1.2C96.5,140.1,99.3,140.4,102.2,140.6z"/>
<path class="st3" d="M161.3,196.2c-2.3,1.5-4.5,3-6.8,4.5c0.2-1.4,0.3-2.7,0.5-4.1c1-1,1.9-2.2,3.1-3.1c0.8-0.6,1.9-0.6,2.9-0.9
	C161.1,193.8,161.2,195,161.3,196.2z"/>
<path class="st0" d="M109.4,141.2c-0.2,0.1-0.4,0.3-0.6,0.4c-0.3-0.5-0.7-0.9-0.8-1.5c-0.2-1.4-0.3-2.7-0.3-4.1
	c0-0.6,0.4-1.6,0.7-1.6c0.9-0.1,1.8,0.2,2.7,0.4c0.1,0,0.3,0.1,0.4,0.2c0.8,0.7,1.6,1.4,2.4,2.1c0,0.1,0,0.2,0,0.2
	c-0.6,0.6-1.1,1.2-1.7,1.7C111.3,139.8,110.4,140.5,109.4,141.2z"/>
<path class="st10" d="M105.8,142.8c-0.2,1.5,0.5,2.6,1.7,3.5c0.6,0.4,1.1,1.1,1.7,1.6c-0.3,0.1-0.6,0.2-0.9,0.3
	c-0.8,0.3-1.7,0.6-2.5,0.9c-1.9-0.8-3.8-1.7-5.8-2.6c1.8-1.3,3.4-2.5,5.1-3.7C105.3,142.8,105.6,142.8,105.8,142.8z"/>
<path class="st12" d="M156.1,209.7c0.7-0.4,1.4-0.8,2.1-1.3c1.7,0.5,3.3,1,5,1.5c0.1,1.1,0.2,2.2,0.2,3.3c-0.5,0.2-1,0.5-1.4,0.7
	c-0.5-0.1-1-0.1-1.5-0.2c-0.4-0.2-0.8-0.3-1.1-0.5c0.3-2.1,0.3-2.2-1.9-2.4c-0.4,0-0.8-0.1-1.1-0.2
	C156.2,210.3,156.2,210,156.1,209.7z"/>
<path class="st4" d="M53,162.1c3,1.4,6,2.8,8.9,4.3c0.7,0.4,1.1,1.3,1.7,2c-0.5,0.7-1,0.8-1.7,0.3c-2.8-1.8-5.7-3.6-8.6-5.4
	C53.1,162.9,53,162.5,53,162.1z"/>
<path class="st9" d="M136.5,136.3c2.2,0.7,4.3,1.3,6.5,2c-0.3,2-0.3,2-2.3,1.5c-1.7-0.4-3.4-0.8-5-1.4c-0.5-0.2-0.9-0.9-1.4-1.4
	C135,136.8,135.8,136.6,136.5,136.3z"/>
<path class="st3" d="M128.8,194.5c2.6,1.2,5.1,2.4,7.7,3.6c-1.1,0-2.3,0.1-3.4,0.1c-0.3-0.1-0.5-0.3-0.8-0.4
	c-2.5-0.8-4.9-1.6-7.4-2.4c0.2-0.3,0.3-0.6,0.5-0.9C126.6,194.5,127.7,194.5,128.8,194.5z"/>
<path class="st12" d="M286.7,251.4c-0.5,1-1.3,1.1-2.3,0.7c-2.6-1-5.3-1.9-8-2.9c-0.5-0.5-1-1-1.5-1.4c0-0.4,0-0.8,0-1.2
	c1.3,0.4,2.6,0.8,3.8,1.2c0.3,1.4,1.4,2,2.7,2.3C283.3,250.6,285,251,286.7,251.4z"/>
<path class="st10" d="M313.3,258c0.2-1,0.8-1.1,1.8-1c3.6,0.5,7.2,0.8,10.8,1.3c0.7,0.1,1.8-0.2,1.9,1.1
	C323,259,318.2,258.5,313.3,258z"/>
<path class="st11" d="M89.7,182.2c0,0.4,0,0.8-0.1,1.3c-2.9-1.6-5.9-3.2-8.8-4.8c0.6-0.3,1.1-0.5,1.7-0.8c0.6,0.2,1.2,0.4,1.8,0.6
	c0.2,0.4,0.4,1,0.7,1.2C86.6,180.6,88.1,181.4,89.7,182.2z"/>
<path class="st9" d="M113.9,137.1c-0.8-0.7-1.6-1.4-2.4-2.1c2.1,0,4.2-0.1,6.3-0.1c0.5,0,0.9,0.4,1.4,0.6c-0.2,0.5-0.5,1.1-0.7,1.6
	C117,137.1,115.5,137.1,113.9,137.1z"/>
<path class="st13" d="M125,195.4c2.5,0.8,4.9,1.6,7.4,2.4c0.3,0.1,0.5,0.3,0.8,0.4c-4.3-0.6-8.6-1.2-12.9-1.9c0.7-0.2,1.4-0.5,2-0.7
	c0.3-0.1,0.5-0.1,0.8-0.1C123.7,195.4,124.3,195.4,125,195.4z"/>
<path class="st11" d="M72,173.1c2.1,0.9,4.3,1.7,6.3,2.8c0.8,0.4,1,1.7,1.5,2.5c-2.4-1.3-4.8-2.5-7.2-3.8
	C72.3,174.4,72.2,173.6,72,173.1z"/>
<path class="st8" d="M53,162.1c0.1,0.4,0.2,0.8,0.2,1.2c-2.6-1.4-5.3-2.9-7.9-4.3c1.1,0.3,2.3,0.5,3.4,0.9
	C50.1,160.5,51.5,161.4,53,162.1z"/>
<path class="st9" d="M124,136.1c-0.4,0.5-0.8,0.9-1.3,1.4c-0.7-0.7-1.4-1.4-2.1-2.1C122.1,134.2,123,134.4,124,136.1z"/>
<path class="st0" d="M156.2,210.6c0.4,0.1,0.8,0.2,1.1,0.2c2.2,0.3,2.3,0.4,1.9,2.4C157.9,212.7,156,213,156.2,210.6z"/>
<path class="st0" d="M160.4,213.7c0.5,0.1,1,0.1,1.5,0.2c-0.3,0.5-0.6,1-0.9,1.4C160.8,214.8,160.6,214.3,160.4,213.7z"/>
<path class="st8" d="M44.8,158.7c0.2,0.1,0.3,0.2,0.5,0.2C45.1,158.9,45,158.8,44.8,158.7z"/>
<path class="st0" d="M95.4,124.9c0.2,0.1,0.3,0.2,0.5,0.4C95.8,125.1,95.6,125,95.4,124.9z"/>
<path class="st12" d="M237.1,170c11.5,5.9,22.3,13,33.1,20.2c5.3,3.5,10.3,7.5,15.5,11.2c-0.6,0.3-1.2,0.5-1.8,0.8
	c-1.8-0.8-3.5-1.6-5.3-2.4c-2.8-1-5.6-2-8.4-3c-2.7-1.1-5.4-2.3-8.1-3.4c-2.2-1.7-4.3-3.5-6.5-5.2c-2.5-2-5.1-3.9-7.6-5.9
	c-0.8-0.6-1.6-1.3-2.4-1.9c-0.3-0.3-0.5-0.6-0.8-0.9c-3.3-2.6-6.5-5.2-9.8-7.8C235.6,171.1,236.3,170.6,237.1,170z"/>
<path class="st2" d="M351.8,256.2c-0.6-0.4-1.2-0.8-1.9-1.2c0-0.1-0.1,0.1-0.1,0.3c0,0.5,0.1,0.9,0.2,1.4c-0.8,0.1-2,0.5-2.4,0.1
	c-1.5-1.4-3.3-1.3-5-1.5c-5-0.6-10-1.2-15.1-1.8c-7.4-1-14.9-2-22.3-2.9c-0.2-0.4-0.3-0.7-0.5-1.1c3.3,0.4,6.6,0.7,10,1.1
	c4.8,0.5,9.5,1.1,14.3,1.6c0.7,0.1,1.4,0.3,2.1,0.4c3.2,0.2,6.4,0.4,9.5,0.6c0.1-0.2,0.1-0.4,0.2-0.6c-3.9-2.7-7.8-5.4-11.6-8.1
	c0-0.2,0-0.5,0-0.7c1.3-0.3,2.6-0.6,4-0.9c0.3-1.4,0-2.6-1.1-3.7c-3.9-3.6-7.8-7.3-11.7-11c-0.3-0.3-0.5-0.8-0.8-1.1
	c4.4,2,7.9,5.2,11.6,8.2c5.1,4.2,10,8.6,15.2,12.6C349.2,250.1,350.6,253,351.8,256.2z"/>
<path class="st2" d="M234.9,171.7c3.3,2.6,6.5,5.2,9.8,7.8c0.3,0.2,0.6,0.6,0.8,0.9c-1.4-0.2-2.7-0.5-4.1-0.7
	c-2.4-0.2-4.7-0.2-6,2.4c-1.2-1-2.4-1-3.6,0c-0.3,0.2-0.8,0.3-1.2,0.5c-0.3-1-0.5-2.1-0.8-3.1c0.7-0.8,1.3-1.6,2-2.3
	c1.5-1.6,1.5-1.7-0.2-3.2c-2.6-1.7-5.2-3.4-7.8-5c-0.1-0.1-0.1-0.2-0.2-0.2c-1.2-1.1-2.4-2.2-3.6-3.3c0.9-0.4,1.8-0.8,3-1.3
	c-2.4-1.1-4.6-2.2-6.9-3.2c-1.6-0.7-3.3-1.3-5-2c-0.4-0.6-0.8-1.2-1.2-1.7c0.6-0.2,1.2-0.7,1.7-0.6c7.7,2.4,15.1,5.5,21.9,9.8
	c0.5,0.3,0.8,0.9,1.2,1.4c-2.5-0.6-5-1.1-7.8-1.7C229.7,167.9,232.3,169.8,234.9,171.7z"/>
<path class="st12" d="M319.6,227.1c0.3,0.4,0.4,0.8,0.8,1.1c3.9,3.7,7.8,7.4,11.7,11c1.2,1.1,1.5,2.2,1.1,3.7c-1-0.6-2-1.1-3-1.7
	c-1.3-1-2.6-2-3.8-3c-0.3-0.6-0.6-1.3-0.9-1.9c-0.3-0.4-0.5-0.8-0.8-1.2c-0.7-1.8-2.2-1.9-3.8-1.6c0,0-0.1-0.1-0.1-0.1
	c0.2-0.4,0.3-0.9,0.6-1.5c-1.9-0.6-3.7-1.2-5.6-1.8c-0.1-0.2-0.1-0.5-0.3-0.6c-2-2-4-3.9-6-5.9c-1.5-1.2-2.9-2.4-4.4-3.5
	c-1-0.7-2-1.3-3-2c-0.8-0.7-1.5-1.5-2.3-2.2c-1.6-1.5-3.3-3-4.9-4.5c0.7,0,1.4,0,2.6,0c-0.9-0.9-1.5-1.4-2.1-1.9
	c-1.1-1.1-2.2-2.3-3.4-3.4c3.8,2.8,7.6,5.6,11.4,8.5C308.9,218.6,314.2,222.9,319.6,227.1z"/>
<path class="st13" d="M190,150.3c-0.9-0.2-1.7-0.5-2.6-0.6c-3.2-0.5-6.2-1.8-9-3.3c-1.8-2.8-3.7-5.5-5.3-8.5
	c-1.3-2.5-3.3-3.7-5.9-4.3c-0.2-0.1-0.3-0.2-0.5-0.2c0,0,0,0,0,0c-2.1-1.3-4.1-2.7-6.2-4c1.6,0.2,3.2,0.5,4.7,0.7c0,0,0,0,0,0
	c0.3,0.1,0.6,0.2,0.8,0.3c0.1,0,0.2,0.1,0.3,0.1c0.2,0.1,0.4,0.2,0.5,0.3c0,0,0,0,0,0c0.2,0.1,0.3,0.2,0.5,0.2l0,0
	c0.8,0.6,1.7,1.1,2.3,1.8c1.2,1.5,2.6,1.5,4.2,1.2c5.3,4.6,10.6,9.1,15.8,13.8C190.2,148.3,189.9,149.5,190,150.3z"/>
<path class="st8" d="M115.5,110.4c3.5,1.3,7.1,2.5,10.6,3.8c10.5,4,21,8.1,31.5,12.1c0.4,0.1,0.7,0.3,1.1,0.5
	c0.1,0.3,0.2,0.6,0.2,0.9c-0.6-0.2-1.1-0.3-1.7-0.5c-1.6-0.5-3.1-1.3-4.8-0.7c-1.4-0.5-2.9-1-4.3-1.5c-3.7-1.3-7.4-2.7-11.1-4
	c-1.9-0.7-3.9-1.3-5.8-2c-0.5-0.5-0.8-1.1-1.4-1.3c-5-1.9-10.1-3.7-15.2-5.6C114.9,111.6,115.2,111,115.5,110.4z"/>
<path class="st5" d="M107.7,111.6c-1.4,1.1-2.8,1-4.4,0.3c-3.2-1.4-6.4-2.7-9.6-3.9c-1-0.4-2.1-0.4-3.2-0.6c-4-2-8.1-3.9-12.1-5.9
	c-0.3-0.1-0.4-0.5-0.6-0.8c0.9,0,1.7-0.1,2.6,0c0.8,0.1,1.5,0.2,2.2,0.4c1.9,0.5,3.8,1,5.7,1.4c3.2,1.4,6.5,2.8,9.7,4.3
	C101.3,108.4,104.5,110,107.7,111.6z"/>
<path class="st10" d="M107.7,111.6c-3.2-1.6-6.4-3.2-9.7-4.7c-3.2-1.5-6.5-2.9-9.7-4.3c3.6-0.1,6.9,0.7,10.3,1.9
	c5.3,1.9,10.7,3.7,16.1,5.5c0.3,0.1,0.6,0.3,0.9,0.4c-0.3,0.6-0.5,1.2-0.8,1.8c-0.7-0.2-1.5-0.5-2.2-0.7c-1.4-0.5-2.1,0-2.3,1.4
	C109.3,112.4,108.5,112,107.7,111.6z"/>
<path class="st9" d="M190,156.3c1.3,0.2,2.7,0.3,4,0.5c-0.4,0.2-0.7,0.4-1.2,0.7c2,1.1,3.8,2.1,5.6,3.1c0.6,1,1,2.2,1.9,2.9
	c1.6,1.3,3.5,0.8,5.3,0c1.5,1.2,3,2.4,4.5,3.6c-0.9,0.4-1.8,0.7-2.7,1.1c-0.7,0-1.4-0.1-2.1-0.1c-1.4-0.6-2.9-1.1-4.3-1.7
	c-0.3-0.3-0.5-0.7-0.8-0.9c-2-1.1-4.2-2.2-6.2-3.4c-1.6-1-3.7-1.3-4.6-3.4C189.7,158,189.9,157.1,190,156.3z"/>
<path class="st0" d="M211.2,158.7c1.7,0.6,3.3,1.2,5,2c2.3,1,4.5,2.1,6.9,3.2c-1.1,0.5-2.1,0.9-3,1.3c-1.2-0.6-2.4-1.1-3.6-1.7
	c-0.2-0.2-0.4-0.3-0.7-0.5c-2.9-2.3-3.3-2.2-4.9,1c-2-1.1-4.6-1.5-5.5-4.1c0-0.3,0-0.7,0-1c-0.1,0-0.1,0-0.2,0
	c-0.1,0.3-0.2,0.6-0.3,0.9c-0.4,0-0.8,0-1.2,0c0-0.7,0-1.5,0-2.2c0.1-0.3,0.2-0.7,0.3-1c0.6-2,1.2-2.2,2.8-0.8c0,1.1-0.1,2.2,0,3.3
	c0,0.2,0.7,0.7,0.9,0.6C208.9,159.5,210,159.1,211.2,158.7z"/>
<path class="st0" d="M190,156.3c-0.2,0.8-0.3,1.6-0.5,2.4c-2-0.6-3.4,0.1-4.2,2c2.6,2.9,5.1,5.7,7.6,8.5c-0.4,0-0.9,0.1-1.2-0.1
	c-1.5-1.3-3-2.5-4.3-3.9c-1.5-1.6-2.8-3.3-4.4-5.3c0,1.7,0,3,0,4.6c-1.3-1.2-2.3-2.2-3.3-3.2c0.2-0.2,0.3-0.5,0.5-0.7
	c0.3-0.2,0.8-0.4,0.9-0.7c0.5-1.9,0.8-2,2.5-1.4c1.1,0.4,3.4-1.1,3.5-2.2c0-0.6,0-1.3,0-1.9C188.1,155,189.1,155.7,190,156.3z"/>
<path class="st0" d="M292,206c1.1,1.1,2.2,2.3,3.4,3.4c0.5,0.5,1.1,1.1,2.1,1.9c-1.2,0-1.9,0-2.6,0c-0.9-0.7-1.9-1.5-2.8-2.2
	c-0.3-0.3-0.6-0.5-0.9-0.8c-2.4-2.1-4.9-4.1-7.3-6.1c0.6-0.3,1.2-0.5,1.8-0.8c1.8,1.3,3.6,2.6,5.5,3.9c0.2,0.2,0.5,0.3,0.7,0.5
	C291.9,205.8,291.9,205.9,292,206z"/>
<path class="st9" d="M234.9,171.7c-2.6-1.9-5.2-3.8-7.9-5.8c2.7,0.6,5.2,1.2,7.8,1.7c0.8,0.8,1.6,1.6,2.4,2.4
	C236.3,170.6,235.6,171.1,234.9,171.7z"/>
<path class="st8" d="M198.5,160.6c-1.8-1-3.7-2-5.6-3.1c0.5-0.3,0.9-0.5,1.2-0.7c0.6,0.1,1.1,0.1,1.7,0.2c0.4,0.2,0.7,0.5,1.1,0.6
	c1.9,0.5,3.7,1,5.6,1.4c0.2,0.4,0.3,0.7,0.5,1.1c-0.1,0.4-0.2,0.8-0.3,1.3C201.3,161.2,199.9,160.9,198.5,160.6z"/>
<path class="st0" d="M202.5,159.1c-1.9-0.5-3.8-0.9-5.6-1.4c-0.4-0.1-0.7-0.4-1.1-0.6c2.3-0.8,4.6-1.5,6.7,0.5
	C202.5,158.1,202.5,158.6,202.5,159.1z"/>
<path class="st9" d="M211.2,158.7c-1.1,0.4-2.2,0.8-3.4,1c-0.3,0.1-0.9-0.4-0.9-0.6c-0.1-1.1,0-2.2,0-3.3c1,0.4,2.1,0.8,3.1,1.2
	C210.3,157.6,210.7,158.1,211.2,158.7z"/>
<path class="st6" d="M158.8,127.8c-0.1-0.3-0.2-0.6-0.2-0.9c2.2,1.1,4.5,2.2,6.7,3.3c-1.6-0.2-3.2-0.5-4.7-0.7
	C160,128.9,159.4,128.3,158.8,127.8z"/>
<path class="st6" d="M174,134.1c-1.6,0.3-3.1,0.3-4.2-1.2c-0.6-0.7-1.5-1.2-2.3-1.8C169.6,132.1,171.8,133.1,174,134.1z"/>
<path class="st1" d="M202.5,159.1c0-0.5,0-1,0-1.5c0.4,0,0.8,0,1.3,0.1c0,0.7,0,1.5,0,2.2c-0.2,0.1-0.5,0.2-0.7,0.3
	C202.8,159.8,202.6,159.5,202.5,159.1z"/>
<path class="st12" d="M291.8,205.8c-0.2-0.2-0.5-0.3-0.7-0.5C291.3,205.4,291.5,205.6,291.8,205.8z"/>
<path class="st6" d="M166.1,130.4c-0.3-0.1-0.6-0.2-0.8-0.3C165.6,130.2,165.9,130.3,166.1,130.4z"/>
<path class="st6" d="M167,130.9c-0.2-0.1-0.4-0.2-0.5-0.3C166.6,130.7,166.8,130.8,167,130.9z"/>
<path class="st6" d="M167.5,131.1c-0.2-0.1-0.3-0.2-0.5-0.2C167.1,131,167.3,131,167.5,131.1z"/>
<path class="st9" d="M109.4,128.1c-4.2-2.1-8.3-4.1-12.5-6.2c0-0.2,0-0.4,0-0.6c2-0.6,3.8-0.1,5.5,0.7c1.7,0.8,3.5,1.3,5.1,2.3
	c0.9,0.6,1.6,1.7,2.2,2.7C109.9,127.2,109.5,127.7,109.4,128.1z"/>
<path class="st12" d="M96.9,121.3c0,0.2,0,0.4,0,0.6c-0.4-0.1-0.9-0.1-1.2-0.3c-1-0.6-1.7-0.5-2.2,0.6c-0.9-0.8-1.9-1.6-2.7-2.4
	c-0.9-1-1.8-2.1-2.4-3C91.4,117.5,94.7,118.1,96.9,121.3z"/>
<path class="st14" d="M111.6,130.9c-0.1-0.1-0.2-0.1-0.3-0.2C111.4,130.7,111.5,130.8,111.6,130.9z"/>
<path class="st11" d="M289.9,250.7c-1-0.2-1.9-0.4-2.9-0.6c-1.6-0.8-3.2-1.5-4.8-2.3c-0.2-1.5-1.2-2.3-2.4-3c-1-0.6-2.1-1.1-3-1.8
	c-2-1.5-2-1.5-3.4,0.5c-0.5-1.4-1.1-1.9-2.8-1.4c-0.7,0.2-1.9-0.7-2.8-1.1c-0.1-0.2-0.1-0.4-0.2-0.7c0.3-1.4,0.7-2.7,1-4.1
	c1.2-0.2,2.4-0.3,3.5-0.5c0.5-0.1,1,0,1.5,0c4.3,0.5,8.6,1,12.9,1.6c0.6,0.3,1.2,0.7,1.7,1c1.4,0.8,2.8,1.6,4.2,2.4
	c0.7,1.4,1.4,2.9,2.1,4.3c0,0.1-0.1,0.2-0.1,0.3c-0.5,1.6-1,3.1-1.6,4.7C291.9,250.3,290.9,250.5,289.9,250.7z"/>
<path class="st4" d="M294.7,245.1c-0.7-1.4-1.4-2.9-2.1-4.3c0.6-0.1,1.2-0.5,1.7-0.4c2,0.5,3.9,1,5.8,1.8c1.5,0.7,2.9,0.7,4.4,0.1
	c1-0.4,1.9-0.8,2.8-1.2c1.4,0.4,2.8,0.8,4.3,1.2c0.4,0.3,0.9,0.7,1.3,1c1.3,0.4,2.5,1.1,3.8,1.1c3.4,0.2,6.9,0.1,10.4,0.1
	c0.2,0.9,0.3,1.7,0.5,2.6c-0.4,0.1-0.8,0.3-1.3,0.4c1.1,1.7,2.1,3.2,3,4.7c-4.8-0.5-9.5-1.1-14.3-1.6c-3.3-0.4-6.6-0.7-10-1.1
	c-0.3,0.1-0.6,0.2-0.9,0.3c-1.4,0.3-2.1-0.5-2.6-1.7c-0.5-1.2-1.1-2.3-1.7-3.8c-0.3,0.7-0.5,1.2-0.7,1.6c-0.4,0.8-0.9,1.4-1.9,0.5
	C296.2,245.7,295.4,245.5,294.7,245.1z"/>
<path class="st7" d="M305.2,250.5c7.4,1,14.9,2,22.3,2.9c-0.1,0.4-0.2,0.7-0.2,1.1c-4.8-0.5-9.6-1-14.4-1.6
	c-2.4-0.3-4.8-0.5-7.1-0.9c-0.7-0.1-1.4-0.7-2-1.1C304.3,250.8,304.8,250.6,305.2,250.5z"/>
<path class="st3" d="M327.3,254.5c0.1-0.4,0.2-0.7,0.2-1.1c5,0.6,10,1.2,15.1,1.8c-2,0.1-4,0.3-6,0.2
	C333.5,255.3,330.4,254.8,327.3,254.5z"/>
<path class="st0" d="M293,250.1c0.5-1.6,1-3.1,1.6-4.7c0.1,1.4,0.3,2.9,0.4,4.3c0,0.5-0.4,1.1-0.6,1.6
	C293.8,250.9,293.4,250.5,293,250.1z"/>
<path class="st0" d="M298,252c1.3-0.6,2.1-1,3-1.4c0.1,0.7,0.2,1.2,0.3,2C300.3,252.4,299.4,252.3,298,252z"/>
<path class="st12" d="M305.2,250.5c-0.5,0.1-1,0.3-1.4,0.4c0-0.4,0-0.8,0-1.2c0.3-0.1,0.6-0.2,0.9-0.3
	C304.9,249.8,305.1,250.1,305.2,250.5z"/>
<path class="st1" d="M102.3,168.4c1.7,1.6,3.4,3.3,5.1,4.9c0.3,0.3,0.5,0.7,0.7,1c-1.8,0.9-3.3,0.1-4.8-0.7c-3.8-2-7.5-3.9-11.3-5.9
	c-3.1-1.6-6.1-3.1-9.2-4.7c-0.3-0.2-0.6-0.5-0.9-0.7c0,0,0,0,0,0c0.1-0.1,0.2-0.2,0.3-0.3c0.1-0.1,0.1-0.1,0.2-0.2
	c1.3-0.6,2.6-1.3,4-1.9c3.2,1.5,6.4,3,9.6,4.5c1.3,1,2.6,2.1,3.9,3.1c0.7,0.2,1.3,0.4,2,0.6C102.1,168.2,102.2,168.3,102.3,168.4z"
	/>
<path class="st9" d="M108.4,189.7c-0.6-0.5-1.1-1-1.7-1.5c-0.2-0.1-0.5-0.3-0.6-0.3c-0.8,0.8-1.5,0.1-2.3-0.2c-2-0.8-4-1.7-6-2.5
	c-0.2-0.4-0.3-0.9-0.6-1.1c-1.5-1.2-3.1-2.3-4.7-3.4c0.8,0,1.5,0,2.3,0.1c1.7,0.2,2.3-0.4,1.7-2c-0.4-1-0.9-1.9-1.4-2.9
	c1.3,0.5,2.7,0.9,4,1.5c0.8,0.4,1.5,1.1,2.4,1.3c1.4,0.4,2.1,1.1,1.8,2.5c-1.4-0.2-2.9-0.4-4.5-0.7c1.2,3.2,4.4,2.6,6.7,4
	c-0.4-1.3-0.7-2.3-1-3.4c1.7-2.2,2.2-2.2,4,0c1.3,1.4,2.8,2.6,4.4,4c-1.3,0.7-2.6,1.3-4,2.1c-0.3-1-0.6-1.9-0.9-2.7
	c-0.1-0.3-0.5-0.5-0.7-0.7c-0.2,0.2-0.5,0.4-0.5,0.7c-0.2,1-0.4,2-0.6,3c2.7,0,2.8,0.1,2.9,2C108.9,189.7,108.7,189.7,108.4,189.7z"
	/>
<path class="st4" d="M61.8,151.4c0.4-0.1,0.8-0.3,1.2-0.3c1.4,0,2.3-0.4,1.9-2c3.6,1.7,7.2,3.5,10.8,5.2c0.8,1.1,1.6,2.2,2.4,3.3
	c-0.3,0.3-0.5,0.7-0.8,1c-5.8-0.4-10.2-4-15-6.5C62.2,151.9,62,151.6,61.8,151.4z"/>
<path class="st9" d="M69.3,164.2c-0.3,0-0.6,0-0.9,0.1c-3.3-1.8-6.5-3.7-9.9-5.4c-1-0.5-2.5-0.7-3.6-0.4c-1.2,0.3-2.1,0.3-3-0.3
	c-0.8-0.5-1.7-1.1-2.5-1.6c0.5-1.3,0.9-2.7,1.5-4.4c2.5,1.4,4.8,2.7,7.1,4c2.2,1.3,4.4,2.7,6.7,4c1.2,0.7,2.4,1.2,3.5,2.1
	C68.7,162.6,68.9,163.5,69.3,164.2z"/>
<path class="st1" d="M95.2,176c0.5,0.9,1,1.9,1.4,2.9c0.6,1.6,0,2.2-1.7,2c-0.7-0.1-1.5-0.1-2.3-0.1c-1.8-1-3.7-1.9-5.5-2.9
	c-0.7-1.3-1.3-2.6-2-3.8c1.2-1,2.5-1.1,4-0.5c1.8,0.8,3.8,1.4,5.7,2.1C94.9,175.8,95.1,175.9,95.2,176z"/>
<path class="st0" d="M94.8,175.8c-1.9-0.7-3.8-1.3-5.7-2.1c-1.5-0.6-2.7-0.5-4,0.5c-0.4-0.8-0.8-1.6-1.1-2.4
	c0.2-0.4,0.4-0.8,0.4-1.2c0.1-1.1,0-2.3,0-4c2.9,1.3,5.5,2.4,8,3.7c0.6,0.3,0.8,1.3,1.1,2C94,173.5,94.3,174.6,94.8,175.8z"/>
<path class="st0" d="M34,147c-1-1.4-2.1-2.7-3.1-4.1c0.4,0.1,0.9,0.2,1.3,0.4c3.2,1.6,6.4,3.2,9.6,4.8c2.8,1.4,3,2.1,2,5
	C40.6,151.1,37.3,149.1,34,147z"/>
<path class="st7" d="M84,171.7c0.4,0.8,0.8,1.6,1.1,2.4c0.7,1.3,1.3,2.6,2,3.8c-0.9,0.2-1.9,0.4-2.8,0.5c-0.6-0.2-1.2-0.4-1.8-0.6
	c-1.1-2.6-2.2-5.3-3.3-7.9C81.2,169.2,82.8,170,84,171.7z"/>
<path class="st3" d="M123.1,195.5c-0.3,0-0.5,0.1-0.8,0.1c-3.5-1.7-7.1-3.3-10.6-5c1.4-1.6,2.2-1.8,4.1-0.9c2.4,1.2,4.9,2.3,7.4,3.4
	C123.1,193.9,123.1,194.7,123.1,195.5z"/>
<path class="st11" d="M77.4,158.5c0.3-0.3,0.5-0.7,0.8-1c2.2,0.6,4.4,1.2,6.6,1.8c-0.2,0.3-0.3,0.7-0.5,0.9
	c-0.6,0.6-1.2,1.1-1.9,1.6c-0.1,0.1-0.1,0.1-0.2,0.2c-0.1,0.1-0.2,0.2-0.3,0.3c0,0,0,0,0,0c-0.5-0.1-1.1-0.1-1.6-0.3
	C78.2,161.6,77.6,160.8,77.4,158.5z"/>
<path class="st9" d="M46.5,141.4c2.6,2.1,5.2,4.2,7.7,6.2c-2.1-0.8-4.4-1.2-6.2-2.4C47.1,144.6,47,142.7,46.5,141.4z"/>
<path class="st1" d="M104.6,181.3c0.3,1,0.6,2,1,3.4c-2.4-1.4-5.5-0.8-6.7-4c1.6,0.2,3,0.5,4.5,0.7
	C103.8,181.3,104.2,181.3,104.6,181.3z"/>
<path class="st11" d="M123.1,195.5c0-0.8,0-1.5,0-2.3c0.8,0.4,1.6,0.9,2.3,1.3c-0.2,0.3-0.3,0.6-0.5,0.9
	C124.3,195.4,123.7,195.4,123.1,195.5z"/>
<path class="st9" d="M71.9,165.5c-0.8-0.4-1.6-0.8-2.4-1.2C71.3,163.4,71.7,163.6,71.9,165.5z"/>
<path class="st13" d="M140.9,187.5c-1.1,0.9-2.3,1-3.7,0.6c-3.7-1-7.5-1.8-11.2-2.9c-1.3-0.4-2.6-1.4-3.5-2.5
	c-3.8-4.5-7.5-9.2-11.3-13.8c-0.6-0.7-1.5-1-2.3-1.5c-0.1-0.1-0.2-0.1-0.3-0.1c-2.8-2.4-6.3-4-8.2-7.4c3.3,0.8,6.6,1.5,8.9,4.2
	c1.4,1.6,5.7,2.8,7.9,2.1c-0.2-0.5-0.4-1-0.7-1.5c2.1-0.1,3.7,0.5,5.3,2c6,5.9,12.1,11.6,18,17.5
	C140.4,185.2,140.5,186.5,140.9,187.5z"/>
<path class="st10" d="M134.7,163.9c-2.1-1.2-4.1-2.5-6.2-3.7c0-0.5,0.1-1,0-1.5c-0.4-2.2-1.4-4.3-0.5-6.5c0.1-0.2-0.5-0.8-0.7-0.8
	c-1.2,0.1-1.9-0.7-2.3-1.6c-0.5-1.1-0.8-2.3-1.3-3.5c2.1,0.4,4.1,0.8,6.2,1.2c0,2.7,0,5.5,0,8.2c0,1.3,0.5,2.4,1.8,3
	c2.9,1.2,5.7,2.4,8.6,3.6c4.6,2,9.1,4,13.7,6c1.4,0.6,2.7,1.2,4.1,1.8c0.3,0.7,0.7,1.5,1,2.2c-1.4,0.6-2.7,1.2-4.1,1.9
	c-1-0.3-1.9-0.7-2.9-1c0.2-0.7,0.3-1.5,0.5-2.2c0.4-1,0.2-1.7-0.9-2.2c-3.8-1.9-7.5-3.9-11.4-5.7c-1.8-0.8-3.7-1.1-5.8-1.7
	C134.7,162.3,134.7,163.1,134.7,163.9z"/>
<path class="st6" d="M123.8,146.3c0.4,1.2,0.8,2.3,1.3,3.5c0.4,1,1,1.7,2.3,1.6c0.2,0,0.8,0.6,0.7,0.8c-0.9,2.3,0.2,4.4,0.5,6.5
	c0.1,0.5,0,1,0,1.5c-3.1-1.5-6.2-3.1-9.4-4.6c-0.2-1.3-0.3-2.6-0.5-3.9c0.3-1.3,0.6-2.7,0.8-4c0.7-1.7,1.4-3.4,2.2-5.1
	c0.2,0,0.4,0,0.6,0c-0.3,1.4-0.5,2.7-0.8,4.2C122.4,146.6,123.1,146.4,123.8,146.3z"/>
<path class="st4" d="M164.1,178.7c-0.5-0.5-1.1-1-1.5-1.5c-0.4-0.5-0.6-1.2-0.8-1.8c0.1-0.6,0.2-1.3,0.5-1.9
	c0.3-0.8,0.8-1.6,1.2-2.4c1.7,0.2,3.2-0.2,4.5-1.5c1.4-1.4,2.9-2.6,4.4-3.8c0.5,0.7,1,1.4,1.4,2.1c-0.3,0.2-0.7,0.4-0.7,0.7
	c-0.3,1.1-0.5,2.3-0.8,3.5c-0.1,0.4-0.4,0.7-0.7,1.1c-0.2-0.4-0.4-0.8-0.5-1.2c-0.1-0.4,0-0.8,0-1.6c-1,1.4-1.7,2.4-2.4,3.4
	c2.4,1.5,2.4,1.5,1.2,4c-0.2,0.5-0.3,1-0.5,1.4c-0.8-0.4-1.7-0.7-2.5-1.1C165.8,177.5,164.8,177.5,164.1,178.7z"/>
<path class="st11" d="M134.7,163.9c0-0.8-0.1-1.6-0.1-2.6c2,0.6,4,0.9,5.8,1.7c3.9,1.8,7.6,3.9,11.4,5.7c1.1,0.5,1.2,1.2,0.9,2.2
	c-0.3,0.7-0.4,1.5-0.5,2.2c-0.5-0.2-1-0.3-1.4-0.6c-1.1-0.9-2.1-0.9-2.9,0.4c-0.5-1.1-1.1-2.1-1.6-3.2c-2.6-1.2-5.1-2.5-7.7-3.7
	c-0.7-0.5-1.3-1-2.1-1.5C135.9,164.2,135.3,164.1,134.7,163.9z"/>
<path class="st9" d="M138.4,165.9c2.6,1.2,5.1,2.5,7.7,3.7c-0.1,1.8-0.4,2-2.6,2c-0.8-0.7-1.6-1.3-2.5-1.8c-0.7,1.1-0.7,1.1,2.5,1.8
	c-0.8,0.3-1.6,0.7-2.3,0.7c-0.7,0-1.4-0.2-2.2-0.4c-0.7-0.6-1.4-1.1-2-1.7c0.1-0.3,0.2-0.6,0.3-0.9c0.5,0,1,0.2,1.4,0.1
	c0.3,0,0.6-0.3,0.9-0.5c-0.2-0.2-0.4-0.6-0.7-0.7c-0.8-0.3-1.7-0.5-2.5-0.7c-2.5-0.6-5-1.2-7.5-1.7c0,0,0,0,0,0
	c-0.2-0.1-0.4-0.2-0.6-0.3c-0.5-0.6-1-1.2-1.7-2.2C130.9,164.2,134.4,166.6,138.4,165.9z"/>
<path class="st0" d="M165.8,183c0-0.3,0-0.6,0-1c1.8-0.8,3.4,0,4.4,0.8c1.1-0.5,1.9-1.1,2.8-1.3c0.9-0.2,1.8,0,2.7-0.1
	c1.3,0.7,1.6,2.1,0.7,3.1c-0.5,0.6-1.1,1.2-1.6,1.7c-1,0.2-1.9,0.5-2.9,0.7c-0.7,0-1.4,0-2.2,0C168.3,185.7,167.1,184.3,165.8,183z"
	/>
<path class="st4" d="M166.1,200c-1.1-0.3-2.1-0.5-3.2-0.8c-0.3-0.1-0.5-0.7-0.5-1c0-0.7,0.1-1.5,0.2-2.2c0.4-0.9,0.8-1.8,1.2-2.7
	c1.4,0.4,2.8,0.9,4.2,1.2c0.5,0.1,1,0,1.5-0.1c0.4,0,0.8,0,1.2,0c-0.3,1.2-0.5,2.4-0.8,3.6C168.7,198.7,167.4,199.4,166.1,200z"/>
<path class="st7" d="M128.8,165.9c2.5,0.6,5,1.2,7.5,1.7c0.9,0.2,1.7,0.4,2.5,0.7c0.3,0.1,0.5,0.4,0.7,0.7c-0.3,0.2-0.6,0.4-0.9,0.5
	c-0.5,0.1-0.9-0.1-1.4-0.1c-0.9-0.3-1.8-0.7-2.8-1c-0.1,0.3-0.2,0.5-0.3,0.8c0.9,0.4,1.9,0.7,2.8,1.1c0.7,0.6,1.4,1.1,2,1.7
	c0,0.4,0.1,0.8,0.1,1.2c-0.8-0.1-1.6-0.2-2.4-0.2c-1.1-0.4-2.2-0.9-3.4-1.1c-2.3-0.4-3.2-1.1-3.8-3.4c1,0,1.9,0,3.4,0
	C131.3,167.4,130.1,166.7,128.8,165.9z"/>
<path class="st6" d="M165.8,183c1.3,1.4,2.6,2.7,3.8,4.1c-1.6,0.5-3.2,0.9-4.8,1.4c-0.8,0.4-1.7,0.8-2.5,1.3c-0.6-0.5-1.2-1-1.8-1.5
	c0.5-1.4,1-2.9,1.3-4.3c0.2-1,0.7-1.3,1.7-1.1C164.3,182.9,165,182.9,165.8,183z"/>
<path class="st1" d="M175.6,181.5c-0.9,0-1.8-0.1-2.7,0.1c-0.9,0.2-1.7,0.7-2.8,1.3c-1-0.8-2.5-1.6-4.4-0.8
	c-0.6-1.1-1.1-2.2-1.7-3.4c0.7-1.1,1.7-1.2,2.8-0.7c0.8,0.4,1.7,0.8,2.5,1.1c2.4-0.2,5,1,7.2-1C176.3,179.3,175.9,180.4,175.6,181.5
	z"/>
<path class="st1" d="M139.1,173.1c0-0.4-0.1-0.8-0.1-1.2c0.7,0.1,1.5,0.4,2.2,0.4c0.8,0,1.5-0.4,2.3-0.6c2.3,0,2.6-0.2,2.7-2
	c0.5,1.1,1.1,2.1,1.6,3.2c0.7,2.1-0.2,3.9-1.5,5.5c-0.9-0.3-1.8-0.7-2.7-1c0.4-1.5-0.3-2.4-1.6-3C141,174,140.1,173.5,139.1,173.1z"
	/>
<path class="st8" d="M118.7,151.7c0.2,1.3,0.3,2.6,0.5,3.9c-4.5-2.2-9-4.3-13.4-6.5c0.8-0.3,1.7-0.6,2.5-0.9
	c0.3-0.1,0.6-0.2,0.9-0.3c2.6,1.2,5.2,2.5,7.9,3.6C117.6,151.8,118.2,151.7,118.7,151.7z"/>
<path class="st8" d="M116.4,164.9c0.2,0.5,0.4,1,0.7,1.5c-2.1,0.7-6.5-0.5-7.9-2.1c-2.3-2.7-5.6-3.5-8.9-4.2
	c-0.3-0.8-0.5-1.5-0.8-2.3c0.7,0,1.4,0,2.1,0c0.3,0.3,0.5,0.6,0.8,0.8c1.8,1.1,3.5,2.3,5.4,3.1c2.4,1,5.1,1.5,7.6,2.2
	C115.8,164.3,116.1,164.6,116.4,164.9z"/>
<path class="st0" d="M143.6,177.3c0.9,0.3,1.8,0.7,2.7,1c1.1,0.7,2.2,1.4,3.1,2.2c1.6,1.3,3.1,2.7,4.7,4.1c0.1,0.1,0.1,0.3,0.3,0.8
	c-4.8-2.5-9.4-4.8-13.9-7.1c0.1-0.2,0.2-0.5,0.2-0.7C141.8,177.6,142.7,177.5,143.6,177.3z"/>
<path class="st10" d="M115.5,164c-2.5-0.7-5.2-1.3-7.6-2.2c-1.9-0.7-3.6-2-5.4-3.1c-0.3-0.2-0.5-0.5-0.8-0.8
	c1.5,0.1,3.1,0.3,4.6,0.4c2.6,1.4,5.2,2.7,7.8,4.2C114.6,162.7,115,163.4,115.5,164z"/>
<path class="st5" d="M162.3,189.7c0.8-0.4,1.7-0.8,2.5-1.3c0.5,0.5,1,1.1,1.6,1.4c1.2,0.6,2.5,1,3.7,1.6c0.5,0.3,0.9,0.8,1.4,1.3
	c-0.2,0.5-0.5,1.1-0.7,1.6c-0.4,0-0.8,0-1.2,0c-2.4-1.1-4.9-2.3-7.3-3.4C162.3,190.6,162.3,190.2,162.3,189.7z"/>
<path class="st1" d="M163.4,171c-0.4,0.8-0.9,1.6-1.2,2.4c-0.2,0.6-0.3,1.3-0.5,1.9c-0.3,0.1-0.5,0.1-0.8,0.2c-0.7,0.3-1.5,1-2,0.8
	c-1.4-0.5-2.7-1.5-4-2.2c1.4-0.6,2.7-1.2,4.1-1.9c1.4-0.7,2.9-1.4,4.3-2C163.4,170.5,163.4,170.7,163.4,171z"/>
<path class="st6" d="M140.8,177.7c-0.1,0.2-0.2,0.5-0.2,0.7c-2.4,0.4-3.8-1.2-5.3-2.6c-1-0.8-1.9-1.7-2.8-2.5
	c0.9-0.1,1.8-0.2,2.7-0.2C137,174.7,138.9,176.2,140.8,177.7z"/>
<path class="st1" d="M162.3,189.7c0,0.4,0,0.9,0,1.3c-1.1,0.1-2.2,0.3-3.2,0.2c-0.7-0.1-1.6-0.5-1.8-1.1c-0.3-0.6,0-1.5,0.2-2.2
	c0-0.1,0.5-0.2,0.8-0.2c0.7,0.1,1.5,0.2,2.2,0.4C161.1,188.8,161.7,189.2,162.3,189.7z"/>
<path class="st4" d="M135.1,173.1c-0.9,0.1-1.8,0.2-2.7,0.2c-1.3-1-2.6-1.9-3.8-3c-0.4-0.4-0.5-1.1-0.7-1.6c0.5-0.1,1.1-0.2,1.6-0.3
	c0.6,2.3,1.5,3,3.8,3.4c1.2,0.2,2.3,0.7,3.4,1.1C136.2,173,135.6,173.1,135.1,173.1z"/>
<path class="st11" d="M163.9,193.3c-0.4,0.9-0.8,1.8-1.2,2.7c-0.5,0.1-0.9,0.2-1.4,0.3c-0.1-1.2-0.2-2.4-0.3-3.6
	C161.9,192.8,162.9,193.1,163.9,193.3z"/>
<path class="st9" d="M124.2,163.2c0.7,1,1.2,1.5,1.5,2.1c0.1,0.2-0.1,0.5-0.2,0.8c-0.5-0.5-1-1-1.4-1.5
	C124,164.4,124.1,163.9,124.2,163.2z"/>
<path class="st7" d="M128.3,165.7c0.2,0.1,0.4,0.2,0.6,0.3C128.6,165.9,128.5,165.8,128.3,165.7z"/>
<path class="st3" d="M158.1,170.1c-1.4-0.6-2.7-1.2-4.1-1.8c0.6-2.4,0.9-4.8,3.3-6.2c1.4-0.8,2-2.5,1-3.7c-0.9-1.1-2.1-2-3.4-2.6
	c-1.5-0.8-3.1-1.2-3.3-3.2c2.8,0.8,5.6,1.6,8.4,2.4c0.6,0.3,1.1,0.5,1.7,0.8c0.6,0.3,1.1,0.6,1.7,0.9c0.3,0.2,0.6,0.4,0.9,0.5
	c1.1,1,2.1,2.1,3.2,3.1c-0.7,1.2-1.3,2.4-2,3.7c-0.7,0.3-1.3,0.6-2,0.9C161.7,166.5,159.9,168.3,158.1,170.1z"/>
<path class="st12" d="M160,154.9c-2.8-0.8-5.6-1.6-8.4-2.4c-0.1-0.1-0.2-0.2-0.3-0.2c-6.7-2.5-13.4-5.1-20.2-7.6
	c-0.5-0.2-1.1,0.1-1.6,0.1c-2.1-0.2-4-0.8-5.3-2.6c-0.1-0.2-0.2-0.3-0.2-0.5l0,0c0-0.2,0-0.3,0-0.5c1.4,0,2.7,0,4.1,0
	c0.2,0.1,0.5,0.2,0.7,0.2c2.1,0.7,4.2,1.3,6.2,2c0.6,0.2,1.3,0.4,1.9,0.7c5.2,1.8,10.4,3.5,15.6,5.3c0.8,0.3,1.6,0.6,2.4,0.9
	C157.1,151.3,159.2,152.4,160,154.9z"/>
<path class="st3" d="M167.2,133.7c2.6,0.5,4.5,1.8,5.9,4.3c1.6,2.9,3.5,5.7,5.3,8.5c-2,1.1-5.9,0.7-7.6-0.8
	c-0.4-0.3-0.7-0.8-0.8-1.3c-0.6-3.6-2.7-6-5.6-7.9c-0.8-0.5-1.6-1.1-2.4-1.7c1.3-1.6,3-1.5,4.7-1.3c0,0,0,0,0,0
	C166.9,133.6,167.1,133.7,167.2,133.7z"/>
<path class="st1" d="M155,150.3c-0.8-0.3-1.6-0.6-2.4-0.9c-0.4-0.4-0.8-0.7-1.2-1.1c-0.3-0.2-0.7-0.5-1-0.7
	c-1.7-0.9-3.5-1.7-5.2-2.5c0.5-1.3,1.3-1.6,2.6-1.2c5.3,1.9,10.7,3.6,16.1,5.5c0.5,0.2,0.8,0.6,1.2,1c-0.2,0.4-0.3,0.8-0.5,1.2
	c0,0,0,0,0,0c-0.3,0-0.5-0.1-0.8-0.1c-2.3-0.5-4.6-1-6.9-1.5c0,0,0,0,0,0c-0.1-0.1-0.3-0.2-0.4-0.2C156,149.9,155.5,150.1,155,150.3
	z"/>
<path class="st7" d="M137,121.1c3.7,1.3,7.4,2.7,11.1,4c1.4,0.5,2.8,1,4.3,1.5c0.8,0.4,1.5,0.9,2.3,1.3c1.6,0.9,2.3,2.4,1.7,3.5
	c-1.7-0.6-3.4-1.2-5.1-1.9c-1-0.5-2-1.1-3-1.6c-2.4-1.1-4.9-2.1-7.4-3.1c-1-0.6-2.1-1.1-3.1-1.7c-0.3-0.4-0.6-0.8-1-1.2
	C136.8,121.7,136.9,121.4,137,121.1z"/>
<path class="st12" d="M167.6,160.1c-1.1-1-2.1-2.1-3.2-3.1c1-2.3,1.3-2.4,3.7-1.5c4.1,1.7,8.1,3.4,12.2,5c-0.2,0.2-0.3,0.5-0.5,0.7
	c-0.4-0.1-0.8-0.2-1.2-0.4c-1.1-0.3-2.4-1.2-3.3-0.9c-1.6,0.5-3,1.8-4.5,2.7c-0.2-0.1-0.4-0.1-0.6-0.2
	C169.2,161.8,168.4,161,167.6,160.1z"/>
<path class="st11" d="M156.3,131.4c0.6-1.1-0.2-2.6-1.7-3.5c-0.8-0.4-1.5-0.9-2.3-1.3c1.7-0.6,3.2,0.1,4.8,0.7
	c0.6,0.2,1.1,0.3,1.7,0.5c0.6,0.6,1.2,1.1,1.7,1.7c2.1,1.3,4.1,2.7,6.2,4c-1.7-0.2-3.5-0.3-4.7,1.3
	C160.1,133.7,158.2,132.5,156.3,131.4z"/>
<path class="st6" d="M140.8,124.9c2.5,1,4.9,2,7.4,3.1c1,0.5,2,1,3,1.6c-1.1-0.2-2.2-0.3-3.4-0.5c0,0.8,0,1.7,0,2.5
	c-1,0.2-1.9,0.4-2.9,0.6c-1.6-1.2-3.3-2.4-4.9-3.5C140.3,127.3,140.6,126.1,140.8,124.9z"/>
<path class="st1" d="M137,144.1c-0.6-0.2-1.3-0.4-1.9-0.7c-0.9-0.6-1.8-1.2-2.8-1.9c0.5-1.3,1.7-2,2.8-1.7c2.6,0.7,5,1.8,7.5,2.8
	c-0.1,0.1-0.1,0.3-0.2,0.4C140.7,143.4,138.8,143.7,137,144.1z"/>
<path class="st1" d="M150,139.7c1.9-0.8,3.5-1.5,5.2-2.1c1.1-0.4,3.4,1.8,3.1,3c-0.1,0.4-0.7,0.8-1.2,0.9
	C154.7,142,152.3,141.8,150,139.7z"/>
<path class="st10" d="M145.1,145c1.7,0.8,3.5,1.7,5.2,2.5c0.4,0.2,0.7,0.5,1,0.7c-2.9-0.9-5.9-1.7-8.8-2.7c-0.3-0.1-0.5-0.5-0.8-0.8
	c0.3-0.1,0.7-0.2,1-0.2C143.6,144.8,144.4,144.9,145.1,145z"/>
<path class="st10" d="M156.9,149.8c2.3,0.5,4.6,1,6.9,1.5c0.3,0.1,0.5,0.1,0.8,0.1c-1.3,1-2.8,1-4.2,0.4
	C159.2,151.4,158.1,150.6,156.9,149.8z"/>
<path class="st12" d="M163.4,156.5c-0.6-0.3-1.1-0.6-1.7-0.9c0.4-0.3,0.9-0.7,1.6-1.2C163.3,155.3,163.4,155.9,163.4,156.5z"/>
<path class="st10" d="M164.6,151.5c0.2-0.4,0.3-0.8,0.5-1.2c0.5,0,1-0.1,1.5-0.1c0,0.2,0.1,0.4,0.1,0.5
	C166,151,165.3,151.3,164.6,151.5z"/>
<path class="st10" d="M156.5,149.6c0.1,0.1,0.3,0.2,0.4,0.2C156.8,149.8,156.6,149.7,156.5,149.6z"/>
<path class="st11" d="M240.9,236c-1.4-0.2-2.9-0.5-4.3-0.7c-0.2,0-0.5,0-0.6-0.1c-1.5-2-3.6-1.8-5.7-1.8c0-0.5,0-1,0.1-1.4
	c0.7-2.6,0.6-5.1-1-7.4c0.9-0.1,1.8-0.2,2.6-0.2c0.4,0.1,0.8,0.2,1.3,0.2c2.8,0.6,6.1-0.3,8.1,2.7c0.3,1,0.5,2.1,1,3
	c0.4,0.7,1,1.4,1.7,1.7c1.6,0.7,3.3,1,5,1.5c2,0.6,2,0.6,2.5-1.3c0,0,0.1,0,0.1,0c0.2,0,0.3,0.1,0.5,0.1c2.3,0.3,4.9,1.6,6.2-1.8
	c0.3,0.8,0.5,1.5,0.9,2.1c1.5,2.6,4.2,2.7,6.8,3.1c-0.2,1.3-0.3,2.7-0.5,4c-3.9-0.4-7.7-0.8-11.6-1.2c-1.7-0.2-3.4-0.3-5.2-0.5
	c-0.6-0.4-1.1-1-1.7-1.2c-1.2-0.3-2.5-0.5-3.7-0.7C242.6,236,241.8,236,240.9,236z"/>
<path class="st11" d="M205.2,225.9c-0.1-0.2-0.3-0.3-0.4-0.5c-0.7-1.5-1.4-3.1-2-4.6c0.4-1.1,0.8-2.2,1.2-3.4c1.7,1.1,3.5,2,5.2,3.2
	c3.7,2.6,8.1,3.2,12.3,4.8c0.1-1.3,0.2-2.3,0.3-3.4c0.2,0.1,0.4,0.1,0.5,0.2c0.2,3.1,0.4,6.3,0.6,9.4c-5.3-1.7-10.7-3.5-16-5.2
	C206.3,226.3,205.7,226.1,205.2,225.9z"/>
<path class="st10" d="M272.1,245.3c-3.9-0.7-7.7-1.4-11.6-2.2c-4.5-0.9-9.1-1.7-13.6-2.6c-0.4-0.1-0.7-0.4-1-0.7
	c0.4-0.1,0.9-0.5,1.2-0.4c8,1.4,16,2.9,24,4.4c0.3,0.1,0.6,0.1,1,0.1C272,244.4,272,244.9,272.1,245.3z"/>
<path class="st7" d="M272.1,245.3c0-0.4,0-0.9-0.1-1.3c0.4-0.2,0.9-0.4,1.3-0.6c1.4-2,1.4-2,3.4-0.5c1,0.7,2,1.3,3,1.8
	c1.3,0.7,2.2,1.5,2.4,3c-1.1,0-2.2,0-3.4,0.1c-1.3-0.4-2.6-0.8-3.8-1.2C274,246.2,273,245.8,272.1,245.3z"/>
<path class="st7" d="M226.8,232.6c-0.8-0.1-1.7-0.2-2.5-0.3c-0.2-1.5-0.5-3-0.7-4.5c2.9,1.1,2.9,1.1,2.9-2c0-0.4,0-0.9,0-1.3
	c0.6,0.2,1.1,0.3,1.7,0.5c0.3,1.7,0.6,3.4,1,5.1c0.4,2.1,0.4,2.1-1.8,2.3C227.2,232.5,227,232.6,226.8,232.6z"/>
<path class="st10" d="M221.2,232.9c0.3,0.1,0.4,0.1,0.5,0.2c6.6,1.7,13.2,3.4,19.8,5.1c0.4,0.1,0.7,0.7,1.1,1
	c-0.4,0.1-0.9,0.3-1.3,0.1c-6.6-1.7-13.2-3.5-19.7-5.3c-0.3-0.1-0.5-0.4-0.7-0.6C220.8,233.3,221.1,233,221.2,232.9z"/>
<path class="st10" d="M226.8,232.6c0.2-0.1,0.4-0.2,0.5-0.2c2.2-0.2,2.2-0.2,1.8-2.3c-0.3-1.7-0.6-3.4-1-5.1
	c0.4-0.2,0.8-0.4,1.2-0.5c1.7,2.3,1.7,4.8,1,7.4c-0.1,0.5-0.1,1-0.1,1.4C229.1,233.1,228,232.9,226.8,232.6z"/>
<path class="st6" d="M254,238.4c3.9,0.4,7.7,0.8,11.6,1.2c0.6,0.3,1.3,0.5,1.9,0.8c0.1,0.2,0.1,0.4,0.2,0.7
	c-4.1-0.4-8.3-0.3-12.2-1.9C255,238.9,254.5,238.6,254,238.4z"/>
<path class="st10" d="M223.6,227.8c0.2,1.5,0.5,3,0.7,4.5c-0.5-0.2-1-0.4-1.4-0.6c-0.2-3.1-0.4-6.3-0.6-9.4c0.6,0.2,1.1,0.4,1.7,0.6
	C223.8,224.6,223.7,226.2,223.6,227.8z"/>
<path class="st8" d="M240.9,236c0.8,0,1.7,0,2.5,0.1c1.2,0.2,2.5,0.3,3.7,0.7c0.6,0.2,1.1,0.8,1.7,1.2
	C246.2,237.3,243.6,236.6,240.9,236z"/>
<path class="st11" d="M110.1,112.9c0.3-1.4,1-1.9,2.3-1.4c0.7,0.3,1.5,0.5,2.2,0.7c5.1,1.9,10.1,3.7,15.2,5.6
	c0.5,0.2,0.9,0.9,1.4,1.3c0,0,0,0,0,0c-3.3-0.6-6.7-1.2-10.3-1.9c1.2,0.9,2.3,1.6,3.4,2.4c-1.2,1-2.1,0.3-3-0.5
	c-1-0.9-1.9-1.8-2.9-2.7c-1.5-0.9-3-1.7-4.5-2.6c-1-0.1-1.9-0.2-2.9-0.4C110.7,113.3,110.4,113.1,110.1,112.9z"/>
<path class="st7" d="M118.4,116.4c1,0.9,1.9,1.9,2.9,2.7c0.9,0.7,1.8,1.5,3,0.5c1.7,0.7,3.4,1.4,5.1,2.1c1,1,2,2.1,3.1,3.1
	c0.9,0.9,1.9,1.8,2.9,2.7c-2.2-0.8-4.3-1.6-6.5-2.4c-0.4-0.2-0.8-0.5-1.2-0.7c-3.5-2-7.5-3-10.3-6.2c-0.1-0.2-0.2-0.3-0.2-0.5
	c0-0.4,0-0.8,0-1.3C117.5,116.5,118,116.5,118.4,116.4z"/>
<path class="st11" d="M135.3,127.5c-1-0.9-2-1.8-2.9-2.7c-1-1-2-2.1-3.1-3.1c1.8,0.6,3.6,1.4,5.5,1.9c0.9,0.2,1.9-0.2,2.9-0.4
	c1,0.6,2.1,1.1,3.1,1.7c-0.2,1.2-0.5,2.4-0.7,3.7C138.5,128.2,136.9,127.9,135.3,127.5z"/>
<path class="st9" d="M117.3,118.2c2.8,3.2,6.8,4.2,10.3,6.2c0.4,0.2,0.8,0.5,1.2,0.7c-0.5,0.1-1.1,0.4-1.6,0.3c-4-1.5-8-3-12-4.7
	c-0.7-0.3-1.2-1-1.9-1.5C114.9,118.8,116.1,118.5,117.3,118.2z"/>
<path class="st11" d="M117.1,116.5c0,0.4,0,0.8,0,1.3c-1.1-0.8-2.3-1.6-3.4-2.4c0.1-0.1,0.1-0.2,0.2-0.3
	C114.9,115.5,116,116,117.1,116.5z"/>
<path class="st1" d="M113.9,115c-0.1,0.1-0.1,0.2-0.2,0.3c-0.9-0.6-1.7-1.2-2.6-1.8c1,0.1,1.9,0.2,2.9,0.4
	C113.9,114.2,113.9,114.6,113.9,115z"/>
<path class="st8" d="M75.8,154.3c-3.6-1.7-7.2-3.5-10.8-5.2c-6.8-3.7-13.7-7.4-20.5-11.2c-1.5-0.9-2.9-2.1-4.3-3.2
	c1.1,0.2,2.1,0.5,3.2,0.7l0,0c0.2,0.1,0.3,0.2,0.5,0.2l0,0c0.2,0.1,0.3,0.2,0.5,0.2l0,0c2.9,1.4,5.7,2.8,8.6,4.2
	c0.1-0.1,0.1-0.2,0.2-0.3c-0.7-0.7-1.5-1.3-2.2-2c0.1-0.1,0.1-0.2,0.2-0.2c2.3,0.8,4.5,1.5,6.8,2.3c0.1-0.1,0.1-0.2,0.2-0.3
	c-0.5-0.7-1-1.4-1.4-2.1c2.1,0.7,4.3,1.2,6.2,2.1c8.2,3.8,16.4,7.8,24.6,11.7c0.5,0.2,0.9,0.6,1.3,1c-1,0.1-2.1,0.2-3.1,0.3
	c-0.5-0.3-1.1-0.5-1.6-0.8c-3.9-2.3-7.9-4.6-12.3-5.7c-0.7-1.8-2.9-3.1-4.8-2.9c-0.3,0-0.5,0.3-0.7,0.4c0.2,0.2,0.3,0.6,0.6,0.7
	c1.6,0.6,3.3,1.2,4.9,1.8c0,0.5,0,1,0,1.4c-0.9,0-1.8,0-2.6-0.1c-2.2-1-4.4-2-6.6-3c-1.9-0.8-3.9-1.6-5.8-2.5c0,0-0.1-0.1-0.1-0.1
	c0,0,0.1,0.1,0.1,0.1c0.6,0.4,1.2,0.8,1.8,1.2c4.4,2.5,8.7,5,13.1,7.5c1.5,1,3,2.1,4.6,3.1C76,153.9,75.9,154.1,75.8,154.3z
	 M63.1,141.4c-0.1-0.1-0.2-0.1-0.3-0.2c0,0,0,0.1-0.1,0.1C62.9,141.4,63,141.4,63.1,141.4c0.1,0.1,0.2,0.1,0.3,0.2
	c0,0,0-0.1,0.1-0.1C63.3,141.5,63.2,141.5,63.1,141.4z M61.6,141c0-0.1,0.1-0.2,0.1-0.3c-0.5-0.2-1.1-0.4-1.6-0.6
	c0,0.1-0.1,0.2-0.1,0.3C60.5,140.6,61.1,140.8,61.6,141z"/>
<path class="st3" d="M85.6,152.6c1-0.1,2.1-0.2,3.1-0.3c1,0.2,1.4,1,2,1.8c0.8,1,2.1,1.7,3.1,2.5c-0.9,0.1-1.7,0.2-2.5,0.3
	c1.1,1,2.4,1.9,3.2,3.2c0.8,1.3,1,3,1.5,4.5c-3.2-1.5-6.4-3-9.6-4.5c-0.5-0.4-1-0.8-1.5-1.2c-3-1.7-5.9-3.3-8.9-5
	c-1.5-1-3-2.1-4.6-3.1c-0.8-1.1-1.6-2.1-2.4-3.2c0.9,0,1.8,0,2.6,0.1c3.8,1.9,7.7,3.8,11.5,5.8c2.1,0.9,4.2,1.8,6.3,2.6
	c0.1-0.1,0.1-0.2,0.2-0.3c-1.3-0.9-2.7-1.7-4-2.6C85.6,152.8,85.6,152.7,85.6,152.6z"/>
<path class="st11" d="M96,164.4c-0.5-1.5-0.7-3.2-1.5-4.5c-0.7-1.3-2.1-2.1-3.2-3.2c0.8-0.1,1.7-0.2,2.5-0.3
	c0.2,0.1,0.4,0.2,0.6,0.4c0.1,0.1,0.2,0.2,0.3,0.2c0.1,0,0.3,0.1,0.4,0.1c1,0.8,1.9,1.7,2.9,2.5l0,0c-0.8,0-1.6-0.1-2.6-0.1
	c0.9,1.9,2.6,2.7,4.3,3.5c2.5,1.2,5.3,1.8,7,4.5c-1.5,0.3-3,0.6-4.5,0.9c-0.1-0.1-0.3-0.2-0.4-0.2c-0.1-0.8-0.3-1.6-0.4-2.4
	c-0.6,0.7-1.1,1.2-1.6,1.8C98.6,166.5,97.3,165.4,96,164.4z"/>
<path class="st11" d="M43.4,135.5c-1.1-0.2-2.1-0.5-3.2-0.7c-2.3-1.1-4.6-2.2-6.9-3.3c0.2-1.4,0.3-2.7,0.5-4.1
	c1.8,0.8,3.7,1.6,5.5,2.4c0.4,0.6,0.8,1.2,1.3,1.9c-0.4,0.2-0.9,0.5-1.5,0.8C40.6,133.4,42,134.4,43.4,135.5z"/>
<path class="st8" d="M43.4,135.5c-1.4-1-2.8-2-4.3-3.1c0.6-0.3,1-0.5,1.5-0.8c-0.4-0.6-0.9-1.3-1.3-1.9c2.9,1.3,5.8,2.6,8.7,4
	c-0.6,0.1-1.2,0.2-1.8,0.3c0,0.2-0.1,0.3-0.1,0.5c1.2,0.3,2.5,0.7,3.7,1c0,0,0,0,0,0c0,0.5,0,1.1,0,1.6c-2-0.4-3.8-0.8-5.5-1.1
	c0,0,0,0,0,0c-0.2-0.1-0.3-0.2-0.5-0.2c0,0,0,0,0,0C43.7,135.6,43.5,135.5,43.4,135.5L43.4,135.5z"/>
<path class="st7" d="M44.3,135.9c1.8,0.4,3.5,0.7,5.5,1.1c0-0.6,0-1.1,0-1.6c2.2,0.7,4.5,1.3,6.7,2c0.5,0.7,1,1.4,1.4,2.1
	c-0.1,0.1-0.1,0.2-0.2,0.3c-2.3-0.8-4.5-1.5-6.8-2.3c-0.1,0.1-0.1,0.2-0.2,0.2c0.7,0.7,1.5,1.3,2.2,2c-0.1,0.1-0.1,0.2-0.2,0.3
	C50.1,138.7,47.2,137.3,44.3,135.9z"/>
<path class="st7" d="M49.9,135.4c-1.2-0.3-2.5-0.7-3.7-1c0-0.2,0.1-0.3,0.1-0.5c0.6-0.1,1.2-0.2,1.8-0.3
	C49.2,133.7,50.1,134,49.9,135.4z"/>
<path class="st3" d="M94.8,157c-0.1-0.1-0.2-0.2-0.3-0.2C94.6,156.9,94.7,157,94.8,157z"/>
<path class="st11" d="M98.1,159.7C98.1,159.7,98.2,159.7,98.1,159.7C98.2,159.7,98.1,159.7,98.1,159.7
	C98.1,159.7,98.1,159.7,98.1,159.7z"/>
<path class="st12" d="M182.4,222.1c-1.6-1.3-3.2-2.6-4.9-3.9c0-0.2,0-0.5,0-0.7c0.5-1.3,1.2-2.6,1.6-4c0.5-1.6-0.3-2.9-1.6-3.2
	c0.1-0.4,0.2-0.8,0.2-1.2c0.3-0.7,0.6-1.4,0.8-2.1c1,2.4,1.6,5,4.9,4.7c-0.1,0.8-0.2,1.7-0.3,2.7c1.6-0.7,3.1-1.4,4.4-2
	c0.4-1-2.3-2.5,0.7-2.7c1.8,0.7,2.5,1.8,2.2,3.5c-0.1,0.4-0.1,0.8-0.2,1.3c-1.3-0.3-2.6-0.6-4.1-1c0.5,2,1.3,3.6,3.3,4.1
	c0.2,0.1,0.4,0.4,0.5,0.7c-0.5,0.6-1,1.1-1.5,1.7c0-0.1,0-0.3-0.1-0.4c-1.3,0.4-2.6,0.9-4,1.3C183.8,221.4,183.1,221.8,182.4,222.1z
	"/>
<path class="st4" d="M163.4,213.2c-0.1-1.1-0.2-2.2-0.2-3.3c0.5-0.7,1-1.3,1.4-2c1.4,0.4,2.9,0.9,4.3,1.3c0.1,0.1,0.3,0.1,0.4,0.2
	c0.4,0.2,0.8,0.4,1.3,0.7c0.2,0.1,0.5,0.2,0.7,0.3c0.1,0.1,0.2,0.2,0.3,0.3c0,0,0,0,0,0c-0.3,1.4-0.7,2.7-1,4.1
	C168.2,214.2,165.8,213.7,163.4,213.2z"/>
<path class="st9" d="M170.6,214.7c0.3-1.4,0.7-2.7,1-4.1c2.8,1,1.1,3.4,1.6,5.6c0.6-0.6,1.5-1.1,1.5-1.4c-0.5-1.6,0.4-2.6,1.3-3.7
	c0.5-0.6,0.7-1.3,1.1-1.9c0.2,0,0.5,0,0.7,0c-0.1,0.4-0.2,0.8-0.2,1.2c-0.4,1.5-0.6,3-1.1,4.4c-0.5,1.4-0.3,2.3,1.2,2.8
	c0,0.2,0,0.5,0,0.7C175.2,217.1,172.9,215.9,170.6,214.7z"/>
<path class="st9" d="M184.5,221.1c1.3-0.4,2.6-0.9,4-1.3c0,0.1,0,0.3,0.1,0.4c0.5-0.6,1-1.1,1.5-1.7c0.4,0.4,0.8,0.8,1.2,1.2
	c-0.6,1.4-1.1,2.8-1.7,4.2c-1.5-0.5-3-1-4.5-1.5C184.9,221.9,184.7,221.5,184.5,221.1z"/>
<path class="st12" d="M189.5,223.8c0.6-1.4,1.1-2.8,1.7-4.2c1.3,0.3,2.6,0.5,3.8,0.8c-1,1.3-2.1,2.7-3.1,4c-0.4,0.2-0.8,0.4-1.2,0.5
	C190.3,224.6,189.9,224.2,189.5,223.8z"/>
<path class="st10" d="M184.5,221.1c0.2,0.4,0.4,0.8,0.5,1.2c-0.9-0.1-1.8-0.1-2.7-0.2C183.1,221.8,183.8,221.4,184.5,221.1z"/>
<path class="st8" d="M164.6,207.9c-0.5,0.7-1,1.3-1.4,2c-1.7-0.5-3.3-1-5-1.5c0.4-0.4,0.8-0.8,1.1-1.2c0.6-0.2,1.1-0.3,1.7-0.5
	c2.7-1.5,4.8-3.4,5.1-6.7c1.3-0.7,2.6-1.3,3.9-2c-0.1,0.3-0.1,0.6-0.2,1c-0.4,0.6-0.8,1.3-1.2,1.9
	C167.3,203.2,165.9,205.6,164.6,207.9z"/>
<path class="st12" d="M161,206.7c-0.6,0.2-1.1,0.3-1.7,0.5c0.2-0.7,0.5-1.4,0.8-2.3C160.5,205.7,160.7,206.2,161,206.7z"/>
<path class="st14" d="M119,143.8c-0.1,0-0.1,0.1-0.2,0.1c-0.9,0.8-1.8,2.2-2.8,2.3c-0.9,0.1-2-1.2-2.9-2c-0.9-0.7-1.7-1.5-2.5-2.3
	c0.9-0.4,1.8-0.8,2.7-1.2c0.1,0.4,0.3,0.7,0.3,0.8c0.6-0.6,1.1-1.1,1.7-1.6c1,0.2,2,0.5,3,0.7C118.5,141.7,118.7,142.8,119,143.8z"
	/>
<path class="st3" d="M119,143.8c-0.2-1.1-0.5-2.1-0.7-3.2c0.5,0,1-0.1,1.3,0.1c0.8,0.5,1.4,1.2,2.1,1.8c-0.7,1.7-1.4,3.4-2.2,5.1
	c-0.1-0.8-0.2-1.7-0.3-2.5C119.2,144.8,119.1,144.3,119,143.8z"/>
<path class="st3" d="M115.2,140c-0.5,0.5-1.1,1.1-1.7,1.6c0-0.1-0.1-0.4-0.3-0.8c-0.9,0.4-1.8,0.8-2.7,1.2c-0.4-0.2-0.8-0.5-1.2-0.7
	c0.9-0.7,1.9-1.4,2.8-2.1c0.6,0,1.1,0.1,1.7,0.1C114.4,139.5,114.8,139.7,115.2,140z"/>
<path class="st2" d="M195.1,220.4c-1.3-0.3-2.6-0.5-3.8-0.8c-0.4-0.4-0.8-0.8-1.2-1.2c-0.2-0.2-0.3-0.6-0.5-0.7
	c-2-0.6-2.7-2.1-3.3-4.1c1.4,0.3,2.7,0.6,4.1,1c0,0,0,0,0,0c1,0.8,1.9,1.6,2.9,2.4c0.4,0.3,0.7,0.7,1.2,1c1.2,0.7,2.4,1.4,3.6,2.1
	c1.6,0.3,3.2,0.5,4.8,0.8c0.7,1.5,1.4,3.1,2,4.6c-1.5-0.9-2.9-1.8-4.4-2.7c-0.4-0.2-0.8-0.5-1.2-0.7
	C197.8,221.3,196.8,220.1,195.1,220.4z"/>
<path class="st4" d="M195.1,220.4c1.7-0.3,2.8,0.9,4.1,1.7c0.4,0.2,0.8,0.5,1.2,0.7c-1,0.5-2,1-3,1.5c-0.7,0.3-1.4,0.5-2.1,0.7
	c-1.1-0.2-2.2-0.4-3.3-0.6C193,223.1,194,221.8,195.1,220.4z"/>
<path class="st10" d="M202.1,228.1c-0.9,0.6-1.8,1.3-2.7,2c-1.4-1.2,0.2-1.7,0.5-2.4C200.6,227.8,201.3,227.9,202.1,228.1z"/>
<path class="st10" d="M204.1,230c-0.5,0-1.1,0-1.7,0c0.1-0.6,0.2-1.1,0.3-1.7C203.9,228.4,204.1,229.1,204.1,230z"/>
<path class="st1" d="M278.8,247.8c1.1,0,2.2,0,3.4-0.1c1.6,0.8,3.2,1.5,4.8,2.3c-0.1,0.4-0.2,0.9-0.2,1.3c-1.7-0.4-3.5-0.8-5.2-1.2
	C280.3,249.8,279.2,249.2,278.8,247.8z"/>
<path class="st4" d="M84.3,178.5c0.9-0.2,1.9-0.4,2.8-0.5c1.8,1,3.7,1.9,5.5,2.9c1.6,1.1,3.1,2.2,4.7,3.4c0.3,0.2,0.4,0.7,0.6,1.1
	c-0.2,0-0.3,0-0.5,0.1c-1.3-0.5-2.7-0.9-3.9-1.4c-1.3-0.5-2.5-1.1-3.7-1.7c-1.6-0.8-3.2-1.6-4.7-2.5
	C84.7,179.5,84.5,178.9,84.3,178.5z"/>
<path class="st11" d="M97.4,185.4c0.2,0,0.3,0,0.5-0.1c2,0.8,4,1.7,6,2.5C101.1,188.5,98.4,187.4,97.4,185.4z"/>
<path class="st2" d="M115.2,140c-0.4-0.2-0.9-0.5-1.3-0.7c0-0.6,0-1.2,0-1.9c0-0.1,0-0.2,0-0.2c1.5,0,3,0,4.6,0
	c2.9,1.2,5.7,2.3,8.6,3.5c0.4,0.1,0.7,0.4,1,0.6c-1.4,0-2.7,0-4.1,0c-0.2,0.1-0.5,0.1-0.7,0.2c-0.3,0.4-0.6,0.8-1,1.2
	c-0.2,0-0.4,0-0.6,0c-0.7-0.6-1.4-1.3-2.1-1.8c-0.3-0.2-0.9-0.1-1.3-0.1C117.2,140.4,116.2,140.2,115.2,140z"/>
<path class="st9" d="M113.9,137.4c0,0.6,0,1.2,0,1.9c-0.6,0-1.1-0.1-1.7-0.1C112.8,138.5,113.4,138,113.9,137.4z"/>
<path class="st14" d="M262.1,193.3c2.7,1.1,5.4,2.3,8.1,3.4c-0.1,2.1,1,3.5,2.7,4.8c3.6,2.6,4.8,6.4,1.6,10
	c-0.2,0.2-0.3,0.6-0.5,0.9c1.6,0.4,2.7-0.2,3.3-1.5c0.6-1.2,0.8-2.6,1.4-3.9c0.4-0.8,1.2-1.3,1.8-2c0.4,0.5,0.8,1.1,1.1,1.6
	c-0.2,1.4-0.5,2.8-0.7,4.2c2-0.1,3.1-1,3.9-2.4c1.9,0.8,3.9,1.7,5.8,2.5c0.1,0.1,0.2,0.1,0.3,0.2c0,0.4,0,0.8,0,1.2
	c-1.9,1.6,0.8,2.3,0.6,3.7c-0.9,0.4-1.8,0.9-2.9,1.5c2.4,0.6,3.3,0.9,5.1-1.5c0.3,1.1,0.6,2.2,0.9,3.2c-0.9,0.3-1.8,0.5-2.7,0.8
	c-0.3,0.1-0.5,0.5-0.5,0.8c0,0.2,0.2,0.6,0.4,0.7c1.2,0.3,2.5,0.5,4,0.8c-0.3-1-0.6-1.7-0.8-2.5c0.5-0.2,0.9-0.3,1.4-0.5
	c0.7,0.2,1.4,0.5,2.1,0.7c0.5,0.7,1,1.3,1.5,2c0,0.9,0,1.9,0,2.8c-1,0-1.9,0-2.9,0c-2.5-0.9-5-0.8-6.9,1.1c-1.3,1.3-2.3,3-3.5,4.5
	c-3.6-0.4-7.2-0.8-10.7-1.3c-0.2-0.4-0.4-0.7-0.7-1.1c-2.9-3.2-5.7-6.5-8.6-9.7c-0.1-0.2-0.2-0.4-0.3-0.5c-1.5-2.6-3-5.2-4.6-7.7
	c-0.2-0.4-0.9-0.4-1.4-0.6c-1.7-2.2-3.5-4.3-5.2-6.5c1.5-0.2,3-0.4,4.5-0.6c2.6-0.1,5.3-0.2,8.1-0.3c-0.4-1.1-0.8-1.9-1.1-2.8
	c-1.4-1.6-2.7-3.2-4.1-4.9C262.4,194.2,262.2,193.8,262.1,193.3z M282.8,214.8c-1-0.5-1.8-1-2.7-1.4c-0.2-0.1-0.6,0-0.8,0
	c0,0.3,0,0.6,0.1,0.8c0.4,0.6,0.9,1.2,1.2,1.7c-0.7,1-1.4,1.8-2,2.7c0.1,0.1,0.3,0.2,0.4,0.4C280.3,217.6,281.5,216.3,282.8,214.8z"
	/>
<path class="st2" d="M262.1,193.3c0.2,0.5,0.3,0.9,0.5,1.4c-0.2,0-0.5,0.1-0.7,0.1c-1.7-0.3-3.4-0.7-5.1-1c-0.8-0.2-1.7-0.3-2.5-0.5
	c-1.4-0.9-2.7-2.3-4.3-2.5c-3.4-0.6-6.8-0.6-10.2-0.9c-0.3-0.2-0.6-0.5-1-0.6c-6.2-2.2-12.5-4.3-18.7-6.4c-0.2-0.1-0.5,0-0.7,0
	c-0.4-0.2-0.9-0.4-1.3-0.6c-4.2-1.4-8.5-2.8-12.7-4.3c-1.9-0.7-3.8-1.1-5.8-0.6c-2-1-4-2.2-6.6-1.8c0.4,0.5,0.6,0.9,0.9,1.3
	c-1.2-0.3-2-1-3-1.4c-0.8-0.3-1.9-0.7-2.5-0.4c-0.6,0.3-0.8,1.4-1.2,2.2c-1.4,1.2-2.7,2.4-4.3,3.8c1.8,0.7,3.3,1.2,4.8,1.8
	c1.1,0.4,2.3,0.8,3.3,1.3c1.1,0.6,2.1,1.5,3.2,2.3c-2.6-0.9-5.1-1.8-7.7-2.6c-0.4-0.1-0.9,0.2-1.4,0.3c0.3,0.4,0.5,0.9,0.8,1.1
	c1.3,0.7,3,1.1,4,2c2.4,2.2,5,3.5,8.3,3.3l0,0c-0.7,1.9-1.9,2.3-3.6,1.3c-1.2-0.7-2.4-1.7-3.7-1.7c-1.8-0.1-3.6,0.5-5.5,0.8
	c0-3-0.7-3.8-3.8-3.9c-0.7-0.5-1.4-0.9-2.2-1.4c0.7-1,1.4-2.1,2.2-3.1c0.8-1,0.7-1.7-0.1-2.6c-1.6-1.8-3.3-3.6-3.5-6.3
	c-1.4-1.9-2.9-3.9-4.3-5.8c-0.5-0.7-1-1.4-1.4-2.1c-0.6-1-1.1-1.9-1.7-2.9c1.5-0.9,2.9-2.2,4.5-2.7c0.9-0.3,2.2,0.6,3.3,0.9
	c0.4,0.1,0.8,0.2,1.2,0.4c1,1,2,1.9,3.3,3.2c0-1.6,0-2.9,0-4.6c1.7,2,3,3.8,4.4,5.3c1.3,1.4,2.8,2.7,4.3,3.9
	c0.2,0.2,0.8,0.1,1.2,0.1c0.5,0.5,0.9,1,1.4,1.5c0.9,2.5,2.7,3.4,6.4,3c1.7,0.5,3.4,1,5.2,1.5c4.4,1.2,8.8,2.5,13.2,3.7
	c2.4,0.7,4.8,1.5,7.3,2.2c0.4,0.1,0.9-0.1,1.4-0.1c0.4,0,0.8-0.1,1.1-0.1c0.4,0.8,0.9,1.6,1.3,2.3c1.3,2.4,3.4,2.7,5.8,0.9
	c0.4,0.2,0.8,0.5,1.1,0.7c0.5,0.8,1.1,1.6,1.8,2.6c0.2-1.3,0.4-2.1,0.5-3c3.1,1,5.9,2,9.3,3.1c-0.6-0.8-0.8-1.2-1.1-1.6
	c-1.1-1.4-1-2.5,0.4-3.7c2.5,2,5.1,3.9,7.6,5.9C257.7,189.8,259.9,191.6,262.1,193.3z M186.1,166c-0.9,0.4-0.2,5.9,1,7.8
	c0.6-0.6,1.6-1.3,1.5-1.6C187.9,170.1,187,168.1,186.1,166z"/>
<path class="st7" d="M280.4,205.1c-0.6,0.6-1.4,1.2-1.8,2c-0.6,1.2-0.9,2.6-1.4,3.9c-0.6,1.3-1.7,1.9-3.3,1.5
	c0.2-0.3,0.3-0.6,0.5-0.9c3.2-3.7,2-7.4-1.6-10c-1.7-1.2-2.7-2.6-2.7-4.8c2.8,1,5.6,2,8.4,3c0.3,0.7,0.5,1.4,1,2
	C280.4,202.8,280.7,203.8,280.4,205.1z"/>
<path class="st0" d="M247.9,182.2c-1.4,1.2-1.5,2.3-0.4,3.7c0.3,0.4,0.5,0.8,1.1,1.6c-3.4-1.1-6.3-2.1-9.3-3.1
	c-0.2,0.9-0.3,1.8-0.5,3c-0.7-1-1.2-1.8-1.8-2.6c0-3.2,0.1-3.4,3.2-4.3c0.4-0.1,0.8-0.6,1.2-0.9c1.4,0.2,2.7,0.5,4.1,0.7
	C246.3,181,247.1,181.6,247.9,182.2z"/>
<path class="st8" d="M280.4,205.1c0.3-1.3,0-2.3-0.8-3.3c-0.5-0.6-0.7-1.3-1-2c1.8,0.8,3.5,1.6,5.3,2.4c2.4,2,4.9,4.1,7.3,6.1
	c0.3,0.3,0.6,0.5,0.9,0.8c-0.5,0.2-0.9,0.3-1.4,0.5c-0.4-0.2-0.9-0.3-1.3-0.5c-1.4-0.6-2.8-1.2-4.2-1.9c-0.6-0.9-1.3-1.7-2-2.7
	c-0.6,0.9-1.1,1.5-1.6,2.2C281.2,206.2,280.8,205.6,280.4,205.1z"/>
<path class="st12" d="M327.3,247c-0.2-0.9-0.3-1.7-0.5-2.6c0.8,0,1.6,0,2.4,0c3.9,2.7,7.8,5.4,11.6,8.1c-0.1,0.2-0.1,0.4-0.2,0.6
	c-3.2-0.2-6.4-0.4-9.5-0.6c0.9-0.4,1.8-0.8,2.7-1.2C332.3,248.8,330.7,246.6,327.3,247z"/>
<path class="st11" d="M312.7,243.2c-0.4-0.3-0.9-0.7-1.3-1c5.2,0,10.5,0,15.7,0c1-0.4,2.1-0.7,3.1-1.1c1,0.6,2,1.1,3,1.7
	c-1.3,0.3-2.6,0.6-4,0.9C323.7,243.6,318.2,243.4,312.7,243.2z"/>
<path class="st1" d="M327.3,247c3.4-0.4,5,1.7,6.6,4.3c-1,0.4-1.8,0.8-2.7,1.2c-0.7-0.1-1.4-0.3-2.1-0.4c-1-1.5-2-3-3-4.7
	C326.5,247.3,326.9,247.2,327.3,247z"/>
<path class="st1" d="M312.7,243.2c5.5,0.2,11,0.3,16.5,0.5c0,0.2,0,0.5,0,0.7c-0.8,0-1.6,0-2.4,0c-3.5,0-6.9,0.1-10.4-0.1
	C315.2,244.3,313.9,243.6,312.7,243.2z"/>
<path class="st6" d="M227.7,181c-0.5,0.1-0.9,0.2-1.4,0.1c-2.4-0.7-4.9-1.4-7.3-2.2c-0.9-0.8-1.7-1.5-2.5-2.3c0.6-1,1.2-2,1.8-2.9
	c0.9,0.3,1.8,0.7,2.7,1c2.7,1.1,5.4,2.2,8.5,3.5c-0.1-0.8-0.1-1.3-0.3-1.7c-0.2-0.3-0.7-0.4-1-0.6c-2.5-1.5-5.5-2.3-7.3-4.8
	c0.9-0.9,1.8-1.8,2.7-2.7c0.1,0.1,0.1,0.2,0.2,0.2c-0.1,1.1,0.3,2,1.3,2.6c1.2,0.7,2.2,1.6,3.5,2.1c0.9,0.4,2,0.2,3,0.3
	c1.7,1.5,1.7,1.6,0.2,3.2c-0.7,0.7-1.3,1.5-2,2.3C229.1,179.9,228.4,180.5,227.7,181z"/>
<path class="st10" d="M223.7,168.5c-0.9,0.9-1.8,1.8-2.7,2.7c-2.3-1-4.6-1.9-6.9-2.9c0.8-1.6,1.6-3.2,2.4-4.8
	c1.2,0.6,2.4,1.1,3.6,1.7C221.2,166.3,222.4,167.4,223.7,168.5z"/>
<path class="st0" d="M235.9,184.1c-2.5,1.8-4.5,1.5-5.8-0.9c0.2-0.3,0.3-0.5,0.5-0.8c0.4-0.2,0.8-0.2,1.2-0.5c1.2-0.9,2.4-1,3.6,0
	C235.6,182.7,235.7,183.4,235.9,184.1z"/>
<path class="st10" d="M231.6,173.8c-1-0.1-2.1,0.1-3-0.3c-1.2-0.5-2.3-1.4-3.5-2.1c-1-0.6-1.4-1.5-1.3-2.6
	C226.5,170.5,229,172.1,231.6,173.8z"/>
<path class="st6" d="M235.9,184.1c-0.2-0.7-0.4-1.4-0.5-2.1c1.3-2.6,3.6-2.6,6-2.4c-0.4,0.3-0.7,0.8-1.2,0.9c-3,0.9-3.2,1.1-3.2,4.3
	C236.7,184.6,236.3,184.4,235.9,184.1z"/>
<path class="st12" d="M230.6,182.5c-0.2,0.3-0.3,0.5-0.5,0.8c-0.4-0.8-0.8-1.5-1.3-2.3c-0.4,0-0.7,0.1-1.1,0.1
	c0.7-0.6,1.4-1.1,2.1-1.7C230.1,180.4,230.3,181.4,230.6,182.5z"/>
<path class="st11" d="M324.7,235c0.3,0.4,0.5,0.8,0.8,1.2c-1,1.9-2.7,2-4.6,1.8c-2.6-0.2-5.2,0-7.8,0c-1.3-0.4-2.7-0.8-4-1.2
	c-0.2-1-0.5-1.9-0.7-2.9c0-0.6,0-1.3,0-1.9c0.7-0.1,1.4-0.2,2.4-0.4c-1-0.6-1.7-1.1-2.4-1.6c0.1-0.5,0.1-1.1,0.2-1.6
	c0.9,0.7,1.9,1.4,2.7,2.1c1.2,1,2.4,1.5,4,1.2c1.6,0.7,3.4,1.3,4.9,2.2c0.8,0.5,1.1,2.1,1.8,2.2C322.8,236.5,323.8,235.5,324.7,235z
	"/>
<path class="st6" d="M290.6,209.6c0.5-0.2,0.9-0.3,1.4-0.5c0.9,0.7,1.9,1.5,2.8,2.2c1.6,1.5,3.3,3,4.9,4.5c0.8,0.7,1.5,1.5,2.3,2.2
	c1.3,2,2.6,3.9,3.9,5.9c0,0.2,0,0.4,0,0.6c-0.9-0.8-1.9-1.5-2.7-2.5c-1.1-1.4-1-1.5-2.1,0.1c-0.4,0-0.8,0-1.2,0
	c-0.5-0.7-1-1.3-1.5-2c0.6-0.1,1.2-0.1,1.8-0.2c0.2,0,0.5-0.2,0.7-0.3c-0.2-0.2-0.3-0.6-0.5-0.7c-1.5-0.9-3-1.8-4.5-2.6
	c-0.5-0.9-1-1.9-1.5-2.8c-0.8-1.3-1.9-2.2-3.5-2.2c-0.1-0.1-0.2-0.1-0.3-0.2C290.6,210.6,290.6,210.1,290.6,209.6z"/>
<path class="st0" d="M315.3,231.9c-1.5,0.3-2.8-0.2-4-1.2c-0.9-0.7-1.8-1.4-2.7-2.1c0.2-1.3,0.3-2.5,0.5-3.8
	c0.2-0.4,0.3-0.8,0.5-1.3c2,2,4,3.9,6,5.9c0.2,0.2,0.2,0.4,0.3,0.6C315.6,230.7,315.4,231.3,315.3,231.9z"/>
<path class="st8" d="M315.3,231.9c0.2-0.6,0.4-1.2,0.6-1.9c1.8,0.6,3.7,1.2,5.6,1.8c-0.3,0.6-0.4,1-0.6,1.5c0,0-0.1,0.1-0.1,0.1
	c0.1,0,0.2,0,0.2,0c1.6-0.3,3.1-0.2,3.8,1.6c-0.9,0.5-1.9,1.4-2.7,1.3c-0.7-0.1-1-1.7-1.8-2.2C318.6,233.2,316.9,232.6,315.3,231.9z
	"/>
<path class="st9" d="M309.5,223.5c-0.2,0.4-0.3,0.8-0.5,1.3c-1-0.3-2.1-0.6-3.1-0.9c-1.3-2-2.6-3.9-3.9-5.9c1,0.7,2.1,1.3,3,2
	C306.6,221.1,308.1,222.3,309.5,223.5z"/>
<path class="st9" d="M313.1,238.1c2.6,0,5.2-0.2,7.8,0c1.9,0.1,3.6,0.1,4.6-1.8c0.3,0.6,0.6,1.3,0.9,1.9c-0.6,0.3-1.1,0.6-1.7,0.8
	c-0.5,0-1,0.1-1.4,0.1C319.8,238.8,316.4,238.5,313.1,238.1z"/>
<path class="st10" d="M324.6,239c0.6-0.3,1.1-0.6,1.7-0.8c1.3,1,2.6,2,3.8,3c-1,0.4-2.1,0.7-3.1,1.1c-0.2-0.4-0.4-0.8-0.7-1.2
	C325.9,240.3,325.2,239.7,324.6,239z"/>
<path class="st11" d="M167.2,133.7c-0.2-0.1-0.3-0.2-0.5-0.2C166.9,133.6,167.1,133.7,167.2,133.7z"/>
<path class="st11" d="M137,121.1c-0.1,0.3-0.2,0.6-0.3,0.9c-0.3,0-0.6,0-0.8,0c-2.8,0.4-3.9-0.3-4.7-2.9c0,0,0,0,0,0
	C133.1,119.8,135.1,120.4,137,121.1z"/>
<path class="st6" d="M194.3,170.8c-0.5-0.5-0.9-1-1.4-1.5c-2.5-2.8-5.1-5.7-7.6-8.5c0.8-1.9,2.2-2.6,4.2-2c0.8,2.1,3,2.4,4.6,3.4
	c2,1.2,4.1,2.2,6.2,3.4c0.3,0.2,0.5,0.6,0.8,0.9C198.8,167.9,196.6,169.3,194.3,170.8z"/>
<path class="st10" d="M218.4,173.8c-0.6,1-1.2,1.9-1.8,2.9c0.8,0.7,1.7,1.5,2.5,2.3c-4.4-1.2-8.8-2.5-13.2-3.7
	c0.5-1.1,1.1-2.2,1.6-3.4c-1.2-0.5-2.4-1.1-3.6-1.6c0.5-0.7,1-1.4,1.5-2.1c0.7,0,1.4,0.1,2.1,0.1c0.9,0.8,1.6,1.8,2.6,2.3
	C212.8,171.7,215.6,172.7,218.4,173.8z"/>
<path class="st4" d="M218.4,173.8c-2.8-1.1-5.6-2.1-8.3-3.3c-1-0.5-1.7-1.5-2.6-2.3c0.9-0.4,1.8-0.7,2.7-1.1
	c0.8,0.2,1.6,0.5,2.4,0.7c0.5,0.2,1,0.3,1.5,0.5c2.3,1,4.6,1.9,6.9,2.9c1.8,2.6,4.8,3.4,7.3,4.8c0.3,0.2,0.8,0.3,1,0.6
	c0.2,0.3,0.2,0.9,0.3,1.7c-3.1-1.3-5.8-2.4-8.5-3.5C220.2,174.5,219.3,174.2,218.4,173.8z"/>
<path class="st0" d="M205.4,168.1c-0.5,0.7-1,1.4-1.5,2.1c-1.1,1.2-2.2,2.3-3.2,3.5c-3.6,0.4-5.4-0.5-6.4-3c2.2-1.5,4.5-2.9,6.7-4.4
	C202.5,167,203.9,167.5,205.4,168.1z"/>
<path class="st7" d="M212.5,167.8c-0.8-0.2-1.6-0.5-2.4-0.7c-1.5-1.2-3-2.4-4.5-3.6c-1-0.7-2-1.4-3-2c0.1-0.4,0.2-0.8,0.3-1.3
	c0.2-0.1,0.5-0.2,0.7-0.3c0.4,0,0.8,0,1.2,0c0.2,0,0.3,0.1,0.5,0.1c0.9,2.6,3.5,3,5.5,4.1C211.4,165.3,212,166.6,212.5,167.8z"/>
<path class="st4" d="M202.7,161.5c1,0.7,2,1.4,3,2c-1.8,0.8-3.7,1.2-5.3,0c-0.9-0.7-1.3-1.9-1.9-2.9
	C199.9,160.9,201.3,161.2,202.7,161.5z"/>
<path class="st6" d="M212.5,167.8c-0.5-1.3-1.1-2.5-1.6-3.8c1.6-3.3,2-3.4,4.9-1c0.2,0.2,0.4,0.3,0.7,0.5c-0.8,1.6-1.6,3.2-2.4,4.8
	C213.5,168.1,213,168,212.5,167.8z"/>
<path class="st1" d="M205.4,160c-0.2,0-0.3-0.1-0.5-0.1c0.1-0.3,0.2-0.6,0.3-0.9c0.1,0,0.1,0,0.2,0
	C205.4,159.3,205.4,159.6,205.4,160z"/>
<path class="st10" d="M307.2,241c-0.9,0.4-1.9,0.8-2.8,1.2c-1.5,0.6-2.8,0.6-4.4-0.1c-1.8-0.8-3.8-1.3-5.8-1.8
	c-0.5-0.1-1.1,0.3-1.7,0.4c-1.4-0.8-2.8-1.6-4.2-2.4c-0.6-0.3-1.2-0.7-1.7-1c-0.2-0.6-0.3-1.2-0.5-1.9c2.2,0.3,4.3,0.5,6.5,0.8
	c4.7,0.6,9.4,1.2,14.1,1.8C306.8,239.1,307,240.1,307.2,241z"/>
<path class="st8" d="M286,235.6c0.2,0.6,0.3,1.2,0.5,1.9c-4.3-0.5-8.6-1.1-12.9-1.6c-0.5-0.1-1-0.1-1.5,0c-1.2,0.1-2.4,0.3-3.5,0.5
	c0.1-1.1,0.3-2.1,0.4-3.2c0.9-0.2,1.8-0.5,2.7-0.7c0.4,0.1,0.8,0.2,1.2,0.3C277.2,233.6,281.6,234.6,286,235.6z"/>
<path class="st10" d="M268.9,233.1c-0.1,1.1-0.3,2.1-0.4,3.2c-0.3,1.4-0.7,2.7-1,4.1c-0.6-0.3-1.3-0.5-1.9-0.8
	c0.2-1.3,0.3-2.7,0.5-4c0.2-0.3,0.3-0.7,0.5-1C267.4,234.1,268.2,233.6,268.9,233.1z"/>
<path class="st8" d="M307.2,241c-0.2-1-0.3-1.9-0.5-2.9c0.3-0.4,0.6-0.8,0.9-1.1c0.5,0,1,0,1.5-0.1c1.3,0.4,2.7,0.8,4,1.2
	c3.4,0.3,6.8,0.7,10.2,1c0.5,0,0.9-0.1,1.4-0.1c0.6,0.7,1.2,1.3,1.8,2c0.3,0.3,0.4,0.8,0.7,1.2c-5.2,0-10.5,0-15.7,0
	C310,241.8,308.6,241.4,307.2,241z"/>
<path class="st9" d="M84.9,158.7c0.5,0.4,1,0.8,1.5,1.2c-1.3,0.6-2.6,1.3-4,1.9c0.6-0.5,1.3-1,1.9-1.6c0.2-0.2,0.3-0.6,0.5-0.9
	C84.8,159.1,84.9,158.9,84.9,158.7z"/>
<path class="st3" d="M99.9,167.5c0.5-0.5,1-1.1,1.6-1.8c0.1,0.9,0.3,1.6,0.4,2.4C101.3,167.9,100.6,167.7,99.9,167.5z"/>
<path class="st9" d="M82,162.3c0.1-0.1,0.2-0.2,0.3-0.3C82.2,162.1,82.1,162.2,82,162.3z"/>
<path class="st6" d="M84.9,158.7c0,0.2-0.1,0.4-0.1,0.6c-2.2-0.6-4.4-1.2-6.6-1.8c-0.8-1.1-1.6-2.2-2.4-3.3c0.1-0.2,0.1-0.4,0.2-0.6
	C79,155.4,81.9,157,84.9,158.7z"/>
<path class="st14" d="M129.6,144.8c0.5-0.1,1.1-0.3,1.6-0.1c6.7,2.5,13.5,5,20.2,7.6c0.1,0,0.2,0.1,0.3,0.2c0.2,2,1.8,2.4,3.3,3.2
	c1.3,0.6,2.5,1.5,3.4,2.6c1,1.2,0.5,2.9-1,3.7c-2.4,1.4-2.7,3.9-3.3,6.2c-4.6-2-9.1-4-13.7-6c-2.8-1.2-5.7-2.4-8.6-3.6
	c-1.3-0.6-1.8-1.6-1.8-3c0-2.7,0-5.5,0-8.2C129.9,146.6,129.7,145.7,129.6,144.8z M141,158c0.4,0.2,0.8,0.4,1,0.7
	c0.4,0.4,0.9,0.9,0.9,1.3c0,1.8,1.6,1.7,2.6,2.2c0.6,0.2,1.5-0.4,2.3-0.6c0-0.2-0.1-0.4-0.1-0.5c-1.2-0.5-2.5-1-3.7-1.5
	c-0.3-0.1-0.7-0.3-0.7-0.5C143.3,157,141.9,158,141,158z M136.1,148.9c-0.1,0.1-0.3,0.1-0.4,0.2c0.3,0.9,0.3,2.2,0.8,2.5
	c1,0.6,2.4,0.7,3.7,0.9c0.2,0,0.6-0.3,0.6-0.5c0-0.2-0.2-0.6-0.4-0.7C138.9,150.4,137.5,149.7,136.1,148.9z"/>
<path class="st4" d="M129.6,144.8c0.2,0.9,0.3,1.7,0.5,2.6c-2.1-0.4-4.1-0.8-6.2-1.2c-0.7,0.2-1.4,0.3-2.2,0.6
	c0.3-1.4,0.5-2.8,0.8-4.2c0.3-0.4,0.6-0.8,1-1.2c0.2,0.1,0.5,0.2,0.7,0.2c0,0,0,0,0,0c0.1,0.2,0.2,0.3,0.2,0.5
	C125.5,144,127.5,144.6,129.6,144.8z"/>
<path class="st11" d="M158.1,170.1c1.8-1.8,3.6-3.6,5.5-5.3c0.2,1.1,0.6,2.1,0.6,3.2c0,0.8-0.5,1.5-0.8,2.3c-1.4,0.7-2.9,1.4-4.3,2
	C158.7,171.5,158.4,170.8,158.1,170.1z"/>
<path class="st12" d="M173.7,167.8c1.4,1.9,2.9,3.9,4.3,5.8c-0.9,0.1-1.7,0.3-2.7,0.4c0.4,0.7,0.7,1.3,1,1.9c0.3,0.7,1,1.4,0.3,2.2
	c-2.2,1.9-4.8,0.8-7.2,1c0.2-0.5,0.3-1,0.5-1.4c1.3-2.5,1.3-2.5-1.2-4c0.7-1,1.4-2,2.4-3.4c0,0.8-0.1,1.2,0,1.6
	c0.1,0.4,0.3,0.8,0.5,1.2c0.2-0.4,0.6-0.7,0.7-1.1c0.3-1.2,0.5-2.3,0.8-3.5C173.1,168.2,173.5,168.1,173.7,167.8z"/>
<path class="st10" d="M163.4,170.2c0.3-0.8,0.8-1.5,0.8-2.3c0-1.1-0.4-2.2-0.6-3.2c0.7-0.3,1.3-0.6,2-0.9c1.5,0.9,2.5,0.7,4.5-1.2
	c0.2,0.1,0.4,0.1,0.6,0.2c0.6,1,1.1,1.9,1.7,2.9c-1.5,1.3-3,2.5-4.4,3.8c-1.3,1.3-2.8,1.7-4.5,1.5
	C163.4,170.7,163.4,170.5,163.4,170.2z"/>
<path class="st12" d="M137,170.3c-0.9-0.4-1.9-0.7-2.8-1.1c0.1-0.3,0.2-0.5,0.3-0.8c0.9,0.3,1.8,0.7,2.8,1
	C137.2,169.7,137.1,170,137,170.3z"/>
<path class="st1" d="M143.6,171.5c-3.2-0.7-3.2-0.7-2.6-1.8C141.9,170.3,142.7,170.9,143.6,171.5z"/>
<path class="st2" d="M169.8,199c0.1-0.3,0.1-0.6,0.2-1c0.3-1.2,0.5-2.4,0.8-3.6c0.2-0.5,0.5-1.1,0.7-1.6c1.3-1.3,1.6-2.8,0.9-4.4
	c-0.2-0.5-0.4-0.9-0.6-1.4c1-0.2,1.9-0.5,2.9-0.7c0,1.3,0,2.6,0,3.8c0,2.3,0,4.6,0,7.1c-1.2-0.4-2.2-0.7-3.3-1.1
	c0.9,3,1.6,3.6,3.7,3c-0.1-0.5-0.2-1.1-0.3-1.8c0.9,0.2,1.6,0.4,2.3,0.5c0.2,0.2,0.5,0.5,0.7,0.7c-0.2,2.8-0.2,2.9,2.5,3.8
	c1.8,0.6,3.7,0.7,5.6,1.1c0,0,0-0.3,0.1-0.6c0.4,0,0.8,0,1.2,0c1,0.4,1.9,0.8,2.9,1.2c0.2,0,0.3,0,0.5,0c-0.3,0.7-0.5,1.3-0.8,2.1
	c0.4,0,0.7,0,1.1,0.1c-0.1,1.3-0.2,2.4,1.8,2.2c0.7-0.1,1.4,0.7,2.2,1.1c0.8,0.4,1.5,0.9,2.4,1.2c1.6,0.5,3.3,1,5,1.4
	c0.5-0.8-0.3-2.1-1.9-2.1c-1.7-0.1-3.2-0.3-3.6-2.3c-0.8,0.4-1.4,0.7-2.4,1.2c0.3-0.9,0.3-1.6,0.6-1.8c0.3-0.2,1,0,1.5,0.1
	c0.6,0.1,1.1,0.2,1.7,0.3c1.4,0.5,2.9,1,4.2,1.5c0-2.4,0-4.7,0-6.9c0-1.1-0.3-2.2-0.4-3.2c0.1-0.4,0.2-0.8,0.2-1.2
	c0.1-0.9,0.3-1.8,0.4-2.7c0.1-0.9,0.5-1.9,0.1-2.5c-0.6-1-1.6-1.8-2.5-2.5c-0.4-0.3-1.2,0.1-1.8,0.3c0,0,0,0,0,0
	c-0.5-0.8-1-1.6-1.4-2.4c2.3,0.8,4.7,1.6,7,2.4c0.1,1,0.1,1.9,0.2,2.9c0,1.4-0.1,2.7-0.1,4.1c0,4.8,0,9.6,0,13.9
	c1,0.6,1.7,1.1,2.5,1.5c0.1,0.5,0.2,0.9,0.2,1.4c-1,0.1-2.1,0.3-3.1,0.2c-1.5-0.2-2.9-0.6-4.3-0.9c-1.2-0.6-2.4-1.3-3.7-1.9
	c-0.5-1.5-2-1.1-3.1-1.5c-1.1-1-2.3-1.8-3.9-1.6c-1-0.4-2.1-0.8-3.1-1.2c-3.1-1.7-6.2-3.4-9.3-5.1c-0.9-0.4-1.8-0.8-2.7-1.2
	c-0.6-0.4-1.2-0.8-1.9-1.2C171,199.5,170.4,199.3,169.8,199z"/>
<path class="st9" d="M174.7,190.2c0-1.3,0-2.6,0-3.8c0.5-0.6,1.1-1.2,1.6-1.7c0.9-1,0.6-2.4-0.7-3.1c0.3-1.1,0.6-2.2,1-3.4
	c0.8-0.8,0.1-1.5-0.3-2.2c-0.3-0.6-0.6-1.2-1-1.9c1-0.1,1.8-0.3,2.7-0.4c0.2,2.6,1.9,4.4,3.5,6.3c0.8,0.9,0.9,1.6,0.1,2.6
	c-0.8,1-1.5,2.1-2.2,3.1C177.9,187.1,176.3,188.6,174.7,190.2z"/>
<path class="st9" d="M171.8,187.1c0.2,0.5,0.4,0.9,0.6,1.4c0.8,1.6,0.5,3.1-0.9,4.4c-0.5-0.4-0.8-1-1.4-1.3c-1.2-0.6-2.5-1-3.7-1.6
	c-0.6-0.3-1.1-0.9-1.6-1.4c1.6-0.5,3.2-0.9,4.8-1.4C170.3,187.1,171.1,187.1,171.8,187.1z"/>
<path class="st11" d="M135.1,173.1c0.5-0.1,1.1-0.2,1.6-0.2c0.8,0.1,1.6,0.2,2.4,0.2c0.9,0.4,1.9,0.8,2.8,1.2c1.3,0.6,2.1,1.5,1.6,3
	c-0.9,0.1-1.8,0.2-2.8,0.4C138.9,176.2,137,174.7,135.1,173.1z"/>
<path class="st11" d="M170.1,162.6c-2,1.8-3,2.1-4.5,1.2c0.7-1.2,1.3-2.4,2-3.7C168.4,161,169.2,161.8,170.1,162.6z"/>
<path class="st1" d="M124,141.7c-0.2-0.1-0.5-0.2-0.7-0.2c0.2-0.1,0.5-0.1,0.7-0.2C124,141.4,124,141.5,124,141.7z"/>
<path class="st1" d="M124.3,142.2c-0.1-0.2-0.2-0.3-0.2-0.5C124.1,141.9,124.2,142,124.3,142.2z"/>
<path class="st10" d="M131.2,119.1c0.8,2.6,1.9,3.3,4.7,2.9c0.3,0,0.6,0,0.8,0c0.3,0.4,0.6,0.8,1,1.2c-1,0.2-2,0.6-2.9,0.4
	c-1.9-0.4-3.7-1.2-5.5-1.9c-1.7-0.7-3.4-1.4-5.1-2.1c-1.1-0.7-2.1-1.5-3.4-2.4C124.5,117.9,127.9,118.5,131.2,119.1z"/>
<path class="st0" d="M206.6,214.2c-0.1-0.5-0.2-0.9-0.2-1.4c0.6-1,1.4-0.4,2.2-0.2c1,0.5,1.9,1.1,2.9,1.6c4.9,1.4,9.7,2.8,14.6,4.3
	c2.9,0.9,5.8,1.9,8.6,2.8c2.7,0.6,5.5,1.3,8.2,1.9c0.5,0.2,1,0.4,1.5,0.7c0.9,0.2,1.8,0.3,2.8,0.5c1.8,0.2,3.7-0.1,5.2,0.7
	c2,0.9,3.9,1.5,6,1.7c2.8,0.3,5.7,0.7,8.5,1c3,0.6,6.1,1.1,9.1,1.7c3.6,0.4,7.2,0.8,10.7,1.3c1.3,0.9,2.5,1.9,3.8,2.8
	c-1.8,0-3.5,0.1-5.3-0.1c-4.5-0.4-9.1-0.9-13.6-1.4c-0.5-0.2-1-0.6-1.5-0.6c-1.2,0.1-2.3,0.4-3.5,0.6c-1.4-0.3-2.9-0.4-4.2-1
	c-2.8-1.2-5.6-2.4-8.8-1.9c-0.7-1.9-2.3-2.5-4.2-1.6c0.2,0.4,0.4,0.7,0.7,1.1c-0.4-0.1-0.8-0.1-1.2-0.2c-0.6-0.6-1.1-1.2-1.7-1.8
	c-0.2,0.4-0.3,0.9-0.5,1.3c-0.5-0.1-0.9-0.2-1.4-0.2c-1.3-0.1-2.6-0.3-3.9-0.4c-2-2.9-5.3-2.1-8.1-2.7c-0.4-0.1-0.8-0.2-1.3-0.2
	c-0.2-1.3-1-2-2.3-2.3c-2.1-0.6-4.2-1.3-6.3-1.9c-2.2-0.6-4.4-1.7-6.7-0.3c-3.4-1.2-6.8-2.5-10.2-3.7
	C206.6,215.4,206.6,214.8,206.6,214.2z"/>
<path class="st8" d="M248.8,228.3c0.4,0.1,0.8,0.1,1.2,0.2c1.2,0.2,2.4,0.3,3.6,0.5c3.2-0.5,6,0.8,8.8,1.9c1.3,0.5,2.8,0.7,4.2,1
	c0,0.9,0,1.8,0,2.7c-0.2,0.3-0.3,0.7-0.5,1c-2.6-0.4-5.2-0.6-6.8-3.1c-0.4-0.6-0.6-1.4-0.9-2.1c-1.3,3.5-3.9,2.2-6.2,1.8
	c-0.2,0-0.3-0.1-0.5-0.1c0,0-0.1,0-0.1,0c-0.5,2-0.5,2-2.5,1.3c-1.7-0.5-3.4-0.9-5-1.5c-0.7-0.3-1.3-1-1.7-1.7c-0.5-0.9-0.7-2-1-3
	c1.3,0.1,2.6,0.3,3.9,0.4c0.5,0.1,0.9,0.1,1.4,0.2C247.4,227.9,248.1,228.1,248.8,228.3z"/>
<path class="st1" d="M216.8,219.8c2.3-1.5,4.5-0.3,6.7,0.3c2.1,0.6,4.2,1.3,6.3,1.9c1.3,0.3,2,1.1,2.3,2.3c-0.9,0.1-1.8,0.2-2.6,0.2
	c-0.4,0.2-0.8,0.4-1.2,0.5c-0.6-0.2-1.1-0.3-1.7-0.5c-0.9-0.5-1.7-1.1-2.6-1.6c-0.6-0.2-1.1-0.4-1.7-0.6c-0.2-0.1-0.4-0.1-0.5-0.2
	C220.1,221.3,218.4,220.5,216.8,219.8z"/>
<path class="st8" d="M216.8,219.8c1.6,0.8,3.3,1.5,4.9,2.3c-0.1,1.1-0.2,2.1-0.3,3.4c-4.2-1.6-8.6-2.2-12.3-4.8
	c-1.7-1.2-3.5-2.1-5.2-3.2c-0.1-2.2,0-2.3,2.1-1.5c0.2,0.1,0.4,0,0.6,0.1C210,217.3,213.4,218.5,216.8,219.8z"/>
<path class="st9" d="M206.6,216c-0.2,0-0.4,0-0.6-0.1c-2-0.7-2.2-0.6-2.1,1.5c-0.4,1.1-0.8,2.2-1.2,3.4c-1.6-0.3-3.2-0.5-4.8-0.8
	c0.4-2.2,0.9-4.5,1.3-6.7c1.4,0.3,2.9,0.8,4.3,0.9c1,0.1,2-0.1,3.1-0.2C206.6,214.8,206.6,215.4,206.6,216z"/>
<path class="st11" d="M223.9,222.9c0.9,0.5,1.7,1.1,2.6,1.6c0,0.4,0,0.9,0,1.3c0,3.1,0,3.1-2.9,2
	C223.7,226.2,223.8,224.6,223.9,222.9z"/>
<path class="st10" d="M113.9,115c0-0.4,0.1-0.8,0.1-1.1c1.5,0.9,3,1.7,4.5,2.6c-0.5,0-0.9,0-1.4,0C116,116,114.9,115.5,113.9,115z"
	/>
<path class="st7" d="M83.2,153.2c-3.8-1.9-7.7-3.8-11.5-5.8c0-0.5,0-1,0-1.4l0,0c4.5,1.2,8.4,3.5,12.3,5.7c0.5,0.3,1.1,0.5,1.6,0.8
	c0,0.1,0,0.3,0,0.4C84.8,153,84,153.1,83.2,153.2z"/>
<path class="st7" d="M69.1,147.4c0.8,1.1,1.6,2.1,2.4,3.2c-4.4-2.5-8.8-5-13.1-7.5c-0.6-0.3-1.2-0.8-1.8-1.2l0,0
	c1.9,0.8,3.9,1.6,5.8,2.5C64.6,145.3,66.8,146.4,69.1,147.4z"/>
<path class="st11" d="M71.7,146c-1.6-0.6-3.3-1.2-4.9-1.8c-0.2-0.1-0.4-0.4-0.6-0.7c0.2-0.1,0.5-0.4,0.7-0.4
	C68.8,142.9,71,144.3,71.7,146C71.7,146,71.7,146,71.7,146z"/>
<path class="st11" d="M61.6,141c-0.5-0.2-1.1-0.4-1.6-0.6c0-0.1,0.1-0.2,0.1-0.3c0.5,0.2,1.1,0.4,1.6,0.6
	C61.7,140.8,61.7,140.9,61.6,141z"/>
<path class="st11" d="M63.1,141.4c0.1,0,0.2,0.1,0.3,0.1c0,0,0,0.1-0.1,0.1C63.2,141.6,63.1,141.5,63.1,141.4L63.1,141.4z"/>
<path class="st11" d="M63.1,141.5c-0.1,0-0.2-0.1-0.3-0.1c0,0,0-0.1,0.1-0.1C62.9,141.3,63,141.4,63.1,141.5
	C63.1,141.4,63.1,141.5,63.1,141.5z"/>
<path class="st7" d="M43.9,135.7c0.2,0.1,0.3,0.2,0.5,0.2C44.2,135.9,44,135.8,43.9,135.7z"/>
<path class="st11" d="M43.4,135.4c0.2,0.1,0.3,0.2,0.5,0.2C43.7,135.6,43.5,135.5,43.4,135.4z"/>
<path class="st7" d="M56.6,141.9c0,0-0.1-0.1-0.1-0.1C56.5,141.8,56.6,141.9,56.6,141.9C56.6,141.9,56.6,141.9,56.6,141.9z"/>
<path class="st11" d="M83.2,153.2c0.8-0.1,1.6-0.2,2.4-0.3c1.3,0.9,2.7,1.7,4,2.6c-0.1,0.1-0.1,0.2-0.2,0.3
	C87.4,155,85.3,154.1,83.2,153.2z"/>
<path class="st4" d="M176.1,202.1c3.1,1.7,6.2,3.4,9.3,5.1c-0.6,1.5-1.3,3-1.9,4.6c-3.3,0.2-3.9-2.3-4.9-4.7
	c-0.3,0.7-0.6,1.4-0.8,2.1c-0.2,0-0.5,0-0.7,0C173.4,206.9,174,204.5,176.1,202.1z"/>
<path class="st0" d="M183.5,211.8c0.6-1.5,1.3-3,1.9-4.6c1,0.4,2.1,0.8,3.1,1.2c-0.1,0.5-0.2,0.9-0.3,1.4c-3,0.2-0.3,1.6-0.7,2.7
	c-1.3,0.6-2.8,1.3-4.4,2C183.3,213.5,183.4,212.6,183.5,211.8z"/>
<path class="st4" d="M188.3,209.8c0.1-0.5,0.2-0.9,0.3-1.4c1.6-0.2,2.8,0.6,3.9,1.6c-0.3,1-1.1,2.1,0.2,3.1c0,0-0.5,1.1-0.9,1.5
	c-0.3,0.2-1,0-1.5,0.1c0,0,0,0,0,0c0.1-0.4,0.1-0.8,0.2-1.3C190.8,211.6,190.1,210.6,188.3,209.8z"/>
<path class="st4" d="M177.6,217.5c-1.5-0.5-1.7-1.4-1.2-2.8c0.5-1.4,0.8-2.9,1.1-4.4c1.3,0.3,2,1.6,1.6,3.2
	C178.7,214.9,178.1,216.2,177.6,217.5z"/>
<path class="st12" d="M176.1,202.1c-2.1,2.4-2.8,4.7,0.9,7c-0.4,0.7-0.6,1.4-1.1,1.9c-0.9,1.1-1.9,2.1-1.3,3.7
	c0.1,0.2-0.8,0.8-1.5,1.4c-0.5-2.1,1.2-4.6-1.6-5.6c0,0,0,0,0,0c-0.1-0.1-0.2-0.2-0.3-0.3c-0.2-0.1-0.5-0.2-0.7-0.3
	c-0.4-0.2-0.8-0.4-1.3-0.7c-0.1-0.1-0.3-0.1-0.4-0.2c-0.5-0.6-1.1-1.2-1.8-2.1c0.7-0.2,1.5-0.6,2.3-0.6c2.2,0,3-0.5,3.6-2.6
	c0.2-1,0.4-1.9,0.5-2.9C174.4,201.4,175.2,201.8,176.1,202.1z"/>
<path class="st0" d="M173.5,201c-0.2,1-0.3,2-0.5,2.9c-0.5,2.1-1.4,2.7-3.6,2.6c-0.8,0-1.5,0.4-2.3,0.6c0.7,0.9,1.3,1.5,1.8,2.1
	c-1.4-0.4-2.9-0.9-4.3-1.3c1.3-2.3,2.7-4.7,4-7c0.4-0.7,0.8-1.3,1.2-1.9c0.6,0.3,1.2,0.5,1.7,0.8C172.2,200.1,172.8,200.6,173.5,201
	z"/>
<path class="st0" d="M169.3,209.4c0.4,0.2,0.8,0.4,1.3,0.7C170.2,209.8,169.7,209.6,169.3,209.4z"/>
<path class="st9" d="M171.3,210.3c0.1,0.1,0.2,0.2,0.3,0.3C171.5,210.5,171.4,210.4,171.3,210.3z"/>
<path class="st4" d="M199.2,213.4c-0.4,2.2-0.9,4.5-1.3,6.7c-1.2-0.7-2.4-1.3-3.6-2.1c-0.4-0.3-0.8-0.7-1.2-1c0.5-0.3,1-0.8,1.5-1
	c1-0.4,1.2-1.1,1.1-2.1c-0.1-0.8-0.1-1.7-0.2-2.5C196.8,212.2,198,212.8,199.2,213.4z"/>
<path class="st1" d="M195.5,211.5c0.1,0.8,0.1,1.7,0.2,2.5c0.1,1,0,1.7-1.1,2.1c-0.6,0.2-1,0.6-1.5,1c-1-0.8-1.9-1.6-2.9-2.4
	c0.5,0,1.2,0.2,1.5-0.1c0.5-0.3,1-1.4,0.9-1.5c-1.4-1-0.6-2-0.2-3.1C193.5,210.4,195,210,195.5,211.5z"/>
<path class="st7" d="M260.3,209.6c0.5,0.2,1.1,0.3,1.4,0.6c1.6,2.5,3.1,5.1,4.6,7.7c0.1,0.2,0.2,0.3,0.3,0.5c-0.2,0-0.4,0-0.6-0.1
	c-1.8-0.5-3.5-1.9-5.6-0.9c-0.1,0.1-0.4,0-0.6-0.1c-1-1-1.9-2-2.9-2.9c-0.8-0.7-1.8-1.4-2.8-1.6c-0.5-0.1-1.2,0.9-1.8,1.4
	c-0.7,0.5-1.3,1.1-2,1.5c-0.5,0.3-1.1,0.5-1.6,0.7c-0.9-0.1-1.7-0.3-2.6-0.4c-5.3-0.7-10.5-1.5-15.8-2.2c-2.6-0.3-3.2-0.9-3.3-3.5
	c0-0.6,0-1.3,0-1.9c0-0.5,0-1,0-1.5c2.6-0.8,3-0.6,4,1.5c0.4,0.7,1.1,1.6,1.9,1.8c1.4,0.3,3,0.4,4.4,0.1c1.4-0.4,2.7-1.4,4-2
	c2.7-1.3,4.3-0.8,5.9,1.6c0.4,0.6,1,1.3,1.7,1.6c1.8,0.8,2.3,0.4,3.6-2.2c1.3,0.1,2.6,0.2,3.9,0.3
	C257.7,209.6,259,209.6,260.3,209.6z"/>
<path class="st10" d="M260.3,209.6c-1.3,0-2.6,0-4-0.1c-1.3-0.1-2.6-0.2-3.9-0.3c-0.4-0.8-0.7-2.1-1.3-2.2c-7.1-2-14.2-3.8-21.3-5.6
	c0.6-0.3,1.3-0.8,1.8-0.7c6.6,1.5,13.2,3.1,19.8,4.6c1.1,0.3,2.1,0.5,3.2,0.7c-11.7-4.7-23.8-7.9-36-10.5c-2.5-0.6-5.1-1.2-7.6-1.7
	c-0.9-1-1.8-2-2.7-3.1c0.6,0.1,1.3,0.1,1.9,0.2c3.5,0.8,7,1.7,10.5,2.5c4.1,1.2,8.2,2.4,12.3,3.5c3.3,0.9,6.6,1.8,9.8,2.6
	c3.8,0.9,7.7,1.8,11.5,2.7c0.2,0.3,0.3,0.6,0.5,0.9C256.8,205.3,258.6,207.5,260.3,209.6z"/>
<path class="st7" d="M290.5,233.3c-1.3-0.9-2.5-1.9-3.8-2.8c1.1-1.5,2.1-3.2,3.5-4.5c2-1.9,4.4-2,6.9-1.1c0.1,0.2,0.1,0.5,0.2,0.7
	c0.6,1.2,1.2,2.4,1.7,3.6c1.8,1.8,3.9,3,6.5,3.2c0.1,1.8,0.8,2.2,2.9,1.6c0.2,1,0.5,1.9,0.7,2.9c-0.5,0-1,0-1.5,0.1
	c-1.4-0.2-2.9-0.4-4.3-0.6c-0.5-0.4-0.9-1-1.4-1c-3.3-0.5-6.7-0.9-10-1.3C291.4,233.8,291,233.6,290.5,233.3z"/>
<path class="st3" d="M248.6,216.6c0.5-0.2,1.1-0.4,1.6-0.7c0.7-0.5,1.4-1,2-1.5c0.6-0.5,1.3-1.6,1.8-1.4c1,0.2,2,0.9,2.8,1.6
	c1.1,0.9,2,1.9,2.9,2.9c0.1,0.1,0.4,0.2,0.6,0.1c2.1-1,3.8,0.4,5.6,0.9c0.2,0.1,0.4,0,0.6,0.1c2.9,3.2,5.8,6.5,8.6,9.7
	c0.3,0.3,0.5,0.7,0.7,1.1c-3-0.6-6.1-1.1-9.1-1.7c0.2-1.1,0.3-2.2,0.6-3.3c0.3-0.9,0-1.4-0.8-2c-2-1.6-4.2-2.3-6.6-2.9
	c-2.7-0.7-5.4-1.4-8.2-2.1C250.8,217.1,249.7,216.8,248.6,216.6z"/>
<path class="st4" d="M255.1,203.1c-0.2-0.3-0.3-0.6-0.5-0.9c-1-1.4-2-2.8-3.1-4.2c1.9-0.7,3.6-1.2,5.3-1.8c2.3,0.9,4.6,1.8,6.9,2.7
	c0.1,0.4,0.1,0.9,0.3,1.3c0.5,1.5,0.1,2-1.5,1.9c-0.9,0-1.9,0.4-2.8,0.6C258.1,202.8,256.6,203,255.1,203.1z"/>
<path class="st0" d="M263.7,198.8c-2.3-0.9-4.6-1.8-6.9-2.7c0-0.8,0-1.6,0-2.3c1.7,0.3,3.4,0.7,5.1,1c0.2,0,0.5-0.1,0.7-0.1
	c1.4,1.6,2.7,3.2,4.1,4.9C265.7,199.3,264.7,199.1,263.7,198.8z"/>
<path class="st8" d="M290.8,211.3c1.7,0,2.8,0.9,3.5,2.2c0.5,0.9,1,1.9,1.5,2.8c0.2,1,0.3,2.1,0.5,3.1c-0.5,0.2-0.9,0.3-1.4,0.5
	c-0.1-0.2-0.2-0.4-0.3-0.6c-0.3-1.1-0.6-2.2-0.9-3.2c-0.9-1.2-1.9-2.4-2.8-3.6C290.8,212.1,290.8,211.7,290.8,211.3z"/>
<path class="st1" d="M281.5,206.7c0.5-0.7,1-1.3,1.6-2.2c0.7,0.9,1.3,1.8,2,2.7c-0.1,0.4-0.3,0.9-0.4,1.3c-0.8,1.4-1.9,2.3-3.9,2.4
	C281.1,209.5,281.3,208.1,281.5,206.7z"/>
<path class="st12" d="M263.7,198.8c1,0.2,2,0.5,2.9,0.7c0.3,0.8,0.7,1.6,1.1,2.8c-2.9,0.1-5.5,0.2-8.1,0.3c0.9-0.2,1.9-0.7,2.8-0.6
	c1.6,0.1,2-0.4,1.5-1.9C263.8,199.7,263.8,199.3,263.7,198.8z"/>
<path class="st11" d="M290.8,212.5c0.9,1.2,1.9,2.4,2.8,3.6c-1.8,2.4-2.7,2.1-5.1,1.5c1.1-0.6,2-1,2.9-1.5
	C291.6,214.8,289,214.1,290.8,212.5z"/>
<path class="st11" d="M296.3,219.5c-0.2-1-0.3-2.1-0.5-3.1c1.5,0.9,3,1.7,4.5,2.6c0.2,0.1,0.3,0.5,0.5,0.7c-0.2,0.1-0.4,0.3-0.7,0.3
	c-0.6,0.1-1.2,0.1-1.8,0.2C297.7,219.9,297,219.7,296.3,219.5z"/>
<path class="st11" d="M284.7,208.6c0.1-0.4,0.3-0.9,0.4-1.3c1.4,0.6,2.8,1.3,4.2,1.9c0.4,0.2,0.9,0.3,1.3,0.5c0,0.5-0.1,1-0.1,1.5
	C288.6,210.2,286.7,209.4,284.7,208.6z"/>
<path class="st6" d="M282.8,214.8c-1.3,1.5-2.6,2.8-3.8,4.2c-0.1-0.1-0.3-0.2-0.4-0.4c0.6-0.8,1.3-1.7,2-2.7
	c-0.4-0.5-0.8-1.1-1.2-1.7c-0.1-0.2-0.1-0.5-0.1-0.8c0.3,0,0.6-0.2,0.8,0C281,213.8,281.8,214.3,282.8,214.8z"/>
<path class="st11" d="M294.6,219.4c0.1,0.2,0.2,0.4,0.3,0.6c0.2,0.7,0.5,1.5,0.8,2.5c-1.5-0.3-2.7-0.5-4-0.8c-0.2,0-0.5-0.5-0.4-0.7
	c0-0.3,0.3-0.7,0.5-0.8C292.8,219.9,293.7,219.6,294.6,219.4z"/>
<path class="st7" d="M299.9,222.1c0.4,0,0.8,0,1.2,0c1,1.1,1.5,2.1,0.2,3.3c-0.5,0-1,0-1.4,0c0-0.2,0-0.3,0-0.5
	C299.9,224,299.9,223.1,299.9,222.1z"/>
<path class="st11" d="M299.9,224.9c0,0.2,0,0.3,0,0.5c-0.9,0.1-1.8,0.2-2.7,0.3c-0.1-0.2-0.1-0.5-0.2-0.7
	C298,225,299,224.9,299.9,224.9z"/>
<path class="st9" d="M210.4,190.9c-0.6-0.1-1.3-0.1-1.9-0.2c-1.6-0.1-3.2-0.2-4.8-0.3c-2.3-0.8-4.7-1.6-7-2.4c0,0,0,0,0,0
	c-0.2-0.1-0.3-0.2-0.5-0.2c-0.6-0.4-1.3-0.8-1.9-1.2c-0.1-0.1-0.2-0.2-0.2-0.2l0,0c-1.1-0.8-2-1.6-3.2-2.3c-1-0.6-2.2-0.9-3.3-1.3
	c-0.2-1.8-0.3-3.7-0.5-5.5c0.4-0.8,0.6-1.9,1.2-2.2c0.6-0.3,1.7,0.1,2.5,0.4c1,0.4,1.9,1.1,3,1.4c-0.3-0.4-0.6-0.8-0.9-1.3
	c2.6-0.4,4.5,0.8,6.6,1.8c2.1,0.9,4.3,1.7,6.4,2.6c0.2,0.3,0.5,0.6,0.7,0.9c1.2,1.3,3.2,2,2.6,4.4c-0.2,1.1,0,2.3,0.2,3.5
	C209.6,189.4,210.1,190.1,210.4,190.9z"/>
<path class="st9" d="M198.2,190.4c0.6-0.1,1.4-0.5,1.8-0.3c1,0.7,2,1.5,2.5,2.5c0.4,0.6,0,1.7-0.1,2.5c-0.1,0.9-0.3,1.8-0.4,2.7
	c-2.7,0.7-3.7,2.8-2.2,4.8c-1,1.5-2.2,3-1.8,5c-0.6-0.1-1.1-0.2-1.7-0.3c-0.5-0.1-1.2-0.3-1.5-0.1c-0.3,0.2-0.3,0.9-0.6,1.8
	c1-0.5,1.6-0.8,2.4-1.2c0.4,2,1.9,2.2,3.6,2.3c1.6,0.1,2.4,1.3,1.9,2.1c-1.7-0.5-3.4-0.9-5-1.4c-0.8-0.3-1.6-0.8-2.4-1.2
	c-0.7-0.4-1.5-1.2-2.2-1.1c-2,0.2-1.9-0.9-1.8-2.2c0.9,0,1.8,0,2.8,0c0-0.1,0-0.2,0-0.3c-1-0.6-2-1.2-3.1-1.8c-0.2,0-0.3,0-0.5,0
	c-0.2-0.8-0.3-1.6-0.5-2.4c0.8,0.1,1.7,0.2,2.6,0.4c-0.4-2-0.7-3.9-1.2-5.8c-0.1-0.4-0.8-0.9-1.2-1c-2.2-0.3-3.8,1.2-5.4,2.4
	c0.2-1.5,0.3-3,0.5-4.6c0.2-0.7,0.5-1.4,0.7-2.2c1.8-0.3,3.7-0.9,5.5-0.8c1.3,0.1,2.5,1,3.7,1.7
	C196.3,192.7,197.5,192.3,198.2,190.4z"/>
<path class="st1" d="M210.4,190.9c-0.3-0.8-0.8-1.5-1-2.3c-0.2-1.1-0.4-2.4-0.2-3.5c0.5-2.4-1.5-3.1-2.6-4.4
	c-0.3-0.3-0.5-0.6-0.7-0.9c1.1-0.5,2.3-0.5,3.4,0.1c0.9,0.5,1.9,1,2.9,1.4c2.3,1.1,4.6,2.2,7.1,3.3c0-0.8,0-1.4,0-2
	c0.2,0,0.5,0,0.7,0c6.2,2.1,12.5,4.3,18.7,6.4c0.4,0.1,0.7,0.4,1,0.6c-0.8,0.8-1.9,1.4-1.5,2.7c-1.6-0.5-3.2-1-4.8-1.6
	c-0.8-0.3-1.4-0.9-2.2-1.2c-2.2-0.7-4.5-1.3-6.7-2c-1-0.3-2.1-0.6-2.9-0.8c-0.3,2.3-0.5,4.4-0.7,6.4
	C217.4,192.5,213.9,191.7,210.4,190.9z"/>
<path class="st9" d="M256.7,193.8c0,0.8,0,1.6,0,2.3c-1.7,0.6-3.4,1.2-5.3,1.8c1.1,1.5,2.1,2.9,3.1,4.2c-3.8-0.9-7.7-1.8-11.5-2.7
	c-0.6-1.9-1.3-3.8-1.9-5.7c2.5,0.6,5.1,1,7.5,1.8c3.2,1.1,4.2,0.8,5.6-2.3C255,193.4,255.9,193.6,256.7,193.8z"/>
<path class="st6" d="M254.2,193.3c-1.4,3.1-2.4,3.4-5.6,2.3c-2.4-0.8-5-1.2-7.5-1.8c-1-0.4-1.9-0.8-2.9-1.2c-0.4-1.4,0.7-2,1.5-2.7
	c3.4,0.3,6.9,0.3,10.2,0.9C251.5,191,252.8,192.4,254.2,193.3z"/>
<path class="st0" d="M174.7,190.2c1.6-1.5,3.2-3,4.8-4.5c0.7,0.5,1.4,0.9,2.2,1.4c-0.5,1.6-1.6,2.7-3.4,2.9
	c-0.6,0.4-1.3,0.8-1.9,1.2c0.5,0.5,0.9,0.9,1.4,1.4c0.2,0.2,0.4,0.2,0.6,0.3c0.8,0.5,0.9,1.4,0.1,1.7c-1.6,0.7-1.4,2-1.4,3.3
	c-0.7-0.2-1.4-0.3-2.3-0.5c0.1,0.7,0.2,1.2,0.3,1.8c-2.2,0.6-2.9,0.1-3.7-3c1.1,0.4,2.1,0.7,3.3,1.1
	C174.7,194.7,174.7,192.5,174.7,190.2z"/>
<path class="st1" d="M178.3,189.9c1.8-0.2,2.8-1.3,3.4-2.9c3.1,0.1,3.8,0.8,3.8,3.9c-0.2,0.7-0.5,1.4-0.7,2.2
	c-1.2,0.4-2.4,0.8-3.6,1.2C180.2,192.8,179.2,191.4,178.3,189.9z"/>
<path class="st0" d="M194.4,186.6c0.6,0.4,1.3,0.8,1.9,1.2c0.2,0.1,0.3,0.2,0.5,0.2c0,0,0,0,0,0c0.5,0.8,1,1.6,1.4,2.4
	c-3.3,0.2-5.9-1-8.3-3.3c-1-1-2.7-1.3-4-2c-0.4-0.2-0.6-0.7-0.8-1.1c0.5-0.1,1-0.4,1.4-0.3c2.6,0.8,5.1,1.7,7.7,2.6c0,0,0,0,0,0
	C194.2,186.4,194.3,186.5,194.4,186.6z"/>
<path class="st6" d="M219.3,182.7c0,0.6,0,1.2,0,2c-2.5-1.2-4.8-2.2-7.1-3.3c-1-0.5-2-0.9-2.9-1.4c-1.1-0.7-2.2-0.6-3.4-0.1
	c-2.1-0.9-4.3-1.7-6.4-2.6c2-0.5,3.9-0.1,5.8,0.6c4.2,1.5,8.5,2.9,12.7,4.3C218.4,182.3,218.9,182.6,219.3,182.7z"/>
<path class="st6" d="M200.7,173.8c1.1-1.2,2.2-2.3,3.2-3.5c1.2,0.5,2.4,1.1,3.6,1.6c-0.6,1.2-1.1,2.3-1.6,3.4
	C204.1,174.8,202.4,174.3,200.7,173.8z"/>
<path class="st1" d="M187.1,177.2c0.2,1.8,0.3,3.7,0.5,5.5c-1.5-0.6-3-1.1-4.8-1.8C184.4,179.6,185.8,178.4,187.1,177.2z"/>
<path class="st9" d="M186.1,166c0.9,2.1,1.8,4.1,2.5,6.2c0.1,0.3-1,1-1.5,1.6C185.9,171.9,185.2,166.4,186.1,166z"/>
<path class="st5" d="M297.2,225.7c0.9-0.1,1.8-0.2,2.7-0.3c0.5,0,1,0,1.4,0c0.7,0.2,1.3,0.3,2,0.5c1.6,0.5,2.1,0.2,2.6-1.5
	c0-0.2,0-0.4,0-0.6c1,0.3,2.1,0.6,3.1,0.9c-0.2,1.3-0.3,2.5-0.5,3.8c-0.1,0.5-0.1,1.1-0.2,1.6c-3.1-0.3-6.3-0.6-9.4-0.9
	C298.4,228.1,297.8,226.9,297.2,225.7z"/>
<path class="st9" d="M299,229.3c3.1,0.3,6.3,0.6,9.4,0.9c0.7,0.5,1.4,0.9,2.4,1.6c-1,0.2-1.7,0.3-2.4,0.4c-1,0.1-1.9,0.2-2.9,0.3
	C302.9,232.2,300.8,231.1,299,229.3z"/>
<path class="st3" d="M305.5,232.5c1-0.1,1.9-0.2,2.9-0.3c0,0.6,0,1.3,0,1.9C306.3,234.6,305.6,234.2,305.5,232.5z"/>
<path class="st11" d="M305.9,224.5c-0.4,1.6-1,1.9-2.6,1.5c-0.6-0.2-1.3-0.3-2-0.5c1.2-1.2,0.7-2.3-0.2-3.3c1-1.6,0.9-1.5,2.1-0.1
	C304,223,305,223.7,305.9,224.5z"/>
<path class="st12" d="M320.9,233.5c-0.1,0-0.2,0-0.2,0c0,0,0.1-0.1,0.1-0.1C320.8,233.4,320.9,233.4,320.9,233.5z"/>
<path class="st12" d="M303.3,236.4c1.4,0.2,2.9,0.4,4.3,0.6c-0.3,0.4-0.6,0.8-0.9,1.1c-4.7-0.6-9.4-1.2-14.1-1.8
	c-2.2-0.3-4.3-0.5-6.5-0.8c-4.4-1-8.8-1.9-13.2-2.9c-0.4-0.1-0.8-0.2-1.2-0.3c0-0.2,0-0.3,0-0.5c4.5,0.5,9,1,13.6,1.4
	c1.7,0.2,3.5,0,5.3,0.1c0.5,0.3,0.9,0.5,1.4,0.8c0.9,0.4,1.8,1,2.8,1.2C297.5,235.8,300.4,236,303.3,236.4z"/>
<path class="st1" d="M271.6,231.9c0,0.2,0,0.3,0,0.5c-0.9,0.2-1.8,0.5-2.7,0.7c-0.8,0.5-1.6,1-2.4,1.5c0-0.9,0-1.8,0-2.7
	c1.2-0.2,2.3-0.5,3.5-0.6C270.6,231.3,271.1,231.7,271.6,231.9z"/>
<path class="st3" d="M141,158c0.9,0,2.3-1,2.3,1c0,0.2,0.4,0.4,0.7,0.5c1.2,0.5,2.5,1,3.7,1.5c0,0.2,0.1,0.4,0.1,0.5
	c-0.8,0.2-1.7,0.9-2.3,0.6c-1-0.4-2.6-0.4-2.6-2.2c0-0.5-0.5-1-0.9-1.3C141.7,158.4,141.3,158.2,141,158z"/>
<path class="st7" d="M136.1,148.9c1.4,0.8,2.9,1.5,4.3,2.3c0.2,0.1,0.4,0.5,0.4,0.7c0,0.2-0.4,0.6-0.6,0.5c-1.3-0.2-2.6-0.3-3.7-0.9
	c-0.6-0.3-0.6-1.6-0.8-2.5C135.8,149,135.9,149,136.1,148.9z"/>
<path class="st11" d="M211.2,193.8c2.5,0.6,5.1,1.2,7.6,1.7c0.3,0.3,0.6,0.6,1,0.8c1.9,1,3.8,2,5.7,3c0.3,0.2,0.8,0.6,0.7,0.8
	c-0.6,1.7,0.6,1.4,1.5,1.4c0.7,0,1.4,0,2.2,0c7.1,1.8,14.2,3.6,21.3,5.6c0.6,0.2,0.9,1.5,1.3,2.2c-1.3,2.7-1.8,3-3.6,2.2
	c-0.7-0.3-1.3-0.9-1.7-1.6c-1.5-2.4-3.2-3-5.9-1.6c-1.4,0.7-2.6,1.7-4,2c-1.4,0.3-3,0.2-4.4-0.1c-0.7-0.2-1.5-1.1-1.9-1.8
	c-1.1-2.2-1.4-2.4-4-1.5c-0.4-0.5-0.9-0.9-1.3-1.4c-0.1,0.1-0.3,0.2-0.4,0.2c-0.1-0.7-0.2-1.5-0.2-2.2c0-3.2-0.6-3.7-3.8-3.9
	c-1.6-0.1-3.3-0.4-4.9-1c-2.2-0.8-4.2-1.8-6.7-1.6c-1.9,0.2-3.9,0.2-5.8,0.3c0-1.4,0.1-2.7,0.1-4.1
	C206.3,193.4,208.7,193.6,211.2,193.8z"/>
<path class="st7" d="M203.8,197.4c2-0.1,3.9-0.1,5.8-0.3c2.4-0.2,4.5,0.8,6.7,1.6c1.5,0.6,3.2,0.9,4.9,1c3.2,0.2,3.9,0.7,3.8,3.9
	c-1-0.1-2.1-0.1-3.1-0.3c-2.1-0.4-4.4-0.4-6.1-1.3c-2.6-1.5-4.6-0.3-6.8,0.5c0.4,0.5,0.7,1,1,1.4c-0.5,0.2-1,0.5-1.6,0.7
	c-0.6,0.2-1.2,0.3-1.7,0.5c-0.7,0.3-1.4,0.6-2.1,1c0.5,0.6,0.9,1.1,1.4,1.7c0.2,0.7,0.3,1.5,0.5,2.2c0.2,0.8,0.5,1.1,1.3,0.6
	c1-0.5,2-0.9,3-1.4c0.4-0.1,0.8-0.2,1.2-0.2c0,0.6,0,1.1,0,1.7c0,0.4,0,0.7,0,1.1c-1.2,0.3-2.4,0.6-3.6,0.8
	c-0.7-0.1-1.5-0.7-2.2,0.2c-0.8-0.5-1.5-0.9-2.5-1.5C203.8,206.9,203.8,202.2,203.8,197.4z"/>
<path class="st0" d="M181.1,194.3c1.2-0.4,2.4-0.8,3.6-1.2c-0.2,1.5-0.3,3-0.5,4.6c0.2,0.9,0.5,1.8,0.7,2.6c0.3,0.9,0.6,1.8,1,2.6
	c0,0.3-0.1,0.6-0.1,0.6c-1.9-0.4-3.8-0.5-5.6-1.1c-2.7-0.9-2.7-1-2.5-3.8C179.9,198.5,180.6,197.2,181.1,194.3z"/>
<path class="st4" d="M198,207.6c-0.4-2,0.9-3.5,1.8-5c0.7-1.2,1.3-2.4,1.9-3.6c0.1,1.1,0.4,2.2,0.4,3.2c0.1,2.2,0,4.5,0,6.9
	C200.9,208.7,199.4,208.2,198,207.6z"/>
<path class="st9" d="M181.1,194.3c-0.5,3-1.2,4.3-3.4,4.3c-0.2-0.2-0.5-0.5-0.7-0.7c0-1.3-0.2-2.6,1.4-3.3c0.8-0.3,0.7-1.2-0.1-1.7
	c-0.2-0.1-0.5-0.2-0.6-0.3c-0.5-0.4-0.9-0.9-1.4-1.4c0.6-0.4,1.3-0.8,1.9-1.2C179.2,191.4,180.2,192.8,181.1,194.3z"/>
<path class="st8" d="M211.2,193.8c-2.4-0.2-4.8-0.3-7.2-0.5c-0.1-1-0.1-1.9-0.2-2.9c1.6,0.1,3.2,0.2,4.8,0.3
	C209.4,191.7,210.3,192.7,211.2,193.8z"/>
<path class="st0" d="M201.8,199c-0.6,1.2-1.3,2.4-1.9,3.6c-1.5-2-0.5-4.1,2.2-4.8C201.9,198.2,201.9,198.6,201.8,199z"/>
<path class="st0" d="M189.5,201.7c0.2,0.8,0.3,1.6,0.5,2.4c-1-0.4-1.9-0.8-2.9-1.2c0-0.5,0-0.9,0-1.4
	C188,201.5,188.7,201.6,189.5,201.7z"/>
<path class="st0" d="M190.5,204.1c1,0.6,2,1.2,3.1,1.8c0,0.1,0,0.2,0,0.3c-0.9,0-1.8,0-2.8,0c-0.3,0-0.7,0-1.1-0.1
	C190,205.4,190.2,204.8,190.5,204.1z"/>
<path class="st9" d="M187.2,201.5c0,0.5,0,0.9,0,1.4c-0.4,0-0.8,0-1.2,0c-0.3-0.9-0.6-1.8-1-2.6
	C185.7,200.7,186.4,201.1,187.2,201.5z"/>
<path class="st7" d="M251.9,217.3c2.7,0.7,5.4,1.4,8.2,2.1c2.4,0.6,4.6,1.3,6.6,2.9c0.7,0.6,1,1.1,0.8,2c-0.3,1.1-0.4,2.2-0.6,3.3
	c-2.8-0.3-5.7-0.7-8.5-1c-2.1-0.2-4.1-0.7-6-1.7c-1.5-0.7-3.5-0.5-5.2-0.7c-0.9-0.1-1.8-0.3-2.8-0.5c0.1-1.7,0.2-3.4,0.2-5.1
	c0-1.2,0.6-1.1,1.4-1.1C247.9,217.5,249.9,217.4,251.9,217.3z"/>
<path class="st8" d="M251.9,217.3c-2,0.1-4,0.2-6,0.2c-0.8,0-1.4-0.1-1.4,1.1c0,1.7-0.1,3.4-0.2,5.1c-0.5-0.2-1-0.4-1.5-0.7
	c1.4-2.1,0.1-5.8-2.4-6.6c-1.9-0.6-3.8-0.8-5.7-1.2c-2.6-0.2-5.3-0.4-7.9-0.5c-3.7-0.6-7.4-1.3-11.1-1.9c0-0.3,0-0.6,0-0.8
	c3.4,0,6.7,0,10.1,0c0-0.1,0-0.2,0-0.3c-1.3-0.5-2.6-1-3.8-1.5c-0.6-0.7-1.1-1.5-1.7-2.2c2.2,0.1,4.5,0.3,6.7,0.4c0,0.6,0,1.3,0,1.9
	c0,2.6,0.7,3.2,3.3,3.5c5.3,0.7,10.5,1.5,15.8,2.2c0.9,0.1,1.7,0.3,2.6,0.4C249.7,216.8,250.8,217.1,251.9,217.3z"/>
<path class="st3" d="M234.7,215.4c1.9,0.4,3.9,0.6,5.7,1.2c2.5,0.7,3.8,4.5,2.4,6.6c-2.7-0.6-5.5-1.3-8.2-1.9
	c0.9-1.4,0.6-2.9,0.3-4.4C234.8,216.3,234.7,215.9,234.7,215.4z"/>
<path class="st7" d="M234.7,215.4c0.1,0.5,0.1,0.9,0.2,1.4c0.4,1.5,0.6,3-0.3,4.4c-2.9-0.9-5.8-1.9-8.6-2.8c0.3-1.2,0.5-2.4,0.8-3.5
	C229.4,215,232,215.2,234.7,215.4z"/>
<path class="st3" d="M226.8,214.9c-0.3,1.2-0.5,2.4-0.8,3.5c-4.9-1.4-9.7-2.8-14.6-4.3c1.4-0.4,2.9-0.8,4.3-1.2
	C219.4,213.6,223.1,214.2,226.8,214.9z"/>
<path class="st10" d="M215.7,212.9c-1.4,0.4-2.9,0.8-4.3,1.2c-1-0.5-1.9-1.1-2.9-1.6c1.2-0.3,2.4-0.6,3.6-0.8
	c1.2,0.1,2.4,0.3,3.6,0.4C215.7,212.4,215.7,212.6,215.7,212.9z"/>
<path class="st12" d="M253.6,229c-1.2-0.2-2.4-0.3-3.6-0.5c-0.2-0.4-0.4-0.7-0.7-1.1C251.4,226.5,253,227.2,253.6,229z"/>
<path class="st12" d="M248.8,228.3c-0.7-0.2-1.5-0.3-2.2-0.5c0.2-0.4,0.3-0.9,0.5-1.3C247.7,227.1,248.3,227.7,248.8,228.3z"/>
<path class="st3" d="M227,208.5c-2.2-0.1-4.5-0.3-6.7-0.4c-0.5,0-0.9-0.1-1.4-0.1c-2.3,0.3-4.5,0.6-6.8,0.9
	c-0.4,0.1-0.8,0.2-1.2,0.2c-1.6-0.5-3.2-1-4.8-1.4c-0.5-0.6-0.9-1.1-1.4-1.7c0.7-0.3,1.4-0.7,2.1-1c0.6-0.2,1.2-0.3,1.7-0.5
	c0.5-0.2,1-0.5,1.6-0.7c-0.3-0.4-0.6-0.8-1-1.4c2.2-0.8,4.1-2,6.8-0.5c1.7,1,4,1,6.1,1.3c1,0.2,2,0.2,3.1,0.3
	c0.1,0.7,0.2,1.5,0.2,2.2c0.1-0.1,0.3-0.2,0.4-0.2c0.4,0.5,0.9,0.9,1.3,1.4C227,207.5,227,208,227,208.5z"/>
<path class="st0" d="M238.2,192.6c1,0.4,1.9,0.8,2.9,1.2c0.6,1.9,1.3,3.8,1.9,5.7c-3.3-0.9-6.6-1.7-9.8-2.6
	c-4.1-1.1-8.2-2.3-12.3-3.5c0.2-2,0.4-4.1,0.7-6.4c0.8,0.2,1.9,0.5,2.9,0.8c2.2,0.6,4.5,1.2,6.7,2c0.8,0.3,1.4,0.9,2.2,1.2
	C235,191.5,236.6,192,238.2,192.6z"/>
<path class="st8" d="M229.9,201.4c-0.7,0-1.4,0-2.2,0c-0.9,0-2.1,0.4-1.5-1.4c0.1-0.2-0.4-0.6-0.7-0.8c-1.9-1-3.8-2-5.7-3
	c-0.4-0.2-0.7-0.5-1-0.8c12.2,2.6,24.3,5.8,36,10.5c-1.1-0.2-2.2-0.4-3.2-0.7c-6.6-1.6-13.2-3.1-19.8-4.6
	C231.2,200.6,230.5,201.2,229.9,201.4z"/>
<path class="st3" d="M303.3,236.4c-2.9-0.4-5.8-0.7-8.6-1.1c-1-0.2-1.9-0.8-2.8-1.2c3.3,0.4,6.7,0.8,10,1.3
	C302.4,235.5,302.8,236.1,303.3,236.4z"/>
<path class="st2" d="M196.7,188c-0.2-0.1-0.3-0.2-0.5-0.2C196.4,187.8,196.6,187.9,196.7,188z"/>
<path class="st2" d="M194.4,186.6c-0.1-0.1-0.2-0.2-0.2-0.2C194.2,186.4,194.3,186.5,194.4,186.6z"/>
<path class="st1" d="M187.2,201.5c-0.7-0.4-1.5-0.8-2.2-1.2c-0.2-0.9-0.5-1.8-0.7-2.6c1.6-1.2,3.2-2.7,5.4-2.4
	c0.5,0.1,1.1,0.6,1.2,1c0.5,1.9,0.8,3.8,1.2,5.8c-0.9-0.1-1.7-0.2-2.6-0.4C188.7,201.6,188,201.5,187.2,201.5z"/>
<path class="st11" d="M212.1,208.9c2.3-0.3,4.5-0.6,6.8-0.9c0.4-0.1,0.9,0,1.4,0.1c0.6,0.7,1.1,1.5,1.7,2.2
	c-3.3,0.1-6.6,0.2-9.8,0.3C212.1,210,212.1,209.5,212.1,208.9z"/>
<path class="st3" d="M212.1,210.6c3.3-0.1,6.6-0.2,9.8-0.3c1.3,0.5,2.6,1,3.8,1.5c0,0.1,0,0.2,0,0.3c-3.4,0-6.7,0-10.1,0
	c-1.2-0.1-2.4-0.2-3.6-0.4C212.1,211.3,212.1,211,212.1,210.6z"/>
<path class="st11" d="M206.1,207.7c1.6,0.5,3.2,1,4.8,1.4c-1,0.5-2,0.9-3,1.4c-0.8,0.4-1.2,0.2-1.3-0.6
	C206.5,209.2,206.3,208.4,206.1,207.7z"/>
</svg>
