<?xml version="1.0" encoding="utf-8"?>
<!-- Generator: Adobe Illustrator 21.1.0, SVG Export Plug-In . SVG Version: 6.00 Build 0)  -->
<svg version="1.1" id="Layer_1" xmlns="http://www.w3.org/2000/svg" xmlns:xlink="http://www.w3.org/1999/xlink" x="0px" y="0px"
	 viewBox="0 0 360 360" style="enable-background:new 0 0 360 360;" xml:space="preserve">
<style type="text/css">
	.st0{fill:#6A8B6A;}
	.st1{fill:#9BB496;}
	.st2{fill:#2D4E34;}
</style>
<g>
	<g>
		<g>
			<path class="st0" d="M125.1,213.2c0.3-0.2,0.6-0.4,0.8-0.7c0.7-1.1,1.3-0.6,2-0.1c0,1.7,0,3.4-0.8,5c-1.3,2.7-2.6,5.4-3.8,8.1
				c-0.3,0.6-0.2,1.4-0.3,2.1c-0.2,1-0.5,2-0.7,3c-0.6,2.3-1.1,4.5-1.8,6.8c-0.2,0.7-0.5,1.3-1,1.9c-1,1.2-2.1,2.2-3,3.4
				c-1.3,1.9-2.9,3.7-3.7,5.8c-1.1,3-1.5,6.3-2.2,9.5c-0.2,0.7-0.4,1.5-0.4,2.2c0,0.5,0.4,1.1,0.6,1.6c0.3-0.3,0.6-0.5,0.9-0.9
				c0.9-1.4,1.7-2.8,2.6-4.2c1.2-2.3,2.3-4.6,3.5-6.9c0.9-1.7,2.1-3.3,2.7-5.1c0.8-2.4,1.7-4.6,3.3-6.6c0.2-0.3,0.5-0.6,0.6-1
				c1.1-2.9,2.3-5.8,3.4-8.7c0.7-1.9,1.4-3.7,2.1-5.6c0.5-1,1.6-1.8,1-3.2c0-0.1,0.1-0.3,0.1-0.4c1.7-3.4,3.2-7,5.1-10.3
				c1.9-3.3,3-6.8,3.1-10.6c0-1.2,0.5-2.5,1.1-3.6c0.9-1.8,2.1-3.5,3.2-5.3c0.5-0.9,1-1.3,1.7-0.3c0.6,0.7,1,0.6,1.4-0.2
				c1.3-2.8,2.7-5.5,4.1-8.2c0.2-0.4,0.8-1,1.2-1c1.8,0,2.7-1.2,3.8-2.3c0.4-0.4,0.6-0.8,0.1-1.3c-0.8-0.7-0.7-1.5-0.1-2.4
				c0.4-0.5,0.8-1,1.1-1.6c4-7.8,8.1-15.6,12.1-23.4c1.2-2.3,2.6-4.7,2.3-7.5c0-0.1,0.1-0.2,0.1-0.3c0.1-1.8,0.5-3.7,0.3-5.5
				c-0.5-4.7-1.4-9.4-2-14.2c-0.1-0.4,0.1-1,0.4-1.2c0.7-0.5,1.6-0.9,2.4-1.4c0.9,0.6,1.6,0.3,2.4-0.2c1.6-0.9,3.2-1.8,4.7-2.7
				c-0.1,1.2-0.1,2.4-0.4,3.5c-1.1,3.9-2.4,7.8-3.6,11.7c-0.1,0.3,0,0.7,0,1c0.4-0.2,0.9-0.3,1.3-0.6c0.2-0.1,0.2-0.5,0.3-0.8
				c1-3.7,2-7.4,3.2-11c0.6-2.1,1.4-4.2,2.2-6.3c1.9-1.2,3.5-0.6,5,0.8c0.2,0.2,0.5,0.3,0.7,0.4c2,0.7,4,1.3,6,1.9
				c0.9,0.3,1.7,0.2,2.5-0.3c0.3,0.8,0.6,1.5,0.8,2.3c0.4,2,0.8,3.9,2.1,5.6c1,1.3,2,2.8,1.8,4.7c0,0.3,0.2,0.6,0.5,0.8
				c0.8,0.6,0.7,1-0.1,1.5c-4.7,3.1-9.3,6.2-14,9.2c-0.9,0.6-1.9,1.1-2.8,1.6c1.2,0.3,2.2,0.3,3.2-0.3c3.6-2.2,7.2-4.5,11-6.5
				c3.3-1.7,6.6-3.3,9.7-5.5c0.6-0.4,1.2-0.8,1.9-1.1c3.3-1.4,6.2-3.3,8.7-5.8c0.1,0,0.2-0.1,0.3-0.1c0,0-0.1-0.1-0.1-0.1
				c-0.1,0-0.2,0.1-0.3,0.2c-3.1,1.1-6.2,2.4-8.9,4.2c-1.3,0.9-2.9,1.3-4.3,1.9c-0.1-0.1-0.1-0.2-0.2-0.4c0.3-0.3,0.5-0.6,0.8-0.9
				c1.7-1.3,3.5-2.5,5.3-3.7c0.2-0.1,0.5-0.3,0.6-0.2c0.7,0.4,1.1-0.1,1.6-0.4c1.1-0.8,2.1-2,3.7-1.8c0.4,0,1-0.4,1.1-0.7
				c1.2-2.5,3-4.9,2.4-7.9c-0.1-0.5-0.9-0.9-1.5-1.2c-0.2-0.1-0.8,0.4-1,0.7c-0.9,1.6-1.7,3.1-2.5,4.8c-0.4,0.8-0.8,0.8-1.4,0.5
				c-1-0.5-2-0.9-2.9-1.3c0-0.4,0-0.9,0-1.3c0.2-1.5-0.4-2.6-1.3-3.7c-1.5-1.7-2.8-3.6-4.3-5.3c-1.2-1.4-2.4-2.7-3.7-4
				c-0.7-0.7-1.6-1.3-2.4-2c-1.3-1.1-2.6-1.7-4.3-1.7c-1.6,0.1-3.2-0.1-4.8-0.3c-1.1-0.1-2.2-0.3-3.2-0.5c0.5-0.5,1.1-1,1.5-1.6
				c1.5-2.1,3-4.2,4.5-6.3c1-1.4,2.3-2.7,3-4.3c0.8-1.6,1.8-2.9,3.1-4c0.8-0.7,1.7-1.5,2.2-2.4c0.4-0.9,0.7-1.9,1.5-2.6
				c0.4-0.4,0.7-1,1-1.5c0.6-1.1,1.1-2.3,1.9-3.2c2.9-3.1,4.9-6.9,8.5-9.3c0.3-0.2,0.5-0.6,0.8-0.9c2.8-4,5.6-7.9,8.4-11.9
				c1.5-2.1,3-4.1,4.5-6.2c0.2-0.2,0.2-0.6,0.3-0.9c-0.3,0.1-0.6,0.2-0.9,0.4c-0.3,0.2-0.6,0.5-0.8,0.8c-3.2,4-6.5,8.1-9.7,12.1
				c-3.6,4.5-7.1,9-10.6,13.5c-1.9,2.5-3.9,4.9-5.8,7.4c-0.7,0.9-1.5,1.5-3,1.6c0.4-0.5,0.6-1,0.9-1.3c2-2.3,3.9-4.6,5.9-6.9
				c0.4-0.5,0.7-0.8,0.1-1.3c-0.3-0.2-0.4-0.6-0.6-0.8c0.4-0.1,0.7-0.2,1.1-0.2c0.9,0,1.8-0.2,1.9-1.2c0.1-1.9,1.5-2.7,2.7-3.8
				c1.2-1.1,2.3-2.3,3.4-3.5c-0.1-0.1-0.1-0.2-0.2-0.3c-0.4,0-0.8,0-1.2,0c-0.2,0-0.4-0.2-0.5-0.3c0.2-0.1,0.3-0.3,0.5-0.4
				c0.9-0.3,1.8-0.5,2.8-0.7c0.9-0.2,1.2-0.5,0.3-1.2c-0.7-0.6-0.5-0.9,0.3-1.2c0.8-0.3,1.6-0.6,2.6-1c-1.4-1-0.9-1.6,0.2-2.1
				c0.1-0.1,0.2-0.2,0.3-0.2c0.4-0.3,0.7-0.6,1.1-0.9c-0.3-0.3-0.6-0.5-1.1-0.9c0.7-0.3,1.3-0.5,1.8-0.7c0.7-0.2,1.2-0.5,0.9-1.3
				c-0.1-0.2,0.4-0.8,0.6-0.8c1.1-0.3,1.8-0.9,2.3-1.9c0.4-0.6,0.8-1.3,1.4-1.7c0.6-0.4,0.9-0.8,0.9-1.5c0-0.4,0.4-0.9,0.8-1.1
				c1.7-0.9,3.5-1.2,4.9-2.9c1.3-1.6,3.3-2.6,5.1-3.8c0.7-0.5,1.1-0.9,1-1.7c0-0.3,0.1-0.6,0.2-0.9c0.3,0.2,0.5,0.4,0.8,0.6
				c0.2,0.1,0.7,0.2,0.8,0.1c1.3-1.8,2.5-3.7,3.8-5.6c-0.1-0.1-0.2-0.2-0.2-0.4c-0.5,0.2-1.2,0.3-1.6,0.7c-1.5,1.5-2.9,3.1-4.4,4.6
				c-0.8,0.8-1.8,1.6-2.7,2.4c0,0,0,0,0,0c0.2-0.5,0.4-0.9,0.5-1.4c0-0.1,0.1-0.2,0.1-0.4c-0.1,0.1-0.2,0.2-0.3,0.2
				c-0.3,0.3-0.7,0.5-1,0.8c-1.2,1.2-2.4,2.5-3.7,3.6c-0.2,0.2-0.8,0.1-1.2,0.1c0-0.3,0-0.6,0.1-0.8c2.1-1.9,4.1-3.8,6.3-5.5
				c0.9-0.7,1.7-1.3,2.1-2.3c0.4-1.2,1.2-2,2.5-2.4c0.5-0.1,1-0.6,1.4-1c1.2-1.5,2.5-3,3.6-4.6c0.7-1,1.5-1.1,2.6-0.7
				c1.3,0.5,2.6,0.9,4,1.3c0.5,0.2,1.1,0.3,1.6,0.4c0.1-0.2,0.1-0.3,0.2-0.5c-0.9-0.5-1.9-1.1-2.8-1.6c-0.5-0.3-1.1-0.4-0.6-1.3
				c0.6-0.9,1.3-1.8,0.5-2.9c-0.1-0.1,0-0.2,0-0.3c0.2-0.7,2.1-2,2.9-2c3,0.2,6,0.3,8.9,0.5c0.5,1.1,0.3,2.1-0.3,3.2
				c-0.8,1.4-1.6,2.8-2.3,4.3c-0.5,1-1.2,1.8-2.3,2c-0.3,0.1-0.6,0.5-0.7,0.8c-0.1,1.3-0.2,2.5-0.2,3.8c0,2,0,4,0,6
				c-0.1,0.2-0.3,0.3-0.3,0.5c-0.2,0.9-0.3,1.9-0.6,2.8c-0.1,0.4-0.5,0.7-0.7,1c-0.2-0.3-0.4-0.6-0.5-0.9c-0.8-1.6-0.1-3.2,0.1-4.8
				c0.3-2,0.7-4.1,1.1-6.3c-1,0.9-1.8,1.6-2.6,2.3c-0.4,0.4-1,0.8-1.3,1.3c-2,4.2-4,8.4-6.7,12.3c-0.8,1.1-0.5,2,0.7,2.8
				c0.3,0.2,0.4,0.5,0.6,0.7c0.5,0.6,1,1.2,1.5,1.7c0.6,0.5,1.1,0.1,1.5-0.4c0.6-0.6,0-0.8-0.3-1.1c-0.2-0.2-0.5-0.6-0.4-0.8
				c0.5-1,0.9-2.3,1.8-2.9c1.4-1,3.2-1.5,5.4-1.2c-0.8,0.8-1.5,1.3-2,2c-0.3,0.3-0.4,1-0.3,1.3c1.3,2.2,2.7,4.3,4.2,6.4
				c0.6,0.9,1.4,1.5,0.7,2.7c-0.1,0.2,0,0.6,0.2,0.9c0.6,1.1,1.2,2.3,1.9,3.3c0.3,0.4,0.8,0.6,1.3,0.8c0.6,0.3,1.4,0.2,1.7,0.6
				c1.2,1.3,1.1,2.2-0.2,3.4c-0.3,0.3-0.7,0.6-1.1,0.9c-1.2,0.9-1.4,2.3-0.4,3.2c0.3,0.3,0.8,0.4,1.2,0.6c0-0.4-0.1-0.8-0.1-1.1
				c-0.1-0.8-0.7-1.5,0.4-2.2c1.8-1.1,1.8-1.2,3.3,0.3c0.2,0.2,0.4,0.4,0.6,0.6c0.9,1.2,1.3,2.4,0.6,3.9c-0.3,0.7-0.5,0.7-1,0.3
				c-0.5-0.4-1-0.9-1.6-1.2c-0.4-0.2-0.9,0-1.4,0c0.1,0.4,0,0.9,0.3,1.2c1.9,2.5,3.9,5.1,5.9,7.6c0.7,0.8,0.7,1.3,0.3,2.1
				c-0.4,0.8-0.9,1.1-1.9,0.9c-1.4-0.4-1.7-0.1-2,1.2c0,0.2,0,0.4-0.1,0.6c-2,0.4-4.1,0.8-6,1.4c-0.6,0.2-1.4,0.9-1.3,1.4
				c0.1,1.2-0.6,1.4-1.4,1.7c-0.3,0.1-0.6,0.1-0.8,0.3c-0.2,0.3-0.3,0.7-0.5,1c0.3,0,0.6,0.2,0.9,0.1c1.4-0.5,2.9-1.1,4.3-1.8
				c0.7-0.3,1.4-0.7,2.1-1.1c1.2-0.8,2.6-1.4,2.8-3c0.8,0,1.5,0.1,2.3,0c1.7-0.3,2.8,0.2,3.1,2c0,0.2,0.7,0.5,0.9,0.4
				c1.7-0.4,1.7-0.4,2.6,1.2c0.2,0.5,0.5,0.9,0.7,1.4c0.2,0.5,0.2,0.7-0.4,0.8c-1.3,0.2-2.7,0.4-4,0.6c-2.4,0.3-4.8,0.6-7.2,1
				c0-0.1-0.1-0.3-0.1-0.4c0.5-0.2,1-0.6,1.5-0.7c1.3-0.2,2.6-0.2,3.9-0.5c1.4-0.3,2.7-0.8,4.1-1.2c0.2-0.1,0.4-0.4,0.3-0.5
				c-0.1-0.2-0.4-0.4-0.6-0.4c-0.6,0-1.2,0.2-1.8,0.2c-3.3,0.2-6.3,1.5-9.3,2.8c-0.2,0.1-0.4,0.3-0.6,0.4c-0.6,0.4-1.2,1.1-1.9,1.3
				c-1.2,0.3-0.6,1.2-0.7,1.8c0.4,0.1,0.8,0.3,1.2,0.2c4.4-1.1,8.8-2.3,13.2-3.5c2-0.5,3.3,0,4.2,1.9c0.4,0.7,0.6,1.5,0.9,2.2
				c0.4,0.9-0.1,1.2-0.8,1.2c-0.9,0-1.8,0-2.6,0c-1.7,0.2-3.5-0.1-5.1,1c-0.4,0.3-1.2,0.3-1.6,0.1c-2.2-0.9-4.1-0.2-6,0.9
				c-0.2,0.1-0.4,0.4-0.5,0.7c0.3,0.1,0.6,0.2,0.9,0.2c4-0.6,8-1.2,12-1.9c2.7-0.5,4.9,0.4,6.3,2.6c1.9,2.9,3.5,5.9,5.2,8.8
				c0.8,1.4,0.2,2.2-1.4,2.3c-1.4,0.1-2.7,0.2-4.1,0.3c1.9,0.5,3.7,1.3,5.7,0.8c0.2,0,0.6,0.3,0.7,0.6c0.7,1.5,1.4,3.1,2,4.6
				c0.9,2.3,1.8,4.5,2.7,6.8c0.1,0.4,0,0.9-0.2,1.3c-0.1,0.2-0.7,0.1-1.1,0.1c-1.1,0-1.2-1-1.6-1.7c-0.5-1-1-2.1-1.4-3.1
				c-0.8,2.2-2.4,2.6-4.4,2.4c-2.2-0.3-4.3-0.6-6.5-0.8c-0.4,0-0.9,0.3-1.3,0.5c0.3,0.2,0.7,0.5,1,0.6c4.9,1.3,9.9,2.6,14.8,3.9
				c0.4,0.1,0.8,0.4,1.2,0.6c-3.7-0.7-7.3-1.6-10.9-2.5c-1.9-0.5-3.9-1-5.8-1.4c-0.3-0.1-0.6,0.1-0.9,0.2c0.2,0.3,0.4,0.6,0.6,0.8
				c0.1,0.1,0.3,0.1,0.5,0.1c5.5,1.4,10.9,2.9,16.4,4.3c0.5,0.1,1.2,0.4,1.4,0.9c1.3,2.6,2.4,5.2,3.6,7.8c0.3,0.6-0.1,0.8-0.5,0.6
				c-0.4-0.2-0.9-0.6-1-1c-0.5-1.3-0.8-2.6-1.3-4.1c-0.6,1.1-1,2-1.4,2.8c-0.6,1.2-0.5,1.1-1.6,0.3c-1.1-0.9-2.2-1.9-3.4-2.5
				c-1.4-0.6-3-0.9-4.5-1.2c-0.8-0.2-1.6-0.3-0.8-1.4c-6.1-0.9-6.3-1.1-7.4-5.4c0,1.9,0,3.5,0,5c0,0.3,0.5,0.8,0.8,0.9
				c1.1,0.3,2.3,0.6,3.5,0.8c1.3,0.2,2.4,0.8,3.3,1.9c-1.2,0.2-2.2,0.3-3.2,0.5c-0.4,0.1-1,0.4-1.1,0.7c-0.1,1.8,0,3.6,0,5.5
				c0.1,0,0.1,0,0.2,0c0.2-1.8,0.5-3.6,0.7-5.3c1.8,0.8,3.5,1.5,5.1,2.3c0.8,0.4,1.1,0.1,1.2-0.7c0-0.3,0.1-0.5,0.2-0.8
				c0.1-0.7,0.3-0.9,1.1-0.6c1.4,0.7,2.8,1.3,4.3,1.8c2,0.8,4.1,1.6,6.1,2.5c0.2,0.1,0.5,0.7,0.4,0.8c-0.5,0.7-3.5,1.2-4.2,0.8
				c-1.7-0.8-3.4-1.6-5.1-2.5c-0.2-0.1-0.3-0.2-0.5-0.2c-0.1,0-0.2-0.1-0.4-0.1c0.1,0.1,0.2,0.2,0.3,0.2c0.2,0.1,0.3,0.2,0.5,0.3
				c0.4,0.3,0.7,0.7,1.1,1c2.9,1.9,6.1,3.5,8.2,6.4c0.2,0.2,0.5,0.4,0.7,0.4c1.3-0.2,1.4,0.6,1.4,1.5c0,0.5,0.1,0.9,0.2,1.4
				c0.5,3.3,0.9,6.5,1.3,9.8c0.1,0.8,0.1,1.7,0,2.5c-0.1,0.9-0.5,1.3-1.4,0.7c-1.3-0.9-2.7-1.8-4-2.7c-1.6-1.1-3.2-2.2-4.8-3.2
				c-0.1-0.1-0.2-0.2-0.2-0.2c0,0,0-0.1,0-0.1c0,0,0,0-0.1,0c0,0,0.1,0.1,0.1,0.1c0.1,0.1,0.2,0.2,0.2,0.2c0.6,0.7,1.2,1.4,1.8,1.9
				c2,1.8,4,3.5,6,5.3c0.2,0.2,0.8,0.5,0.9,0.3c1-0.7,1.4,0.1,1.8,0.7c0.5,0.7,1,1.4,1.5,2c0.4,0.5,0.4,0.7-0.2,0.9
				c-0.9,0.3-1.3,0.8-0.8,1.8c0.2,0.3,0.1,0.8,0.1,1.1c-0.1,0.8-0.3,1.6-0.4,2.5c-0.6,2-1.2,3.9-1.8,5.9c-0.1,0.5-0.1,0.9-0.9,0.7
				c-0.2-0.1-0.9,0.9-0.9,1.1c0.4,0.7,1.1,1.2,1.6,1.8c0.4-0.6,0.8-1.2,1.1-1.8c0.1-0.1,0.1-0.3,0.2-0.5c1-2.3,0.6-4.8,0.7-7.2
				c1.4-0.3,2.8-0.6,4.2-0.9c0.3-0.1,1,0.2,1,0.4c0.1,0.7,0.5,0.7,1,0.8c0.9,0.2,1.3,0.7,0.9,1.6c-0.5,0.9-0.3,1.6,0.2,2.4
				c0.2,0.3,0.4,0.7,0.4,1.1c0.2,2.1,0.3,4.2,0.5,6.3c0.1,0.7,0.2,1.4,0.3,2.1c0.2,0,0.3,0,0.5,0c0.2-1.6,0.3-3.1,0.5-4.7
				c0.2,0,0.3,0,0.5,0c0,2.3,0,4.7,0,7c0.2,0.7,0.3,1.5,0.5,2.2c-0.5,0.9-0.9,1.8-1.5,2.7c-0.2,0.3-0.3,0.5-0.9,0.2
				c-0.7-0.4-2.3-0.2-2.7,0.3c-1.7,2.3-3.7,4.4-4.5,7.3c-0.1,0.5-0.3,0.8-0.8,0.3c-0.5-0.5-0.6-0.2-0.8,0.3c-0.1,0.5-0.3,1-0.5,1.5
				c-0.3,1-0.7,2-1.1,3c-0.1,0-0.3-0.1-0.4-0.1c0.2-0.9,0.4-1.9,0.6-2.8c0.4-2,0.7-4,1.1-6.1c0.2-0.9-0.1-1.4-1.3-0.8
				c0-2.4,0-4.7,0-7c-0.1,0-0.2-0.1-0.3-0.1c-0.3,0.6-0.8,1.1-1,1.8c-0.6,1.5-1.1,3-1.7,4.5c-0.9,2.2-1.4,4.5-3.1,6.3
				c-0.2,0.2-0.6,0.3-0.8,0.5c-0.1-0.4-0.2-0.8-0.2-1.2c0-0.5,0.3-0.9,0.2-1.4c-0.4-3.5-1.2-7-0.7-10.7c0.2-1.7,0-3.4-0.2-5.1
				c-0.2-1.4-0.6-2.7-0.9-4.1c-0.2,0-0.4,0-0.6,0c-0.7,2-1.5,3.9-2.1,5.9c-0.2,0.7-0.3,1.3-1.3,1.3c-0.7,0-0.9,0.3-0.8,1.1
				c0.1,2.2,1.2,3.9,2.2,5.7c0.3,0.5,0.1,1.2,0,1.8c-0.1,1-0.5,1.9-0.6,2.9c-0.1,1.1,0,2.3,0,3.5c0,2.9,0,2.9-2.9,2.9
				c-0.3-1.1-0.6-2.2-0.9-3.3c-0.3-1.4-1.1-2.8-0.9-4.1c0.2-1.6-0.5-1.9-1.5-2.5c-0.4-0.2-0.6-0.2-0.8,0.4c-0.5,1.6-0.5,3,0.6,4.5
				c0.7,1,1.7,1.9,1.5,3.3c0,0.2,0.3,0.5,0.5,0.6c0.5,0.4,1.1,0.7,1.6,1c0.2,1-0.3,1.6-1.3,1.8c-0.6,0.1-1.1,0.4-1.6,0.7
				c-0.9-0.8-1.9-1.4-2.5-2.4c-1.2-1.7-2-3.6-3.1-5.3c-1.8-2.7-3.2-5.8-5.8-8c0,0,0,0,0,0c-1.9-2.9-3.8-5.8-5.7-8.7
				c-0.6-0.8-1.3-1.6-2-2.3c-0.1,0.1-0.1,0.1-0.2,0.2c0.1,0.4,0.2,0.9,0.4,1.6c-0.4-0.4-0.7-0.6-0.9-0.8c-1.1-1.2-2.1-2.5-3.2-3.7
				c-3.2-3.6-6.3-7.3-9.5-10.8c-2.7-2.9-5.7-5.6-8.6-8.4c-1.7-1.6-3.5-3.3-5.3-4.8c-1.8-1.5-3.8-2.8-5.8-4c-1.4-0.8-3.1-1.3-4.6-1.9
				c-1.4-0.5-2.7-1.4-4.1-1.5c-3.4-0.4-6.7-0.6-10.1-0.8c0.8-0.4,1.5-0.8,2.3-1.2c0.3-0.2,0.6-0.4,0.9-0.7c-0.3-0.3-0.5-0.8-0.8-1
				c-1.7-0.9-1.7-0.9-1.3-2.8c0.1-0.4,0.1-0.8,0.2-1.2c0.2-0.6,0.1-0.8-0.6-0.6c-1.3,0.4-2.6,0.8-3.9,1.1c-1.1,0.3-2.2,0.8-3.2,0.6
				c-1.8-0.4-3.2,0-4.8,0.6c-8.6,3-14.8,8.9-20,16c-2.5,3.4-4.1,7.4-6.2,11.1c-0.1,0.1-0.1,0.1-0.2,0.2c0,0,0.1,0,0.1,0.1
				c0-0.1,0-0.2,0-0.2c0.4-0.3,0.8-0.6,1.2-0.9c1-0.8,2.1-1.5,3.1-2.3c0.1,0.1,0.3,0.2,0.4,0.3c-0.2,0.8-0.3,1.6-0.7,2.3
				c-2.3,3.7-4.6,7.4-7,11c-1.7,2.6-3.4,5.1-5.2,7.6c-2.6,3.8-5.8,7.1-7.8,11.4c-1.6,3.5-3.6,6.8-5.4,10.1c-0.2,0.4-0.5,0.7-0.8,1
				c-0.1-0.1-0.2-0.1-0.3-0.2c0.7-2.7,1.5-5.3,2.2-8c-0.4,0.2-0.6,0.4-0.7,0.7c-0.8,1.5-1.6,3.1-2.4,4.5c-0.4,0.8-1.3,1.4-1.5,2.2
				c-0.4,1.9-1.3,3.3-2.4,4.7c-0.3,0.4-0.7,0.8-0.9,1.2c-3,4.7-6,9.3-9,14c-1.4,2.3-2.9,4.5-4.1,6.9c-1.1,2.2-1.7,4.6-3.6,6.4
				c-0.3,0.3-0.4,0.8-0.6,1.2c-1.1,2.4-2.3,4.8-3.4,7.2c-0.5,1.1-1,2.3-1.4,3.5c-0.7,2.1-1.3,4.2-2,6.2c-2-0.7-2.4-2.3-2.4-4.4
				c-2.3,2.9-3.9,5.7-3.8,9.3c0.1,2.7,0.3,3,2.9,3.8c0.7,0.2,1.1,0.1,1.5-0.5c0.6-0.9,1.2-1.7,1.8-2.5c0.6,0.2,1.2,0.3,1.8,0.5
				c-0.3,0.4-0.6,0.9-0.8,1.3c-0.1,0.2-0.1,0.6-0.1,0.8c0.3,0,0.7,0.1,0.8,0c1.3-1.1,2.7-2.1,3.8-3.5c2.1-2.7,3.9-5.6,5.8-8.4
				c0.3-0.4,0.6-0.9,0.5-1.4c-0.1-1.6-0.3-3.2-0.7-4.7c-0.5-2-0.6-3.9-0.1-5.9c0.6-2.9,2.1-5.4,3.7-7.9c1.3-2.1,2.7-4,4.1-6
				c0,0,0,0,0,0c-0.2,0.4-0.3,0.9-0.5,1.3c-1.6,2.9-3.2,5.7-4.7,8.6c-0.5,0.9-0.5,2.1-0.7,3.1c0.1,0,0.3,0.1,0.4,0.1
				c1.5-1,2.9-2,4.4-3.1c0.7,0.5,1.4,1,2.3,0.4c0.8-0.5,1.6-1,2.4-1.5c0.7-0.4,1-0.8,0.3-1.5c-0.1-0.1-0.1-0.4-0.1-0.6
				c1.1-0.2,0.3-0.6,0.1-0.9c-0.3-0.4-0.6-0.7-0.9-1.1c0.2-1.2,0.1-2.5,0.6-3.4c1.6-2.9,3.4-5.6,5-8.4c0.7-1.2,1.5-1.7,2.8-1.5
				c0.8,0.1,1.3-0.2,1.7-1c0.8-1.7,1.7-3.2,2.5-4.9c0.7-1.6,1.3-3.4,1.9-5.1c0.8-2.1,1.6-4.3,2.3-6.4c0.5-1.4,1-2.9,0.5-4.4
				c-0.1-0.3,0.2-0.9,0.6-1.2c2.1-1.5,3.4-3.5,4.6-5.7c1.2-2.1,2.6-4.1,3.8-6.2c0.4,0.4,0.8,0.9,1.1,1.4c0.6,1.1,1.4,1.7,2.6,1.8
				c0.7,0,1.5,0,2.2-0.2c2.6-0.5,3.9,0.7,3.3,3.2c-0.2,1.1,0.2,1.2,1,0.9c1-0.3,1.1,0.1,0.8,0.9c-0.4,1.3-0.7,2.6-1.1,3.9
				c-0.1,0.5-0.3,0.9-1,0.6c-0.7-0.4-1.2-0.1-1.5,0.5c-0.5,0.9-1.3,1.8-1.4,2.7c-0.3,2.2-0.7,4.4-2.3,6.1c0,0,0,0.1-0.1,0.1
				c0,0,0-0.1,0.1-0.1c1.6,0.3,3.1,0.7,4.8,1c-0.5-0.9-1-1.7-1.6-2.6c1,0,1.7,0.1,2.4-0.1c1.1-0.3,1.9-0.2,2.6,0.7
				c0.3,0.4,1.1,0.9,1.3,0.8c0.9-0.5,1.4,0,1.9,0.5c0.6,0.6,1.1,0.7,1.9,0.2c1.1-0.7,2.2-1.3,3.5-2c0,1.7,0,3.2,0,4.8
				c0.9-0.8,1.7-1.4,2.3-2c0.7-0.7,1.3-0.6,1.9,0.1c0.5,0.6,0.9,1.2,1.5,1.7c0.3,0.3,1,0.5,1.3,0.3c1.1-0.8,2-1.7,3.1-2.6
				c-0.8-0.1-1.4-0.3-1.9-0.3c-0.5-0.1-1.1-0.1-1.6-0.2c0.4-0.4,0.7-0.8,1.1-1.2c0,0,0-0.1,0.1-0.2c-1.1-0.1-1.5-0.8-1.3-1.7
				c0.3-1.6,0.7-3.2,1.1-4.8c0.3-1.1,1-1.3,1.8-0.5c0.2,0.2,0.5,0.4,0.7,0.6c1.5,1.2,1.5,1.2,0.5,2.9c-0.4,0.8-0.8,1.8-0.8,2.6
				c0,1.2,0.4,1.3,1.5,0.6c0.1,0.5,0.2,0.9,0.3,1.4c0.1,0.8,0.3,1.2,1.2,1.1c1.6,0,3.2,0,4.8,0c0.7,0,0.9-0.2,1-0.9
				c0.2-1.8,0.5-3.6,0.9-5.4c0.1-0.3,0.5-0.9,0.7-0.9c0.5,0,1.2,0.2,1.5,0.6c0.8,1.1,1.4,2.4,2.1,3.6c0.9,1.6,1,1.6,2.5,1.2
				c0,0.1,0,0.2,0,0.2c-2.4,2.1-3.6,5-4.9,7.9c-0.2,0.5-0.7,0.8-1.1,1.1c-0.2-0.7-0.4-1.4-0.8-2c-0.2-0.3-0.9-0.6-1.1-0.5
				c-0.8,0.4-1.5,2.9-1,3.7c0.1,0.1,0.4,0.1,0.7,0.1c1.1,0.1,2.2,0.2,3.4,0.3c-0.6,0.2-1.3,0.5-1.9,0.6c-1.2,0.2-2,0.8-2.5,1.9
				c-4.2-1.3-8.4-2.7-12.6-4c-7-2.2-14-4.5-20.9-6.7c-0.4-0.1-0.8-0.3-1.2-0.5c-0.2-1-0.3-2-0.5-3c0-0.2-0.6-0.4-0.6-0.4
				c-1.2,1.8-2.4,3.6-3.6,5.3c0,0,0,0,0,0c-0.1,0.1-0.2,0.1-0.2,0.2c-0.1,0.2-0.2,0.5-0.3,0.7c-0.1,0.1-0.1,0.2-0.2,0.3
				c0,0.1,0,0.1-0.1,0.1c-1.5,1.7-3,3.3-4.6,5c-0.8,0.8-1,1.6-0.6,2.6c-1.4,2.2-2.7,4.4-4.1,6.7c-0.5,0-1-0.1-1.4,0
				c-0.5,0.1-1.3,0.5-1.3,0.8c0.1,1.5-0.8,2.1-1.8,2.7c-0.2,0.1-0.3,0.3-0.4,0.4c-0.4,0.9-1.1,1.8-1.2,2.7c0,0.5,0.9,1,1.5,1.6
				c0.4,0.4,0.9,0.8,1.5,1.4c-1.8-0.2-3.2-0.4-4.9-0.7c0.6,1,1,1.7,1.4,2.3c0.6,1,0.4,1.3-0.7,1.3c-0.3,0-0.6,0-0.8,0
				c-0.7,0.1-1.1,0.5-0.7,1.2c0.8,1.4,0.7,2.9,0.7,4.4c0,0.8-0.3,1-1,0.6c-0.7-0.3-1.4-0.6-2.1-0.9c-0.9-0.3-1.7-0.2-2.3,0.7
				c-0.6,0.9-1.2,1.7-1.9,2.6c-0.2,0.3-0.5,0.6-0.9,0.8c-0.7,0.5-1.6,0.9-2.2,1.6c-1,0.9-1.9,1.9-2.7,3c-0.9,1.2-1.7,2.5-2.4,3.8
				c-0.8,1.4-1.3,3.1-2.2,4.3c-3.6,4.7-7.3,9.3-10.9,14.1c-1.1,1.5-1.7,3.3-2.8,4.7c-0.6,0.7-1.7,1-2.6,1.4
				c-1.3-1.4-2.2-0.5-3.2,0.4c-0.5-0.7-1-1.5-1.4-2.2c0.8,0.4,1.4,0.4,1.3-0.8c0-0.2,0.1-0.4,0.3-0.5c0.9-0.7,0.2-0.9-0.3-1.3
				c-1.8-1.2-4-1.1-6-1.5c-0.5-0.4-1-0.8-1.4-1.3c-0.3-0.4-0.5-1-0.8-1.6c0.1-0.2,0.3-0.5,0.4-0.7c1.9-6.4,3.8-12.8,5.8-19.2
				c0.3-1.1,0.5-2.4,1.3-3c0.8-0.7,0.9-1.3,0.8-2.1c-0.3-2-0.6-4-0.9-6c-0.1-0.9-0.1-1.7,0.7-2.5c0.5-0.5,1.2-1.6,1-2.1
				c-0.5-1.5,0.2-2.4,1.1-3.3c0.7-0.7,0.7-1.1-0.2-1.7c-1.1-0.6-1-0.9,0.1-1.4c0.4-0.2,0.9-0.4,1.3-0.7c0.1,0,0.1-0.2,0.2-0.3
				c-0.4-0.1-0.7-0.2-1.3-0.3c1.9-2.3,3.6-4.4,5.4-6.6c0.1-0.1,0.3-0.2,0.4-0.2c1-0.2,1.6-0.8,2-1.7c0.3-0.7,0.8-1.3,1.1-2
				C123.6,216.2,124.3,214.7,125.1,213.2z M271.1,115.7c-0.6-0.1-1-0.2-1.4-0.3c-3.2-0.4-6.5-0.8-9.7-1.1c-3.7-0.3-7.4-0.6-11.1-0.8
				c-0.6,0-0.9,0.1-1,0.8c-0.1,2.1-0.3,4.3-0.5,6.4c0,0.5-0.2,1-0.3,1.5c-0.1,0.4-0.2,0.9-0.1,1.2c0.3,1.2,1,2.3,0.7,3.7
				c-0.2,1.2,0.1,2.5,0.2,3.7c0,0.2,0.3,0.4,0.4,0.6c0.2-0.2,0.4-0.3,0.5-0.5c0.1-0.2,0-0.6,0-0.8c0-2.7,0-5.5,0-8.2
				c0-1.1,0.7-1.4,1.7-1c0.7,0.3,1.5,0.6,2.3,0.8c2.8,0.8,5.6,1.4,8.4,2.2c3.3,1,6.6,2.2,9.9,3.2c0.5,0.1,1.1-0.2,1.6-0.3
				c-0.4-0.4-0.7-1-1.2-1.2c-1.2-0.5-2.4-0.8-3.6-1.1c-5.8-1.5-11.6-3-17.4-4.5c-2-0.5-2-0.5-1.7-2.5c0.1-0.6,0.1-1.1,0-1.7
				c-0.1-0.9,0.3-1.3,1.3-1.2c3.4,0.4,6.7,0.6,10.1,1.1c1.8,0.3,3.5,1.1,5.3,1.4C267.4,117.3,269.3,117.3,271.1,115.7z M178.8,149.3
				c-0.1-0.1-0.2-0.2-0.3-0.2c-0.7,0.7-1.5,1.4-2.1,2.2c-1.3,1.8-2.9,3.5-3.6,5.6c-1.5,4.4-4.5,8-6.7,12.1c-1.4,2.6-3.1,5-4.6,7.6
				c-0.1,0.2-0.3,0.4-0.2,0.5c0.3,1.7-1.1,2.5-1.9,3.6c-0.7,1-1.2,2.2-1.5,3.4c-0.4,2.1-0.6,4.3-0.9,6.5c0,0.3,0,0.6,0,0.9
				c0.3-0.2,0.6-0.3,0.8-0.6c1.2-1.8,2.4-3.6,3.6-5.4c0.2-0.4,0.5-0.8,0.5-1.2c0.1-3.3,1.2-6.3,2.9-9.1c0.3-0.4,0.5-0.9,0.7-1.4
				c2.4-4.7,4.7-9.5,7.2-14.2C174.7,156,176.8,152.7,178.8,149.3z M222.5,92.8c0.1,0,0.2,0.1,0.3,0.1c0,0.9,0,1.8,0,2.5
				c0.6-0.3,1.2-0.7,1.9-0.9c1.7-0.6,2-1.2,1.1-2.7c-0.4-0.7-0.2-0.9,0.4-1.1c0.9-0.3,1.8-0.6,2.7-0.9c-2.3-0.7-4.4-0.9-6.6-0.1
				c-0.8,0.3-1.8,0.1-2.7,0.1c-0.2,0-0.5-0.2-0.5-0.4c0-0.2,0.2-0.5,0.4-0.5c0.3-0.1,0.6-0.2,0.9-0.2c1.3,0,2.6-0.1,3.8,0
				c1.1,0.1,1.2-0.7,1.6-1.3c0.1-0.1-0.1-0.6-0.1-0.6c-0.6,0-1.3-0.2-1.7,0.1c-1.8,1.2-3.8-0.4-5.6,0.5c-0.1,0-0.3-0.3-0.4-0.3
				c-1,0.4-1.9,0.8-2.9,1.2c0.1,0.2,0.1,0.4,0.3,0.5c0.6,0.7,1.1,1.4,1.7,2c0.6,0.5,0.7,1,0.2,1.6c-1.2,1.7-2.4,3.4-3.6,5
				c-0.6,0.8-1.2,1.6-1.9,2.4c1.5,0.4,2.3-0.1,3.1-1.2c1.3-1.6,2.8-3.1,4.2-4.5c0.2-0.2,0.5-0.2,0.7-0.3c0,0.2,0.1,0.5,0.1,0.7
				c0,0.4,0,0.7-0.1,1.5C220.9,94.7,221.7,93.7,222.5,92.8z M250,105.5c0-0.1,0-0.2,0-0.4c0.4,0,0.9,0,1.3,0c2.5,0,5,0.1,7.4-0.1
				c1-0.1,2.3,0.2,3-1.2c-0.3,0-0.6-0.1-0.8-0.1c-3.5,0-7-0.1-10.6,0c-0.9,0-1.9,0.5-2.8,0.9c-1,0.4-1.9,1-2.9,1.5
				c-0.3,0.1-0.6,0.3-0.9,0.4c-0.6,0.3-0.7,0.5-0.1,0.9c1.2,0.9,2.5,1,4,0.8c2.3-0.4,4.7-0.1,6.8-1.3c0.3-0.2,0.8-0.1,1.2-0.1
				c3.3,0,6.6,0,10,0c2.8,0,5.7,0,8.5,0c0-0.2,0-0.4,0-0.7c-2-0.2-4-0.5-6-0.5c-5.7-0.1-11.5,0-17.2,0
				C250.8,105.6,250.4,105.5,250,105.5z M286.1,137.3c-0.1,0-0.1,0-0.2,0c0,0.4,0,0.7,0,1.1c0.1,1.5-0.5,3.1,1,4.2
				c0.1,0.1-0.1,0.8-0.4,1c-0.2,0.2-0.6,0.3-1,0.3c-0.7,0.1-0.7,0.4-0.4,0.9c0.6,1.1,1.1,2.3,1.7,3.4c0.2,0.4,0.7,0.6,1.1,0.8
				c1.5,0.6,3.1,0.8,4.4,2c2.3,2.1,4.8,3.9,7.2,5.8c0.2,0.2,0.7,0.1,1,0.2c0-0.4,0-0.8-0.1-1.1c-0.1-0.3-0.5-0.5-0.8-0.7
				c-2.7-2.1-5.4-4.1-8-6.2c-1.6-1.3-2.2-3.3-3-5.1C287.8,141.8,287,139.5,286.1,137.3z M258.4,149.4
				C258.5,149.4,258.5,149.4,258.4,149.4c0-0.7,0.1-1.4,0-2.2c0-0.3-0.2-0.7-0.3-1c-0.3,0.2-0.7,0.4-0.9,0.7
				c-1.2,2.2-2.5,4.3-3.6,6.6c-1,2-0.9,2.3,1,3.6c0.2,0.1,0.4,0.2,0.5,0.4c0.5,0.6,1.1,0.8,1.9,0.5c0.7-0.3,1.4-0.3,2.1-0.6
				c0.2-0.1,0.4-0.6,0.4-0.8c-0.2-0.6-0.6-1.2-0.7-1.9C258.6,152.9,258.5,151.2,258.4,149.4z M291.1,167.7c-1.2-1.8-2.4-3.6-3.6-5.3
				c-0.3-0.5-0.4-0.7-0.1-1.2c1.8-2.5,0.7-4-1.5-5.4c-0.2,1.2-0.4,2.4-0.5,3.6c-0.1,0.6,0.2,1.5,0,1.7c-0.4,0.3-1.2,0.2-1.8,0.2
				c-0.1,0-0.1,0.1-0.2,0.2c1.3,1.9,2.6,3.9,4,5.8c0.2,0.3,1,0.3,1.5,0.4C289.4,167.8,290,167.7,291.1,167.7z M235,63.5
				c0.1,0.1,0.1,0.2,0.2,0.3c0.2,0,0.5,0,0.7,0c1.3,0.1,2.7-0.1,3.7,1.1c0.1,0.1,0.6,0,0.6-0.1c0.1-0.4,0.2-0.8,0.2-1.2
				c-0.4-2.3,0.3-3.4,2.6-3.6c0.7-0.1,0.8-0.3,0.9-0.9c0.3-1.3-0.2-1.7-1.3-1.8c-0.6-0.1-1.3-0.3-1.8-0.5c-0.8-0.3-1-0.1-1,0.7
				c0.1,1-0.4,1.8-1.1,2.5C237.4,61.2,236.2,62.4,235,63.5z M216.5,69.6c0.6,0.1,1.2,0.4,1.4,0.3c1.4-1.6,2.8-3.4,4.1-5.1
				c-0.7-0.5-1.9,0.6-2.1-0.8c-0.2,0.1-0.4,0.1-0.5,0.2c-0.7,0.3-1.4,0.6-2,1c-0.4,0.3-0.9,0.6-1,1c-0.8,1.6-1.4,3.3-2.1,5
				c-0.1,0.3-0.1,0.6-0.1,1c0.6,0,1.3,0.1,1.9,0c0.2,0,0.4-0.4,0.4-0.7C216.5,70.9,216.5,70.2,216.5,69.6z M186.7,134.4
				c0.3-0.2,0.5-0.2,0.5-0.3c3.2-3.7,5.9-7.7,8.5-11.8c0.7-1.2,0.9-2.3,0.3-3.7C192.6,123.7,189.2,128.7,186.7,134.4z M222.6,59.5
				c0.2,0.8,0.2,1.2,0.4,1.6c0.1,0.1,0.6,0.2,0.7,0.1c1.9-2.7,3.8-5.4,5.7-8.1c0.6-0.9-0.5-1.2-0.6-1.8c-0.4,0.1-0.8,0.2-1.2,0.5
				c-0.2,0.1-0.3,0.4-0.5,0.7c-1,1.4-2,2.7-2.9,4.1C223.6,57.5,223.1,58.7,222.6,59.5z M239.5,141.9c0.1,0,0.2,0,0.4,0
				c0.1-0.1,0.2-0.2,0.3-0.3c1.7-3.3,3.3-6.7,5-10c0.4-0.7,0.3-1.3-0.3-1.9c-0.4,0.4-1,0.7-1.2,1.2c-1.4,3.1-2.8,6.2-4.1,9.3
				C239.4,140.8,239.6,141.4,239.5,141.9z M242.7,128.3c-0.1-0.1-0.2-0.1-0.3-0.2c-0.4,0.4-1,0.8-1.3,1.3c-1.3,2.9-2.5,5.9-3.7,8.8
				c-0.1,0.3,0.3,0.8,0.5,1.2c0.2-0.2,0.5-0.4,0.7-0.7c1.3-2.8,2.6-5.6,3.9-8.5C242.7,129.8,242.6,129,242.7,128.3z M266,131
				c-0.1,0.2-0.3,0.3-0.4,0.5c1,1,1.8,2.3,2.9,3c1.8,1.2,3.9,2.2,5.9,3.2c0.9,0.4,1.9,0.6,2.8,0.9c0-0.1,0.1-0.3,0.1-0.4
				C273.5,135.8,269.8,133.4,266,131z M251.9,150.9c1.1,0.1,1.3-0.7,1.4-1.5c0.4-2.5,0.8-5,1.1-7.5c0-0.1-0.5-0.5-0.6-0.4
				c-0.3,0.2-0.6,0.5-0.7,0.8c-0.8,2.4-1.5,4.9-2.2,7.3C250.6,150.7,251.2,150.9,251.9,150.9z M239,65.5c-1.3,0-2.2,0-3,0
				c-2.8,0-2.9,0-2.4,2.8c0.1,0.4,0.3,1.2,0.4,1.2c0.9,0,1.9-0.1,2.8-0.3c0,0,0.1-0.4,0-0.5c-0.6-1,0.1-1.5,0.8-2
				C237.9,66.4,238.3,66.1,239,65.5z M233.8,71.7c-1.6,0.4-3,0.7-4.4,1.1c-0.8,0.3-0.2,0.7,0.1,0.9c1.5,1.1,1.5,1.1,0.5,2.8
				c-0.1,0.2-0.3,0.4-0.3,0.5c0.1,0.4,0.3,0.7,0.5,1.1c0.3-0.1,0.6-0.2,0.7-0.5c1-1.7,1.9-3.5,2.8-5.2
				C233.9,72.4,233.8,72.1,233.8,71.7z M260.5,58.1c-0.1,0-0.2,0.1-0.3,0.1c0,0.5,0,0.9,0,1.4c0,0.4-0.1,0.8-0.3,1.1
				c-0.7,0.9-1.6,1.8-2.2,2.7c-0.5,0.7-0.6,1.7-0.9,2.5c0.1,0.1,0.2,0.1,0.4,0.2c0.1-0.1,0.3-0.1,0.4-0.3c1.4-1.7,2.8-3.3,4.2-5
				c0.1-0.1,0.2-0.5,0.1-0.6C261.5,59.5,261,58.8,260.5,58.1z M256.1,77.3c-0.1-0.1-0.1-0.1-0.2-0.2c-0.4,0.2-0.8,0.4-1.2,0.7
				c-0.9,0.6-1.9,1.3-2.8,1.9c0.7,0.9,1.3,1.9,2,2.8c0.4,0.5,0.7,1.1,1.5,0.4c0.8-0.7,0.2-1.1-0.3-1.4c-0.8-0.6-0.9-1.1-0.3-1.9
				C255.3,78.8,255.6,78,256.1,77.3z M278.5,147.3c0.3-1.8,0.6-3.5,0.9-5.2c0.2-1.2-0.2-1.9-1.4-2.5c-0.2,1.9-0.4,3.7-0.5,5.6
				C277.4,146,277.4,146.8,278.5,147.3z M277.4,102.3c-0.2-1.1-1.6-2.9-2.5-2.6c-0.3,0.1-0.4,1.2-0.6,1.9c0,0.1-0.1,0.2-0.1,0.3
				c0.1,0.5,0,1.2,0.2,1.5c0.5,0.4,1.4,0.8,1.9,0.6C276.8,103.8,277.1,102.9,277.4,102.3z M249.4,141.6c-0.5,2.5-2.2,4.5-1.4,7
				C249.8,147.2,250.4,144.2,249.4,141.6z M274.7,97.2c1.6,0,3.3,0,4.9,0c0.2,0,0.4-0.2,0.7-0.3c-0.2-0.1-0.4-0.3-0.7-0.3
				c-0.6,0-1.3,0-1.9,0c-2.6,0-5.1,0-7.7,0c-0.3,0-0.6,0.3-0.8,0.4c0.3,0.1,0.6,0.2,0.8,0.2C271.6,97.2,273.1,97.2,274.7,97.2z
				 M186.6,124.5c0.7-2,1.4-3.9,2-5.7c-0.1,0-0.2-0.1-0.3-0.1c-0.7,1.1-1.3,2.1-2,3.2C185.7,122.7,185.7,123.6,186.6,124.5z
				 M238.8,126.9c-0.1,0-0.2-0.1-0.3-0.1c-0.6,1.4-1.2,2.9-1.7,4.4c-0.1,0.2,0,0.6,0.1,0.8c0.3-0.2,0.9-0.3,0.9-0.5
				C238.1,130,238.4,128.4,238.8,126.9z"/>
			<path class="st1" d="M172.3,118.6c-0.8,0.4-1.6,0.8-2.4,1.4c-0.3,0.2-0.5,0.8-0.4,1.2c0.7,4.7,1.5,9.4,2,14.2
				c0.2,1.8-0.2,3.7-0.3,5.5c0,0.1-0.1,0.2-0.1,0.3c0.3,2.8-1.1,5.2-2.3,7.5c-3.9,7.9-8,15.6-12.1,23.4c-0.3,0.6-0.7,1-1.1,1.6
				c-0.6,0.8-0.7,1.6,0.1,2.4c0.5,0.5,0.4,0.8-0.1,1.3c-1.1,1.1-2,2.3-3.8,2.3c-0.4,0-0.9,0.6-1.2,1c-1.4,2.7-2.8,5.5-4.1,8.2
				c-0.4,0.8-0.8,0.9-1.4,0.2c-0.8-1-1.2-0.6-1.7,0.3c-1,1.8-2.2,3.5-3.2,5.3c-0.6,1.1-1.1,2.4-1.1,3.6c-0.1,3.9-1.2,7.3-3.1,10.6
				c-1.9,3.3-3.4,6.9-5.1,10.3c-0.1,0.1-0.2,0.3-0.1,0.4c0.6,1.4-0.6,2.2-1,3.2c-0.8,1.8-1.4,3.7-2.1,5.6c-1.1,2.9-2.2,5.8-3.4,8.7
				c-0.1,0.4-0.4,0.7-0.6,1c-1.5,2-2.5,4.2-3.3,6.6c-0.6,1.8-1.8,3.4-2.7,5.1c-0.2-0.2-0.5-0.4-0.8-0.6c-0.9,2.5-1.8,5-2.7,7.5
				c-0.9,1.4-1.7,2.8-2.6,4.2c-0.2,0.3-0.6,0.6-0.9,0.9c-0.2-0.5-0.6-1.1-0.6-1.6c0-0.7,0.3-1.5,0.4-2.2c0.7-3.2,1.2-6.5,2.2-9.5
				c0.8-2.1,2.3-3.9,3.7-5.8c0.9-1.2,2.1-2.2,3-3.4c0.4-0.5,0.8-1.2,1-1.9c0.6-2.2,1.2-4.5,1.8-6.8c0.2,0.7,0.3,1.5,0.5,2.4
				c1-1.8,2-3.4,2.9-5c0.6-1.2,1.2-2.5,1.7-3.8c0.1-0.3-0.3-0.8-0.4-1.1c-0.2,0.2-0.6,0.4-0.7,0.7c-0.3,0.7-0.6,1.4-0.8,2.1
				c-0.3,1.2-1,1.9-2.4,1.8c0.1-0.7,0-1.5,0.3-2.1c1.2-2.7,2.5-5.4,3.8-8.1c0.8-1.6,0.8-3.3,0.8-5c0.4-0.3,1.1-0.4,1.3-0.8
				c3-5.8,5.8-11.6,8.8-17.4c0-0.1,0-0.2,0-0.3c0.3-0.4,0.8-0.7,0.9-1.1c1.3-3.6,2.5-7.2,3.8-10.8c0.2-0.6,0.4-1.1,0.8-1.6
				c1-1.2,2-2.3,3-3.4c0.4,0.3,0.8,0.5,1.2,0.8c-0.4,1.2-0.9,2.4-1.3,3.6c-0.6,1.7-1.3,3.4-1.9,5.1c0.2,0.1,0.3,0.2,0.5,0.2
				c0.9-1.5,1.9-2.9,2.8-4.4c2-1.7,3.5-3.9,4.8-6.2c0.2-0.2,0.3-0.4,0.5-0.7c2-3.5,3.9-7,5.8-10.6c2.8-5.1,5.5-10.3,8.2-15.4
				c0.6-1.2,0.9-2.5,1.5-3.6c1.6-2.8,2-5.9,1.8-9c-0.2-4.8-0.9-9.5-1.4-14.3c-0.2-2.2-0.5-4.3-1-6.5c-0.4-2-1.1-3.9-1.5-5.9
				c-0.7-3.5-0.5-5.4,0.7-8.3c0.2,1.3,0.3,2.4,0.4,3.5c0.2,2.2,0.5,4.4,0.8,6.5c0,0.2,0.4,0.4,0.5,0.7c0.1-0.1,0.3-0.2,0.4-0.4
				c0.3-1.3,0.7-2.5,1-3.8c0.2-0.9-0.1-1.6-0.8-2.2c-0.5-0.4-0.9-1-1-1.6c-0.2-1.4-0.3-2.8-0.3-4.3c0-0.1,0.5-0.4,0.7-0.3
				c0.6,0.2,0.9,0.2,1.1-0.4c0.5-1.8,1.6-3.1,2.8-4.5c0.9-1,1.8-1.8,2.9-2.5c0.3-0.2,0.5-0.6,0.7-0.9c0.5-1,0.8-2.2,1.5-3.1
				c1.4-1.6,2.9-3.1,4.5-4.6c1.6-1.5,2.8-3.2,2.9-5.4c0-0.4,0.2-0.9,0.5-1.3c2.7-3.4,5.3-6.9,8.3-10.1c2.4-2.6,4.2-5.8,7.6-7.4
				c0.3-0.1,0.6-0.5,0.8-0.7c1.2-1.4,2.2-3.1,4.3-3.6c1-0.2,1-1.4,0.1-2c-0.6-0.3-0.5-0.6-0.1-1c1-1.2,2-2.3,3-3.5
				c1.3-1.5,3-2.8,1.7-5.2c-0.2-0.3-0.4-0.6-0.5-0.8c-0.2,0.3-0.5,0.5-0.7,0.8c-1.6,2.7-3.1,5.3-4.6,8c-0.3,0.4-0.7,0.8-1,1.1
				c0-0.4,0-0.9-0.1-1.3c-0.1-0.3-0.3-0.6-0.6-0.7c-0.3,0-0.8,0.3-0.8,0.4c0.1,1.2-0.8,1.3-1.6,1.5c-0.7,0.1-0.7,0.4-0.3,0.9
				c0.5,0.5,1.1,1,1.9,1.6c-0.7,0.2-0.9,0.3-1.2,0.4c-4.1,0.8-8.2,1.3-12.4,1.8c-4.6,0.5-9.2,1.1-13.6,2.8c-0.5,0.2-1,0.3-1.5,0.5
				c-3.5,0.9-7,1.8-10.5,2.8c-1.5,0.4-3,1.1-4.5,1.7c-0.2,0.1-0.3,0.2-0.5,0.3c0.1,0.2,0.3,0.5,0.4,0.5c0.3,0.1,0.6,0.1,0.9,0
				c3.1-0.9,6.2-1.7,9.3-2.6c0.5-0.1,1.1-0.2,1.6-0.3c0,0.1,0.1,0.2,0.1,0.3c-0.7,0.4-1.5,0.8-2.2,1.1c-2,0.9-2.8,2.6-2.7,4.5
				c0,1.3-0.2,2.4-0.7,3.5c-0.1,0.3-0.1,0.9,0.1,1.2c1.1,1.5,2.2,2.9,3.3,4.2c0.2,0.2,0.5,0.3,0.8,0.3c2.8-0.4,5.5-1.1,8.3-1.3
				c1.6-0.2,3.2,0.2,5,0.4c-1.5,1-1.8,1-4.1,1.1c-0.5,0-1.2,0.1-1.4,0.4c-0.4,0.9-1,0.8-1.8,0.8c-0.9,0-1.8,0.2-2.7,0.2
				c-1.7,0-3.4,0.7-5-0.8c-0.9-0.8-2-1.4-2.1-2.8c0-0.3-0.2-0.7-0.5-1c-2.6-3-5.2-5.9-7.9-8.9c-0.2-0.2-0.5-0.3-0.8-0.4
				c0,0.5,0.1,0.8,0.3,1c1.3,1.9,2.6,3.7,3.9,5.6c-0.1,0.1-0.1,0.1-0.2,0.2c-0.2,0.1-0.6,0.2-0.6,0.3c-0.1,0.5-0.1,1,0,1.5
				c0,0.7-0.2,1-0.9,1c-3.3,0.2-6.3-0.1-8.9-2.4c-0.1-0.1-0.2-0.2-0.3-0.2c-0.3,0.1-0.7,0.1-0.8,0.3c-0.2,0.2-0.1,0.6-0.2,0.9
				c-1.2-0.6-2.2-1.8-3.8-1.6c2.2,2.5,7.3,6.3,12.5,9.2c-0.2,0.5-0.2,1.2-0.6,1.6c-0.6,0.6-1.3,1.1-2,1.7c-0.9,0.7-1.7,1.5-2.9,1.4
				c-0.2,0-0.7,0.5-0.7,0.7c0.1,0.9-0.5,1-1.2,1.2c-0.7,0.2-1.1,0.1-1.5-0.6c-0.2-0.4-1-0.7-1.5-0.8c-1.3-0.3-2.5-0.5-3.8-0.6
				c-1.2-0.2-2.4-0.3-3.6-0.4c0,0.2-0.1,0.4-0.1,0.6c1.2,0.4,2.4,0.8,3.5,1.1c0.5,0.2,1.3,0.1,1.6,0.4c0.8,1.1,1.8,1.1,3,0.9
				c0.2,0,0.5,0.1,0.7,0.2c-0.2,0.2-0.3,0.5-0.5,0.6c-1.1,0.4-2.2,1.3-3.4,0.3c0,0-0.1,0-0.1,0c-2.1-0.1-4.1-0.2-6.2-0.2
				c-2.7,0-5.3,0-8,0c0,0.1,0,0.1,0,0.2c2.3,0.6,4.6,1.2,6.8,1.7c-0.3,0.4-0.8,0.8-1.1,1.4c-0.6,1.1-0.2,1.6,1,1.7
				c2.3,0.2,4.5-0.1,6.4-1.6c0.1-0.1,0.3-0.3,0.4-0.2c0.2,0.1,0.5,0.3,0.5,0.4c0,0.3-0.2,0.6-0.3,0.9c-0.1,0.3-0.1,0.5-0.2,0.8
				c0.3,0,0.6,0,0.9,0c0.4,0,0.7,0,1.1,0.1c-0.1,0.3-0.2,0.7-0.4,1c-2,3-4.1,6-6.1,9c-0.2,0.2-0.4,0.4-0.8,0.8c0-0.5,0-0.9,0.1-1.1
				c0.5-1.1,0.9-2.2,1.5-3.2c1-1.8,2-3.5,3.1-5.2c0-0.1,0-0.1,0.1-0.2c-0.1,0-0.1,0.1-0.2,0.1c-0.8,0.6-1.7,1.2-2.3,2
				c-1.5,2-2.8,4-4.3,6.1c-0.1,0.2-0.4,0.3-0.6,0.5c-0.1-0.3-0.2-0.6-0.2-0.9c0-0.3,0.2-0.5,0.3-0.8c0.6-1.2,1.2-2.3,1.8-3.5
				c0-0.1,0.1-0.2,0.1-0.3c0,0.1,0,0.2-0.1,0.3c-1.7,1.2-3.4,2.3-5,3.4c1.8,0.5,1.8,0.5,0.5,2.1c-0.2,0.3-0.5,0.5-0.7,0.8
				c-0.6,0.9-1.3,1.6-2.5,1.5c0,0,0,0,0,0c0.3-0.8,0.6-1.5,0.9-2.3c0.1-0.4,0.2-0.8,0.3-1.2c-0.5,0-1-0.1-1.5,0
				c-0.2,0-0.5,0.3-0.6,0.5c-0.6,0.7-1.2,1.4-1.8,2c-0.2,0.2-0.5,0.2-0.8,0.3c0-0.3-0.2-0.7-0.1-1c0.2-0.5,0.5-1.1,0.8-1.7
				c-1.8,0.3-2.4,0.7-2.1,1.8c0.3,1.2-0.3,1.3-1.2,1.5c-4.5,0.8-9.1,1.5-13.6,2.5c-4.2,0.9-8.4,1.9-12.5,3
				c-4.3,1.2-8.4,2.8-12.7,3.8c-2.9,0.7-5.3,2.5-7.9,3.8c0.9,0.1,1.7,0.1,2.6,0.1c0.2,0,0.4,0.2,0.7,0.3c-0.3,0.6-0.4,1.5-0.9,1.7
				c-1.6,0.8-3.4,1.4-5.1,2c-3.9,1.2-7.8,2.3-11.6,3.6c-4.6,1.6-9.4,3-13.5,5.7c-0.9,0.6-2.1,0.7-3.1,1c0-1.7,1-3,1.8-4.4
				c5.1-8.1,10.1-16.2,15.3-24.2c1.3-2,2.9-3.9,4.7-5.6c2.4-2.4,4.1-5.4,6-8.2c2-2.9,4.1-5.8,6.1-8.7c0,0.2,0,0.3,0,0.5
				c-0.7,1.8-1,3.8-2.2,5.4c-0.2,0.3-0.1,0.8-0.2,1.3c0.4-0.1,0.8-0.2,1.1-0.3c0.2-0.1,0.3-0.2,0.5-0.4c2-1.6,3.9-3.1,5.9-4.7
				c0.3-0.1,0.7-0.2,1-0.3c0.5,1.5,0.9,2.9,1.4,4.4c-0.2,0.4-0.3,0.9-0.5,1.2c-1.1,1.2-2.2,2.4-3.3,3.6c-0.6,0.7-1.2,1.6-1.8,2.4
				c0.1,0.1,0.2,0.2,0.4,0.4c1-0.7,2.1-1.4,3-2.2c1-0.9,1.9-2,2.6-3.1c0.6-0.9,1-2,1.5-3c0,0,0,0,0,0c0.1-0.1,0.2-0.2,0.3-0.2
				c0.6-0.9,1.4-1.3,2.4-1.7c1.7-0.7,3-2.2,4.3-3.4c0.2-0.2,0-1.1-0.2-1.6c-0.5-0.9-0.2-1.4,0.7-1.9c5.5-2.9,10.9-5.9,16.5-8.6
				c7-3.4,14.1-6.6,21.2-9.8c5.9-2.7,11.8-5.4,17.8-8c1.6-0.7,3.2-1.1,4.9-1.6c0.7-0.2,1.3,0.1,1.4,0.9c-3.3,1.3-6.5,2.6-9.8,3.9
				c-0.5,0.2-1.1,0.5-1.5,0.9c-0.2,0.2-0.3,0.5-0.4,0.8c0.3,0,0.5,0,0.8-0.1c2.6-0.9,5.2-1.8,7.7-2.9c1.3-0.6,2.5-1.7,3.7-2.5
				c0.3,0,0.7,0.1,0.9,0.1c1.8-0.6,3.5-1.2,5.3-1.9c0.6-0.2,1.1-0.5,0.4-1.2c-0.5-0.4-0.3-0.8,0.2-1c0.4-0.2,0.8-0.4,1.2-0.6
				c8-2.7,16-5.5,24-8c4.4-1.4,8.9-2.4,13.4-3.5c0,0.4,0.2,0.9,0,1.2c-0.2,0.4-0.7,0.6-1.1,0.9c-0.2,0.1-0.3,0.3-0.5,0.5
				c0.2,0.1,0.4,0.3,0.6,0.4c0.3,0.1,0.7,0.2,1,0.1c1.3-0.2,2.5-0.4,3.7-0.6c1.1-0.2,2.1-0.3,3.2-0.4c0-0.1,0.1-0.2,0.1-0.3
				c-0.4-0.3-0.8-0.7-1.2-1c-0.6-0.3-1.3-0.6-1.9-0.9c3.7-1.9,7.6-3.2,11.7-4c2.4-0.5,4.9-0.8,7.3-1.2c0,0.8-0.2,1.4-1.1,1.6
				c-2,0.4-4,0.8-5.9,1.2c-1.7,0.3-3.4,0.6-5.1,0.9c0,0.1,0,0.3,0.1,0.4c3.2-0.3,6.5-0.6,9.8-0.9c-0.4,1.1-0.7,2.4-1.2,3.6
				c-0.3,0.9,0.4,1.1,0.8,1.5c0.2-0.2,0.6-0.5,0.7-0.8c0.5-0.8,1-1.6,1.5-2.5c0.9-1.7,1.6-3.5,0.9-5.5c2.3-1.2,4.5-2.6,6.8-3.7
				c2.8-1.3,4.9-3.4,6.9-5.6c3.1-3.6,6.2-7.2,9.3-10.9c1.2-1.4,2.6-1.7,4.2-1.3c2.2,0.6,4.4,1.3,6.6,2c0.3,0.1,0.5,0.5,0.7,0.8
				c-3-0.2-6-0.4-8.9-0.5c-0.8,0-2.7,1.3-2.9,2c0,0.1-0.1,0.3,0,0.3c0.8,1.2,0.1,2.1-0.5,2.9c-0.6,0.9,0,1,0.6,1.3
				c0.9,0.5,1.9,1,2.8,1.6c-0.1,0.2-0.1,0.3-0.2,0.5c-0.5-0.1-1.1-0.2-1.6-0.4c-1.3-0.4-2.7-0.8-4-1.3c-1.1-0.4-1.8-0.3-2.6,0.7
				c-1.1,1.6-2.4,3.1-3.6,4.6c-0.4,0.4-0.9,0.9-1.4,1c-1.3,0.4-2,1.2-2.5,2.4c-0.4,1.1-1.2,1.7-2.1,2.3c-2.2,1.7-4.2,3.7-6.3,5.5
				c-0.1,0.1-0.1,0.5-0.1,0.8c0.4,0,1,0.1,1.2-0.1c1.3-1.2,2.5-2.4,3.7-3.6c0.3-0.3,0.7-0.5,1-0.8c0,0,0.1,0.1,0.1,0.1
				c-0.2,0.5-0.4,0.9-0.5,1.4c0,0-0.1,0-0.1,0c0,0,0,0,0,0.1c0,0,0.1-0.1,0.1-0.1c0.9-0.8,1.8-1.5,2.7-2.4c1.5-1.5,2.9-3.1,4.4-4.6
				c0.4-0.4,1-0.4,1.6-0.7c0.1,0.1,0.2,0.2,0.2,0.4c-1.3,1.9-2.5,3.8-3.8,5.6c-0.1,0.1-0.5,0-0.8-0.1c-0.3-0.1-0.5-0.4-0.8-0.6
				c-0.1,0.3-0.2,0.6-0.2,0.9c0.1,0.8-0.3,1.3-1,1.7c-1.7,1.2-3.7,2.2-5.1,3.8c-1.4,1.7-3.2,2-4.9,2.9c-0.4,0.2-0.7,0.7-0.8,1.1
				c0,0.7-0.3,1.1-0.9,1.5c-0.6,0.4-1.1,1.1-1.4,1.7c-0.5,1-1.2,1.6-2.3,1.9c-0.3,0.1-0.7,0.6-0.6,0.8c0.3,0.9-0.2,1.1-0.9,1.3
				c-0.6,0.2-1.1,0.4-1.8,0.7c0.4,0.4,0.7,0.6,1.1,0.9c-0.4,0.3-0.7,0.6-1.1,0.9c-0.1,0.1-0.2,0.2-0.3,0.2c-1,0.6-1.5,1.2-0.2,2.1
				c-0.9,0.4-1.7,0.8-2.6,1c-0.8,0.3-1,0.6-0.3,1.2c0.9,0.7,0.5,1-0.3,1.2c-0.9,0.2-1.9,0.5-2.8,0.7c-0.2,0.1-0.3,0.3-0.5,0.4
				c0.2,0.1,0.4,0.3,0.5,0.3c0.4,0.1,0.8,0,1.2,0c0.1,0.1,0.1,0.2,0.2,0.3c-1.1,1.2-2.2,2.4-3.4,3.5c-1.2,1.1-2.5,2-2.7,3.8
				c-0.1,1.1-1,1.2-1.9,1.2c-0.4,0-0.7,0.1-1.1,0.2c0.2,0.3,0.4,0.6,0.6,0.8c0.6,0.5,0.3,0.8-0.1,1.3c-2,2.3-4,4.6-5.9,6.9
				c-0.3,0.3-0.5,0.8-0.9,1.3c1.5,0,2.3-0.7,3-1.6c1.9-2.5,3.9-5,5.8-7.4c3.5-4.5,7.1-9,10.6-13.5c3.2-4,6.5-8.1,9.7-12.1
				c0.2-0.3,0.5-0.6,0.8-0.8c0.3-0.2,0.6-0.3,0.9-0.4c-0.1,0.3-0.1,0.7-0.3,0.9c-1.5,2.1-3,4.1-4.5,6.2c-2.8,4-5.6,7.9-8.4,11.9
				c-0.2,0.3-0.4,0.7-0.8,0.9c-3.6,2.4-5.6,6.3-8.5,9.3c-0.8,0.9-1.3,2.1-1.9,3.2c-0.3,0.5-0.6,1.1-1,1.5c-0.8,0.7-1.1,1.7-1.5,2.6
				c-0.4,0.9-1.3,1.7-2.2,2.4c-1.3,1.1-2.3,2.4-3.1,4c-0.7,1.6-2,2.8-3,4.3c-1.5,2.1-3,4.2-4.5,6.3c-0.4,0.6-1,1.1-1.5,1.6
				c-1,0.4-2,0.8-2.9,1.2c-3.5,1.3-7,2.5-10.4,3.8c-0.2,0.1-0.6,0.5-0.6,0.7c0.8,1.7,3.3,1.9,4.4,0.4c0.3-0.3,0.7-0.6,1.1-0.7
				c0.5-0.1,1.1-0.1,1.7-0.1c0.6,0.3,1.1,0.7,1.7,1c1.7,0.9,2,1.3,1.6,3.1c-0.1,0.7-0.6,1.3-0.9,1.9c-0.4,0.8-0.8,1.5-1.2,2.3
				c-0.1,0.7-0.1,1.5-0.2,2.2c-0.7,2.1-1.5,4.1-2.2,6.3c-1.1,3.7-2.1,7.3-3.2,11c-0.1,0.3-0.1,0.6-0.3,0.8c-0.4,0.3-0.9,0.4-1.3,0.6
				c0-0.3-0.1-0.7,0-1c1.2-3.9,2.5-7.8,3.6-11.7c0.3-1.1,0.3-2.3,0.4-3.5c0.8-0.7,1.7-1.4,1.4-3.1
				C177.8,114.6,175.1,116.6,172.3,118.6z M69.4,116.9c0.2-0.1,0.3-0.2,0.5-0.2c3.8-1.2,7.4-2.7,10.5-5.5c-4.2,0.8-7.4,3-10.5,5.5
				C69.7,116.7,69.5,116.8,69.4,116.9C69.3,116.9,69.3,116.9,69.4,116.9c-0.1,0.1-0.1,0.1-0.1,0.1C69.3,116.9,69.3,116.9,69.4,116.9
				z M148.3,83.8L148.3,83.8L148.3,83.8c-0.5-0.4-0.9-0.9-1.5-1.2c-3.6-1.7-7.2-3.3-10.9-4.9c-0.2-0.1-0.5,0-0.7,0
				c0.1,0.3,0.1,0.7,0.2,0.8c0.2,0.2,0.6,0.4,0.9,0.5c2,0.8,3.9,1.7,5.9,2.5C144.3,82.2,146.3,83,148.3,83.8z M115,89.6
				c0.8-0.5,1.7-0.9,2.4-1.4c1.5-1.1,2.9-2.4,4.3-3.6c0.3-0.3,0.3-0.8,0.4-1.3c-0.3,0.1-0.7,0.1-1,0.2c-0.7,0.3-1.5,0.6-2.2,1
				c-0.7,0.4-1.6,0.7-2,1.3c-0.8,1.2-1.4,2.5-2,3.8c0,0.1-0.1,0.1-0.1,0.2C114.9,89.6,115,89.6,115,89.6z M113,91.9
				c-2.5,1.8-4.1,4.4-5.9,6.8c-0.9,1.2-2.2,2.3-3.6,2.9c-5.2,2-10.5,3.8-15.7,5.8c-1.9,0.7-3.7,1.7-5.6,2.6c0,0.1,0.1,0.2,0.1,0.3
				c0.5-0.1,1-0.3,1.5-0.4c7.2-2.3,14.4-4.6,21.5-7.1c8.1-2.9,16.3-4.7,24.9-5.5c1.3-0.1,2.7-0.4,4-0.7c0.4-0.1,0.7-0.6,1-0.9
				c-0.3-0.1-0.6-0.3-1-0.4c-0.3-0.1-0.6-0.2-0.9-0.2c-3.6,0.5-7.2,0.9-10.8,1.6c-3.1,0.6-6,1.7-9.1,2.5c-1.8,0.5-3.7,0.8-5.9,1.2
				c1.1-1.4,2-2.4,2.8-3.6c1.1-1.6,2-3.2,3-4.9c0-0.1,0.1-0.1,0.1-0.2C113.1,91.8,113.1,91.9,113,91.9z M66.4,117.7
				c0.7-0.5,1.1-0.6,1.3-0.9c0.4-0.5,0.7-1.1,1-1.6c2.2-3.9,4.7-7.5,8.2-10.3c0.7-0.6,1.5-1.2,2.1-1.9c0.3-0.3,0.3-0.8,0.4-1.3
				c-0.3,0.1-0.7,0.1-1,0.2c-0.5,0.2-1,0.4-1.4,0.7c-4.5,4-8.1,8.6-10.8,14C66.1,116.8,66.3,117.1,66.4,117.7z M130.7,65.5
				c1.4,0.7,2.4,0.5,3.6-0.1c3.3-1.8,6.7-3.5,10.1-5.2c0.5-0.3,0.9-0.7,1.3-1.1c-0.6,0-1.3-0.2-1.9,0c-3.8,1.6-7.5,3.3-11.3,5
				C131.9,64.4,131.4,64.9,130.7,65.5z M89,96.5c0,0.1,0,0.3,0,0.4c0.4,0,0.9,0.2,1.3,0.1c1-0.2,1.9-0.4,2.9-0.6
				c5.4-1.5,11-2.5,16.6-3c0.3,0,0.7-0.3,0.8-0.5c0.1-0.2-0.2-0.7-0.4-0.8c-0.5-0.2-1.2-0.4-1.7-0.3c-3.9,1-7.8,2.1-11.7,3.1
				C94.1,95.4,91.6,95.9,89,96.5z M114,75.2c0.5,0.2,0.8,0.3,1.1,0.4c3.8,0.9,7.6,1.9,11.5,2.8c0.4,0.1,1-0.2,1.6-0.3
				C126.4,76.3,116.8,74.4,114,75.2z M94.7,97.5c0,0.2,0,0.3,0,0.5c0.6,0,1.2,0.2,1.8,0.1c3.3-0.4,6.6-0.9,9.9-1.5
				c0.7-0.1,1.3-0.7,2-1c-0.1-0.2-0.1-0.4-0.2-0.5C103.6,95.4,99.2,96.8,94.7,97.5z M199.2,46.5c-1,2.5-2,4.9-2.9,7.4
				c-0.1,0.1,0,0.5,0.1,0.5c0.5,0.1,1.1,0.3,1.5,0.2c0.3-0.1,0.5-0.7,0.6-1.1c0.1-0.5,0-1.2,0.3-1.6
				C199.6,50.2,199.4,48.4,199.2,46.5z M125.1,67.8c0,0,0-0.1,0-0.1c-0.5,0.2-1,0.3-1.5,0.5c-1.9,0.8-3.8,1.6-5.6,2.5
				c-0.5,0.2-1,0.7-0.4,1.2c0.3,0.3,1,0.4,1.3,0.2C120.9,70.7,123,69.2,125.1,67.8z M132.5,76.1c-0.8-1.7-6.7-3.4-10-2.9
				C125.9,74.1,129.2,75.1,132.5,76.1z M121.9,72.8L121.9,72.8L121.9,72.8L121.9,72.8z M144.6,187.1L144.6,187.1L144.6,187.1
				L144.6,187.1z"/>
			<path class="st2" d="M146.6,177c-1,1.1-2.1,2.2-3,3.4c-0.4,0.4-0.6,1-0.8,1.6c-1.3,3.6-2.5,7.2-3.8,10.8
				c-0.2,0.4-0.6,0.7-0.9,1.1c-3.8-1.2-7.5-2.4-11.3-3.6c-0.8-0.3-1.2-0.6-1-1.6c0.3-1.1,0.2-2.4,1.3-3.2c0.2-0.2,0.2-0.8,0.2-1.2
				c0.6-2.2,1.2-4.4,1.7-6.7c0.2-0.9,0.6-1.8,0.5-2.7c-0.2-1.7,0.5-2.7,1.7-3.7c0.3-0.3,0.6-0.7,0.7-1.2c0.4-2-0.8-3.4-1.9-4.9
				c-0.1-0.2-0.5-0.2-0.8-0.2c-0.8,0.1-1.6,0.2-2.5,0.4c-0.8,0.2-1.5,0-2.1-0.6c-1.4-1.6-3-3-4.9-4c-0.7-0.4-1.3-1-2-1.5
				c-0.9-0.6-1.8-1.4-2.8-1.8c-4.4-1.6-9.1-1.5-13.6-2.1c-3.7-0.5-7.4-0.8-11.1-1.3c-6-0.8-11.9-1.8-17.9-2.6
				c-5.3-0.8-10.6-1.5-15.9-2.2c-0.7-0.1-0.9-0.4-0.6-1.1c0.5-0.9,1.1-1.8,1.7-2.8c0.6-1,1.3-1.7,2.5-1.8c0.2,0,0.6-0.5,0.6-0.8
				c0.2-2.2,0.9-4.2,2.3-5.8c1.3-1.5,2.1-3.3,2.6-5.2c0.1-0.4,0.2-0.8,0.4-1.1c0.3-0.5,0.7-1,1.2-1.2c2.6-1,5.3-2,8-2.8
				c4.3-1.4,8.6-2.7,12.9-3.9c5.4-1.4,10.8-2.7,16.2-3.9c2.5-0.5,5-0.8,7.5-1.2c3.6-0.5,7.2-1.1,10.9-1.6c2.3-0.3,4.6-0.5,6.9-0.7
				c2.5-0.2,5-0.7,7.6,0.2c0.9,0.3,1.9,0.2,2.9,0.2c0.9,0.1,1.8,0,2.7,0.1c1.9,0.4,3.8,0.9,5.7,1.3c3.3,2.6,6.6,5.2,9.9,7.9
				c0.4,0.6,0.8,1.1,1.2,1.7c0.1,0.8-0.2,2,0.2,2.4c1.4,1.3,1.1,2.7,1.1,4.4c-0.1,3.1,0.4,6.3,0.5,9.4c0,0.9,0.1,1.9-0.2,2.7
				c-1.8,4.2-3.7,8.3-5.6,12.4c-0.6,1.3-1.3,2.5-1.9,3.7l0,0c-0.1,0.1-0.2,0.2-0.2,0.2c-0.1,0.1-0.2,0.2-0.3,0.4
				C151.1,167.7,148.8,172.4,146.6,177z M69.7,146.2c0,0.1,0.1,0.3,0.1,0.4c4.9-0.2,9.7-0.5,14.6-0.7c0-0.1,0-0.2,0-0.3
				c-0.1,0-0.3-0.1-0.4-0.1c-4.1,0-8.2,0-12.4,0C70.9,145.5,70.3,146,69.7,146.2z M130.9,187.5c-0.1,0.1-0.4,0.3-0.4,0.4
				c0,0.3,0.1,0.6,0.3,0.7c2.4,1.2,4.7,2.3,7.1,3.4c0.1,0,0.5-0.2,0.5-0.4c0-0.6-0.1-1.3-0.2-1.9c0-0.1-0.4-0.4-0.5-0.3
				c-1.4,0.9-2.4-0.2-3.6-0.6C133.1,188.4,132,188,130.9,187.5z"/>
			<path class="st0" d="M148.5,117.9c-1.9-0.5-3.8-1-5.7-1.3c-0.9-0.2-1.8-0.1-2.7-0.1c-1-0.1-2,0.1-2.9-0.2
				c-2.5-0.9-5.1-0.4-7.6-0.2c-2.3,0.2-4.6,0.4-6.9,0.7c-3.6,0.5-7.2,1-10.9,1.6c-2.5,0.4-5.1,0.6-7.5,1.2
				c-5.4,1.2-10.8,2.4-16.2,3.9c-4.3,1.1-8.6,2.5-12.9,3.9c-2.7,0.9-5.4,1.8-8,2.8c-0.5,0.2-0.8,0.8-1.2,1.2
				c-0.2,0.3-0.3,0.7-0.4,1.1c-0.6,1.9-1.3,3.6-2.6,5.2c-1.4,1.6-2.2,3.6-2.3,5.8c0,0.3-0.4,0.8-0.6,0.8c-1.2,0.1-1.9,0.8-2.5,1.8
				c-0.5,0.9-1.1,1.8-1.7,2.8c-0.3,0.6-0.1,1,0.6,1.1c5.3,0.7,10.6,1.4,15.9,2.2c6,0.8,11.9,1.8,17.9,2.6c3.7,0.5,7.4,0.7,11.1,1.3
				c4.6,0.7,9.2,0.5,13.6,2.1c1,0.4,1.9,1.2,2.8,1.8c0.7,0.5,1.3,1.1,2,1.5c1.9,1,3.5,2.4,4.9,4c0.6,0.7,1.3,0.8,2.1,0.6
				c0.8-0.2,1.6-0.3,2.5-0.4c0.3,0,0.7,0,0.8,0.2c1,1.5,2.3,2.9,1.9,4.9c-0.1,0.4-0.4,0.9-0.7,1.2c-1.2,0.9-1.9,2-1.7,3.7
				c0.1,0.9-0.3,1.8-0.5,2.7c-0.3-1.7-0.6-3.3-0.8-5c-0.2-1.4-0.2-1.5-1.6-1c-0.2,0.1-0.4,0.1-0.6,0.2c-2.8-1.6-5.6-3.3-8.5-4.9
				c-2.1-1.2-4.3-1.5-6.7-1.3c-0.2,0-0.6-0.1-0.6-0.2c0.1-1.1-0.8-1-1.4-1.2c-7.6-1.7-15.3-3.4-22.9-5.1c-8.6-1.9-17.3-3.7-25.9-5.6
				c-1.8-0.4-3.6-1.2-5.3-2.1c-1.4-0.7-2.2-0.2-2.9,0.9c-3.6,5.3-7.2,10.6-10.9,15.8c-1.7,2.3-3.7,4.3-5.5,6.5
				c-0.5,0.6-1,1.4-1.3,2.1c-1.3,2.6-3.6,3.8-6.6,4.5c0.9-2.7,1.7-5.2,2.6-7.7c0.3,0.5,0.7,0.9,0.9,1.4c0.5,0.9,1.7,1.1,2.2,0.2
				c0.9-1.8,1.6-3.6,2.3-5.4c0,0,0.1-0.1,0.1-0.1c0,0-0.1,0.1-0.1,0.1c-0.2,0.1-0.4,0.2-0.6,0.3c-1.7,0.9-3.4,1.8-5.1,2.6
				c0-1.2-0.2-2.5,0.1-3.6c1.9-6.3,5.1-12.1,8.6-17.6c3.2-5,6.3-10.1,8-15.8c0-0.1,0.1-0.3,0.2-0.4c1.1-0.3,2.3-0.4,3.1-1
				c4.1-2.8,8.9-4.2,13.5-5.7c3.8-1.3,7.8-2.4,11.6-3.6c1.7-0.6,3.5-1.2,5.1-2c0.5-0.2,0.6-1.1,0.9-1.7c-0.2-0.1-0.4-0.3-0.7-0.3
				c-0.9,0-1.7,0-2.6-0.1c2.6-1.3,4.9-3.1,7.9-3.8c4.3-1.1,8.4-2.7,12.7-3.8c4.1-1.1,8.3-2.1,12.5-3c4.5-0.9,9.1-1.7,13.6-2.5
				c0.9-0.2,1.5-0.3,1.2-1.5c-0.3-1,0.3-1.5,2.1-1.8c-0.3,0.6-0.6,1.1-0.8,1.7c-0.1,0.3,0,0.6,0.1,1c0.3-0.1,0.6-0.1,0.8-0.3
				c0.6-0.7,1.2-1.4,1.8-2c0.2-0.2,0.4-0.5,0.6-0.5c0.5-0.1,1,0,1.5,0c-0.1,0.4-0.2,0.8-0.3,1.2c-0.3,0.8-0.6,1.6-0.9,2.3
				c0,0-0.1,0-0.1,0c0,0,0,0,0,0.1c0,0,0.1-0.1,0.1-0.1c1.2,0.1,1.9-0.6,2.5-1.5c0.2-0.3,0.5-0.5,0.7-0.8c1.3-1.6,1.3-1.6-0.5-2.1
				c1.6-1.1,3.3-2.3,5-3.4l0,0c-0.6,1.2-1.2,2.3-1.8,3.5c-0.1,0.2-0.3,0.5-0.3,0.8c0,0.3,0.1,0.6,0.2,0.9c0.2-0.2,0.4-0.3,0.6-0.5
				c1.4-2,2.8-4.1,4.3-6.1c0.6-0.8,1.6-1.3,2.3-2c0,0,0.1,0.1,0.1,0.1c-1,1.7-2.1,3.5-3.1,5.2c-0.6,1-1,2.1-1.5,3.2
				c-0.1,0.3-0.1,0.6-0.1,1.1c0.4-0.4,0.7-0.5,0.8-0.8c2.1-3,4.1-6,6.1-9c0.2-0.3,0.2-0.6,0.4-1c-0.4,0-0.7-0.1-1.1-0.1
				c-0.3,0-0.6,0-0.9,0c0.1-0.3,0.1-0.5,0.2-0.8c0.1-0.3,0.3-0.6,0.3-0.9c0-0.1-0.3-0.3-0.5-0.4c-0.1,0-0.3,0.1-0.4,0.2
				c-1.9,1.5-4.1,1.8-6.4,1.6c-1.2-0.1-1.6-0.7-1-1.7c0.3-0.6,0.8-1,1.1-1.4c-2.2-0.6-4.5-1.2-6.8-1.7c0-0.1,0-0.1,0-0.2
				c2.7,0,5.3,0,8,0c2.1,0,4.1,0.1,6.2,0.2c0,0,0.1,0,0.1,0c1.2,1.1,2.3,0.1,3.4-0.3c0.2-0.1,0.3-0.4,0.5-0.6
				c-0.2-0.1-0.5-0.2-0.7-0.2c-1.2,0.2-2.2,0.1-3-0.9c-0.3-0.3-1-0.3-1.6-0.4c-1.2-0.4-2.4-0.8-3.5-1.1c0-0.2,0.1-0.4,0.1-0.6
				c1.2,0.1,2.4,0.2,3.6,0.4c1.3,0.2,2.6,0.3,3.8,0.6c0.6,0.1,1.3,0.4,1.5,0.8c0.4,0.8,0.7,0.9,1.5,0.6c0.6-0.2,1.2-0.3,1.2-1.2
				c0-0.2,0.4-0.7,0.7-0.7c1.3,0.1,2.1-0.6,2.9-1.4c0.7-0.6,1.4-1,2-1.7c0.3-0.4,0.4-1,0.6-1.6c0,0,0,0,0,0c1.1-0.3,2.2-0.5,3.1-1
				c0.3-0.2,0.4-1,0.4-1.5c0-0.2-0.6-0.5-0.9-0.5c-0.9,0-1.9,0.1-2.8,0.2c-0.1,0-0.3,0.3-0.3,0.5c0,0.4,0.1,0.7,0.2,1.1
				c-2.8-2.1-5.6-4.2-8.3-6.3c0.1-0.3,0-0.7,0.2-0.9c0.2-0.2,0.5-0.2,0.8-0.3c0.1,0,0.2,0.1,0.3,0.2c2.6,2.3,5.6,2.6,8.9,2.4
				c0.8-0.1,1-0.3,0.9-1c0-0.5,0-1,0-1.5c0-0.1,0.4-0.2,0.6-0.3c0.1,0,0.1,0.1,0.2,0.1c0-0.1,0-0.2,0-0.3c-1.3-1.9-2.6-3.7-3.9-5.6
				c-0.2-0.3-0.3-0.5-0.3-1c0.3,0.1,0.6,0.2,0.8,0.4c2.6,2.9,5.3,5.9,7.9,8.9c0.2,0.3,0.4,0.6,0.5,1c0.1,1.4,1.2,1.9,2.1,2.8
				c1.6,1.5,3.3,0.8,5,0.8c0.9,0,1.8-0.2,2.7-0.2c0.7,0,1.4,0,1.8-0.8c0.1-0.3,0.9-0.4,1.4-0.4c2.3-0.1,2.6-0.1,4.1-1.1
				c-1.9-0.2-3.5-0.5-5-0.4c-2.8,0.3-5.6,0.9-8.3,1.3c-0.2,0-0.6-0.1-0.8-0.3c-1.1-1.4-2.3-2.8-3.3-4.2c-0.2-0.3-0.2-0.9-0.1-1.2
				c0.5-1.1,0.8-2.2,0.7-3.5c-0.1-2,0.7-3.6,2.7-4.5c0.8-0.3,1.5-0.7,2.2-1.1c0-0.1-0.1-0.2-0.1-0.3c-0.5,0.1-1.1,0.1-1.6,0.3
				c-3.1,0.9-6.2,1.7-9.3,2.6c-0.3,0.1-0.6,0.1-0.9,0c-0.2-0.1-0.3-0.3-0.4-0.5c0.2-0.1,0.3-0.2,0.5-0.3c1.5-0.6,2.9-1.3,4.5-1.7
				c3.5-1,7-1.9,10.5-2.8c0.5-0.1,1-0.3,1.5-0.5c4.4-1.7,9.1-2.2,13.6-2.8c4.1-0.5,8.3-1,12.4-1.8c0.3-0.1,0.5-0.2,1.2-0.4
				c-0.7-0.6-1.3-1.1-1.9-1.6c-0.4-0.4-0.4-0.8,0.3-0.9c0.9-0.1,1.7-0.2,1.6-1.5c0-0.1,0.5-0.4,0.8-0.4c0.2,0,0.5,0.4,0.6,0.7
				c0.1,0.4,0.1,0.9,0.1,1.3c0.3-0.4,0.8-0.7,1-1.1c1.6-2.6,3.1-5.3,4.6-8c0.2-0.3,0.5-0.5,0.7-0.8c0.2,0.3,0.4,0.6,0.5,0.8
				c1.3,2.3-0.4,3.7-1.7,5.2c-1,1.2-2,2.4-3,3.5c-0.4,0.4-0.4,0.7,0.1,1c0.9,0.5,0.9,1.7-0.1,2c-2.1,0.5-3,2.2-4.3,3.6
				c-0.2,0.3-0.5,0.6-0.8,0.7c-3.4,1.6-5.2,4.8-7.6,7.4c-3,3.2-5.5,6.7-8.3,10.1c-0.3,0.3-0.5,0.8-0.5,1.3c-0.2,2.3-1.4,3.9-2.9,5.4
				c-1.5,1.5-3.1,3-4.5,4.6c-0.7,0.9-1,2.1-1.5,3.1c-0.2,0.3-0.4,0.7-0.7,0.9c-1.1,0.7-2,1.5-2.9,2.5c-1.2,1.4-2.3,2.7-2.8,4.5
				c-0.2,0.6-0.6,0.6-1.1,0.4c-0.2-0.1-0.7,0.2-0.7,0.3c0.1,1.4,0.1,2.9,0.3,4.3c0.1,0.6,0.5,1.2,1,1.6c0.7,0.6,1,1.4,0.8,2.2
				c-0.3,1.3-0.6,2.5-1,3.8c0,0.1-0.2,0.2-0.4,0.4c-0.2-0.2-0.5-0.4-0.5-0.7c-0.3-2.2-0.5-4.3-0.8-6.5c-0.1-1.1-0.3-2.2-0.4-3.5
				c-1.2,2.8-1.4,4.8-0.7,8.3c0.4,2,1.1,3.9,1.5,5.9c0.4,2.1,0.7,4.3,1,6.5c0.5,4.7,1.2,9.5,1.4,14.3c0.2,3.1-0.2,6.2-1.8,9
				c-0.7,1.1-0.9,2.5-1.5,3.6c-2.7,5.2-5.4,10.3-8.2,15.4c-1.9,3.5-3.9,7.1-5.8,10.6c-0.1,0.2-0.3,0.5-0.5,0.7
				c-0.1-0.1-0.2-0.2-0.3-0.2c-1.7,0.2-3.5,0.1-4.6,1.9c-0.4-0.3-0.8-0.5-1.2-0.8c2.2-4.7,4.5-9.3,6.7-14c0.1-0.1,0.2-0.2,0.3-0.4
				c0.1,0,0.1,0.1,0.2,0.1c0-0.1,0-0.2,0.1-0.3c0,0,0,0,0,0c0.2-0.1,0.5-0.2,0.7-0.4c0.4-0.2,0.7-0.5,1.1-0.7
				c-0.1,0.5-0.2,0.9-0.3,1.4c0,0.2-0.1,0.3-0.2,0.4c-0.5,1.4-0.9,2.7-1.4,4.1c0.4,0,0.5-0.1,0.6-0.2c1.3-2.3,2.6-4.6,3.8-6.9
				c1-2,2-4,3-6c1.7-3.3,3.5-6.5,4-10.2c0.2-1.3,0.7-2.3,1.5-3.1c0.8-0.8,0.8-1.5,0.3-2.5c-0.2-0.3-0.2-0.8-0.1-1.1
				c0.3-3.5,0.4-7-1.1-10.3c-1.3-2.7-2.8-5.4-4-8.2c-0.8-1.7-2-2.7-3.6-3.4c-0.6-0.2-0.9-0.2-1,0.4c-0.2,0.6-0.5,1.2-0.6,1.8
				c-0.1,0.5-0.1,1.1,0.1,1.4c1.1,2,2.2,4.1,3.5,6c0.7,1.1,0.7,1.8-0.4,2.4c-0.4-0.6-0.8-1.1-1.2-1.7c0-0.1,0.2-0.3,0.1-0.4
				c-0.8-1.7-1.4-3.5-2.3-5.1c-0.6-1-1.6-1.7-2.5-2.5c-0.2-0.1-0.9,0-0.9,0.2c-0.3,0.8-0.7,0.4-1.1,0.2c-0.4-0.3-0.8-0.6-1.2-0.9
				C149.6,116.7,148.9,116.9,148.5,117.9z M63.6,131.5c-0.4,0.2-0.8,0.5-1.1,0.7c-1.5-0.2-2.4,0.6-3.2,1.9
				c-2.1,3.8-4.4,7.6-6.7,11.3c-0.3-0.1-0.7-0.4-1-0.3c-1.7,0.6-2.8,4-1.8,5.8c2.1-2.3,4.2-4.6,6.2-6.9c0.2,0,0.5,0,0.6-0.1
				C59.7,140.1,61.7,135.8,63.6,131.5C63.6,131.5,63.7,131.5,63.6,131.5c0.1,0,0.1-0.1,0.1-0.1C63.7,131.5,63.6,131.5,63.6,131.5z
				 M154.7,101.4c0.1,0,0.1,0.1,0.2,0.1c-0.6,1.1-1.2,2.3-1.7,3.5c-0.1,0.3,0.1,0.7,0.1,1.1c0.3-0.1,0.7-0.1,1-0.3
				c0.6-0.5,1.2-1.1,1.8-1.5c1.1-0.8,2.2-1.6,3.5-2.5c-0.6-0.2-1-0.3-1.4-0.5c0-0.1,0.1-0.2,0.1-0.3c1.6,0.4,3.3,0.5,4.7,1.8
				c0.3,0.3,1,0.3,1.4,0.1c0.3-0.1,0.5-0.8,0.4-1.1c-0.1-0.3-0.6-0.4-1-0.6c-2.1-0.7-4.5-0.1-6.3-1.8c-0.1-0.1-0.2-0.1-0.3-0.1
				c-1.4-0.2-1.4-0.2-0.9-1.6c0.1-0.3,0.2-0.5,0.3-0.8c0-0.1,0-0.3,0-0.4c-0.2,0-0.4,0-0.5,0.1c-0.2,0.2-0.4,0.5-0.6,0.8
				c-1.5,2.4-3,4.8-4.4,7.3c-0.2,0.3-0.1,0.7-0.2,1c0.3-0.2,0.6-0.4,0.9-0.6C152.7,103.9,153.7,102.7,154.7,101.4z M116.4,114
				c1.7-0.2,3-0.2,4.2-0.6c0.7-0.2,1.3-1.1,1.7-1.8c0.4-0.8-0.5-1.6-1.4-1.4c-1.6,0.3-3.1,0.6-4.6,1.1c-0.6,0.2-0.9,1-1.3,1.5
				C115.6,113.2,116.1,113.7,116.4,114z M48.7,143c0.1,0.1,0.2,0.2,0.3,0.3c1.4-0.9,2.9-1.6,4.1-2.7c0.9-0.8,1.6-2.1,2.1-3.2
				c0.2-0.5-0.2-1.3-0.3-1.9c-0.4,0.3-0.8,0.7-1.2,1c0,0-0.1,0.1-0.1,0.1C52,138.7,50.4,140.9,48.7,143z M148.4,96.3
				c-0.1-0.1-0.2-0.1-0.3-0.2c-2.4,3.1-4.8,6.2-7.3,9.3c1.1,0.3,1.7,0.1,2.3-0.8c1.5-2.4,3.1-4.7,4.7-7.1
				C148,97.2,148.2,96.7,148.4,96.3z M146,104.4c1.7-2.2,3.3-4.3,4.7-6.4c0.4-0.6,0.5-1.4,0.7-2.1c-0.1-0.1-0.3-0.1-0.4-0.2
				c-1.2,1.6-2.6,3.1-3.7,4.7C146.6,101.6,145.6,102.6,146,104.4z M152.7,97.9c-0.1-0.1-0.1-0.1-0.2-0.2c-0.5,0.8-1.1,1.6-1.6,2.4
				c-1.2,1.9-2.4,3.7-3.5,5.7c-0.1,0.2,0.1,0.7,0.2,1c0.3-0.1,0.8-0.2,0.9-0.5C149.9,103.5,151.3,100.7,152.7,97.9z M161.6,73.3
				c0,0.1-0.1,0.1-0.1,0.2c0,0,0.1,0.1,0.1,0.1c0,0,0.1-0.1,0.1-0.1C161.7,73.4,161.7,73.3,161.6,73.3z"/>
			<path class="st1" d="M112,280.6c1-0.9,1.9-1.8,3.2-0.4c0.9-0.5,2.1-0.7,2.6-1.4c1.1-1.4,1.7-3.3,2.8-4.7
				c3.6-4.7,7.3-9.3,10.9-14.1c1-1.3,1.4-2.9,2.2-4.3c0.7-1.3,1.5-2.6,2.4-3.8c0.8-1.1,1.8-2.1,2.7-3c0.6-0.6,1.5-1,2.2-1.6
				c0.3-0.2,0.6-0.5,0.9-0.8c0.7-0.8,1.3-1.7,1.9-2.6c0.6-0.9,1.4-1,2.3-0.7c0.7,0.3,1.4,0.6,2.1,0.9c0.7,0.3,1,0.2,1-0.6
				c0-1.5,0.1-3-0.7-4.4c-0.4-0.8,0-1.1,0.7-1.2c0.3,0,0.6,0,0.8,0c1.1-0.1,1.2-0.4,0.7-1.3c-0.4-0.7-0.8-1.4-1.4-2.3
				c1.7,0.2,3.1,0.4,4.9,0.7c-0.6-0.6-1.1-1-1.5-1.4c-0.5-0.5-1.5-1.1-1.5-1.6c0.1-0.9,0.7-1.8,1.2-2.7c0.1-0.2,0.2-0.3,0.4-0.4
				c1.1-0.6,2-1.2,1.8-2.7c0-0.2,0.8-0.6,1.3-0.8c0.4-0.1,0.9,0,1.4,0c0.1,3.2,0.3,6.5,0.1,9.7c-0.2,5.6-0.9,11.1-2.1,16.6
				c-0.9,4-1.5,8.2-2.5,12.2c-1,3.9-2.3,7.7-3.5,11.6c-0.2,0.5-0.3,1.1-0.5,1.6c-0.4,1.1-0.5,2.2-1.6,3.1c-0.7,0.5-0.9,1.7-1.1,2.6
				c-1.8,5.8-5,10.9-7.8,16.2c-3.3,6.2-6.8,12.3-10.3,18.3c-0.8,1.4-1.7,2.7-1.4,4.5c0,0.2-0.1,0.6-0.3,0.7c-2.9,2.5-4.4,6.1-6.9,9
				c-3.1,3.7-6.1,7.5-9.7,10.7c-4.6,4.1-9.7,7.7-16.1,8.9c-1,0.2-2.7-0.5-3.2-1.3c-2.8-4.7-4.8-9.6-5.4-15.1
				c-0.2-1.9-0.1-3.8-0.1-5.7c0-6.2,0-12.5,0.1-18.7c0-1.9,0.4-3.9,0.5-5.8c0.1,1.9,0.2,3.9,0.4,5.8c0.4,5.4,0.8,10.7,1.2,16.1
				c0.2,2.8-0.3,5.8,2,8.1c0.1,0.1,0.1,0.2,0.1,0.3c0.6,1.7,1.1,3.5,1.7,5.2c0.4,1.2,1.2,2.4,0.5,3.8c-0.2,0.5-0.2,1.2,0,1.8
				c0.3,0.8,0.6,1.9,1.2,2.1c0.6,0.3,1.6-0.3,2.4-0.6c0.8-0.3,1.5-0.9,2.3-1.2c0.8-0.3,1.6-0.5,2.4-0.8c0.4-0.2,0.8-0.6,1-1.1
				c0.5-0.7,0.8-1.6,1.3-2.3c0.5-0.8,1-1.5,1.4-2.3c0.6-1,1.1-2,1.6-3.1c0.3-0.6,0.4-1.3,0.6-1.9c0.7-0.7,1.3-1.6,2.2-2.2
				c4.7-3.4,8.6-7.5,12-12.2c0.4-0.2,0.8-0.4,1.1-0.8c2-2.8,4-5.7,5.9-8.6c0.2-0.3,0.1-0.8,0.1-1.2c-0.4,0.1-1,0-1.2,0.2
				c-1,0.8-1.7,1.9-2.8,2.6c-1.9,1.3-4,2.3-6,3.4c0,0,0,0,0,0c0.4-1.9,0.7-3.7,1.3-5.6c0.3-1.2,1-2.3,1.5-3.5
				c0.2-0.4,0.7-1.1,0.5-1.3c-0.3-0.4-0.9-0.5-1.4-0.7c-0.2-0.1-0.4-0.2-0.6-0.2c0.1-0.2,0.1-0.4,0.3-0.5c0.7-0.9,1.4-1.8,2.2-2.6
				c0.6-0.6,1.3-1.1,2-1.3c1.8-0.5,2.7-1.8,3.6-3.6c-1,0.4-1.7,0.7-2.4,0.9c-0.2,0.1-0.5-0.1-0.8-0.1c0.1-0.2,0.2-0.5,0.3-0.6
				c0.6-0.3,0.6-0.7,0.2-1.2c-0.2-0.2-0.4-0.5-0.6-0.8c1.3-0.3,2.4-0.7,3.6-0.9c0.8-0.2,0.7-0.5,0.2-0.9c-0.8-0.6-0.7-1.2,0-1.8
				c0.2-0.2,0.4-0.4,0.6-0.7c-0.3,0-0.5-0.1-0.7-0.1c-2.2,0.5-4.4,0.2-6.6-0.2c-2.6-0.5-4-1.7-4.2-4.4c-0.2-2.8-1.5-4.2-3.8-4.1
				C112.1,281.2,112,280.9,112,280.6z"/>
			<path class="st1" d="M302.4,170.1c0.1-0.8,0.3-1.6,0.4-2.5c0-0.4,0.1-0.8-0.1-1.1c-0.6-1-0.2-1.5,0.8-1.8
				c0.6-0.2,0.6-0.4,0.2-0.9c-0.5-0.6-1-1.3-1.5-2c-0.5-0.7-0.8-1.4-1.8-0.7c-0.2,0.1-0.7-0.1-0.9-0.3c-2-1.7-4-3.5-6-5.3
				c-0.7-0.6-1.2-1.3-1.8-1.9c0,0,0,0,0,0c1.6,1.1,3.2,2.2,4.8,3.2c1.4,0.9,2.7,1.8,4,2.7c0.9,0.6,1.3,0.3,1.4-0.7
				c0.1-0.8,0.1-1.7,0-2.5c-0.4-3.3-0.9-6.5-1.3-9.8c-0.1-0.5-0.2-0.9-0.2-1.4c0-0.9-0.1-1.7-1.4-1.5c-0.2,0-0.5-0.2-0.7-0.4
				c-2.2-2.9-5.3-4.4-8.2-6.4c-0.4-0.3-0.8-0.7-1.1-1c0-0.1,0.1-0.1,0.1-0.2c1.7,0.8,3.4,1.6,5.1,2.5c0.8,0.4,3.7-0.1,4.2-0.8
				c0.1-0.1-0.2-0.7-0.4-0.8c-2-0.9-4.1-1.6-6.1-2.5c-1.4-0.6-2.9-1.2-4.3-1.8c-0.8-0.4-1-0.2-1.1,0.6c0,0.3-0.1,0.5-0.2,0.8
				c-0.1,0.7-0.4,1-1.2,0.7c-1.7-0.8-3.3-1.5-5.1-2.3c-0.2,1.8-0.5,3.6-0.7,5.3c-0.1,0-0.1,0-0.2,0c0-1.8,0-3.6,0-5.5
				c0-0.3,0.7-0.6,1.1-0.7c1-0.2,2-0.3,3.2-0.5c-1-1.1-2-1.7-3.3-1.9c-1.2-0.2-2.4-0.4-3.5-0.8c-0.3-0.1-0.8-0.6-0.8-0.9
				c-0.1-1.6,0-3.2,0-5c1,4.3,1.3,4.5,7.4,5.4c-0.8,1.1,0,1.2,0.8,1.4c1.5,0.3,3.1,0.6,4.5,1.2c1.3,0.6,2.4,1.6,3.4,2.5
				c1,0.9,1,0.9,1.6-0.3c0.4-0.9,0.9-1.7,1.4-2.8c0.5,1.5,0.8,2.8,1.3,4.1c0.2,0.4,0.6,0.8,1,1c0.4,0.2,0.8,0,0.5-0.6
				c-1.2-2.6-2.3-5.3-3.6-7.8c-0.2-0.4-0.9-0.7-1.4-0.9c-5.5-1.5-10.9-2.9-16.4-4.3c-0.2,0-0.4,0-0.5-0.1c-0.2-0.3-0.4-0.6-0.6-0.8
				c0.3-0.1,0.6-0.3,0.9-0.2c1.9,0.4,3.9,0.9,5.8,1.4c3.6,0.9,7.2,1.8,10.9,2.5c-0.4-0.2-0.8-0.5-1.2-0.6c-4.9-1.3-9.9-2.6-14.8-3.9
				c-0.4-0.1-0.7-0.4-1-0.6c0.4-0.2,0.9-0.6,1.3-0.5c2.2,0.2,4.3,0.6,6.5,0.8c1.9,0.2,3.5-0.1,4.4-2.4c0.5,1,0.9,2.1,1.4,3.1
				c0.4,0.7,0.5,1.7,1.6,1.7c0.4,0,0.9,0.1,1.1-0.1c0.2-0.3,0.4-0.9,0.2-1.3c-0.8-2.3-1.8-4.5-2.7-6.8c-0.6-1.6-1.3-3.1-2-4.6
				c-0.1-0.3-0.5-0.6-0.7-0.6c-2,0.5-3.8-0.3-5.7-0.8c1.4-0.1,2.7-0.2,4.1-0.3c1.6-0.1,2.2-0.9,1.4-2.3c-1.7-3-3.3-6-5.2-8.8
				c-1.4-2.2-3.6-3.1-6.3-2.6c-4,0.7-8,1.3-12,1.9c-0.3,0-0.6-0.1-0.9-0.2c0.2-0.2,0.3-0.5,0.5-0.7c1.9-1,3.8-1.8,6-0.9
				c0.5,0.2,1.2,0.2,1.6-0.1c1.6-1.1,3.3-0.9,5.1-1c0.9-0.1,1.8,0,2.6,0c0.8,0,1.3-0.3,0.8-1.2c-0.3-0.7-0.6-1.5-0.9-2.2
				c-0.9-1.9-2.1-2.5-4.2-1.9c-4.4,1.1-8.8,2.3-13.2,3.5c-0.4,0.1-0.8-0.1-1.2-0.2c0.1-0.6-0.5-1.5,0.7-1.8c0.7-0.2,1.2-0.8,1.9-1.3
				c0.2-0.1,0.3-0.3,0.6-0.4c3-1.3,6-2.6,9.3-2.8c0.6,0,1.2-0.2,1.8-0.2c0.2,0,0.5,0.2,0.6,0.4c0,0.1-0.2,0.5-0.3,0.5
				c-1.4,0.4-2.7,0.9-4.1,1.2c-1.3,0.3-2.6,0.3-3.9,0.5c-0.5,0.1-1,0.5-1.5,0.7c0,0.1,0.1,0.3,0.1,0.4c2.4-0.3,4.8-0.6,7.2-1
				c1.3-0.2,2.7-0.4,4-0.6c0.6-0.1,0.6-0.3,0.4-0.8c-0.2-0.5-0.5-0.9-0.7-1.4c-0.8-1.7-0.8-1.6-2.6-1.2c-0.3,0.1-0.9-0.2-0.9-0.4
				c-0.3-1.8-1.4-2.3-3.1-2c-0.7,0.1-1.5,0-2.3,0l0,0c0-0.2,0-0.4,0.1-0.6c0.3-1.4,0.6-1.6,2-1.2c1,0.3,1.4,0,1.9-0.9
				c0.5-0.8,0.4-1.4-0.3-2.1c-2.1-2.4-4-5-5.9-7.6c-0.2-0.3-0.2-0.8-0.3-1.2c0.5,0,1-0.2,1.4,0c0.6,0.3,1.1,0.8,1.6,1.2
				c0.5,0.4,0.7,0.4,1-0.3c0.7-1.5,0.2-2.7-0.6-3.9c-0.2-0.2-0.4-0.4-0.6-0.6c-1.5-1.5-1.5-1.5-3.3-0.3c-1.1,0.7-0.4,1.5-0.4,2.2
				c0,0.4,0.1,0.8,0.1,1.1c-0.4-0.2-0.9-0.3-1.2-0.6c-0.9-0.9-0.7-2.3,0.4-3.2c0.4-0.3,0.8-0.6,1.1-0.9c1.3-1.2,1.4-2.1,0.2-3.4
				c-0.4-0.4-1.2-0.4-1.7-0.6c-0.5-0.2-1-0.4-1.3-0.8c-0.7-1.1-1.3-2.2-1.9-3.3c-0.1-0.3-0.3-0.7-0.2-0.9c0.7-1.2-0.1-1.8-0.7-2.7
				c-1.5-2.1-2.9-4.2-4.2-6.4c-0.2-0.3,0-1,0.3-1.3c0.5-0.7,1.2-1.2,2-2c-2.2-0.2-4,0.2-5.4,1.2c-0.9,0.6-1.3,1.9-1.8,2.9
				c-0.1,0.1,0.2,0.5,0.4,0.8c0.3,0.3,0.9,0.6,0.3,1.1c-0.5,0.4-0.9,0.9-1.5,0.4c-0.6-0.5-1-1.1-1.5-1.7c-0.2-0.2-0.4-0.5-0.6-0.7
				c-1.1-0.7-1.4-1.7-0.7-2.8c2.7-3.9,4.7-8.1,6.7-12.3c0.2-0.5,0.8-0.9,1.3-1.3c0.8-0.7,1.6-1.5,2.6-2.3c-0.4,2.2-0.8,4.2-1.1,6.3
				c-0.3,1.6-0.9,3.2-0.1,4.8c0.2,0.3,0.4,0.6,0.5,0.9c0.3-0.3,0.6-0.6,0.7-1c0.3-0.9,0.4-1.9,0.6-2.8c0-0.2,0.2-0.3,0.3-0.5
				c0.1,0.7,0.1,1.4,0.2,2.1c0.1,0.5-0.1,1.2,0.2,1.5c1.9,2.6,2.4,5.8,4,8.6c1.6,2.7,2.8,5.6,4.3,8.4c1.5,2.8,2.9,5.7,4.5,8.5
				c0.8,1.4,2,2.4,2.9,3.8c0.8,1.2,1.4,2.6,2.1,3.9c4.7,8.2,8.2,16.9,11.8,25.5c1.1,2.6,2,5.3,3.7,7.5c1.9,2.5,2.5,5.3,3.4,8
				c4.3,11.9,8.4,23.8,12.5,35.7c0.8,2.2,1.9,4.4,2.1,6.7c0.3,2.5,1.1,4.6,1.8,6.9c0.1,0.3,0.1,0.6,0.3,0.8c1.8,2.6,1.6,5.5,1.5,8.4
				c0,0.9,0.3,1.6,1,2.1c0,1.1,0,2.1,0,3.2c-0.2,1-0.5,2-0.5,3c0,2,0.2,4,0.4,6.1c0.1,1.1,0,2.1-0.9,3c0-2.3,0-4.7,0-7
				c-0.2,0-0.3,0-0.5,0c-0.2,1.6-0.3,3.1-0.5,4.7c-0.2,0-0.3,0-0.5,0c-0.1-0.7-0.2-1.4-0.3-2.1c-0.2-2.1-0.3-4.2-0.5-6.3
				c0-0.4-0.2-0.8-0.4-1.1c-0.6-0.8-0.7-1.5-0.2-2.4c0.4-0.8,0-1.4-0.9-1.6c-0.5-0.1-0.9-0.1-1-0.8c0-0.2-0.7-0.4-1-0.4
				C305.2,169.6,303.8,169.9,302.4,170.1L302.4,170.1z M253.4,29.8c-0.5,1-0.9,1.8-1.4,2.6c-0.8,1.4-1.5,3-2.5,4.2
				c-0.7,0.8-1.2,1.5-1.4,2.5c-0.1,0.6-0.4,1.2-0.6,1.8c-0.2,0.8-0.4,1.5-0.7,2.5C249.3,41.6,253,33.6,253.4,29.8z M253.6,29.5
				C253.6,29.5,253.6,29.5,253.6,29.5c-0.1-0.1-0.1-0.1-0.1,0C253.5,29.5,253.6,29.6,253.6,29.5C253.6,29.6,253.6,29.6,253.6,29.5z"
				/>
			<path class="st1" d="M285.4,202.8c2.9,0,2.9,0,2.9-2.9c0-1.2-0.1-2.3,0-3.5c0.1-1,0.5-1.9,0.6-2.9c0.1-0.6,0.2-1.3,0-1.8
				c-1-1.8-2-3.6-2.2-5.7c0-0.8,0.1-1.1,0.8-1.1c0.9,0,1-0.6,1.3-1.3c0.7-2,1.4-3.9,2.1-5.9c0.2,0,0.4,0,0.6,0
				c0.3,1.4,0.7,2.7,0.9,4.1c0.2,1.7,0.4,3.4,0.2,5.1c-0.4,3.6,0.3,7.1,0.7,10.7c0.1,0.4-0.2,0.9-0.2,1.4c0,0.4,0.1,0.8,0.2,1.2
				c0.3-0.2,0.6-0.3,0.8-0.5c1.7-1.7,2.2-4.1,3.1-6.3c0.6-1.5,1.1-3,1.7-4.5c0.3-0.6,0.7-1.2,1-1.8c0.1,0,0.2,0.1,0.3,0.1
				c0,2.3,0,4.6,0,7c1.2-0.6,1.4-0.1,1.3,0.8c-0.3,2-0.7,4-1.1,6.1c-0.2,1-0.4,1.9-0.6,2.8c0.1,0,0.3,0.1,0.4,0.1c0.4-1,0.7-2,1.1-3
				c0.2-0.5,0.3-1,0.5-1.5c0.1-0.5,0.3-0.8,0.8-0.3c0.5,0.5,0.6,0.2,0.8-0.3c0.8-2.8,2.8-5,4.5-7.3c0.4-0.5,2-0.6,2.7-0.3
				c0.6,0.3,0.7,0.1,0.9-0.2c0.5-0.9,1-1.8,1.5-2.7c1.1-0.3,1.6-1,1.6-2.1c0.5-1.5,1-2.9,1.5-4.4c0.7-2.1,1-4.3,2-6.2
				c2.4-4.8,5-9.4,7.6-14.1c0.9-1.6,1.2-3.3,0.7-5c1.5,0.6,2,1.5,1.5,3c-1.1,2.9-2.2,5.8-3.4,8.7c-2.7,6.3-5.6,12.6-8.4,19
				c-0.2,0.4-0.6,1-1,1.1c-0.9,0.2-0.9,0.7-1,1.4c-0.6,3.6-1.2,7.2-1.9,10.8c-0.2,0.8-0.1,1.4,0.4,2.2c0.4,0.7,0.4,2,0,2.8
				c-0.9,2.4-2,4.8-3.2,7.1c-2.2,4.2-3.7,8.5-5.1,13c-0.2,0.8-0.6,1.6-0.7,2.4c-0.2,1.3-0.9,2.3-2,3.1c-0.5,0.3-0.9,0.8-1.3,1.2
				c-0.1-0.8-0.2-1.7-0.4-2.5c-0.1-0.2-0.4-0.6-0.6-0.6c-0.4,0.1-0.8,0.3-1,0.6c-0.2,0.2,0,0.6,0,0.9c0,0,0,0.1-0.1,0.1
				c0,0,0-0.1,0.1-0.1c0.3-0.2,0.6-0.4,0.9-0.7c-0.1,0.8-0.1,1.5-0.3,2.1c-0.3,0.9,0,1.4,0.8,1.6c0.3,1.4-0.7,1.6-1.7,1.7
				c0-1.3,0-2.6,0-3.9c-0.4,0.8-0.8,1.5-0.8,2.4c0,0.7,0.4,1.3,0.6,2c-0.6,0.7-1.2,1.5-1.9,2.2c0-0.5,0-1,0-1.5
				c0.1-1.5,0.2-3.1,0.3-4.6c0.2-0.7,0.7-1.4,0.6-2.1c-0.2-1.1-0.8-2.2-1.2-3.2c-0.1-0.7-0.1-1.5-0.5-2.1c-1.2-1.9-2.6-3.7-3.9-5.5
				c-0.4-0.8-0.7-1.5-1.1-2.2c-2.5-4-5-8.1-7.5-12.1c0.5-0.2,1-0.6,1.6-0.7C285.1,204.4,285.5,203.8,285.4,202.8L285.4,202.8z"/>
			<path class="st1" d="M125.1,213.2c-0.8,1.5-1.5,3-2.3,4.4c-0.4,0.7-0.8,1.3-1.1,2c-0.4,0.9-1,1.5-2,1.7c-0.1,0-0.3,0.1-0.4,0.2
				c-1.8,2.1-3.5,4.3-5.4,6.6c0.6,0.1,0.9,0.2,1.3,0.3c-0.1,0.1-0.1,0.3-0.2,0.3c-0.4,0.2-0.8,0.5-1.3,0.7c-1.1,0.5-1.2,0.7-0.1,1.4
				c0.9,0.6,0.9,1,0.2,1.7c-0.9,0.9-1.6,1.8-1.1,3.3c0.2,0.6-0.5,1.6-1,2.1c-0.8,0.8-0.8,1.6-0.7,2.5c0.3,2,0.6,4,0.9,6
				c0.1,0.8,0,1.4-0.8,2.1c-0.7,0.6-1,1.9-1.3,3c-1.9,6.4-3.8,12.8-5.8,19.2c-0.1,0.3-0.2,0.5-0.4,0.7c-0.2-0.6-0.5-1.3-0.4-1.9
				c0.2-2.3,0.5-4.6,0.8-6.9c0-0.3-0.3-0.7-0.5-1c-0.3,0.2-0.8,0.4-0.9,0.7c-0.8,2.2-1.5,4.5-2.2,6.7c-0.5,1.7-0.3,3.2,0.8,4.6
				c0.3,0.4,0.5,0.8,0.9,1.5c-1.1-0.3-2-0.6-2.8-0.8c-0.1,0.1-0.2,0.2-0.3,0.3c1.1,2.5,2.2,5.1,3.3,7.6c-0.4,0.6-0.7,1.3-1.2,1.6
				c-1.8,1.1-2.9,2.5-2.4,4.8c0.2,1-0.2,1.2-1.3,1c-0.3-0.1-0.9,0.1-1.1,0.4c-1.1,1.5-1.9,3-3,4.4c-0.8,1-0.4,1.8,0.2,2.5
				c0.3,0.4,0.8,0.8,1.2,1.2c1,0.8,1.2,1.8,1.2,3c0,0.3-0.2,0.8-0.4,0.9c-0.2,0.1-0.7-0.1-0.9-0.3c-0.4-0.3-0.7-0.7-1-1
				c-0.2-0.2-0.5-0.3-0.8-0.4c0,0.3-0.1,0.6,0,0.9c0.3,1.2,0.6,2.4,1,3.6c0.2,0.8-0.1,1.2-0.7,1.1c-0.4,0-0.7-0.5-1.1-0.8
				c0,0.1-0.3,0.4-0.2,0.5c0.7,1.2-0.3,1.9-0.6,2.8c-0.4,1.4-1,2.9-1,4.4c-0.1,2.7,0.3,5.4,0.4,8.1c0,0.8-0.2,1.5-0.3,2.5
				c-0.4-0.9-0.6-1.8-1.1-2.3c-0.7-0.7-0.9-1.5-0.9-2.3c0-0.5,0-1-0.1-1.4c-0.3-4-0.7-7.9-0.9-11.9c-0.1-1.5-0.4-2.7-1.2-3.9
				c1-5.6,1.9-11.3,3.1-16.9c1.2-5.9,2.1-11.9,4.1-17.7c0.4-1,0.1-2.3,0.2-3.4c0-0.6-0.1-1.1,0.8-1.2c0.9-0.1,1-0.9,0.9-1.7
				c-0.2-0.9,0.1-1.5,1-1.9c0.4-0.2,0.8-0.7,1-1.1c0.7-1.4,1.3-2.9,1.9-4.4c0.5-1.2,1.1-2.4,0.5-3.9c-0.4-1,0.1-2,1.2-2.6
				c1.2-0.6,1.9-1.4,1.5-2.8c0-0.1,0.1-0.4,0.2-0.5c1.5-2.3,2.9-4.7,4.7-6.9c1.8-2.2,2.2-4.9,3.1-7.5c0.2-0.4,0.3-0.9,0.6-1.3
				c1.5-1.9,2.7-3.9,4.1-5.8c0.4-0.6,1.5-0.9,2.4-1.1c1.2-0.3,2-0.7,1.9-2.2c0-0.4,0.3-0.9,0.6-1.1
				C121.2,216,123.2,214.6,125.1,213.2z M92.3,299.9L92.3,299.9L92.3,299.9L92.3,299.9z"/>
			<path class="st0" d="M291.1,219.6c1.3,1.8,2.7,3.6,3.9,5.5c0.4,0.6,0.3,1.4,0.5,2.1c-0.8,0.2-2-0.2-2,1.3
				c-0.5,0.8-1.4,1.5-1.5,2.4c-0.7,4.1-2.7,7.6-4.6,11.3c-2,3.9-3.9,7.8-5.1,12c-0.1,0.5-0.3,0.9-0.6,1.3c-1.7,2.3-3.3,4.6-5,6.8
				c-0.2,0.2-0.7,0.5-0.9,0.4c-0.7-0.1-0.9,0.1-1,0.7c-0.1,0.6-0.2,1.3-0.3,1.9c-1.3-0.8-1.3-1.2-1-2.7c1.4-7.3,4.6-14.1,7-21.1
				c0.2-0.7,0.5-1.4,0.6-2.1c0.6-2.2-0.4-4.1-2.5-5c-1.9-0.9-3.7-1.8-5.5-2.9c-0.9-0.5-1.5-1.4-2.3-2.2c-0.4-0.7-0.7-1.5-1.3-2
				c-0.7-0.7-1.7-1.2-2.5-1.8c-3.1-2-6.1-4-9.2-6c-1-0.7-2.1-1-3.3-0.3c-2.1-1.2-4.2-2.3-6.3-3.5c-3.4-1.8-6.6-4-10.4-4.6
				c-2.5-0.4-5.1-0.3-7.7-0.5c-0.7-0.1-1.4-0.3-2-0.4c-0.6-0.1-1-0.3-0.4-0.8c1.1-1.1,1.1-2.4,1-3.7c0.7-0.7,1.5-1.2,2.6-1.2
				c3.8,0.1,7.5,0.1,11.3,0.2c0.4,0,0.8,0.1,1.1,0.3c2.8,1.8,5.6,3.7,8.4,5.6c8,5.5,16,11.1,24,16.7c1.4,1,2.6,2.1,3.7,3.4
				c1.2,1.3,2.6,2,4.2,2.5c0.6,0.2,0.9,0,1-0.7c0.1-0.8,0.1-1.7,0.3-2.5c1.1-3.1,2.3-6.1,3.5-9.2
				C289.3,219.2,289.4,219.3,291.1,219.6z"/>
			<path class="st0" d="M85.8,301.5c0.8,1.2,1.1,2.5,1.2,3.9c0.2,4,0.6,7.9,0.9,11.9c0,0.5,0,1,0.1,1.4c0,0.9,0.2,1.6,0.9,2.3
				c0.5,0.5,0.7,1.3,1.1,2.3c0.1-1,0.4-1.7,0.3-2.5c-0.1-2.7-0.4-5.4-0.4-8.1c0-1.5,0.6-2.9,1-4.4c0.3-0.9,1.3-1.7,0.6-2.8
				c-0.1-0.1,0.2-0.5,0.2-0.5c0.4,0.3,0.7,0.8,1.1,0.8c0.6,0,1-0.4,0.7-1.1c-0.4-1.2-0.7-2.4-1-3.6c-0.1-0.3,0-0.6,0-0.9
				c0.3,0.1,0.5,0.3,0.8,0.4c0.4,0.3,0.7,0.7,1,1c0.3,0.2,0.7,0.4,0.9,0.3c0.2-0.1,0.4-0.5,0.4-0.9c0-1.1-0.2-2.2-1.2-3
				c-0.4-0.3-0.9-0.7-1.2-1.2c-0.6-0.8-1-1.5-0.2-2.5c1.1-1.4,2-3,3-4.4c0.2-0.3,0.8-0.5,1.1-0.4c1,0.2,1.5,0,1.3-1
				c-0.5-2.3,0.6-3.7,2.4-4.8c0.5-0.3,0.8-1.1,1.2-1.6c0.6,0.7,1.1,1.5,1.7,2.2c-0.1,1.7-0.3,3.4-0.4,5.1c-0.1,1.3,0,2.7-0.4,3.9
				c-1.1,3.5-2.3,6.9-3.5,10.4c-0.1,0.4-0.3,0.9-0.7,1.1c-1.7,0.9-1.8,2.2-1.2,3.7c0.1,0.3,0.1,0.6,0.2,0.9c0.5,1.2-0.1,1.1-1,1
				c-0.5,0-1.2-0.1-1.3,0.2c-0.3,0.6-0.4,1.4-0.4,2.1c0,0.5,0.6,0.9,0.8,1.5c0.2,0.5,0.4,1,0.3,1.6c-0.1,0.9-0.4,1.8-0.5,2.7
				c-0.4,1.8-0.8,3.6-1,5.4c-0.1,0.5-0.7,1.6,0.8,1.3c1.3-0.2,1.5,0,1.3,1.4c-0.2,0.9-0.7,1.6-1.6,1.6c-0.9,0-1,0.5-1,1.2
				c0,1.2,0.1,2.3,0,3.5c-0.1,0.9-0.6,1.8-1.1,2.6c-0.3,0.6-0.8,0.6-1.1-0.2c-0.7-1.9-1.5-3.8-2.3-5.6c-0.1-0.2-0.2-0.3-0.3-0.4
				c-0.1,0-0.2,0-0.3,0c-0.1,0.8-0.5,1.7-0.3,2.5c0.3,2,1.4,3.6,2.9,4.9c0.8,0.6,1.2,1.6,1.8,2.4c0.2,0.3,0.7,0.7,1,0.7
				c1.5-0.4,3.2-0.6,4.5-1.4c2.2-1.2,4.3-2.7,6.5-4.1c-0.2,0.6-0.3,1.3-0.6,1.9c-0.5,1.1-1,2.1-1.6,3.1c-0.4,0.8-1,1.5-1.4,2.3
				c-0.4,0.8-0.8,1.6-1.3,2.3c-0.3,0.4-0.6,0.9-1,1.1c-0.7,0.4-1.6,0.5-2.4,0.8c-0.8,0.3-1.5,0.9-2.3,1.2c-0.8,0.3-1.8,0.8-2.4,0.6
				c-0.6-0.3-1-1.3-1.2-2.1c-0.2-0.5-0.2-1.3,0-1.8c0.6-1.4-0.1-2.6-0.5-3.8c-0.6-1.7-1.1-3.5-1.7-5.2c0-0.1-0.1-0.3-0.1-0.3
				c-2.3-2.3-1.8-5.3-2-8.1c-0.4-5.4-0.8-10.7-1.2-16.1c-0.1-1.9-0.2-3.9-0.4-5.8C85.7,303.4,85.7,302.4,85.8,301.5z"/>
			<path class="st1" d="M274.5,265.3c0.1-0.6,0.2-1.3,0.3-1.9c0.1-0.6,0.3-0.8,1-0.7c0.3,0.1,0.7-0.2,0.9-0.4c1.7-2.3,3.4-4.5,5-6.8
				c0.3-0.4,0.5-0.8,0.6-1.3c1.2-4.2,3.1-8.1,5.1-12c1.9-3.6,3.8-7.2,4.6-11.3c0.2-0.9,1-1.6,1.5-2.4c0.1,0.4,0.2,0.9,0.4,1.3
				c0.4,0.9,0.8,1.9,1.1,2.8c0,2.1,0,4.2,0,6.3c-0.5,1.2-0.8,2.4-1.4,3.5c-0.9,1.7-2.1,3.3-3,5c-0.5,1-0.8,2.1-1.1,3.1
				c-0.4,1.4-1.3,2.3-2.5,3c-0.5,0.3-1,0.9-1.3,1.5c-1.4,2.9-2.6,5.8-4.2,8.6c-0.8,1.5-2.1,2.6-3.2,4c-0.3,0.4-0.7,0.8-0.8,1.3
				c-0.5,2-2,3.2-3.2,4.7c-0.1,0.1-0.5,0.1-0.7,0.1c1.2-2.4,1.1-5,1-7.6C274.6,265.8,274.5,265.5,274.5,265.3z"/>
			<path class="st0" d="M326.1,156.7c0.5,1.8,0.2,3.4-0.7,5c-2.6,4.7-5.2,9.3-7.6,14.1c-1,1.9-1.3,4.1-2,6.2c-0.5,1.5-1,2.9-1.5,4.4
				c-0.1-0.1-0.1-0.2-0.2-0.3c-0.2-2.6-0.3-5.1-0.5-7.7c-0.1-1.4-0.3-2.7-0.4-4.1c0-1.1,0-2.1,0-3.2c1.1-1.3,2-2.6,2.7-4.2
				c0.8-2,2.2-3.8,3.4-5.6c0.5-0.8,1-1.5,1.5-2.3C322.4,156.5,323.3,156.1,326.1,156.7z"/>
			<path class="st0" d="M85.4,85.7c-2,1.6-3.9,3.1-5.9,4.7c-0.2,0.1-0.3,0.3-0.5,0.4c-0.4,0.1-0.8,0.2-1.1,0.3c0-0.4-0.1-1,0.2-1.3
				c1.2-1.6,1.6-3.5,2.2-5.4c0.1-0.1,0-0.3,0-0.5c1.5-1.9,2.9-3.7,4.4-5.6c1.4-1.8,2.7-3.6,4.2-5.4c0.3-0.3,0.8-0.6,1.3-0.6
				c0.6,0,1.3,0.1,1.9,0.3c1.6,0.5,2.4,1.7,2,3.3c-0.5,2.3-0.7,4.7-2.6,6.5c-0.1-0.5-0.3-1.1-0.4-1.7c-1.8,1.6-1.8,1.6-3.2,0.2
				C87,82.5,86.2,84.1,85.4,85.7z"/>
			<path class="st1" d="M228.5,205.7c0.1,1.4,0.1,2.7-1,3.7c-0.6,0.6-0.2,0.8,0.4,0.8c0.7,0.1,1.4,0.3,2,0.4c-1.7,0.5-3.4,1-5.2,1.4
				c-3,0.7-5.2,2.5-7.1,4.7c-1.5,1.7-3.1,3-5.5,3c-1.5,0-2.9-0.4-4.4-0.5c-0.2,0-0.5-0.1-0.7-0.1c0.4-1.1,1.2-1.8,2.5-1.9
				c0.7-0.1,1.3-0.4,1.9-0.6c0.7-0.3,1.5-0.5,2-0.9c3.1-2.6,6.2-5.2,9.1-8C224.3,205.9,226.2,205.3,228.5,205.7z"/>
			<path class="st1" d="M254.4,219.2c1.2-0.7,2.3-0.4,3.3,0.3c3.1,2,6.2,4,9.2,6c0.9,0.6,1.8,1.1,2.5,1.8c0.6,0.5,0.9,1.4,1.3,2
				c-0.4-0.1-0.9-0.2-1.3-0.4c-4.9-3.1-9.7-6.2-14.6-9.3C254.7,219.5,254.5,219.3,254.4,219.2z"/>
			<path class="st0" d="M228.2,31.4c0.8,2,0,3.8-0.9,5.5c-0.4,0.8-0.9,1.7-1.5,2.5c-0.2,0.3-0.5,0.5-0.7,0.8
				c-0.4-0.4-1.1-0.6-0.8-1.5c0.5-1.2,0.8-2.5,1.2-3.6c-3.3,0.3-6.5,0.6-9.8,0.9c0-0.1,0-0.3-0.1-0.4c1.7-0.3,3.4-0.6,5.1-0.9
				c2-0.4,4-0.8,5.9-1.2c0.9-0.2,1.1-0.8,1.1-1.6C227.9,31.6,228.1,31.5,228.2,31.4z"/>
			<path class="st1" d="M126,171.8c0.2-0.1,0.4-0.1,0.6-0.2c1.4-0.5,1.4-0.4,1.6,1c0.2,1.7,0.5,3.3,0.8,5c-0.6,2.2-1.2,4.4-1.7,6.7
				c-0.2-2.2-0.4-4.4-0.6-6.7c0-0.2,0.1-0.5,0-0.7C125.7,175.3,126.1,173.6,126,171.8z"/>
			<path class="st1" d="M263.1,19.8c-0.3,1.2-0.7,2.4-1,3.6c-0.9,3.1-1.9,6.2-2.8,9.4c-0.1,0.3-0.3,0.7-0.4,1
				c-0.1,0.2-0.4,0.3-0.5,0.4c-0.1-0.2-0.3-0.4-0.3-0.6c0.1-1,0-2.1,0.4-3.1c1-3.2,2.1-6.3,3.3-9.5c0.2-0.5,0.7-1,1.1-1.4
				C262.8,19.6,263,19.7,263.1,19.8z"/>
			<path class="st0" d="M208.8,36.9c0.6,0.3,1.3,0.5,1.9,0.9c0.4,0.2,0.8,0.6,1.2,1c0,0.1-0.1,0.2-0.1,0.3c-1.1,0.1-2.2,0.2-3.2,0.4
				c-1.3,0.2-2.5,0.4-3.7,0.6c-0.3,0-0.7,0-1-0.1c-0.2-0.1-0.4-0.3-0.6-0.4c0.2-0.2,0.3-0.3,0.5-0.5c0.4-0.3,0.9-0.5,1.1-0.9
				c0.2-0.3,0-0.8,0-1.2C206.1,37,207.4,36.9,208.8,36.9z"/>
			<path class="st1" d="M29.5,172.6c1.7-0.9,3.4-1.8,5.1-2.6c0.2-0.1,0.4-0.2,0.6-0.3c0,0,0,0,0,0c-0.8,1.8-1.5,3.7-2.3,5.4
				c-0.4,0.9-1.7,0.7-2.2-0.2c-0.3-0.5-0.6-0.9-0.9-1.4C29.7,173.2,29.6,172.9,29.5,172.6z"/>
			<path class="st0" d="M89.7,89c-0.5,1-0.9,2.1-1.5,3c-0.8,1.1-1.6,2.2-2.6,3.1c-0.9,0.8-2,1.5-3,2.2c-0.1-0.1-0.2-0.2-0.4-0.4
				c0.6-0.8,1.1-1.6,1.8-2.4c1.1-1.2,2.2-2.4,3.3-3.6c0.3-0.3,0.4-0.8,0.5-1.2C88.5,89.6,89.1,89.3,89.7,89z"/>
			<path class="st0" d="M159.3,53.1c-1.2,0.9-2.3,1.9-3.7,2.5c-2.5,1.1-5.1,1.9-7.7,2.9c-0.2,0.1-0.5,0.1-0.8,0.1
				c0.1-0.3,0.2-0.6,0.4-0.8c0.5-0.4,1-0.7,1.5-0.9c3.2-1.3,6.5-2.6,9.8-3.9C159,53.1,159.2,53.1,159.3,53.1z"/>
			<path class="st1" d="M161.6,218.7c-0.4-1-0.2-1.8,0.6-2.6c1.6-1.6,3.1-3.3,4.6-5C166,214.4,164.8,217.2,161.6,218.7z"/>
			<path class="st2" d="M85.4,85.7c0.8-1.6,1.6-3.2,2.4-4.8c1.4,1.5,1.4,1.5,3.2-0.2c0.2,0.6,0.3,1.1,0.4,1.7c-1.7,1-3.4,2-5.1,3
				C86.1,85.5,85.8,85.6,85.4,85.7z"/>
			<path class="st1" d="M167.6,209.8c1.2-1.8,2.4-3.6,3.6-5.3c0,0,0.6,0.2,0.6,0.4c0.2,1,0.3,2,0.5,3c-1.2,0.5-2.3,1.1-3.5,1.6
				C168.4,209.6,168,209.7,167.6,209.8z"/>
			<path class="st0" d="M274.6,266c0.1,2.6,0.3,5.2-1,7.6c-0.2-0.4-0.7-0.8-0.7-1.1C273.4,270.4,274,268.2,274.6,266z"/>
			<path class="st0" d="M295,238.8c0-2.1,0-4.2,0-6.3c0.4,0,0.8,0,1.2-0.1c-0.1,1.5-0.2,3.1-0.3,4.6c0,0.5,0,1,0,1.5
				C295.5,238.7,295.2,238.8,295,238.8z"/>
			<path class="st0" d="M299.5,234.2c-0.8-0.3-1.1-0.8-0.8-1.6c0.2-0.6,0.2-1.3,0.3-2.1c-0.4,0.3-0.6,0.5-0.9,0.7c0,0,0,0,0,0
				c0-0.3-0.1-0.7,0-0.9c0.2-0.3,0.6-0.5,1-0.6c0.1,0,0.5,0.4,0.6,0.6c0.2,0.8,0.3,1.6,0.4,2.5C299.9,233.1,299.7,233.7,299.5,234.2
				z"/>
			<path class="st0" d="M297.6,236.4c-0.2-0.7-0.6-1.4-0.6-2c0-0.8,0.5-1.6,0.8-2.4c0,1.3,0,2.6,0,3.9
				C297.8,236.1,297.7,236.2,297.6,236.4z"/>
			<path class="st0" d="M90,88.8c-0.1,0.1-0.2,0.2-0.3,0.2C89.8,89,89.9,88.9,90,88.8z"/>
			<path class="st1" d="M166.9,211c0.1-0.1,0.1-0.2,0.2-0.3C167,210.8,166.9,210.9,166.9,211z"/>
			<path class="st1" d="M167.3,210c0.1-0.1,0.2-0.1,0.2-0.2C167.5,209.9,167.4,210,167.3,210z"/>
			<path class="st2" d="M228.5,205.7c-2.3-0.4-4.2,0.3-5.9,1.9c-2.9,2.8-6,5.4-9.1,8c-0.5,0.5-1.3,0.6-2,0.9
				c-1.1-0.1-2.2-0.2-3.4-0.3c0.7-0.5,1.5-1,2.2-1.4c0.4-0.4,0.9-0.7,1.1-1.1c1.3-2.8,2.5-5.7,4.9-7.9c0,0,0-0.1,0-0.2
				c-1.5,0.4-1.5,0.4-2.5-1.2c-0.7-1.2-1.3-2.5-2.1-3.6c-0.3-0.4-1-0.5-1.5-0.6c-0.2,0-0.6,0.5-0.7,0.9c-0.3,1.8-0.6,3.6-0.9,5.4
				c-0.1,0.7-0.3,0.9-1,0.9c-1.6,0-3.2,0-4.8,0c-0.8,0-1.1-0.4-1.2-1.1c0-0.5-0.2-0.9-0.3-1.4c-1.1,0.7-1.5,0.6-1.5-0.6
				c0-0.9,0.4-1.9,0.8-2.6c1-1.7,1-1.7-0.5-2.9c-0.3-0.2-0.5-0.4-0.7-0.6c-0.8-0.8-1.5-0.6-1.8,0.5c-0.4,1.6-0.8,3.2-1.1,4.8
				c-0.2,0.9,0.3,1.6,1.3,1.7c0,0.1,0,0.2-0.1,0.2c-0.4,0.4-0.7,0.8-1.1,1.2c0.5,0.1,1.1,0.1,1.6,0.2c0.5,0.1,1.1,0.2,1.9,0.3
				c-1.1,1-2.1,1.9-3.1,2.6c-0.2,0.2-0.9-0.1-1.3-0.3c-0.6-0.5-1-1.1-1.5-1.7c-0.6-0.8-1.1-0.8-1.9-0.1c-0.7,0.7-1.4,1.3-2.3,2
				c0-1.7,0-3.1,0-4.8c-1.3,0.7-2.4,1.3-3.5,2c-0.7,0.5-1.3,0.4-1.9-0.2c-0.5-0.6-1-1.1-1.9-0.5c-0.2,0.1-1-0.4-1.3-0.8
				c-0.7-0.9-1.5-1.1-2.6-0.7c-0.7,0.2-1.5,0.1-2.4,0.1c0.6,0.9,1.1,1.8,1.6,2.6c-1.6-0.3-3.2-0.7-4.8-1l0,0c1.6-1.7,2-3.9,2.3-6.1
				c0.1-1,0.9-1.8,1.4-2.7c0.3-0.6,0.8-0.9,1.5-0.5c0.6,0.3,0.8,0,1-0.6c0.3-1.3,0.7-2.6,1.1-3.9c0.3-0.9,0.2-1.3-0.8-0.9
				c-0.8,0.3-1.3,0.2-1-0.9c0.5-2.5-0.7-3.7-3.3-3.2c-0.7,0.1-1.5,0.2-2.2,0.2c-1.2,0-2.1-0.7-2.6-1.8c-0.3-0.5-0.7-0.9-1.1-1.4
				c-0.4-1-0.1-1.8,0.5-2.6c0.5-0.7,1-1.5,1.3-2.3c0.3-0.9,0.9-1.5,1.6-2.1c0.9-0.9,1.9-1.8,2.5-2.9c1.8-3.5,3.4-7.1,5.1-10.7
				c0.2-0.5,0.7-1.2,1.2-1.3c2.2-0.5,3.5-1.8,3.5-3.9c-0.1-2.2,1-3.5,2.8-4.4c3.2-1.7,6.3-3.4,9.5-5.1c1.9-1,3.9-2.1,5.8-3.1
				c1.3-0.6,2.5-1.4,3.8-1.8c1.4-0.4,2.8-0.3,4.3-0.4c3.4,0.3,6.8,0.4,10.1,0.8c1.4,0.2,2.7,1,4.1,1.5c1.6,0.6,3.2,1.1,4.6,1.9
				c2,1.2,3.9,2.5,5.8,4c1.9,1.5,3.6,3.2,5.3,4.8c2.9,2.8,5.8,5.5,8.6,8.4c3.3,3.5,6.4,7.2,9.5,10.8c1.1,1.2,2.1,2.5,3.2,3.7
				c0.2,0.2,0.4,0.4,0.9,0.8c-0.2-0.7-0.3-1.2-0.4-1.6c0.1-0.1,0.1-0.1,0.2-0.2c0.7,0.8,1.4,1.5,2,2.3c1.9,2.9,3.8,5.8,5.7,8.7
				c-0.3-0.2-0.6-0.4-0.8-0.6c-1.1-1.5-2.2-3-3.4-4.5c-0.2-0.3-0.8-0.4-1.2-0.6c0.1,0.3,0.2,0.7,0.4,1c1.3,1.9,2.6,3.7,3.9,5.6
				c1.2,1.6,2.5,3.2,3.7,4.8c0,0,0,0.1,0,0.1c0,0,0,0,0.1,0c0,0-0.1-0.1-0.1-0.1c-0.2-0.4-0.3-0.9-0.5-1.3c-0.7-1.5-1.5-3-2.2-4.5
				c2.6,2.1,4,5.2,5.8,8c1.1,1.7,2,3.6,3.1,5.3c0.6,0.9,1.7,1.6,2.5,2.4c2.5,4,5,8.1,7.5,12.1c0.4,0.7,0.7,1.5,1.1,2.2
				c-1.7-0.3-1.8-0.4-2.5,1.3c-1.2,3-2.4,6.1-3.5,9.2c-0.3,0.8-0.3,1.6-0.3,2.5c-0.1,0.6-0.3,0.8-1,0.7c-1.6-0.5-3.1-1.2-4.2-2.5
				c-1.1-1.2-2.3-2.4-3.7-3.4c-8-5.6-16-11.2-24-16.7c-2.8-1.9-5.6-3.7-8.4-5.6c-0.3-0.2-0.7-0.3-1.1-0.3c-3.8-0.1-7.5-0.1-11.3-0.2
				C230,204.4,229.2,205,228.5,205.7z M267.4,210.2C267.4,210.3,267.4,210.3,267.4,210.2c0,0.1,0.1,0.1,0.1,0.1
				C267.4,210.3,267.4,210.3,267.4,210.2c-0.2-0.1-0.3-0.1-0.5-0.2c-0.1-0.3-0.1-0.6-0.2-0.8c-1.6-1.7-3.2-3.4-4.9-5
				c-0.9-0.9-2-1.6-2.9-2.4c-0.1,0.1-0.2,0.2-0.3,0.3c1.1,1.2,2.1,2.5,3.3,3.5c1.6,1.5,3.4,2.9,5.1,4.4
				C267,210.1,267.2,210.2,267.4,210.2z M271.1,213.9c0.6,1.5,1.3,3,1.9,4.5c0.1,0.2,0.3,0.4,0.4,0.6c2.2,2.8,5.5,4,8.5,6.2
				c0-0.5,0.1-0.8,0-0.9C278.2,220.8,274.6,217.3,271.1,213.9z M180.9,196.9c0.4-0.1,0.5-0.2,0.6-0.2c1.8-1.9,3.2-4.1,4.2-6.4
				c0.1-0.1,0-0.3,0-0.4c-0.2,0-0.4,0-0.5,0.1c-0.6,0.6-1.4,1.1-1.9,1.8c-0.9,1.3-1.7,2.7-2.5,4.2
				C180.6,196,180.8,196.4,180.9,196.9z M270.6,213.5C270.6,213.5,270.6,213.4,270.6,213.5c0-0.1-0.1-0.1-0.1-0.1
				C270.4,213.5,270.5,213.5,270.6,213.5C270.5,213.5,270.5,213.5,270.6,213.5z M269.6,212.7c0-0.1,0-0.1,0-0.2c0,0-0.1,0-0.1,0
				C269.6,212.6,269.6,212.7,269.6,212.7z"/>
			<path class="st1" d="M211.4,143.7c-1.4,0.1-2.9,0-4.3,0.4c-1.3,0.4-2.6,1.1-3.8,1.8c-2,1-3.9,2-5.8,3.1c-3.2,1.7-6.3,3.5-9.5,5.1
				c-1.8,1-2.9,2.2-2.8,4.4c0.1,2.1-1.3,3.4-3.5,3.9c-0.5,0.1-1,0.8-1.2,1.3c-1.7,3.6-3.3,7.2-5.1,10.7c-0.6,1.1-1.5,2.1-2.5,2.9
				c-0.7,0.6-1.3,1.2-1.6,2.1c-0.3,0.8-0.8,1.6-1.3,2.3c-0.6,0.8-0.9,1.7-0.5,2.6c-1.3,2-2.7,4-3.8,6.2c-1.2,2.2-2.6,4.2-4.6,5.7
				c-0.3,0.2-0.7,0.9-0.6,1.2c0.4,1.6-0.1,3-0.5,4.4c-0.7,2.2-1.5,4.3-2.3,6.4c-0.6,1.7-1.2,3.4-1.9,5.1c-0.7,1.7-1.7,3.2-2.5,4.9
				c-0.4,0.8-0.8,1.1-1.7,1c-1.3-0.2-2.1,0.3-2.8,1.5c-1.6,2.8-3.5,5.6-5,8.4c-0.5,1-0.4,2.3-0.6,3.4c-1.4,1.7-2.7,3.4-4.1,5.1
				c-1.5,1-2.9,2-4.4,3.1c-0.1,0-0.3-0.1-0.4-0.1c0.2-1,0.3-2.2,0.7-3.1c1.5-2.9,3.1-5.7,4.7-8.6c0.2-0.4,0.3-0.9,0.5-1.3
				c0.1-0.1,0.2-0.2,0.2-0.2c0-0.1,0.1-0.2,0.1-0.3c0,0.1,0,0.2-0.1,0.3c-0.1,0.1-0.2,0.2-0.2,0.2c-1.4,2-2.8,3.9-4.1,6
				c-1.5,2.5-3,5-3.7,7.9c-0.4,2-0.3,3.9,0.1,5.9c0.4,1.5,0.5,3.1,0.7,4.7c0,0.5-0.3,1-0.5,1.4c-1.9,2.8-3.7,5.7-5.8,8.4
				c-1,1.3-2.5,2.3-3.8,3.5c-0.2,0.1-0.5,0-0.8,0c0-0.3,0-0.6,0.1-0.8c0.2-0.5,0.5-0.9,0.8-1.3c-0.6-0.2-1.2-0.3-1.8-0.5
				c0-1.9,0-3.8,0-5.7c0.6-2.1,1.3-4.2,2-6.2c0.4-1.2,0.8-2.4,1.4-3.5c1.1-2.4,2.3-4.8,3.4-7.2c0.2-0.4,0.3-0.9,0.6-1.2
				c1.9-1.8,2.5-4.2,3.6-6.4c1.2-2.4,2.7-4.6,4.1-6.9c3-4.7,6-9.3,9-14c0.3-0.4,0.6-0.8,0.9-1.2c1.2-1.4,2.1-2.8,2.4-4.7
				c0.2-0.8,1-1.4,1.5-2.2c0.9-1.5,1.6-3,2.4-4.5c0.1-0.3,0.3-0.5,0.7-0.7c-0.7,2.7-1.5,5.3-2.2,8c0.1,0.1,0.2,0.1,0.3,0.2
				c0.3-0.3,0.6-0.6,0.8-1c1.8-3.4,3.8-6.7,5.4-10.1c1.9-4.3,5.1-7.6,7.8-11.4c1.8-2.5,3.5-5.1,5.2-7.6c2.4-3.6,4.7-7.3,7-11
				c0.4-0.7,0.5-1.5,0.7-2.3c-0.1-0.1-0.3-0.2-0.4-0.3c-1,0.8-2.1,1.5-3.1,2.3c-0.4,0.3-0.8,0.6-1.2,0.9l0,0c2-3.7,3.7-7.7,6.2-11.1
				c5.2-7.1,11.5-13,20-16c1.6-0.6,3.1-1,4.8-0.6c1,0.2,2.2-0.3,3.2-0.6c1.3-0.3,2.6-0.7,3.9-1.1c0.7-0.2,0.8,0,0.6,0.6
				c-0.1,0.4-0.1,0.8-0.2,1.2c-0.4,1.9-0.3,1.9,1.3,2.8c0.4,0.2,0.6,0.7,0.8,1c-0.3,0.2-0.5,0.5-0.9,0.7
				C212.9,142.9,212.2,143.3,211.4,143.7z"/>
			<path class="st2" d="M105.6,334.3c-2.1,1.4-4.2,2.9-6.5,4.1c-1.4,0.7-3,1-4.5,1.4c-0.3,0.1-0.8-0.4-1-0.7
				c-0.6-0.8-1.1-1.8-1.8-2.4c-1.6-1.3-2.6-2.9-2.9-4.9c-0.1-0.8,0.2-1.7,0.3-2.5c0.1,0,0.2,0,0.3,0c0.1,0.1,0.2,0.3,0.3,0.4
				c0.8,1.9,1.6,3.7,2.3,5.6c0.3,0.8,0.8,0.7,1.1,0.2c0.5-0.8,0.9-1.7,1.1-2.6c0.2-1.1,0.1-2.3,0-3.5c0-0.7,0.1-1.2,1-1.2
				c1,0,1.5-0.7,1.6-1.6c0.3-1.4,0.1-1.6-1.3-1.4c-1.5,0.3-0.9-0.9-0.8-1.3c0.3-1.8,0.7-3.6,1-5.4c0.2-0.9,0.4-1.8,0.5-2.7
				c0-0.5-0.1-1.1-0.3-1.6c-0.2-0.5-0.7-1-0.8-1.5c-0.1-0.7,0.1-1.5,0.4-2.1c0.1-0.2,0.9-0.2,1.3-0.2c0.8,0.1,1.5,0.2,1-1
				c-0.1-0.3-0.1-0.6-0.2-0.9c-0.7-1.6-0.5-2.9,1.2-3.7c0.3-0.2,0.5-0.7,0.7-1.1c1.2-3.5,2.4-6.9,3.5-10.4c0.4-1.2,0.3-2.6,0.4-3.9
				c0.2-1.7,0.3-3.4,0.4-5.1c0.2-0.4,0.5-0.8,0.7-1.1c1-0.2,1.9-0.5,2.9-0.7c-0.1-0.8-1.6-0.5-0.8-1.4c1-1.1,0.3-1.4-0.6-1.8
				c0-0.2-0.1-0.5-0.1-0.7c0.3-0.1,0.6-0.2,0.9-0.3c0.9-0.4,2.3-0.3,2.2-2c0-0.1,0.3-0.3,0.5-0.3c0.5,0,1.1,0.1,1.6,0.1
				c-0.1,0.5-0.3,1-0.4,1.5c-0.1,0.3-0.2,0.5-0.3,0.8c0.5,0.7,1,1.5,1.4,2.2c0.1,0.3,0.1,0.6,0.2,0.9c-0.3,0.1-0.7,0.2-1,0.3
				c-0.2-0.3-0.4-0.6-0.6-0.7c-0.2,0.5-0.3,0.8-0.4,1.2c-0.3-0.2-0.9-0.7-1-0.6c-0.5,0.6-0.9,1.2-1.4,1.9c0.9-0.1,1.5-0.1,2.1-0.2
				c0.3-0.1,0.6-0.1,1-0.2c0.1,0.7,0.1,1.5,0.4,2.2c0.5,1.1,0.4,2.1-0.2,3.1c-0.3,0.5-0.7,1-1,1.5c-0.8,1.4-0.5,3.4,0.5,4.2
				c0.3,0.3,1.5,0,1,1.1c-0.3,0.6-0.6,1.1-1,1.6c-0.3,0.3-0.7,0.5-1.2,0.6c-0.7,0.3-0.8,0.8-0.5,1.4c0.2,0.5,0.6,1,0.7,1.5
				c0.1,0.7,0.3,1.5,0,2c-0.5,0.9-0.7,1.7-0.1,2.7c0.4,0.7,0,0.8-0.6,0.8c-0.8,0-1.6,0-2.4,0c-0.7,0-1,0.4-1.1,1
				c-0.1,0.7-0.6,1.7,0.3,1.9c1.4,0.4,1.3,1.4,1.5,2.4c0.3,1.5-0.7,3-1.8,3.1c-0.3,0.9-0.4,1.7-0.9,2.3c-1,1.3-2.2,2.3-3.3,3.5
				c-0.2,0.3-0.9,0.6-0.1,0.9c1.3,0.5,1.1,1.1,0.5,2c-0.3,0.5-0.6,1,0.4,0.9c0.9-0.1,0.9,0.3,0.5,1c-0.8,1.5-1.4,3.2-2.2,4.6
				c-0.8,1.2-0.6,2.3-0.1,3.6c0.3,0.6,0.4,0.6,0.9,0.2c2-1.5,4.1-3,6.2-4.5c0.8-0.6,1.6-1.3,2.8-1.1c0.3,0,0.6-0.3,0.9-0.5
				c2.4-2.2,4.8-4.5,7.3-6.8c0.5-0.5,1-0.9,1.7-0.3c-3.4,4.7-7.3,8.8-12,12.2C107,332.7,106.3,333.6,105.6,334.3z"/>
			<path class="st1" d="M219.4,122.7c-2.5,2.5-5.4,4.4-8.7,5.8c-0.7,0.3-1.3,0.7-1.9,1.1c-3,2.2-6.4,3.8-9.7,5.5
				c-3.8,1.9-7.4,4.3-11,6.5c-1,0.6-2,0.7-3.2,0.3c0.9-0.5,1.9-1,2.8-1.6c4.7-3.1,9.3-6.2,14-9.2c0.8-0.5,0.9-0.9,0.1-1.5
				c-0.2-0.2-0.5-0.5-0.5-0.8c0.1-1.9-0.8-3.4-1.8-4.7c-1.3-1.7-1.7-3.6-2.1-5.6c-0.2-0.8-0.5-1.5-0.8-2.3c0-0.2,0-0.4,0-0.6
				c0.3-0.9,0.8-1.8,1-2.7c0.3-1.3,0.9-2.2,2.3-2.6c0.4-0.1,0.7-0.6,0.9-1c0.6-1.1,1.1-2.2,1.6-3.3c1.1-0.3,2,0,2.6,0.9
				c0.5,0.7,1.1,1.4,1.6,2.1c1.2,1.6,1.1,1.6-0.3,3c-0.3,0.3-0.5,0.9-0.7,1.3c0.6,0.3,1.1,0.6,1.7,0.7c0.6,0.1,1.3-0.1,2.3-0.2
				c-1.2,1.3-0.5,2.1,0.3,2.6c0.5,0.3,1.4-0.1,2.1-0.2c1,0.4,2,0.9,2.9,1.3c0.6,0.3,1,0.3,1.4-0.5c0.8-1.6,1.6-3.2,2.5-4.8
				c0.2-0.3,0.8-0.8,1-0.7c0.6,0.3,1.4,0.7,1.5,1.2c0.6,3-1.2,5.4-2.4,7.9c-0.2,0.4-0.8,0.8-1.1,0.7c-1.7-0.2-2.6,1.1-3.7,1.8
				c-0.5,0.3-0.8,0.9-1.6,0.4c-0.1-0.1-0.5,0.1-0.6,0.2c-1.8,1.2-3.5,2.4-5.3,3.7c-0.3,0.2-0.5,0.6-0.8,0.9c0.1,0.1,0.1,0.2,0.2,0.4
				c1.4-0.6,3-1.1,4.3-1.9C213.2,125,216.2,123.7,219.4,122.7L219.4,122.7z"/>
			<path class="st2" d="M212.1,116.1c-0.7,0.1-1.5,0.4-2.1,0.2c-0.9-0.4-1.5-1.3-0.3-2.6c-1,0.1-1.7,0.3-2.3,0.2
				c-0.6-0.1-1.2-0.5-1.7-0.7c0.2-0.4,0.4-1,0.7-1.3c1.4-1.4,1.5-1.4,0.3-3c-0.5-0.7-1-1.4-1.6-2.1c-0.7-0.9-1.6-1.2-2.6-0.9
				c0-1.3-0.3-2.4-1.5-3.2c-0.6-0.4-1.1-1.1-1.6-1.6c-0.3-0.3-0.5-0.7-0.9-0.8c-3.5-1.5-7-1.1-10.3,0.7c-0.7,0.4-1.2,0.5-2,0.4
				c-1.7-0.2-3.6-0.6-4.8,1.3c-0.6,0-1.1,0-1.7,0.1c-0.4,0.1-0.9,0.3-1.1,0.7c-1.2,1.5-3.6,1.3-4.4-0.4c-0.1-0.1,0.3-0.6,0.6-0.7
				c3.5-1.3,7-2.5,10.4-3.8c1-0.4,2-0.8,2.9-1.2c1.1,0.2,2.2,0.4,3.2,0.5c1.6,0.1,3.2,0.3,4.8,0.3c1.7-0.1,3.1,0.6,4.3,1.7
				c0.8,0.7,1.7,1.2,2.4,2c1.3,1.3,2.5,2.6,3.7,4c1.5,1.7,2.8,3.6,4.3,5.3c0.9,1.1,1.5,2.2,1.3,3.7
				C212.1,115.2,212.1,115.7,212.1,116.1z"/>
			<path class="st1" d="M271.1,115.7c-1.8,1.6-3.7,1.6-5.5,1.3c-1.8-0.3-3.5-1.1-5.3-1.4c-3.3-0.5-6.7-0.7-10.1-1.1
				c-0.9-0.1-1.3,0.3-1.3,1.2c0,0.6,0,1.1,0,1.7c-0.2,2.1-0.2,2,1.7,2.5c5.8,1.5,11.6,3,17.4,4.5c1.2,0.3,2.5,0.6,3.6,1.1
				c0.5,0.2,0.8,0.8,1.2,1.2c-0.5,0.1-1.1,0.5-1.6,0.3c-3.3-1-6.6-2.2-9.9-3.2c-2.8-0.8-5.6-1.5-8.4-2.2c-0.8-0.2-1.5-0.5-2.3-0.8
				c-1-0.4-1.7,0-1.7,1c-0.1,2.7,0,5.5,0,8.2c0,0.3,0.1,0.6,0,0.8c-0.1,0.2-0.3,0.3-0.5,0.5c-0.1-0.2-0.4-0.4-0.4-0.6
				c-0.1-1.2-0.4-2.5-0.2-3.7c0.3-1.4-0.4-2.5-0.7-3.7c-0.1-0.4,0-0.8,0.1-1.2c0.1-0.5,0.2-1,0.3-1.5c0.2-2.1,0.4-4.3,0.5-6.4
				c0-0.7,0.4-0.9,1-0.8c3.7,0.3,7.4,0.5,11.1,0.8c3.2,0.3,6.5,0.7,9.7,1.1C270.1,115.5,270.4,115.6,271.1,115.7z"/>
			<path class="st1" d="M178.8,149.3c-2,3.4-4.2,6.7-6,10.2c-2.5,4.7-4.8,9.5-7.2,14.2c-0.2,0.5-0.4,0.9-0.7,1.4
				c-1.6,2.8-2.8,5.8-2.9,9.1c0,0.4-0.3,0.9-0.5,1.2c-1.2,1.8-2.4,3.6-3.6,5.4c-0.2,0.3-0.5,0.4-0.8,0.6c0-0.3-0.1-0.6,0-0.9
				c0.3-2.2,0.4-4.4,0.9-6.5c0.2-1.2,0.8-2.4,1.5-3.4c0.8-1.1,2.2-1.9,1.9-3.6c0-0.2,0.1-0.4,0.2-0.5c1.5-2.5,3.3-4.9,4.6-7.6
				c2.1-4.1,5.1-7.7,6.7-12.1c0.7-2,2.3-3.8,3.6-5.6c0.6-0.8,1.4-1.5,2.1-2.2C178.6,149.1,178.7,149.2,178.8,149.3z"/>
			<path class="st1" d="M222.5,92.8c-0.8,0.9-1.6,1.9-2.7,3.1c0-0.7,0.1-1.1,0.1-1.5c0-0.2-0.1-0.5-0.1-0.7
				c-0.2,0.1-0.5,0.1-0.7,0.3c-1.4,1.5-3,2.9-4.2,4.5c-0.8,1.1-1.6,1.5-3.1,1.2c0.7-0.8,1.3-1.6,1.9-2.4c1.2-1.7,2.4-3.4,3.6-5
				c0.5-0.7,0.4-1.1-0.2-1.6c-0.6-0.6-1.2-1.3-1.7-2c-0.1-0.1-0.2-0.3-0.3-0.5c0.9-0.4,1.9-0.8,2.9-1.2c0.1,0,0.3,0.3,0.4,0.3
				c1.8-1,3.8,0.7,5.6-0.5c0.4-0.3,1.1-0.1,1.7-0.1c0,0,0.2,0.5,0.1,0.6c-0.4,0.6-0.6,1.4-1.6,1.3c-1.3-0.1-2.6,0-3.8,0
				c-0.3,0-0.6,0-0.9,0.2c-0.2,0.1-0.4,0.4-0.4,0.5c0,0.2,0.3,0.4,0.5,0.4c0.9,0,1.9,0.2,2.7-0.1c2.2-0.7,4.4-0.5,6.6,0.1
				c-0.9,0.3-1.8,0.6-2.7,0.9c-0.6,0.2-0.8,0.4-0.4,1.1c0.9,1.5,0.6,2.1-1.1,2.7c-0.6,0.2-1.2,0.6-1.9,0.9c0-0.7,0-1.6,0-2.5
				C222.7,92.8,222.6,92.8,222.5,92.8z"/>
			<path class="st1" d="M250,105.5c0.4,0,0.7,0.1,1.1,0.1c5.7,0,11.5-0.1,17.2,0c2,0,4,0.4,6,0.5c0,0.2,0,0.4,0,0.7
				c-2.8,0-5.7,0-8.5,0c-3.3,0-6.6,0-10,0c-0.4,0-0.9,0-1.2,0.1c-2.1,1.2-4.6,0.9-6.8,1.3c-1.5,0.3-2.7,0.1-4-0.8
				c-0.6-0.5-0.6-0.7,0.1-0.9c0.3-0.1,0.6-0.3,0.9-0.4c1-0.5,1.9-1.1,2.9-1.5c0.9-0.4,1.9-0.9,2.8-0.9c3.5-0.1,7,0,10.6,0
				c0.2,0,0.5,0,0.8,0.1c-0.7,1.5-2,1.2-3,1.2c-2.5,0.1-5,0.1-7.4,0.1c-0.4,0-0.9,0-1.3,0C250,105.2,250,105.4,250,105.5z"/>
			<path class="st2" d="M121.6,256.8c0,1.9,0,3.8,0,5.7c-0.6,0.8-1.3,1.6-1.8,2.5c-0.4,0.6-0.8,0.7-1.5,0.5
				c-2.6-0.8-2.8-1.1-2.9-3.8c-0.1-3.6,1.5-6.4,3.8-9.3C119.2,254.5,119.6,256.2,121.6,256.8z"/>
			<path class="st1" d="M286.1,137.3c0.9,2.2,1.7,4.5,2.7,6.6c0.8,1.8,1.3,3.8,3,5.1c2.7,2.1,5.3,4.1,8,6.2c0.3,0.2,0.6,0.4,0.8,0.7
				c0.2,0.3,0.1,0.7,0.1,1.1c-0.4-0.1-0.8,0-1-0.2c-2.4-1.9-4.9-3.8-7.2-5.8c-1.3-1.2-2.9-1.4-4.4-2c-0.4-0.2-0.9-0.4-1.1-0.8
				c-0.6-1.1-1.2-2.3-1.7-3.4c-0.3-0.5-0.2-0.8,0.4-0.9c0.3,0,0.8-0.1,1-0.3c0.2-0.2,0.5-0.9,0.4-1c-1.5-1.1-0.9-2.8-1-4.2
				c0-0.4,0-0.7,0-1.1C285.9,137.3,286,137.3,286.1,137.3z"/>
			<path class="st1" d="M258.4,149.4c0.1,1.7,0.1,3.5,0.3,5.2c0.1,0.6,0.5,1.2,0.7,1.9c0.1,0.2-0.2,0.7-0.4,0.8
				c-0.7,0.3-1.4,0.3-2.1,0.6c-0.8,0.3-1.4,0.2-1.9-0.5c-0.1-0.1-0.3-0.2-0.5-0.4c-1.8-1.4-1.9-1.6-1-3.6c1.1-2.2,2.4-4.4,3.6-6.6
				c0.2-0.3,0.6-0.5,0.9-0.7c0.1,0.3,0.3,0.7,0.3,1C258.5,148,258.5,148.7,258.4,149.4C258.5,149.4,258.5,149.4,258.4,149.4z"/>
			<path class="st1" d="M291.1,167.7c-1.1,0-1.7,0-2.3,0c-0.5-0.1-1.3-0.1-1.5-0.4c-1.4-1.9-2.7-3.8-4-5.8c0.1-0.1,0.2-0.2,0.2-0.2
				c0.6-0.1,1.4,0.1,1.8-0.2c0.3-0.2,0-1.1,0-1.7c0.1-1.2,0.3-2.4,0.5-3.6c2.2,1.3,3.3,2.9,1.5,5.4c-0.3,0.5-0.3,0.7,0.1,1.2
				C288.7,164.1,289.9,165.9,291.1,167.7z"/>
			<path class="st1" d="M235,63.5c1.2-1.2,2.4-2.3,3.6-3.5c0.8-0.7,1.2-1.5,1.1-2.5c-0.1-0.8,0.2-1,1-0.7c0.6,0.2,1.2,0.4,1.8,0.5
				c1.1,0.2,1.6,0.6,1.3,1.8c-0.2,0.6-0.3,0.8-0.9,0.9c-2.3,0.2-3,1.3-2.6,3.6c0.1,0.4,0,0.8-0.2,1.2c0,0.1-0.5,0.2-0.6,0.1
				c-1-1.2-2.4-1-3.7-1.1c-0.2,0-0.5,0-0.7,0C235.1,63.7,235.1,63.6,235,63.5z"/>
			<path class="st1" d="M216.5,69.6c0,0.6,0,1.3,0,2c0,0.2-0.3,0.6-0.4,0.7c-0.6,0.1-1.3,0-1.9,0c0-0.3,0-0.7,0.1-1
				c0.7-1.7,1.4-3.3,2.1-5c0.2-0.4,0.6-0.8,1-1c0.6-0.4,1.3-0.7,2-1c0.2-0.1,0.3-0.1,0.5-0.2c0.2,1.4,1.4,0.3,2.1,0.8
				c-1.4,1.7-2.7,3.4-4.1,5.1C217.7,70,217.1,69.7,216.5,69.6z"/>
			<path class="st1" d="M186.7,134.4c2.5-5.8,5.9-10.7,9.3-15.8c0.6,1.4,0.4,2.5-0.3,3.7c-2.5,4.1-5.3,8.1-8.5,11.8
				C187.1,134.2,187,134.3,186.7,134.4z"/>
			<path class="st1" d="M222.6,59.5c0.4-0.8,0.9-2,1.6-3c0.9-1.4,1.9-2.7,2.9-4.1c0.2-0.2,0.3-0.5,0.5-0.7c0.4-0.2,0.8-0.3,1.2-0.5
				c0.1,0.6,1.3,0.9,0.6,1.8c-1.9,2.7-3.8,5.4-5.7,8.1c-0.1,0.1-0.6,0-0.7-0.1C222.8,60.7,222.8,60.3,222.6,59.5z"/>
			<path class="st1" d="M266.6,80.2c-0.2,1.7-1.6,2.3-2.8,3c-0.7,0.4-1.4,0.8-2.1,1.1c-1.4,0.6-2.8,1.2-4.3,1.8
				c-0.2,0.1-0.6-0.1-0.9-0.1c0.2-0.3,0.2-0.7,0.5-1c0.2-0.2,0.5-0.2,0.8-0.3c0.8-0.3,1.5-0.6,1.4-1.7c0-0.4,0.8-1.2,1.3-1.4
				C262.6,81,264.6,80.6,266.6,80.2C266.6,80.2,266.6,80.2,266.6,80.2z"/>
			<path class="st1" d="M239.5,141.9c0-0.6-0.1-1.2,0.1-1.7c1.3-3.1,2.7-6.2,4.1-9.3c0.2-0.5,0.8-0.8,1.2-1.2
				c0.5,0.6,0.6,1.1,0.3,1.9c-1.7,3.3-3.4,6.7-5,10c-0.1,0.1-0.2,0.2-0.3,0.3C239.8,142,239.7,141.9,239.5,141.9z"/>
			<path class="st1" d="M104.9,278.6c-0.6-0.9-0.1-1.8,0.2-2.7c0.2-0.5,0.5-1.1,0.7-1.6c2,0.4,4.2,0.4,6,1.5
				c0.5,0.3,1.2,0.6,0.3,1.3c-0.1,0.1-0.3,0.3-0.3,0.5c0.1,1.2-0.5,1.1-1.3,0.8c0.1-0.3,0.2-0.5,0.3-0.8c0.2-0.5,0.3-1,0.4-1.5
				c-0.5,0-1.1-0.1-1.6-0.1c-0.2,0-0.5,0.2-0.5,0.3c0.1,1.6-1.3,1.5-2.2,2c-0.3,0.1-0.6,0.2-0.9,0.3
				C105.6,278.6,105.3,278.6,104.9,278.6z"/>
			<path class="st2" d="M196.7,115.5c0,0.2,0,0.4,0,0.6c-0.8,0.5-1.6,0.6-2.5,0.3c-2-0.7-4-1.3-6-1.9c-0.3-0.1-0.5-0.2-0.7-0.4
				c-1.5-1.4-3.1-2-5-0.8c0.1-0.7,0.1-1.5,0.2-2.2c1.3,0.5,2.6,1,3.9,1.4C189.9,113.5,193.3,114.5,196.7,115.5z"/>
			<path class="st1" d="M285.4,202.8c-0.5-0.3-1.1-0.7-1.6-1c-0.2-0.2-0.5-0.4-0.5-0.6c0.3-1.5-0.8-2.4-1.5-3.3
				c-1-1.5-1-2.9-0.6-4.5c0.2-0.6,0.4-0.6,0.8-0.4c1,0.5,1.8,0.9,1.5,2.5c-0.2,1.3,0.5,2.7,0.9,4.1
				C284.7,200.6,285.1,201.7,285.4,202.8C285.4,202.8,285.4,202.8,285.4,202.8z"/>
			<path class="st1" d="M242.7,128.3c-0.1,0.7,0,1.4-0.3,2c-1.2,2.9-2.5,5.7-3.9,8.5c-0.1,0.3-0.4,0.4-0.7,0.7
				c-0.2-0.4-0.6-0.9-0.5-1.2c1.2-3,2.4-5.9,3.7-8.8c0.2-0.5,0.8-0.9,1.3-1.3C242.5,128.2,242.6,128.3,242.7,128.3z"/>
			<path class="st1" d="M266,131c3.8,2.4,7.5,4.8,11.3,7.2c0,0.1-0.1,0.3-0.1,0.4c-0.9-0.3-2-0.5-2.8-0.9c-2-1-4-2-5.9-3.2
				c-1.1-0.8-1.9-2-2.9-3C265.7,131.3,265.8,131.1,266,131z"/>
			<path class="st1" d="M251.9,150.9c-0.7-0.1-1.3-0.2-1-1.3c0.8-2.4,1.5-4.9,2.2-7.3c0.1-0.3,0.4-0.6,0.7-0.8
				c0.1,0,0.6,0.3,0.6,0.4c-0.3,2.5-0.7,5-1.1,7.5C253.2,150.2,253,151,251.9,150.9z"/>
			<path class="st2" d="M139.2,237.6c1.4-1.7,2.7-3.4,4.1-5.1c0.3,0.4,0.6,0.7,0.9,1.1c0.2,0.3,1.1,0.7-0.1,0.9c0,0.2,0,0.5,0.1,0.6
				c0.6,0.7,0.3,1.1-0.3,1.5c-0.8,0.5-1.6,1-2.4,1.5C140.6,238.6,139.9,238.1,139.2,237.6z"/>
			<path class="st1" d="M239,65.5c-0.7,0.6-1,0.9-1.4,1.2c-0.7,0.5-1.4,1-0.8,2c0.1,0.1,0,0.5,0,0.5c-0.9,0.1-1.9,0.3-2.8,0.3
				c-0.1,0-0.3-0.8-0.4-1.2c-0.4-2.8-0.4-2.8,2.4-2.8C236.8,65.5,237.7,65.5,239,65.5z"/>
			<path class="st1" d="M233.8,71.7c0,0.3,0.1,0.6,0,0.8c-0.9,1.7-1.9,3.5-2.8,5.2c-0.1,0.2-0.5,0.3-0.7,0.5
				c-0.2-0.4-0.4-0.7-0.5-1.1c0-0.1,0.2-0.3,0.3-0.5c1-1.7,1-1.7-0.5-2.8c-0.3-0.3-0.9-0.7-0.1-0.9
				C230.8,72.4,232.2,72.2,233.8,71.7z"/>
			<path class="st2" d="M172.3,118.6c2.8-2,5.6-4,8.5-6.1c0.4,1.7-0.5,2.4-1.4,3.1c-1.6,0.9-3.2,1.8-4.7,2.7
				C173.9,118.8,173.1,119.1,172.3,118.6z"/>
			<path class="st2" d="M313.2,174.3c0.1,1.4,0.3,2.7,0.4,4.1c0.2,2.6,0.4,5.1,0.5,7.7c0,0.1,0.1,0.2,0.2,0.3c0,1.1-0.5,1.8-1.6,2.1
				c-0.2-0.7-0.3-1.5-0.5-2.2c0.9-0.8,1-1.9,0.9-3c-0.2-2-0.4-4-0.4-6.1C312.7,176.3,313.1,175.3,313.2,174.3z"/>
			<path class="st1" d="M260.5,58.1c0.5,0.7,1,1.4,1.4,2.1c0.1,0.1,0,0.5-0.1,0.6c-1.4,1.7-2.8,3.3-4.2,5c-0.1,0.1-0.2,0.2-0.4,0.3
				c-0.1-0.1-0.2-0.1-0.4-0.2c0.3-0.8,0.4-1.8,0.9-2.5c0.6-1,1.5-1.8,2.2-2.7c0.2-0.3,0.2-0.7,0.3-1.1c0-0.5,0-0.9,0-1.4
				C260.3,58.2,260.4,58.1,260.5,58.1z"/>
			<path class="st1" d="M302.4,170.2c-0.1,2.4,0.3,4.9-0.7,7.2c-0.1,0.1-0.1,0.3-0.2,0.5c-0.4,0.6-0.8,1.2-1.1,1.8
				c-0.6-0.6-1.2-1.1-1.6-1.8c-0.1-0.1,0.7-1.1,0.9-1.1c0.8,0.2,0.8-0.2,0.9-0.7C301.2,174.1,301.8,172.1,302.4,170.2
				C302.4,170.1,302.4,170.2,302.4,170.2z"/>
			<path class="st1" d="M256.1,77.3c-0.4,0.7-0.8,1.5-1.3,2.2c-0.6,0.8-0.5,1.4,0.3,1.9c0.5,0.4,1.1,0.7,0.3,1.4
				c-0.8,0.7-1.1,0.1-1.5-0.4c-0.7-0.9-1.3-1.9-2-2.8c0.9-0.6,1.9-1.3,2.8-1.9c0.4-0.2,0.8-0.5,1.2-0.7
				C256,77.2,256,77.3,256.1,77.3z"/>
			<path class="st2" d="M278.5,147.3c-1.1-0.5-1.1-1.3-1-2.1c0.2-1.9,0.3-3.7,0.5-5.6c1.2,0.5,1.6,1.3,1.4,2.5
				C279.1,143.8,278.8,145.5,278.5,147.3z"/>
			<path class="st1" d="M277.4,102.3c-0.3,0.6-0.6,1.5-1,1.7c-0.5,0.2-1.4-0.2-1.9-0.6c-0.3-0.2-0.2-1-0.2-1.5c0-0.1,0-0.2,0.1-0.3
				c0.2-0.7,0.3-1.8,0.6-1.9C275.8,99.4,277.2,101.1,277.4,102.3z"/>
			<path class="st1" d="M249.4,141.6c1,2.6,0.3,5.6-1.4,7C247.2,146.1,248.9,144.1,249.4,141.6z"/>
			<path class="st1" d="M210.4,214.8c-0.7,0.5-1.5,1-2.2,1.4c-0.2,0-0.6,0-0.7-0.1c-0.4-0.8,0.2-3.3,1-3.7c0.2-0.1,0.9,0.2,1.1,0.5
				C210,213.5,210.1,214.2,210.4,214.8z"/>
			<path class="st1" d="M274.7,97.2c-1.6,0-3.1,0-4.7,0c-0.3,0-0.6-0.2-0.8-0.2c0.3-0.2,0.6-0.4,0.8-0.4c2.6,0,5.1,0,7.7,0
				c0.6,0,1.3,0,1.9,0c0.2,0,0.4,0.2,0.7,0.3c-0.2,0.1-0.4,0.3-0.7,0.3C277.9,97.2,276.3,97.2,274.7,97.2z"/>
			<path class="st2" d="M186.6,124.5c-0.9-1-0.9-1.8-0.3-2.7c0.7-1,1.3-2.1,2-3.2c0.1,0,0.2,0.1,0.3,0.1
				C188,120.6,187.3,122.5,186.6,124.5z"/>
			<path class="st1" d="M238.8,126.9c-0.3,1.5-0.6,3.1-1,4.6c-0.1,0.2-0.6,0.3-0.9,0.5c0-0.3-0.2-0.6-0.1-0.8
				c0.5-1.5,1.1-2.9,1.7-4.4C238.5,126.8,238.6,126.9,238.8,126.9z"/>
			<path class="st1" d="M235.4,32.1c0.1-0.1,0.2-0.2,0.3-0.2c0,0.1-0.1,0.2-0.1,0.4C235.4,32.2,235.4,32.1,235.4,32.1z"/>
			<path class="st1" d="M219.3,122.6c0.1-0.1,0.2-0.1,0.3-0.2c0,0,0.1,0.1,0.1,0.1C219.6,122.6,219.5,122.6,219.3,122.6
				C219.4,122.7,219.3,122.6,219.3,122.6z"/>
			<path class="st1" d="M288.5,135.5c0.2,0.1,0.3,0.2,0.5,0.2c0,0.1-0.1,0.1-0.1,0.2c-0.2-0.1-0.3-0.2-0.5-0.3
				C288.5,135.6,288.5,135.6,288.5,135.5z"/>
			<path class="st1" d="M288.4,135.7c-0.1-0.1-0.2-0.2-0.3-0.2c0.1,0,0.2,0.1,0.4,0.1C288.5,135.6,288.5,135.6,288.4,135.7z"/>
			<path class="st1" d="M173.8,165.6c0,0.1,0,0.2,0,0.2c0,0-0.1,0-0.1-0.1C173.7,165.7,173.7,165.7,173.8,165.6
				C173.8,165.6,173.8,165.6,173.8,165.6z"/>
			<path class="st1" d="M291.4,153.4c0.1,0.1,0.2,0.2,0.2,0.2c0,0,0,0,0,0C291.5,153.5,291.4,153.4,291.4,153.4L291.4,153.4z"/>
			<path class="st1" d="M291.4,153.4c0,0-0.1-0.1-0.1-0.1C291.3,153.3,291.3,153.3,291.4,153.4C291.3,153.3,291.3,153.3,291.4,153.4
				C291.4,153.4,291.4,153.4,291.4,153.4z"/>
			<path class="st2" d="M173.5,206.2c0,0,0,0.1-0.1,0.1C173.5,206.2,173.5,206.2,173.5,206.2C173.5,206.2,173.5,206.2,173.5,206.2z"
				/>
			<path class="st0" d="M196.7,115.5c-3.4-1-6.8-2-10.2-3.1c-1.3-0.4-2.6-0.9-3.9-1.4c0.4-0.8,0.8-1.5,1.2-2.3
				c0.3-0.6,0.8-1.3,0.9-1.9c0.4-1.9,0.1-2.2-1.6-3.1c-0.6-0.3-1.2-0.7-1.7-1c1.2-1.9,3.1-1.5,4.8-1.3c0.8,0.1,1.3,0,2-0.4
				c3.3-1.8,6.8-2.1,10.3-0.7c0.3,0.1,0.6,0.5,0.9,0.8c0.5,0.5,1,1.2,1.6,1.6c1.2,0.8,1.5,1.9,1.5,3.2c-0.5,1.1-1,2.2-1.6,3.3
				c-0.2,0.4-0.5,0.9-0.9,1c-1.3,0.4-1.9,1.4-2.3,2.6C197.5,113.8,197,114.6,196.7,115.5z M200.1,107.7c0-0.2,0-0.4,0-0.5
				c-0.4-0.3-0.8-0.7-1.3-0.9c-2.9-1.1-5.9-2.2-8.9-3.2c-0.7-0.2-1.4-0.3-2.1-0.4c0.5,0.6,1,1.4,1.7,1.7c3.1,1.3,6.3,2.6,9.4,3.7
				C199.2,108.3,199.7,107.9,200.1,107.7z"/>
			<path class="st0" d="M113.1,92c-1,1.6-1.9,3.3-3,4.9c-0.8,1.1-1.7,2.2-2.8,3.6c2.2-0.5,4.1-0.7,5.9-1.2c3-0.8,6-1.9,9.1-2.5
				c3.6-0.7,7.2-1.1,10.8-1.6c0.3,0,0.6,0.1,0.9,0.2c0.3,0.1,0.6,0.3,1,0.4c-0.3,0.3-0.6,0.8-1,0.9c-1.3,0.3-2.6,0.5-4,0.7
				c-8.5,0.8-16.8,2.6-24.9,5.5c-7.1,2.5-14.3,4.7-21.5,7.1c-0.5,0.2-1,0.3-1.5,0.4c0-0.1-0.1-0.2-0.1-0.3c1.9-0.9,3.7-1.9,5.6-2.6
				c5.2-2,10.5-3.7,15.7-5.8c1.4-0.5,2.7-1.7,3.6-2.9c1.8-2.4,3.4-5,5.9-6.8C113,91.9,113.1,92,113.1,92z"/>
			<path class="st0" d="M66.4,117.7c-0.1-0.6-0.3-0.9-0.2-1.1c2.7-5.4,6.4-10,10.8-14c0.4-0.3,0.9-0.5,1.4-0.7
				c0.3-0.1,0.6-0.1,1-0.2c-0.1,0.4-0.1,1-0.4,1.3c-0.6,0.7-1.4,1.3-2.1,1.9c-3.5,2.8-6,6.5-8.2,10.3c-0.3,0.6-0.6,1.1-1,1.6
				C67.5,117.1,67.1,117.3,66.4,117.7z"/>
			<path class="st0" d="M130.7,65.5c0.7-0.5,1.2-1,1.8-1.3c3.7-1.7,7.5-3.4,11.3-5c0.5-0.2,1.2,0,1.9,0c-0.4,0.4-0.8,0.8-1.3,1.1
				c-3.4,1.8-6.8,3.4-10.1,5.2C133.1,66,132.1,66.2,130.7,65.5z"/>
			<path class="st0" d="M89,96.5c2.6-0.5,5.1-1,7.7-1.6c3.9-1,7.8-2.1,11.7-3.1c0.5-0.1,1.2,0.1,1.7,0.3c0.2,0.1,0.5,0.6,0.4,0.8
				c-0.1,0.2-0.5,0.5-0.8,0.5c-5.6,0.5-11.2,1.5-16.6,3c-1,0.3-1.9,0.5-2.9,0.6c-0.4,0.1-0.8-0.1-1.3-0.1C89,96.7,89,96.6,89,96.5z"
				/>
			<path class="st2" d="M147.8,177.8c1.1-1.7,2.9-1.7,4.6-1.9c0.1,0,0.2,0.1,0.3,0.2c-1.3,2.3-2.8,4.5-4.8,6.2
				c-0.5-0.3-0.9-0.6-1.4-1C146.9,180.2,147.3,179,147.8,177.8z"/>
			<path class="st0" d="M94.7,97.5c4.5-0.8,8.9-2.1,13.5-2.4c0.1,0.2,0.1,0.4,0.2,0.5c-0.7,0.4-1.3,0.9-2,1c-3.3,0.6-6.6,1-9.9,1.5
				c-0.6,0.1-1.2-0.1-1.8-0.1C94.7,97.9,94.7,97.7,94.7,97.5z"/>
			<path class="st0" d="M114.9,89.5c0.7-1.3,1.2-2.6,2-3.8c0.4-0.6,1.3-0.9,2-1.3c0.7-0.4,1.4-0.7,2.2-1c0.3-0.1,0.7-0.1,1-0.2
				c-0.1,0.4-0.1,1-0.4,1.3c-1.4,1.3-2.8,2.5-4.3,3.6c-0.7,0.6-1.6,1-2.4,1.4C115,89.5,114.9,89.5,114.9,89.5z"/>
			<path class="st0" d="M199.2,46.5c0.3,1.9,0.4,3.6-0.5,5.3c-0.2,0.4-0.1,1.1-0.3,1.6c-0.1,0.4-0.3,1-0.6,1.1
				c-0.4,0.1-1-0.1-1.5-0.2c-0.1,0-0.1-0.4-0.1-0.5C197.2,51.4,198.2,49,199.2,46.5z"/>
			<path class="st0" d="M69.8,116.6c3.1-2.4,6.4-4.6,10.5-5.5C77.2,114,73.6,115.5,69.8,116.6L69.8,116.6z"/>
			<path class="st0" d="M125.1,67.8c-2.1,1.4-4.2,2.9-6.3,4.2c-0.3,0.2-1,0.1-1.3-0.2c-0.6-0.5-0.1-0.9,0.4-1.2
				c1.9-0.8,3.8-1.7,5.6-2.5c0.5-0.2,1-0.4,1.5-0.5C125.1,67.7,125.1,67.8,125.1,67.8z"/>
			<path class="st0" d="M146.5,181.4c0.5,0.3,0.9,0.6,1.4,1c-0.9,1.5-1.9,2.9-2.8,4.4c-0.2-0.1-0.3-0.2-0.5-0.2
				C145.2,184.8,145.8,183.1,146.5,181.4z"/>
			<path class="st0" d="M69.8,116.6c-0.2,0.1-0.3,0.2-0.5,0.2l0,0C69.5,116.8,69.7,116.7,69.8,116.6
				C69.8,116.6,69.8,116.6,69.8,116.6z"/>
			<path class="st0" d="M138,99.6c0-0.1,0-0.2,0.1-0.3C138,99.4,138,99.5,138,99.6C138,99.6,138,99.6,138,99.6z"/>
			<polygon class="st0" points="144.6,187.1 144.6,187 144.6,187.1 			"/>
			<path class="st0" d="M115,89.6c-0.1,0-0.1,0-0.2,0.1c0-0.1,0.1-0.1,0.1-0.2C114.9,89.5,115,89.5,115,89.6z"/>
			<path class="st0" d="M113,91.9c0.1,0,0.2,0,0.2,0c0,0.1-0.1,0.1-0.1,0.2C113.1,92,113,91.9,113,91.9z"/>
			<path class="st0" d="M69.4,116.9c0,0-0.1,0.1-0.1,0.1C69.3,117,69.3,116.9,69.4,116.9C69.3,116.9,69.3,116.9,69.4,116.9
				C69.4,116.9,69.4,116.9,69.4,116.9z"/>
			<path class="st0" d="M143.3,96.2c0.1,0,0.1-0.1,0.2-0.1C143.4,96.2,143.4,96.2,143.3,96.2C143.3,96.3,143.3,96.2,143.3,96.2z"/>
			<path class="st0" d="M235,33.6c0,0-0.1,0.1-0.1,0.1C234.9,33.7,234.9,33.7,235,33.6C234.9,33.6,234.9,33.6,235,33.6
				C235,33.6,235,33.6,235,33.6z"/>
			<path class="st1" d="M159.6,127.4c1.1-0.6,1.1-1.3,0.4-2.4c-1.3-1.9-2.4-4-3.5-6c-0.2-0.4-0.2-1-0.1-1.4c0.1-0.6,0.5-1.2,0.6-1.8
				c0.2-0.7,0.5-0.7,1-0.4c1.6,0.7,2.9,1.7,3.6,3.4c1.2,2.8,2.7,5.4,4,8.2c1.5,3.3,1.4,6.8,1.1,10.3c0,0.4,0,0.8,0.1,1.1
				c0.4,0.9,0.5,1.7-0.3,2.5c-0.8,0.9-1.3,1.9-1.5,3.1c-0.5,3.7-2.4,6.9-4,10.2c-1,2-1.9,4-3,6c-1.2,2.3-2.6,4.6-3.8,6.9
				c-0.1,0.1-0.2,0.2-0.6,0.2c0.5-1.4,0.9-2.7,1.4-4.1c0.1-0.2,0.1-0.3,0.2-0.4c0.1-0.4,0.2-0.9,0.3-1.4c-0.4,0.2-0.7,0.5-1.1,0.7
				c-0.2,0.1-0.5,0.2-0.7,0.4c0.6-1.2,1.3-2.5,1.9-3.7c1.9-4.1,3.8-8.2,5.6-12.4c0.3-0.8,0.2-1.8,0.2-2.7c-0.2-3.1-0.6-6.3-0.5-9.4
				c0-1.6,0.4-3.1-1.1-4.4C159.4,129.5,159.7,128.3,159.6,127.4z"/>
			<path class="st1" d="M148.5,117.9c0.4-1,1.1-1.2,2-0.6c0.4,0.3,0.8,0.6,1.2,0.9c0.4,0.2,0.8,0.6,1.1-0.2c0.1-0.2,0.8-0.3,0.9-0.2
				c0.9,0.8,1.9,1.5,2.5,2.5c0.9,1.6,1.6,3.4,2.3,5.1c0,0.1-0.1,0.3-0.1,0.4C155.1,123.1,151.8,120.5,148.5,117.9z"/>
			<path class="st0" d="M69.7,146.2c0.6-0.2,1.2-0.7,1.9-0.7c4.1-0.1,8.2,0,12.4,0c0.1,0,0.3,0.1,0.4,0.1c0,0.1,0,0.2,0,0.3
				c-4.9,0.2-9.7,0.5-14.6,0.7C69.7,146.5,69.7,146.3,69.7,146.2z"/>
			<path class="st0" d="M130.9,187.5c1.2,0.5,2.2,1,3.3,1.4c1.1,0.4,2.2,1.4,3.6,0.6c0.1,0,0.4,0.2,0.5,0.3c0.1,0.6,0.2,1.3,0.2,1.9
				c0,0.1-0.4,0.4-0.5,0.4c-2.4-1.1-4.8-2.3-7.1-3.4c-0.2-0.1-0.3-0.5-0.3-0.7C130.5,187.7,130.8,187.6,130.9,187.5z"/>
			<path class="st1" d="M153.8,162.5c0,0.1,0,0.2-0.1,0.3c-0.1,0-0.1-0.1-0.2-0.1C153.7,162.6,153.7,162.5,153.8,162.5z"/>
			<path class="st1" d="M56.1,144c-2.1,2.3-4.1,4.6-6.2,6.9c-1-1.8,0.1-5.2,1.8-5.8c0.3-0.1,0.7,0.2,1,0.3c2.2-3.7,4.5-7.5,6.7-11.3
				c0.8-1.3,1.6-2.1,3.2-1.9c-0.4,0.7-0.8,1.4-1.2,2C59.5,137.5,57.1,140.3,56.1,144z"/>
			<path class="st1" d="M154.7,101.4c-1,1.2-2,2.4-3,3.6c-0.2,0.3-0.6,0.4-0.9,0.6c0.1-0.3,0-0.8,0.2-1c1.5-2.4,2.9-4.8,4.4-7.3
				c0.2-0.3,0.3-0.5,0.6-0.8c0.1-0.1,0.4-0.1,0.5-0.1c0,0.1,0,0.3,0,0.4c-0.1,0.3-0.2,0.5-0.3,0.8c-0.5,1.4-0.5,1.4,0.9,1.6
				c0.1,0,0.3,0,0.3,0.1c1.8,1.7,4.2,1.2,6.3,1.8c0.4,0.1,0.9,0.3,1,0.6c0.1,0.3-0.1,1-0.4,1.1c-0.4,0.2-1.1,0.1-1.4-0.1
				c-1.4-1.3-3.1-1.3-4.7-1.8c0,0.1-0.1,0.2-0.1,0.3c0.4,0.1,0.8,0.3,1.4,0.5c-1.3,0.9-2.4,1.7-3.5,2.5c-0.6,0.5-1.2,1.1-1.8,1.5
				c-0.3,0.2-0.7,0.2-1,0.3c-0.1-0.4-0.3-0.8-0.1-1.1c0.5-1.2,1.1-2.3,1.7-3.5c0.1-0.2,0.2-0.3,0.2-0.5c0-0.1,0.1-0.3,0.1-0.4
				c-0.1,0.1-0.2,0.2-0.3,0.3C154.9,101.1,154.8,101.3,154.7,101.4z"/>
			<path class="st1" d="M116.4,114c-0.3-0.3-0.9-0.8-1.5-1.3c0.4-0.5,0.8-1.3,1.3-1.5c1.5-0.5,3.1-0.8,4.6-1.1
				c0.9-0.2,1.7,0.7,1.4,1.4c-0.4,0.7-1,1.6-1.7,1.8C119.5,113.8,118.1,113.8,116.4,114z"/>
			<path class="st2" d="M56.1,144c1-3.6,3.4-6.5,5.2-9.7c0.4-0.7,0.8-1.4,1.2-2c0.4-0.2,0.8-0.5,1.1-0.7l0,0
				c-1.9,4.3-3.9,8.6-7,12.3C56.5,143.9,56.3,143.9,56.1,144z"/>
			<path class="st1" d="M48.7,143c1.7-2.2,3.3-4.3,5-6.5c0,0,0-0.1,0.1-0.1c0.4-0.3,0.8-0.7,1.2-1c0.1,0.7,0.5,1.4,0.3,1.9
				c-0.5,1.2-1.2,2.4-2.1,3.2c-1.2,1.1-2.7,1.8-4.1,2.7C48.9,143.2,48.8,143.1,48.7,143z"/>
			<path class="st1" d="M148.4,96.3c-0.2,0.4-0.4,0.9-0.6,1.3c-1.6,2.4-3.2,4.7-4.7,7.1c-0.6,0.9-1.2,1.1-2.3,0.8
				c2.5-3.2,4.9-6.3,7.3-9.3C148.2,96.2,148.3,96.2,148.4,96.3z"/>
			<path class="st1" d="M146,104.4c-0.4-1.8,0.6-2.8,1.4-3.9c1.1-1.7,2.5-3.2,3.7-4.7c0.1,0.1,0.3,0.1,0.4,0.2
				c-0.2,0.7-0.3,1.5-0.7,2.1C149.3,100.1,147.7,102.2,146,104.4z"/>
			<path class="st1" d="M157.9,81.8c-0.1-0.4-0.3-0.8-0.4-1.2c-0.1-0.4-0.2-0.7-0.2-1.1c0-0.2,0.2-0.5,0.3-0.5
				c0.9-0.1,1.9-0.2,2.8-0.2c0.3,0,0.9,0.3,0.9,0.5c0,0.5-0.1,1.4-0.4,1.5C160.1,81.3,159,81.5,157.9,81.8z"/>
			<path class="st1" d="M152.7,97.9c-1.4,2.8-2.8,5.6-4.3,8.4c-0.1,0.2-0.6,0.3-0.9,0.5c-0.1-0.3-0.3-0.8-0.2-1
				c1.1-1.9,2.3-3.8,3.5-5.7c0.5-0.8,1.1-1.6,1.6-2.4C152.5,97.7,152.6,97.8,152.7,97.9z"/>
			<path class="st1" d="M161.6,73.3c0,0.1,0.1,0.1,0.1,0.1c0,0-0.1,0.1-0.1,0.1c0,0-0.1,0-0.1-0.1C161.6,73.4,161.6,73.4,161.6,73.3
				z"/>
			<path class="st1" d="M35.3,169.7c0,0,0.1-0.1,0.1-0.1C35.4,169.6,35.3,169.7,35.3,169.7C35.3,169.7,35.3,169.7,35.3,169.7z"/>
			<path class="st1" d="M130.3,107.5c0,0-0.1,0.1-0.1,0.1C130.2,107.6,130.2,107.6,130.3,107.5C130.3,107.5,130.3,107.5,130.3,107.5
				C130.3,107.5,130.3,107.5,130.3,107.5z"/>
			<path class="st2" d="M63.6,131.5c0,0,0.1-0.1,0.1-0.1C63.7,131.4,63.7,131.5,63.6,131.5C63.7,131.5,63.6,131.5,63.6,131.5
				L63.6,131.5z"/>
			<path class="st1" d="M161.1,72.6c0,0.1,0,0.2,0,0.3c-0.1,0-0.1-0.1-0.2-0.1C161,72.8,161.1,72.7,161.1,72.6z"/>
			<path class="st0" d="M119.8,319.9c-0.7-0.6-1.2-0.2-1.7,0.3c-2.4,2.3-4.8,4.5-7.3,6.8c-0.2,0.2-0.6,0.5-0.9,0.5
				c-1.2-0.2-2,0.5-2.8,1.1c-2.1,1.5-4.2,2.9-6.2,4.5c-0.5,0.4-0.6,0.4-0.9-0.2c-0.5-1.2-0.7-2.3,0.1-3.6c0.9-1.5,1.5-3.1,2.2-4.6
				c0.3-0.7,0.4-1-0.5-1c-1,0.1-0.7-0.5-0.4-0.9c0.6-0.9,0.8-1.5-0.5-2c-0.8-0.3-0.1-0.7,0.1-0.9c1.1-1.2,2.3-2.3,3.3-3.5
				c0.5-0.6,0.6-1.4,0.9-2.3c1.2-0.1,2.2-1.5,1.8-3.1c-0.2-1-0.1-2-1.5-2.4c-0.9-0.2-0.4-1.2-0.3-1.9c0.1-0.6,0.3-1,1.1-1
				c0.8,0,1.6,0,2.4,0c0.6,0,1-0.1,0.6-0.8c-0.5-0.9-0.4-1.7,0.1-2.7c0.3-0.5,0.2-1.3,0-2c-0.1-0.5-0.5-1-0.7-1.5
				c-0.3-0.6-0.2-1.1,0.5-1.4c0.4-0.2,0.9-0.3,1.2-0.6c0.4-0.5,0.8-1,1-1.6c0.5-1-0.6-0.8-1-1.1c-1-0.9-1.4-2.8-0.5-4.2
				c0.3-0.5,0.6-1,1-1.5c0.6-1,0.7-2,0.2-3.1c-0.3-0.7-0.3-1.5-0.4-2.2c0.1-0.4,0.2-0.9,0.3-1.3c0.3-0.1,0.7-0.2,1-0.3
				c2.3-0.1,3.5,1.3,3.8,4.1c0.2,2.6,1.6,3.9,4.2,4.4c2.2,0.4,4.4,0.7,6.6,0.2c0.2,0,0.4,0,0.7,0.1c-0.3,0.3-0.4,0.6-0.6,0.7
				c-0.8,0.6-0.9,1.1,0,1.8c0.5,0.4,0.6,0.7-0.2,0.9c-1.2,0.2-2.3,0.6-3.6,0.9c0.2,0.3,0.4,0.6,0.6,0.8c0.4,0.5,0.5,0.8-0.2,1.2
				c-0.2,0.1-0.2,0.4-0.3,0.6c0.3,0,0.5,0.2,0.8,0.1c0.7-0.2,1.5-0.5,2.4-0.9c-0.9,1.7-1.8,3-3.6,3.6c-0.7,0.2-1.5,0.7-2,1.3
				c-0.8,0.8-1.5,1.8-2.2,2.6c-0.1,0.1-0.2,0.3-0.3,0.5c0.2,0.1,0.4,0.1,0.6,0.2c0.5,0.2,1.1,0.3,1.4,0.7c0.1,0.2-0.3,0.8-0.5,1.3
				c-0.5,1.2-1.1,2.3-1.5,3.5c-0.5,1.8-0.8,3.7-1.3,5.6c0,0,0,0.1-0.1,0.1c0,0,0-0.1,0.1-0.1c2-1.1,4.1-2.2,6-3.4
				c1-0.7,1.8-1.8,2.8-2.6c0.3-0.2,0.8-0.1,1.2-0.2c0,0.4,0.1,0.9-0.1,1.2c-1.9,2.9-3.9,5.7-5.9,8.6
				C120.6,319.5,120.2,319.7,119.8,319.9z M111.6,309.8c-0.1-0.1-0.2-0.1-0.2-0.2c-0.3,0.3-0.6,0.6-0.8,1c-0.1,0.2-0.1,0.6,0,0.9
				c0,0.1,0.4,0.2,0.5,0.1c0.2-0.2,0.5-0.4,0.6-0.7C111.6,310.6,111.6,310.2,111.6,309.8z"/>
			<path class="st0" d="M253.4,29.8c-0.3,3.8-4.1,11.8-6.4,13.6c0.3-1,0.4-1.7,0.7-2.5c0.2-0.6,0.4-1.2,0.6-1.8
				c0.2-1,0.7-1.7,1.4-2.5c1-1.2,1.7-2.8,2.5-4.2C252.4,31.6,252.8,30.8,253.4,29.8z"/>
			<path class="st0" d="M253.6,29.5C253.6,29.6,253.6,29.6,253.6,29.5c-0.1,0.1-0.1,0-0.1,0C253.5,29.5,253.5,29.5,253.6,29.5
				C253.6,29.5,253.6,29.5,253.6,29.5z"/>
			<path class="st2" d="M296.1,232.5c-0.4,0-0.8,0-1.2,0.1c-0.4-0.9-0.8-1.9-1.1-2.8c-0.2-0.4-0.2-0.8-0.4-1.3c0-1.5,1.2-1.1,2-1.3
				c0.4,1.1,1,2.1,1.2,3.2C296.8,231.1,296.3,231.8,296.1,232.5z"/>
			<path class="st0" d="M298.1,231.1C298.1,231.2,298,231.2,298.1,231.1C298,231.2,298.1,231.2,298.1,231.1
				C298.1,231.1,298.1,231.1,298.1,231.1z"/>
			<polygon class="st0" points="92.3,299.9 92.3,299.9 92.3,299.9 			"/>
			<path class="st0" d="M271.1,213.9c3.5,3.4,7.2,6.9,10.8,10.4c0.1,0.1,0,0.4,0,0.9c-2.9-2.2-6.2-3.4-8.5-6.2
				c-0.1-0.2-0.3-0.4-0.4-0.6C272.3,216.9,271.7,215.4,271.1,213.9z"/>
			<path class="st0" d="M273.6,195.4c-1.2-1.6-2.5-3.2-3.7-4.8c-1.3-1.8-2.6-3.7-3.9-5.6c-0.2-0.3-0.3-0.7-0.4-1
				c0.4,0.2,0.9,0.3,1.2,0.6c1.2,1.5,2.2,3,3.4,4.5c0.2,0.3,0.5,0.4,0.8,0.6c0,0,0,0,0,0c0.7,1.5,1.5,3,2.2,4.5
				C273.3,194.5,273.4,194.9,273.6,195.4L273.6,195.4z"/>
			<path class="st0" d="M180.9,196.9c-0.1-0.4-0.3-0.9-0.2-1.1c0.8-1.4,1.6-2.8,2.5-4.2c0.5-0.7,1.2-1.2,1.9-1.8
				c0.1-0.1,0.3-0.1,0.5-0.1c0,0.2,0.1,0.3,0,0.4c-1.1,2.4-2.4,4.6-4.2,6.4C181.4,196.7,181.3,196.7,180.9,196.9z"/>
			<path class="st0" d="M266.9,210c-1.7-1.5-3.5-2.8-5.1-4.4c-1.2-1.1-2.2-2.4-3.3-3.5c0.1-0.1,0.2-0.2,0.3-0.3c1,0.8,2,1.5,2.9,2.4
				c1.7,1.6,3.3,3.3,4.9,5C266.8,209.4,266.8,209.8,266.9,210L266.9,210z"/>
			<path class="st0" d="M270.6,213.5C270.5,213.5,270.5,213.5,270.6,213.5c-0.1,0-0.1-0.1-0.1-0.1
				C270.5,213.4,270.5,213.4,270.6,213.5C270.6,213.4,270.6,213.5,270.6,213.5z"/>
			<path class="st0" d="M269.6,212.7c0-0.1,0-0.1,0-0.1c0,0,0,0,0.1,0C269.7,212.6,269.6,212.7,269.6,212.7z"/>
			<path class="st0" d="M266.9,210c0.2,0.1,0.3,0.2,0.5,0.2l0,0C267.2,210.2,267,210.1,266.9,210C266.9,210,266.9,210,266.9,210z"/>
			<path class="st0" d="M267.4,210.2C267.4,210.3,267.4,210.3,267.4,210.2C267.4,210.3,267.4,210.3,267.4,210.2
				C267.4,210.3,267.4,210.3,267.4,210.2C267.4,210.2,267.4,210.2,267.4,210.2z"/>
			<path class="st0" d="M273.6,195.4c0,0,0.1,0.1,0.1,0.1C273.7,195.5,273.7,195.5,273.6,195.4C273.6,195.4,273.6,195.4,273.6,195.4
				C273.6,195.4,273.6,195.4,273.6,195.4z"/>
			<path class="st0" d="M140.6,227.3c0-0.1,0-0.2,0.1-0.3C140.7,227.1,140.7,227.2,140.6,227.3C140.6,227.3,140.6,227.3,140.6,227.3
				z"/>
			<path class="st0" d="M140.6,227.3c-0.1,0.1-0.2,0.2-0.2,0.2c0,0,0,0,0,0C140.5,227.4,140.6,227.4,140.6,227.3
				C140.6,227.3,140.6,227.3,140.6,227.3z"/>
			<path class="st1" d="M104.6,283.3c-0.9-0.9-0.7-2.1-0.6-3.2c0.5,0.4,1,0.9,1.6,1.4c0.2-0.8,0.3-1.5,0.5-2.2
				c0.8,0.4,1.6,0.7,0.6,1.8c-0.8,0.9,0.7,0.5,0.8,1.4C106.6,282.8,105.6,283,104.6,283.3z"/>
			<path class="st0" d="M106.1,279.4c-0.2,0.7-0.3,1.4-0.5,2.2c-0.6-0.6-1.1-1-1.6-1.4c0-0.3,2-0.6,0-1.1c0.3-0.1,0.6-0.3,0.9-0.4
				c0.4,0,0.8,0,1.1,0.1C106,278.9,106.1,279.1,106.1,279.4z"/>
			<path class="st0" d="M109.9,283.3c-0.6,0.1-1.2,0.1-2.1,0.2c0.5-0.7,0.9-1.3,1.4-1.9c0,0,0.6,0.4,1,0.6
				C110.1,282.6,110,283,109.9,283.3z"/>
			<path class="st1" d="M109.9,283.3c0.1-0.4,0.2-0.7,0.2-1.1c0.1-0.4,0.3-0.7,0.4-1.2c0.1,0.1,0.3,0.4,0.6,0.7
				c-0.1,0.4-0.2,0.9-0.3,1.3C110.6,283.2,110.2,283.2,109.9,283.3z"/>
			<path class="st2" d="M200.1,107.7c-0.4,0.2-0.9,0.5-1.1,0.4c-3.2-1.2-6.3-2.4-9.4-3.7c-0.7-0.3-1.1-1.1-1.7-1.7
				c0.7,0.1,1.4,0.2,2.1,0.4c3,1,5.9,2.1,8.9,3.2c0.5,0.2,0.9,0.6,1.3,0.9C200.1,107.4,200.1,107.5,200.1,107.7z"/>
			<path class="st0" d="M155,101c0.1-0.1,0.2-0.2,0.3-0.3c0,0.1-0.1,0.3-0.1,0.4C155.1,101.1,155,101,155,101z"/>
			<path class="st0" d="M155.1,101.1c-0.1,0.2-0.2,0.3-0.2,0.5c-0.1-0.1-0.1-0.1-0.2-0.2c0.1-0.2,0.2-0.3,0.3-0.5
				C155,101,155.1,101.1,155.1,101.1z"/>
			<path class="st1" d="M111.6,309.8c0,0.4,0.1,0.8,0,1.2c-0.1,0.3-0.3,0.5-0.6,0.7c-0.1,0.1-0.5-0.1-0.5-0.1
				c-0.1-0.3-0.1-0.7,0-0.9c0.2-0.4,0.5-0.6,0.8-1C111.4,309.7,111.5,309.8,111.6,309.8z"/>
			<path class="st1" d="M116.9,315.6c0,0,0,0.1-0.1,0.1C116.8,315.7,116.9,315.6,116.9,315.6C116.9,315.6,116.9,315.6,116.9,315.6z"
				/>
		</g>
	</g>
</g>
</svg>
