<?xml version="1.0" encoding="utf-8"?>
<!-- Generator: Adobe Illustrator 21.1.0, SVG Export Plug-In . SVG Version: 6.00 Build 0)  -->
<svg version="1.1" id="Layer_1" xmlns="http://www.w3.org/2000/svg" xmlns:xlink="http://www.w3.org/1999/xlink" x="0px" y="0px"
	 viewBox="0 0 360 360" style="enable-background:new 0 0 360 360;" xml:space="preserve">
<style type="text/css">
	.st0{fill:#222423;}
	.st1{fill:#7F7F7F;}
	.st2{fill:#36AB49;}
	.st3{fill:#5C5D5D;}
</style>
<g>
	<path class="st0" d="M337,154.5c-6.7,12.3-13.3,24.6-20.1,36.9c-0.2,0.4-1.3,0.5-2,0.7c-0.4,0.4-0.8,0.7-1.2,1.1
		c-1.9,3.6-3.9,7.1-5.8,10.7c-1.8,3.4-3.4,6.8-5.6,11.1c7.1,0,12.3,0,15.6,0c1.8,3.3,2.8,5.8,4.5,7.7c2.5,2.8,5.6,5.1,9.5,8.5
		c-4.1,0.3-6.5,0.4-10.2,0.7c1.8,1,2.7,1.6,3.7,2.2c-0.1,0.3-0.2,0.6-0.3,0.9c-11.3,0-22.6,0-34.5,0c1,2.6,1.8,4.5,2.9,7.3
		c-4.6-2-8.7-3.8-12.8-5.6c-0.3,0.4-0.5,0.8-0.8,1.2c7.5,9.2,14.9,18.4,22.5,27.6c14.9,18.2,29.9,36.3,44.8,54.5
		c1.5,1.9,2.6,4.2,3.9,6.3c-29.4-20.6-58.7-41.2-88.1-61.7c-4.1-2.8-8.5-5.2-12.7-7.7c10.8,9.1,22.1,17.2,33.5,25.3
		c20.4,14.5,40.8,29,61.3,43.4c1.7,1.2,3.6,4.5,6,0.6c0.9,0.8,1.8,1.6,3.9,3.7c-6.1-0.4-10.4-0.8-14.7-0.8
		c-14.4-0.2-28.8-0.2-43.2-0.7c-3.5-0.1-7.2-1.3-10.2-3.1c-43.2-25.7-86.5-51.3-129.3-77.7c-9.8-6.1-20.4-6.5-30.8-8.8
		c-6-1.4-12.2-2-18.4-3c1.1-0.3,2.1-0.6,3.4-1c-4.2-5.6-8-10.9-12.1-16c-0.8-1.1-2.4-1.6-3.7-2.3l0,0.1c-1.2-1.6-2.4-3.2-3.6-4.7
		l0.1,0.1c-2.1-2.6-3.8-6.7-6.5-7.6c-7.2-2.5-14.8-3.6-22.3-5.3c-10.8-2.4-21.7-4.8-32.5-7.3c3.7-3.4,7.3-6.8,11-10.1
		c6.4,1.5,12.9,2.6,19.1,4.7c8.1,2.8,12.7-1,17.7-6.8c4.9-5.6,10.6-10.9,16.9-14.9c9.1-5.8,19-10.3,29.7-16
		c-1.9-2.1-4.3-4.9-6.7-7.7c-1-1.2-1.9-2.5-2.9-3.8c1.5-0.1,3-0.2,4.5-0.3c3.5,4.1,7.1,8.2,10.6,12.3c4.6-0.2,9.6-0.5,15.5-0.8
		c-1.9-2.4-3.1-4.1-4.4-5.6c-2.1-2.4-4.2-4.8-6.3-7.2c3.7-0.3,7.3-0.7,11-0.8c16.9-0.1,33.9-0.1,50.8-0.2
		c-14.3,11.3-28.6,22.6-43,33.8c-0.1-1.9,0.2-4-0.3-5.8c-1.2-3.9-1.2-9.3-6.5-9.8c-11.5-1.1-22.5,1.3-33.3,6.4
		c6.1,8,10.1,16.2,9.7,26c0,1.2,1.1,2.4,1.6,3.6c-1.1,0.4-2.3,0.9-3.4,1.3c0,0.5,0.1,1,0.1,1.5c17.5,0,35,0,51.4,0
		c3.4,5.4-1.3,11.3,4.8,15.6c0-5.6,0-10.2,0-14.4c31.6,0,63.2,0,94.8,0c0-0.5,0.1-1.1,0.1-1.6c-6.4-0.3-12.8-0.7-19.2-0.9
		c-15.2-0.3-30.3-0.4-45.5-0.7c-0.6,0-1.2-0.7-1.8-1.1l0,0.1c1.6-1.2,3.2-2.4,4.7-3.6l-0.1,0.1c1.2-0.8,2.4-1.6,3.6-2.4l-0.1,0.1
		c0.4-0.8,0.8-1.6,1.2-2.4l-0.1,0.1c1.6-0.8,3.2-1.6,4.8-2.4l-0.1,0.1c9.3-6.5,18.5-13.1,27.8-19.6c-0.4-0.6-0.8-1.1-1.2-1.7
		c-3.9,2.8-7.8,5.6-12.2,8.8c-1.8-11.1-3.4-21.4-5.1-31.8c16.7,0,33.3,0,50.9,0c-2.2,20.3-4.3,40.6-6.4,60.8c0.3,0.1,0.6,0.2,1,0.3
		c1-1.8,2-3.6,3-5.4c0.2,0.2,0.5,0.3,0.8,0.3c1.1,1.8,2.1,3.7,3.2,5.5c0.4-0.2,0.7-0.3,1.1-0.5c0-1.2,0-2.3,0-3.8
		c8.6,0,17.1,0,25.5,0c0-0.4,0-0.7,0-1.1c-10,0-19.9,0-29.9,0c0.3-0.4,0.2-0.7-0.1-1.1c6.1-11.5,12.2-23,18.3-34.6
		c0.9-1.7,1.4-3.5,2.1-5.3c5,3.3,10.1,6.4,15,9.9c1.4,1,3.3,3.1,3,4.3c-1.5,7.3-3.5,14.5-5.3,22c0.8-0.7,2.4-1.5,2.9-2.8
		c0.9-2.1,1-4.5,1.6-6.7c3-11.3,6.2-22.5,9.2-33.8C329.9,145.9,333.4,150.2,337,154.5C337,154.5,337,154.5,337,154.5z M254.1,153.5
		c3.5-2.2,7-4.3,10.5-6.5c-0.4-0.6-0.7-1.1-1.1-1.7c-3.5,2.4-6.9,4.8-10.4,7.2c-1.5,1.1-3,2.2-4.5,3.3c0.3,0.3,0.5,0.7,0.8,1
		C251,155.8,252.5,154.6,254.1,153.5z M218.7,235.5c2.2,1.8,4.5,3.6,6.7,5.4c0.3-0.4,0.7-0.8,1-1.3c-2.2-1.7-4.5-3.4-6.7-5.1
		c-4.5-3.1-9-6.3-13.5-9.4c-0.3,0.5-0.6,1-0.9,1.5C209.6,229.5,214.1,232.5,218.7,235.5z M120.1,189c1.9-11.6-0.3-17.8-7.8-25
		c-2.9-2.8-5.2-2.7-8.1-0.6c-4.9,3.5-10,6.7-14.6,10.5c-5.1,4.2-9.7,9.1-14.5,13.6c0.3,0.5,0.5,1,0.8,1.5
		C90.5,189,105.1,189,120.1,189z M288.9,210.3c0.4-0.9,0.7-1.8,1.1-2.7c-4.3-1.7-8.6-3.4-12.9-5.1c-0.2,0.6-0.5,1.2-0.7,1.8
		C280.5,206.3,284.7,208.3,288.9,210.3z M287.2,197.6c0.2-0.2,0.4-0.3,0.6-0.5c3.3,3.7,6.6,7.4,9.8,11.2c-0.1,0.1-0.2,0.1-0.3,0.2
		C294,204.8,290.6,201.2,287.2,197.6z M267.8,143.7c-0.3-0.3-0.6-0.7-1-1c-0.8,0.8-1.5,1.6-2.3,2.4c0.2,0.2,0.5,0.5,0.7,0.7
		C266.1,145.1,266.9,144.4,267.8,143.7z M314.2,188.7c-0.1,0.1-0.3,0.2-0.3,0.3c0,0.1,0.2,0.3,0.3,0.4c0.1-0.1,0.3-0.2,0.3-0.4
		C314.5,189,314.3,188.8,314.2,188.7z"/>
	<path class="st0" d="M213.2,134.1c5.1-0.2,10.1-0.3,15.2-0.5c1.3,9.5,2.3,19,4,28.4c0.6,3.6,0.2,5.6-2.9,7.7
		c-3.1,2.2-5.6,5.4-8.4,8.2c0,0,0.1-0.1,0.1-0.1c-1.6,0.8-3.2,1.6-4.8,2.4c0,0,0.1-0.1,0.1-0.1c-0.4,0.8-0.8,1.6-1.2,2.4
		c0,0,0.1-0.1,0.1-0.1c-1.2,0.8-2.4,1.6-3.6,2.4c0,0,0.1-0.1,0.1-0.1c-1.6,1.2-3.2,2.4-4.7,3.6c0,0,0-0.1,0-0.1
		c-2.5,0.4-5.1,1.2-7.6,1.1c-21.9-0.6-43.9-1.5-65.8-2.2c6.9-3.2,14.4-5.4,19.3-11.9c3.4-2.4,6.9-4.7,10.3-7.2
		c13.2-9.8,26.5-19.4,39.3-29.6C206.1,135.9,208.9,133.7,213.2,134.1z"/>
	<path class="st0" d="M108.3,235.8C74.5,230.4,40.7,225,5,219.3c8.4-9,16.1-17.2,23.8-25.5c15.5,3.5,31.1,7.1,46.6,10.5
		c6.2,1.4,12.9,1.6,17.2,7.5c0,0-0.1-0.1-0.1-0.1c1.2,1.6,2.4,3.2,3.6,4.7c0,0,0-0.1,0-0.1c0.4,1,0.7,2.1,1.3,3
		C101,225,104.7,230.4,108.3,235.8z"/>
	<path class="st0" d="M342.8,118.3c-0.2,2.1-0.4,4.2-0.6,6.3c-5.4,2.7-10.8,5.4-16.2,8.1c0.4,0.6,0.7,1.3,1.1,1.9
		c4.9-2.8,9.8-5.6,14.7-8.4c-0.8,8.6-1.6,17.3-2.6,25.9c-0.1,0.9-1.4,1.6-2.1,2.4c0,0,0,0,0,0c-1.8-5.9-4.5-11.2-10.3-14.2
		c-1.2,1.3-3.1,2.4-3.6,4c-1.5,4.5-2.6,9.2-3.9,14.3c-6.7-4.1-12.5-7.6-18.4-11.2c2.1-8,3.8-16,6.5-23.8c2.2-6.4,1.7-11.9-2.7-17.1
		c-1.1-1.3-1.8-2.9-2.7-4.4c0.6-1.3,1.6-2.6,1.7-4c0.6-6.3,3.7-7.2,9.5-5.8c5.5,1.3,11.4,0.8,17.1,1.2c3,4.9,6.1,9.7,9.1,14.6
		c-1.3,0.8-2.5,1.9-3.9,2.2c-6,1.1-12,1.9-19.3,2.9c7.4,2.2,13.7,4.2,20,5.8C338.1,119.3,340.5,118.5,342.8,118.3z"/>
	<path class="st1" d="M116.1,137.2c1,1.3,1.8,2.6,2.9,3.8c2.4,2.8,4.8,5.5,6.7,7.7c-10.6,5.6-20.6,10.2-29.7,16
		c-6.3,4-12,9.2-16.9,14.9c-5,5.8-9.6,9.5-17.7,6.8c-6.2-2.1-12.7-3.2-19.1-4.7c9.2-7.6,18-15.8,27.8-22.7
		c8.1-5.7,16.9-10.4,25.9-14.7C102.3,141,109.4,139.4,116.1,137.2z"/>
	<path class="st0" d="M228.1,43.5c7-3.1,14.1-6.2,21.1-9.3c0.4,6.2,0.8,12.3,1.2,18.5c0.8,0.1,1.6,0.1,2.4,0.2
		c0.8-5.8,1.5-11.7,2.3-17.5c10.1,5.5,20.2,10.9,30.3,16.4c0,0,0-0.1,0-0.1c-5.9,2.9-11.8,5.7-17.6,8.9c-3.2,1.8-6.2,4-9.3,6.1
		c-7.6-4-14.9,0.5-22.3,0.9c-7.9,0.5-15.7,1.9-23.5,3c0-2.9,0-5.7,0-8.9c6.3-1.7,12.6-3.4,18.8-5.1c6-1.7,11.9-3.6,17.8-5.4
		c-0.2-0.6-0.3-1.1-0.5-1.7c-5.7,1.6-11.5,3.1-17.9,4.9C229.9,50.4,229,46.9,228.1,43.5z"/>
	<path class="st0" d="M300.9,100.8c-8-18.2-24.2-26.3-41.1-33.6c9.8-7.8,19.6-10.5,29.8-0.6c2,1.9,5,2.8,7.5,4.2
		c1.6,0.9,3.2,2,4.8,2.9c0.4-0.6,0.8-1.3,1.2-1.9c-7.8-4.9-15.6-9.7-23-14.3c1.9-2.2,3.7-4.1,5.4-6c0,0,0,0.1,0,0.1
		c10,5.1,19.9,10.2,29.9,15.4c0.4,0.2,0.4,1.3,0.6,2c-4.3,2.1-8.5,4.2-12.8,6.3c0.2,0.4,0.4,0.8,0.7,1.2c0.6-0.1,1.1-0.2,1.7-0.3
		C303.9,84.5,302.4,92.7,300.9,100.8z M300.2,78.2l0.2-0.3l-0.4,0L300.2,78.2z"/>
	<path class="st0" d="M212.3,70.7c-7.1,1.4-14.4,4.8-21.2,3.8c-9.2-1.4-16.9,2.1-25,4.1c-6.3,1.5-11.1-0.7-17.2-4.4
		c7.6-2.7,14.2-4.8,20.6-7.4c18.8-7.4,37.6-15,56.4-22.6c1.1,3.4,2.1,6.8,3.2,10.4c-1.9,0.6-3.7,1.2-5.6,1.7
		c-11.9,2.7-24,5.1-35.8,8.3c-6.6,1.8-12.8,5-19.2,7.5c1,1.3,1.7,1.8,2.3,1.6c9.5-2.6,19.3-4.5,28.5-8.1c8.5-3.2,9.2-3.6,12,4.5
		C211.4,70.5,211.9,70.6,212.3,70.7z"/>
	<path class="st2" d="M213.2,134.1c-4.3-0.4-7.1,1.9-10.4,4.5c-12.9,10.2-26.2,19.8-39.3,29.6c-3.4,2.5-6.9,4.8-10.3,7.2
		c0.6-2.3,1.1-4.6,1.7-6.9c14.3-11.3,28.6-22.6,43-33.8C202.9,134.4,208.1,134.3,213.2,134.1z"/>
	<path class="st0" d="M316.8,70.5c4.1,6.9,8.2,13.8,12.3,20.8c-7.8-0.8-15.6-1.6-23.6-2.4c0.4-4.6,0.8-8.6,1.1-12.5
		C310.1,74.4,313.4,72.4,316.8,70.5z"/>
	<path class="st2" d="M212.3,70.7c-0.3-0.2-0.9-0.3-1-0.5c-2.8-8.1-3.5-7.7-12-4.5c-9.2,3.5-19,5.5-28.5,8.1
		c-0.6,0.2-1.3-0.3-2.3-1.6c6.4-2.6,12.6-5.7,19.2-7.5c11.8-3.2,23.8-5.5,35.8-8.3c1.8-0.4,3.6-1.1,5.6-1.7c-1.1-3.6-2.2-7-3.2-10.4
		c0.7-0.3,1.5-0.6,2.2-0.8c0.9,3.5,1.8,6.9,2.8,10.7c6.4-1.7,12.1-3.3,17.9-4.9c0.2,0.6,0.3,1.1,0.5,1.7c-5.9,1.8-11.9,3.7-17.8,5.4
		c-6.2,1.8-12.5,3.4-18.8,5.1c0,3.2,0,6.1,0,8.9c0,0-0.1,0.3-0.1,0.3L212.3,70.7z"/>
	<path class="st1" d="M136.1,135.6c2.1,2.4,4.3,4.8,6.3,7.2c1.3,1.6,2.6,3.2,4.4,5.6c-5.9,0.3-10.9,0.6-15.5,0.8
		c-3.6-4.1-7.1-8.2-10.6-12.3C125.8,136.5,130.9,136,136.1,135.6z"/>
	<path class="st2" d="M92.6,211.9c-4.3-5.9-11-6.1-17.2-7.5c-15.6-3.4-31.1-7-46.6-10.5c0.8-0.7,1.7-1.5,2.5-2.2
		c10.8,2.4,21.7,4.8,32.5,7.3c7.5,1.7,15.1,2.8,22.3,5.3C88.9,205.2,90.5,209.2,92.6,211.9z"/>
	<path class="st2" d="M221.2,178c2.8-2.8,5.2-6,8.4-8.2c3-2.2,3.5-4.1,2.9-7.7c-1.7-9.4-2.7-18.9-4-28.4c0.7,0,1.4,0,2.1,0
		c1.7,10.4,3.3,20.7,5.1,31.8c4.4-3.1,8.3-6,12.2-8.8c0.4,0.6,0.8,1.1,1.2,1.7C239.7,164.9,230.5,171.4,221.2,178z"/>
	<path class="st3" d="M342.8,118.3c-2.3,0.2-4.7,1-6.8,0.5c-6.4-1.5-12.6-3.6-20-5.8c7.3-1.1,13.3-1.9,19.3-2.9
		c1.4-0.2,2.6-1.4,3.9-2.2C340.4,111.4,341.6,114.8,342.8,118.3z"/>
	<path class="st2" d="M300.7,147.3c5.9,3.6,11.7,7.1,18.4,11.2c1.3-5,2.4-9.7,3.9-14.3c0.5-1.5,2.3-2.7,3.6-4
		c-0.1,0.4-0.1,0.9-0.2,1.3c-3.1,11.3-6.2,22.5-9.2,33.8c-0.6,2.2-0.7,4.6-1.6,6.7c-0.5,1.3-2.1,2.1-2.9,2.8
		c1.9-7.5,3.9-14.7,5.3-22c0.2-1.2-1.6-3.3-3-4.3c-4.9-3.5-10-6.6-15-9.9C300.2,148.3,300.5,147.8,300.7,147.3z"/>
	<path class="st2" d="M285.5,51.7c-1.7,1.9-3.4,3.8-5.4,6c7.4,4.6,15.2,9.4,23,14.3c-0.4,0.6-0.8,1.3-1.2,1.9c-1.6-1-3.2-2-4.8-2.9
		c-2.5-1.4-5.5-2.3-7.5-4.2c-10.2-9.9-20-7.2-29.8,0.6c-0.4-0.2-0.8-0.4-1.3-0.6c3.1-2,6-4.3,9.3-6.1
		C273.6,57.4,279.6,54.6,285.5,51.7z"/>
	<path class="st2" d="M306.7,76.3c-0.4,4-0.7,7.9-1.1,12.5c8,0.8,15.8,1.6,23.6,2.4c0.3,0.7,0.7,1.4,1,2.1
		c-5.7-0.3-11.6,0.1-17.1-1.2c-5.8-1.3-8.8-0.4-9.5,5.8c-0.1,1.4-1.1,2.7-1.7,4c-0.3-0.4-0.6-0.8-0.9-1.2c1.5-8.1,3-16.3,4.4-24.4
		C305.8,76.4,306.2,76.3,306.7,76.3z"/>
	<path class="st3" d="M255.2,35.3c-0.8,5.8-1.5,11.7-2.3,17.5c-0.8-0.1-1.6-0.1-2.4-0.2c-0.4-6.2-0.8-12.3-1.2-18.5
		C251.2,34.6,253.2,35,255.2,35.3z"/>
	<path class="st2" d="M108.3,235.8c-3.7-5.4-7.4-10.8-11-16.2c-0.6-0.9-0.9-2-1.3-3c1.2,0.8,2.8,1.3,3.7,2.3c4,5.1,7.9,10.4,12.1,16
		C110.5,235.2,109.5,235.5,108.3,235.8C108.4,235.8,108.3,235.8,108.3,235.8z"/>
	<path class="st2" d="M341.7,126.2c-4.9,2.8-9.8,5.6-14.7,8.4c-0.4-0.6-0.7-1.3-1.1-1.9c5.4-2.7,10.8-5.4,16.2-8.1
		C342,125.2,341.8,125.7,341.7,126.2z"/>
	<path class="st3" d="M306.7,76.3c-0.4,0-0.9,0-1.3,0c-0.6,0.1-1.1,0.2-1.7,0.3c-0.2-0.4-0.4-0.8-0.7-1.2c4.3-2.1,8.5-4.2,12.8-6.3
		c0.3,0.4,0.7,0.9,1,1.3C313.4,72.4,310.1,74.4,306.7,76.3z"/>
	<path class="st1" d="M313.7,193.2c0.4-0.4,0.8-0.7,1.2-1.1C314.5,192.5,314.1,192.9,313.7,193.2z"/>
	<path class="st2" d="M279.7,189.6c-0.3,0-0.6-0.1-0.8-0.3c0-0.4,0.2-0.7,0.6-0.7C279.9,188.9,279.9,189.3,279.7,189.6L279.7,189.6z
		"/>
	<path class="st1" d="M154.8,168.5c-0.6,2.3-1.1,4.6-1.7,6.9c-4.9,6.5-12.4,8.8-19.3,11.9c-2.6,0.5-5.2,1-7.9,1.5
		c-0.6-1.2-1.7-2.4-1.6-3.6c0.4-9.8-3.5-18-9.7-26c10.8-5,21.8-7.5,33.3-6.4c5.3,0.5,5.3,5.9,6.5,9.8
		C155.1,164.5,154.8,166.5,154.8,168.5z"/>
	<path class="st1" d="M120.1,189c-15,0-29.7,0-44.3,0c-0.3-0.5-0.5-1-0.8-1.5c4.8-4.6,9.4-9.4,14.5-13.6c4.6-3.8,9.7-7,14.6-10.5
		c2.9-2.1,5.3-2.2,8.1,0.6C119.8,171.3,122,177.5,120.1,189z"/>
	<path class="st2" d="M126,188.8c2.6-0.5,5.2-1,7.9-1.5c21.9,0.8,43.8,1.6,65.8,2.2c2.5,0.1,5.1-0.7,7.6-1.1
		c0.6,0.4,1.2,1.1,1.8,1.1c15.2,0.3,30.3,0.4,45.5,0.7c6.4,0.1,12.8,0.6,19.2,0.9c0,0.5-0.1,1.1-0.1,1.6c-31.6,0-63.2,0-94.8,0
		c0,4.3,0,8.8,0,14.4c-6.1-4.3-1.4-10.2-4.8-15.6c-16.4,0-33.9,0-51.4,0c0-0.5-0.1-1-0.1-1.5C123.7,189.7,124.9,189.3,126,188.8z"/>
	<path class="st2" d="M351.1,326.2c-2.4,3.9-4.3,0.6-6-0.6c-20.5-14.4-40.9-28.9-61.3-43.4c-11.4-8.1-22.7-16.2-33.5-25.3
		c4.2,2.6,8.6,4.9,12.7,7.7C292.4,285.1,321.7,305.7,351.1,326.2C351.1,326.3,351.1,326.2,351.1,326.2z"/>
	<path class="st2" d="M279.6,189.7c10,0,19.9,0,29.9,0c0,0.4,0,0.7,0,1.1c-8.5,0-16.9,0-25.5,0c0,1.5,0,2.7,0,3.8
		c-0.4,0.2-0.7,0.3-1.1,0.5C281.9,193.2,280.8,191.4,279.6,189.7C279.7,189.6,279.6,189.7,279.6,189.7z"/>
	<path class="st3" d="M288.9,210.3c-4.2-2-8.4-4-12.5-5.9c0.2-0.6,0.5-1.2,0.7-1.8c4.3,1.7,8.6,3.4,12.9,5.1
		C289.6,208.5,289.3,209.4,288.9,210.3z"/>
	<path class="st3" d="M326.4,141.6c0.1-0.4,0.1-0.9,0.2-1.3c5.8,3,8.5,8.3,10.3,14.2C333.4,150.2,329.9,145.9,326.4,141.6z"/>
	<path class="st2" d="M218.7,235.5c-4.5-3-9-5.9-13.5-8.9c0.3-0.5,0.6-1,0.9-1.5c4.5,3.1,9,6.3,13.5,9.4
		C219.3,234.8,219,235.1,218.7,235.5z"/>
	<path class="st2" d="M287.2,197.6c3.4,3.6,6.8,7.2,10.2,10.8c0.1-0.1,0.2-0.1,0.3-0.2c-3.3-3.7-6.6-7.4-9.8-11.2
		C287.6,197.2,287.4,197.4,287.2,197.6z"/>
	<path class="st2" d="M253.1,152.6c3.5-2.4,6.9-4.8,10.4-7.2c0.4,0.6,0.7,1.1,1.1,1.7c-3.5,2.2-7,4.3-10.5,6.5
		C253.8,153.2,253.5,152.9,253.1,152.6z"/>
	<path class="st2" d="M219.6,234.5c2.2,1.7,4.5,3.4,6.7,5.1c-0.3,0.4-0.7,0.8-1,1.3c-2.2-1.8-4.5-3.6-6.7-5.4
		C219,235.1,219.3,234.8,219.6,234.5z"/>
	<path class="st2" d="M96.1,216.5c-1.2-1.6-2.4-3.2-3.6-4.7C93.8,213.4,94.9,215,96.1,216.5z"/>
	<path class="st2" d="M207.2,188.5c1.6-1.2,3.2-2.4,4.7-3.6C210.3,186.1,208.8,187.3,207.2,188.5z"/>
	<path class="st2" d="M216.5,180.3c1.6-0.8,3.2-1.6,4.8-2.4C219.7,178.7,218.1,179.5,216.5,180.3z"/>
	<path class="st2" d="M267.8,143.7c-0.9,0.7-1.7,1.4-2.6,2.2c-0.2-0.2-0.5-0.5-0.7-0.7c0.8-0.8,1.5-1.6,2.3-2.4
		C267.1,143,267.5,143.3,267.8,143.7z"/>
	<path class="st2" d="M254.1,153.5c-1.6,1.1-3.1,2.3-4.7,3.4c-0.3-0.3-0.5-0.7-0.8-1c1.5-1.1,3-2.2,4.5-3.3
		C253.5,152.9,253.8,153.2,254.1,153.5z"/>
	<path class="st2" d="M211.9,185c1.2-0.8,2.4-1.6,3.6-2.4C214.2,183.4,213,184.2,211.9,185z"/>
	<path class="st2" d="M215.4,182.6c0.4-0.8,0.8-1.6,1.2-2.4C216.2,181,215.8,181.8,215.4,182.6z"/>
	<path class="st1" d="M314.2,188.7c0.1,0.1,0.3,0.2,0.3,0.4c0,0.1-0.2,0.2-0.3,0.4c-0.1-0.1-0.3-0.3-0.3-0.4
		C313.9,189,314.1,188.8,314.2,188.7z"/>
	<polygon class="st3" points="300.2,78.2 300,77.8 300.4,77.9 	"/>
</g>
</svg>
